<svg xmlns="http://www.w3.org/2000/svg" width="312.175" height="197.953" viewBox="0 0 312.175 197.953"><g transform="translate(7.246 32.792)"><g transform="translate(0 36.227)"><g style="isolation:isolate"><g transform="translate(186.151 38.456)"><path d="M527.209,47.507l-.008,2.95L408.435,119.475l.008-2.95Z" transform="translate(-408.435 -47.507)" fill="#2a4850"/></g><path d="M556.6,147.132l-.008,2.95L370.441,42.608l.009-2.95Z" transform="translate(-370.441 -39.658)" fill="#1e3238"/></g></g><g transform="translate(58.627)"><path d="M467,39.133l-72.7,42.246-11.9-6.869,72.7-42.247Z" transform="translate(-382.407 -32.263)" fill="#566b70"/><g transform="translate(112.489 64.963)"><path d="M467.747,48.724,410.912,81.753l-5.545-3.2L462.2,45.523Z" transform="translate(-405.367 -45.523)" fill="#566b70"/></g><g transform="translate(133.881 77.355)"><path d="M457.307,51.254,415.278,75.678l-5.545-3.2,42.03-24.424Z" transform="translate(-409.733 -48.052)" fill="#566b70"/></g></g></g><g transform="translate(7.246 32.792)"><g transform="translate(0 36.227)"><g style="isolation:isolate"><g transform="translate(186.151 38.456)"><path d="M527.209,47.507l-.008,2.95L408.435,119.475l.008-2.95Z" transform="translate(-408.435 -47.507)" fill="#2a4850"/></g><path d="M556.6,147.132l-.008,2.95L370.441,42.608l.009-2.95Z" transform="translate(-370.441 -39.658)" fill="#1e3238"/></g></g><g transform="translate(58.627)"><path d="M467,39.133l-72.7,42.246-11.9-6.869,72.7-42.247Z" transform="translate(-382.407 -32.263)" fill="#566b70"/><g transform="translate(112.489 64.963)"><path d="M467.747,48.724,410.912,81.753l-5.545-3.2L462.2,45.523Z" transform="translate(-405.367 -45.523)" fill="#566b70"/></g><g transform="translate(133.881 77.355)"><path d="M457.307,51.254,415.278,75.678l-5.545-3.2,42.03-24.424Z" transform="translate(-409.733 -48.052)" fill="#566b70"/></g></g></g><g transform="translate(7.246 32.792)"><g transform="translate(0 36.227)"><g style="isolation:isolate"><g transform="translate(186.151 38.456)"><path d="M527.209,47.507l-.008,2.95L408.435,119.475l.008-2.95Z" transform="translate(-408.435 -47.507)" fill="#2a4850"/></g><path d="M556.6,147.132l-.008,2.95L370.441,42.608l.009-2.95Z" transform="translate(-370.441 -39.658)" fill="#1e3238"/></g></g><g transform="translate(58.627)"><path d="M467,39.133l-72.7,42.246-11.9-6.869,72.7-42.247Z" transform="translate(-382.407 -32.263)" fill="#566b70"/><g transform="translate(112.489 64.963)"><path d="M467.747,48.724,410.912,81.753l-5.545-3.2L462.2,45.523Z" transform="translate(-405.367 -45.523)" fill="#566b70"/></g><g transform="translate(133.881 77.355)"><path d="M457.307,51.254,415.278,75.678l-5.545-3.2,42.03-24.424Z" transform="translate(-409.733 -48.052)" fill="#566b70"/></g></g></g><g transform="translate(7.246 32.792)"><g transform="translate(0 36.227)"><g style="isolation:isolate"><g transform="translate(186.151 38.456)"><path d="M527.209,47.507l-.008,2.95L408.435,119.475l.008-2.95Z" transform="translate(-408.435 -47.507)" fill="#2a4850"/></g><path d="M556.6,147.132l-.008,2.95L370.441,42.608l.009-2.95Z" transform="translate(-370.441 -39.658)" fill="#1e3238"/></g></g><g transform="translate(58.627)"><path d="M467,39.133l-72.7,42.246-11.9-6.869,72.7-42.247Z" transform="translate(-382.407 -32.263)" fill="#566b70"/><g transform="translate(112.489 64.963)"><path d="M467.747,48.724,410.912,81.753l-5.545-3.2L462.2,45.523Z" transform="translate(-405.367 -45.523)" fill="#566b70"/></g><g transform="translate(133.881 77.355)"><path d="M457.307,51.254,415.278,75.678l-5.545-3.2,42.03-24.424Z" transform="translate(-409.733 -48.052)" fill="#566b70"/></g></g></g><g transform="translate(7.246 32.792)"><g transform="translate(0 36.227)"><g style="isolation:isolate"><g transform="translate(186.151 38.456)"><path d="M527.209,47.507l-.008,2.95L408.435,119.475l.008-2.95Z" transform="translate(-408.435 -47.507)" fill="#2a4850"/></g><path d="M556.6,147.132l-.008,2.95L370.441,42.608l.009-2.95Z" transform="translate(-370.441 -39.658)" fill="#1e3238"/></g></g><g transform="translate(58.627)"><path d="M467,39.133l-72.7,42.246-11.9-6.869,72.7-42.247Z" transform="translate(-382.407 -32.263)" fill="#566b70"/><g transform="translate(112.489 64.963)"><path d="M467.747,48.724,410.912,81.753l-5.545-3.2L462.2,45.523Z" transform="translate(-405.367 -45.523)" fill="#566b70"/></g><g transform="translate(133.881 77.355)"><path d="M457.307,51.254,415.278,75.678l-5.545-3.2,42.03-24.424Z" transform="translate(-409.733 -48.052)" fill="#566b70"/></g></g></g><g transform="translate(7.246 32.792)"><g transform="translate(0 36.227)"><g style="isolation:isolate"><g transform="translate(186.151 38.456)"><path d="M527.209,47.507l-.008,2.95L408.435,119.475l.008-2.95Z" transform="translate(-408.435 -47.507)" fill="#2a4850"/></g><path d="M556.6,147.132l-.008,2.95L370.441,42.608l.009-2.95Z" transform="translate(-370.441 -39.658)" fill="#1e3238"/></g></g><g transform="translate(58.627)"><path d="M467,39.133l-72.7,42.246-11.9-6.869,72.7-42.247Z" transform="translate(-382.407 -32.263)" fill="#566b70"/><g transform="translate(112.489 64.963)"><path d="M467.747,48.724,410.912,81.753l-5.545-3.2L462.2,45.523Z" transform="translate(-405.367 -45.523)" fill="#566b70"/></g><g transform="translate(133.881 77.355)"><path d="M457.307,51.254,415.278,75.678l-5.545-3.2,42.03-24.424Z" transform="translate(-409.733 -48.052)" fill="#566b70"/></g></g></g><g transform="translate(7.246 32.792)"><g transform="translate(0 36.227)"><g style="isolation:isolate"><g transform="translate(186.151 38.456)"><path d="M527.209,47.507l-.008,2.95L408.435,119.475l.008-2.95Z" transform="translate(-408.435 -47.507)" fill="#2a4850"/></g><path d="M556.6,147.132l-.008,2.95L370.441,42.608l.009-2.95Z" transform="translate(-370.441 -39.658)" fill="#1e3238"/></g></g><g transform="translate(58.627)"><path d="M467,39.133l-72.7,42.246-11.9-6.869,72.7-42.247Z" transform="translate(-382.407 -32.263)" fill="#566b70"/><g transform="translate(112.489 64.963)"><path d="M467.747,48.724,410.912,81.753l-5.545-3.2L462.2,45.523Z" transform="translate(-405.367 -45.523)" fill="#566b70"/></g><g transform="translate(133.881 77.355)"><path d="M457.307,51.254,415.278,75.678l-5.545-3.2,42.03-24.424Z" transform="translate(-409.733 -48.052)" fill="#566b70"/></g></g></g><g transform="translate(7.246 32.792)"><g transform="translate(0 36.227)"><g style="isolation:isolate"><g transform="translate(186.151 38.456)"><path d="M527.209,47.507l-.008,2.95L408.435,119.475l.008-2.95Z" transform="translate(-408.435 -47.507)" fill="#2a4850"/></g><path d="M556.6,147.132l-.008,2.95L370.441,42.608l.009-2.95Z" transform="translate(-370.441 -39.658)" fill="#1e3238"/></g></g><g transform="translate(58.627)"><path d="M467,39.133l-72.7,42.246-11.9-6.869,72.7-42.247Z" transform="translate(-382.407 -32.263)" fill="#566b70"/><g transform="translate(112.489 64.963)"><path d="M467.747,48.724,410.912,81.753l-5.545-3.2L462.2,45.523Z" transform="translate(-405.367 -45.523)" fill="#566b70"/></g><g transform="translate(133.881 77.355)"><path d="M457.307,51.254,415.278,75.678l-5.545-3.2,42.03-24.424Z" transform="translate(-409.733 -48.052)" fill="#566b70"/></g></g></g><g transform="translate(7.246 32.792)"><g transform="translate(0 36.227)"><g style="isolation:isolate"><g transform="translate(186.151 38.456)"><path d="M527.209,47.507l-.008,2.95L408.435,119.475l.008-2.95Z" transform="translate(-408.435 -47.507)" fill="#2a4850"/></g><path d="M556.6,147.132l-.008,2.95L370.441,42.608l.009-2.95Z" transform="translate(-370.441 -39.658)" fill="#1e3238"/></g></g><g transform="translate(58.627)"><path d="M467,39.133l-72.7,42.246-11.9-6.869,72.7-42.247Z" transform="translate(-382.407 -32.263)" fill="#566b70"/><g transform="translate(112.489 64.963)"><path d="M467.747,48.724,410.912,81.753l-5.545-3.2L462.2,45.523Z" transform="translate(-405.367 -45.523)" fill="#566b70"/></g><g transform="translate(133.881 77.355)"><path d="M457.307,51.254,415.278,75.678l-5.545-3.2,42.03-24.424Z" transform="translate(-409.733 -48.052)" fill="#566b70"/></g></g></g><g transform="translate(7.246 16.435)"><g style="isolation:isolate"><g transform="translate(186.151 107.474)"><path d="M527.209,50.861l-.008,2.95L408.435,122.83l.008-2.95Z" transform="translate(-408.435 -50.861)" fill="#7092c4"/></g><g transform="translate(0 69.018)"><path d="M556.6,150.487l-.008,2.95L370.441,45.962l.009-2.95Z" transform="translate(-370.441 -43.012)" fill="#1e3238"/></g><g transform="translate(0.008)"><path d="M675.359,136.4,556.594,205.418,370.443,97.943,489.207,28.925Z" transform="translate(-370.443 -28.925)" fill="#b7bfb7"/></g></g></g><path d="M521.534,61,408.043,126.51V113.7L521.534,48.2Z" transform="translate(-216.567 62.655)" fill="#b7bfb7"/><g transform="translate(193.397 107.474)"><path d="M527.209,47.507l-.008,2.95L408.435,119.475l.008-2.95Z" transform="translate(-408.435 -47.507)" fill="#85a2cd"/></g><g transform="translate(7.246 69.018)"><path d="M556.6,147.132l-.008,2.95L370.441,42.608l.009-2.95Z" transform="translate(-370.441 -39.658)" fill="#1e3238"/></g><g transform="translate(7.258)"><path d="M675.36,133.045,556.595,202.064,370.443,94.589,489.208,25.57Z" transform="translate(-370.443 -25.57)" fill="#6591d0"/></g><g transform="translate(0 69.02)" style="isolation:isolate"><g transform="translate(183.767 107.473)"><path d="M416.107,61.594l-5.012.039a10.1,10.1,0,0,0-4.625,7.78l2.386,10.426c0,2.856,2,4.027,4.468,2.616l2.783-1.6Z" transform="translate(-406.47 -61.594)" fill="#7092c4"/></g><path d="M559.578,148.728a9.872,9.872,0,0,0-4.464,7.741v8.907a3.154,3.154,0,0,0,1.323,2.915L370.285,60.818a3.159,3.159,0,0,1-1.323-2.915V48.991a9.856,9.856,0,0,1,4.468-7.736l2.788-1.6L562.366,147.131Z" transform="translate(-368.962 -39.658)" fill="#9cc0f4"/></g></svg>