<svg xmlns="http://www.w3.org/2000/svg" xmlns:xlink="http://www.w3.org/1999/xlink" width="270.869" height="259.168" viewBox="0 0 270.869 259.168"><defs><clipPath id="a"><path d="M362.663,318.622l97.387-56.791,95.743,55.281L458.423,373.9Z" transform="translate(-362.663 -261.832)" fill="none"/></clipPath></defs><path d="M379.463,261.538l39.433,3.679,97.01,56.919-39.434-3.68Z" transform="translate(-245.037 -204.798)" fill="#edc895"/><path d="M480.316,308.4,458.05,251.751l-99.644,58.441,22.267,56.651Z" transform="translate(-346.061 -251.751)" fill="#e3bf8f"/><g transform="translate(33.427 56.491)"><g style="isolation:isolate"><g transform="translate(99.11 57.221)"><path d="M480.117,271.365l-.246,86.711L379.137,416.821l.246-86.71Z" transform="translate(-379.137 -271.365)" fill="#ddb176"/></g><g transform="translate(0 58.745)"><path d="M461.4,328.849l-.246,86.711-99.11-57.221.246-86.711Z" transform="translate(-362.042 -271.628)" fill="#c19564"/></g><g transform="translate(0.246)"><path d="M561.929,318.717,461.2,377.462l-99.11-57.221L462.819,261.5Z" transform="translate(-362.085 -261.495)" fill="#fcd9a9"/><path d="M362.663,318.622l97.387-56.791,95.743,55.281L458.423,373.9Z" transform="translate(-359.309 -259.882)" fill="#deb277"/><path d="M380.808,348.587V261.832l95.743,55.281L379.18,373.9Z" transform="translate(-280.066 -259.882)" fill="#be9c70"/></g></g><g transform="translate(111.435 69.052)"><path d="M429.344,299.493l-41.036,23.693V297.1l41.036-23.693Z" transform="translate(-347.466 -273.406)" fill="#e5e5e5"/><path d="M421.423,288.542l-40.16,23.185v-3.519l40.16-23.185Zm-5.572,7.085-29.017,16.749v1.357l29.017-16.755Zm0,4.395-29.017,16.755v1.351l29.017-16.755Zm0,4.395-29.017,16.755v1.357l29.017-16.755Zm0,4.4-29.017,16.749v1.357l29.017-16.755Zm0,4.395-29.017,16.755v1.351l29.017-16.755Z" transform="translate(-381.263 -217.67)" fill="#363633" opacity="0.4"/><path d="M418.413,274.629,389.4,291.384v1.351l29.017-16.755Zm0,4.395L389.4,295.779v1.351l29.017-16.755Zm0,4.395L389.4,300.173v1.357l29.017-16.755Zm0,4.4L389.4,304.574v1.351l29.017-16.755Zm0,4.395L389.4,308.968v1.351l29.017-16.749Z" transform="translate(-342.244 -267.537)" fill="#363633" opacity="0.4"/></g></g><path d="M513.716,321l-33.8-49.634L379.179,330.11l33.8,49.633Z" transform="translate(-246.397 -157.652)" fill="#edc895"/><path d="M356.277,321.259l33.8-49.634,99.138,57.237-33.8,49.633Z" transform="translate(-356.277 -156.405)" fill="#e3bf8f"/><path d="M375.581,290.067l20.865,12.046,22.488-13.273L398.074,276.8Z" transform="translate(-263.66 -131.6)" fill="#edc895"/><g transform="translate(37.027 58.441)"><g clip-path="url(#a)"><path d="M533.7,311.886a12.039,12.039,0,0,0-1.612-1c1.27-1.739,1.994-3.67,1.119-4.412-1.565-1.328-4.632.916-6.094,3.368a4.453,4.453,0,0,0-.081-.945c1.258-1.734,1.983-3.658,1.107-4.4-.168-.139-.4-.093-.591-.156a1.776,1.776,0,0,0-.412-1.229c-1.125-1.27-3.9.389-5.774,2.371-.081-.093-.11-.238-.209-.313,1.229-1.374,1.867-2.957.91-4.035-1.3-1.467-4.87.98-6.6,3.322-.029-.168-.18-.273-.255-.423a3.466,3.466,0,0,0,.064-.585c1.363-.446,2.36-1.125,2.29-1.96-.093-1.078-1.218-1.71-2.632-2,.423-1.241.417-2.4-.516-3.026-1.386-.922-3.641,1.316-4.974,3.67a3.785,3.785,0,0,0-.563.406,2.286,2.286,0,0,0-.614-.168,8.823,8.823,0,0,0,1.7-2.968,1.827,1.827,0,0,0,.406-1.484,1.342,1.342,0,0,0-.621-.829c-.133-.2-.185-.452-.406-.6a1.566,1.566,0,0,0-1.531.035,10.852,10.852,0,0,0-2.557.18,1.774,1.774,0,0,0,.041-.765c-.157-.812-1.026-1.235-2.18-1.368a2.246,2.246,0,0,0-.325-2.6c-1.42-1.322-4.725,1.368-6.256,3.844a4.758,4.758,0,0,0-.614-.133,3.384,3.384,0,0,1,.232-.446,1.127,1.127,0,0,0,.846-.185,1.89,1.89,0,0,0,.591-1.629c.754-1.287,1.026-2.592.128-3.426a1.588,1.588,0,0,0-1.594-.243c-1.478-1.994-3.687-3.461-5.114-2.261a15.562,15.562,0,0,0-1.948-1.635c.615-1.044.881-2.018.377-2.563-1.5-1.618-5.206.643-6.818,3.113a4.029,4.029,0,0,0-.406-.174c.041-.1.116-.2.151-.3,1.658-1.647,2.841-3.7,2-4.609-.945-1.02-2.748-.481-4.366.649a5.853,5.853,0,0,0-3.049-2.081,1.193,1.193,0,0,0,.238-1.009c-.452-1.583-2.957-1.722-5.27-1.1a1.168,1.168,0,0,0,.2-.87c-.215-.742-.939-1.107-1.815-1.3a8.531,8.531,0,0,0-4.9-3.571,3.224,3.224,0,0,0-2.052-.406c-.394.017-1.542-1.038-1.989-1.229a7.007,7.007,0,0,1-1.907-.789c-1.1-.922-1.693-2.145-3.287-2.51a5.186,5.186,0,0,0-1.89.046c-1.194.174-2.018.075-3,.887a8.528,8.528,0,0,0-2.2,3.1,9.753,9.753,0,0,0-2.006.939c.557-1.664.626-3.212-.232-3.658-2.226-1.165-5.456,3.363-5.531,6.354a1.844,1.844,0,0,0-.643.91c-2.771-1.113-7.073-.933-7.27,1.484-.116,1.432,2.151,2.261,4.5,2.487a3.917,3.917,0,0,0,.678,1.444,4.388,4.388,0,0,0-1.449-.238c-1.212-1.42-2.609-2.377-3.548-1.716-1.165-.377-2.185-.423-2.609.2-.551.812-.209,1.867.527,2.887a1.716,1.716,0,0,0-.417.6c-.18-.069-.348-.128-.527-.2-1.322-1.792-3.026-3.16-4.018-2.522-.759.487-.916,1.461-.823,2.661a2.259,2.259,0,0,0,.7,2.394c-.11-.012-.232-.058-.336-.064-2.354-1.745-6.8-2.882-7.491-1.264-.487,1.148.447,2.435,1.873,3.421a6.378,6.378,0,0,0,.388.545,2.681,2.681,0,0,0-2.1-.116c-1.994-1.681-4.661-2.9-5.519-1.8-.98,1.247.215,3.281,1.954,4.783a9.413,9.413,0,0,0-1.861,2.574,1.178,1.178,0,0,0-.162.452c-.1.1-.2.2-.3.3-.11-.087-.221-.186-.331-.261,1.142-1.432,1.687-3.038.678-4.058-1.571-1.583-5.867,2.029-7.015,4.644-.933.139-1.722.481-1.977,1.322a1.588,1.588,0,0,0,.475,1.432c-2.4-1.832-6.864-2.789-7.6-.365-.325,1.084.858,2.134,2.476,2.887-.133.07-.261.139-.383.215-2.1-1.473-9.143.957-8.731,3.137a11.161,11.161,0,0,0-4.325,3.258c-1.159-1.385-2.6-2.215-3.792-1.449-1.362.876-.313,3.716,1.217,5.891-2.452-1.038-7.148-.2-7.925,1.954-2.261-.7-4.7-.585-5.177,1.125-.255.922.574,1.792,1.815,2.47a2.164,2.164,0,0,0-.4.435c-2.852-1-7.5-.47-7.461,2.064.029,1.513,2.621,2.151,5.119,2.076.151,1.438,2.655,2.052,5.09,1.971-.464.017.087,2.98.29,3.3.794,1.293,2.127.73,3.392.985,1.339.267,1.664,1.56,2.8,1.861a1.772,1.772,0,0,0,1.716-.806,12.841,12.841,0,0,0,1.531.829c-.528,1.786,3.055,3.658,5.884,4.11a2.027,2.027,0,0,0-.609,2.006c.452,1.415,3.009,1.27,5.334.516a1.773,1.773,0,0,0-.267,1.461c.272.852,1.333,1.119,2.626,1.061A7.372,7.372,0,0,0,399.543,338c.046.145.018.307.11.452.557.852,1.9.7,3.339.122a7.141,7.141,0,0,0,1.623,1.4c.046.151.012.313.1.452.58.887,2,.69,3.508.052-.319,1.165-.325,2.168.313,2.557a2.184,2.184,0,0,0,2.313-.249,1.9,1.9,0,0,0-.435,1.664c.394,1.42,2.928,1.391,5.276.742a1.646,1.646,0,0,0-.2,1.235c.18.661.887.968,1.774,1.09a8.1,8.1,0,0,0,5.838,2.731c1.7,1.432,4.238,2.435,5.8,1.872-1.014,1.618-1.589,3.392-.441,4.412,1.583,1.409,5.282-2.018,6.488-4.661.238-.093.446-.2.667-.3A7.873,7.873,0,0,1,435.2,353c-1.849,1.739-3.1,4.221-1.664,5.5a1.41,1.41,0,0,0,1.159.267c.876,1.229,3.241,1.032,5.351.116-.493.563-.748,1.125-.539,1.618.661,1.565,3.3,1.345,5.566.377a11.807,11.807,0,0,0,.852,1.316,1.434,1.434,0,0,0,.174.493c.081.1.267.041.371.116,1.478,1.664,3.3,2.887,4.232,2.145.22-.18.22-.487.319-.742,1.542,1.965,3.711,3.548,4.754,2.713.829-.661.719-1.919.2-3.229.73.383,1.409.545,1.855.186.238-.186.238-.51.342-.783,1.542,1.983,3.687,3.595,4.731,2.76.87-.7.748-2.029.157-3.409,1.623.168,3.844-1.594,5.078-3.577,1.16-.023,2.545-.928,3.8-2.162a9.751,9.751,0,0,0,1.606-2.91c.151-.046.336-.023.446-.134.093-.081.093-.209.157-.307,1.71,1.8,3.96,3.189,4.916,2.284,1.165-1.1.244-3.322-1.293-5.067a7.013,7.013,0,0,0,1.194-2.081,15.065,15.065,0,0,0,1.571-1.786c.128.145.215.319.354.458-1.5,1.774-2.493,3.884-1.577,4.708,1.513,1.374,4.615-.742,6.169-3.125.087-.058.191-.064.273-.139a1.4,1.4,0,0,0,.336-1.078,2.942,2.942,0,0,0,.185-1.5,1.872,1.872,0,0,0,1.368-.4c1.617,1.879,3.9,3.218,5.235,1.907.8-.789.272-2.267-.765-3.7,2.337,1.89,8.424-3.624,7.027-6.389,1.571,1.67,3.629,2.742,4.882,1.548a1.8,1.8,0,0,0,.209-1.9,5.827,5.827,0,0,0,3.5-1.809,2.224,2.224,0,0,0,2.511-.447c.5-.574.226-1.438-.273-2.348a4.775,4.775,0,0,0,1.8-.446c1.78,1.89,4.319,3.212,5.6,1.728.69-.8.151-2.116-.87-3.386,2.284.22,5.937-2.916,6.337-5.363a3.782,3.782,0,0,0,1.293-.406c1.531,1.542,3.467,2.464,4.667,1.328a1.9,1.9,0,0,0,.174-2.093c2.568,1.038,7.583-4.331,6.18-6.882,2.081,1.444,4.742,2.157,5.7.51C542.09,315.353,536.3,311.631,533.7,311.886Z" transform="translate(-354.34 -246.44)" fill="#e8e8e8"/></g></g></svg>