<svg xmlns="http://www.w3.org/2000/svg" width="97.636" height="42.674" viewBox="0 0 97.636 42.674"><path d="M449.176,153.949c-4.062-3.9-5.743-7.9-11.338-9.154a10.542,10.542,0,0,1-3.341-1.015c-2.724-1.692-2.169-5.553-2.779-8.61-1.2-6.022-9.071-9.828-14.837-7.18-2.415,1.111-4.6,3.157-7.276,2.974-5.34-.363-4.7-6.95-8.35-10.707-3.447-3.548-10.468-4.011-14.948-1.762a22.922,22.922,0,0,0-7.867,6.389c-2.172,2.812-2.074,7.161-3.676,10.261-1.527,3-5.184,4.3-6.78,7.249a8.982,8.982,0,0,0-.681,7.978c2.28,5.474,8.972,9.423,15.039,9.423h81.953S453.7,158.288,449.176,153.949Z" transform="translate(-366.658 -117.122)" fill="#f3faff"/></svg>