<svg xmlns="http://www.w3.org/2000/svg" width="94.525" height="41.315" viewBox="0 0 94.525 41.315"><path d="M539,173.655c3.932-3.772,5.56-7.65,10.977-8.863a10.2,10.2,0,0,0,3.235-.983c2.637-1.639,2.1-5.376,2.691-8.334,1.166-5.83,8.781-9.516,14.364-6.951,2.338,1.074,4.458,3.054,7.044,2.879,5.169-.353,4.55-6.729,8.083-10.366,3.336-3.435,10.135-3.885,14.472-1.707a22.224,22.224,0,0,1,7.615,6.186c2.1,2.725,2.009,6.933,3.56,9.935,1.479,2.9,5.02,4.163,6.564,7.017a8.692,8.692,0,0,1,.659,7.724c-2.207,5.3-8.685,9.123-14.559,9.123H524.368S534.623,177.855,539,173.655Z" transform="translate(-524.368 -138.001)" fill="#f3faff"/></svg>