<svg xmlns="http://www.w3.org/2000/svg" width="144.409" height="47.955" viewBox="0 0 144.409 47.955">
  <g id="Group_263" data-name="Group 263" transform="translate(-5247 301.52)">
    <g id="Group_248" data-name="Group 248" transform="translate(5247 -303)">
      <path id="Path_249" data-name="Path 249" d="M5.98,32.93h7.98v4.58H0V12.77H5.98Z" fill="#fff"/>
      <path id="Path_250" data-name="Path 250" d="M33,28.83H19.46A4.515,4.515,0,0,0,20.58,32a3.623,3.623,0,0,0,2.59.96,3.523,3.523,0,0,0,2.21-.67,3.091,3.091,0,0,0,1.15-1.71h6.33a8.3,8.3,0,0,1-1.68,3.69,8.88,8.88,0,0,1-3.29,2.55,10.545,10.545,0,0,1-4.45.93,10.436,10.436,0,0,1-5.09-1.21,8.575,8.575,0,0,1-3.48-3.48,10.814,10.814,0,0,1-1.26-5.32,10.917,10.917,0,0,1,1.24-5.34,8.527,8.527,0,0,1,3.48-3.46,10.656,10.656,0,0,1,5.11-1.21,10.623,10.623,0,0,1,5.11,1.19,8.375,8.375,0,0,1,3.41,3.34,10,10,0,0,1,1.21,4.95A7.322,7.322,0,0,1,33,28.83Zm-6.91-5.41a3.8,3.8,0,0,0-2.64-.96,3.923,3.923,0,0,0-2.73.98,4.093,4.093,0,0,0-1.22,2.87h7.63A3.639,3.639,0,0,0,26.09,23.42Z" fill="#fff"/>
      <path id="Path_251" data-name="Path 251" d="M43.22,31.67l4.23-13.69h6.37L46.9,37.51H39.48L32.55,17.98h6.37Z" fill="#fff"/>
      <path id="Path_252" data-name="Path 252" d="M72.59,28.83H59.04A4.515,4.515,0,0,0,60.16,32a3.623,3.623,0,0,0,2.59.96,3.523,3.523,0,0,0,2.21-.67,3.091,3.091,0,0,0,1.15-1.71h6.34a8.3,8.3,0,0,1-1.68,3.69,8.88,8.88,0,0,1-3.29,2.55,11.218,11.218,0,0,1-9.54-.28,8.575,8.575,0,0,1-3.48-3.48,10.814,10.814,0,0,1-1.26-5.32,10.917,10.917,0,0,1,1.24-5.34,8.527,8.527,0,0,1,3.48-3.46,11.48,11.48,0,0,1,10.22-.02,8.375,8.375,0,0,1,3.41,3.34,10,10,0,0,1,1.21,4.95A7.975,7.975,0,0,1,72.59,28.83Zm-6.91-5.41a3.8,3.8,0,0,0-2.64-.96,3.923,3.923,0,0,0-2.73.98,4.093,4.093,0,0,0-1.22,2.87h7.63A3.674,3.674,0,0,0,65.68,23.42Z" fill="#fff"/>
      <path id="Path_253" data-name="Path 253" d="M91.51,20.01a8.977,8.977,0,0,1,1.98,6.16V37.51H87.5V26.87a4.277,4.277,0,0,0-1.03-3.06,3.565,3.565,0,0,0-2.75-1.1,3.745,3.745,0,0,0-2.89,1.15,4.686,4.686,0,0,0-1.07,3.29V37.51H73.78V17.98h5.98v3.57a6.358,6.358,0,0,1,2.5-2.76,7.407,7.407,0,0,1,3.9-1.02A6.786,6.786,0,0,1,91.51,20.01Z" fill="#fff"/>
      <path id="Path_254" data-name="Path 254" d="M113.71,28.83H100.17A4.515,4.515,0,0,0,101.29,32a3.623,3.623,0,0,0,2.59.96,3.523,3.523,0,0,0,2.21-.67,3.091,3.091,0,0,0,1.15-1.71h6.33a8.3,8.3,0,0,1-1.68,3.69,8.88,8.88,0,0,1-3.29,2.55,10.545,10.545,0,0,1-4.45.93,10.436,10.436,0,0,1-5.09-1.21,8.575,8.575,0,0,1-3.48-3.48,10.814,10.814,0,0,1-1.26-5.32,10.917,10.917,0,0,1,1.24-5.34,8.527,8.527,0,0,1,3.48-3.46,11.48,11.48,0,0,1,10.22-.02,8.375,8.375,0,0,1,3.41,3.34,10,10,0,0,1,1.21,4.95A7.322,7.322,0,0,1,113.71,28.83Zm-6.91-5.41a3.8,3.8,0,0,0-2.64-.96,3.923,3.923,0,0,0-2.73.98,4.093,4.093,0,0,0-1.22,2.87h7.63A3.639,3.639,0,0,0,106.8,23.42Z" fill="#fff"/>
    </g>
    <g id="Group_261" data-name="Group 261" transform="translate(5364.983 -301.52)">
      <g id="Path_238_2_" transform="translate(5.218)">
        <path id="Path_259" data-name="Path 259" d="M-5347.375,366.45l-2.287,3.571-.28.44-2.338-3.948.535-.006Z" transform="translate(5354.015 -353.391)" fill="#fff"/>
        <path id="Path_260" data-name="Path 260" d="M-5330.555,375.605l-5.58.029-.2-.331.279-.438,2.777-4.324,2.47,4.6Z" transform="translate(5341.348 -356.639)" fill="#fff"/>
        <path id="Path_261" data-name="Path 261" d="M-5339.5,312.336l-5.279,9.14-4.351.023-3.332-6.2-.022-.041-.043-.091-.031-.068-.006-.016,0-.01-6.424.1-1.714-2.892,5.277-9.159,9.828-.13-5.483,8.585,2.956,4.584a.921.921,0,0,0,.778.436h.019a.933.933,0,0,0,.488-.146.928.928,0,0,0,.28-1.28l-2.324-3.6,4.888-7.613Z" transform="translate(5360.709 -303)" fill="#fff"/>
        <path id="Path_256_1_" d="M-5345.287,372.579l-.25-.461-5.063.027-.183-.307-.28.438-.284.44.21.354,6.1-.029Zm-8.523-5.849-.535.006-.535.008,2.591,4.378.282-.438.28-.44Z" transform="translate(5356.08 -353.613)" fill="#fff"/>
      </g>
      <g id="Path_239_2_" transform="translate(0 13.051)">
        <path id="Path_262" data-name="Path 262" d="M-5343.931,310.571l-4.186,7.241-8.271.047-4.343-7.325,4.195-7.243,2.221-.029.536-.008.535-.006,4.369-.058-2.287,3.571-.279.44-.282.438-1.5,2.338,2.4,3.715a.787.787,0,0,0,.713.4.848.848,0,0,0,.444-.13.837.837,0,0,0,.251-1.157l-1.834-2.844.466-.724.283-.44.28-.438,2.776-4.324,2.47,4.6.249.461.247.463Z" transform="translate(5360.73 -303.19)" fill="#4e9e45"/>
      </g>
    </g>
    <g id="Group_262" data-name="Group 262" transform="translate(5247 -258.995)">
      <g id="Group_247_3_" transform="translate(-1.3 -50.34)">
        <path id="Path_231_3_" d="M5.69,50.41V55.7H4.63V53.4H2.36v2.3H1.3V50.41H2.36v2.14H4.63V50.41Z" fill="#4e9e45"/>
        <path id="Path_232_3_" d="M13.17,50.41l-1.79,3.44V55.7H10.32V53.85l-1.8-3.44H9.74l1.12,2.32,1.12-2.32Z" fill="#4e9e45"/>
        <path id="Path_233_3_" d="M20.32,54.44a2.267,2.267,0,0,1-.96.93,3.186,3.186,0,0,1-1.49.33H15.99V50.41h1.88a3.186,3.186,0,0,1,1.49.33,2.363,2.363,0,0,1,.96.92A3.092,3.092,0,0,1,20.32,54.44Zm-1.22-.13a1.647,1.647,0,0,0,.47-1.26,1.669,1.669,0,0,0-.47-1.27,1.822,1.822,0,0,0-1.32-.45h-.73v3.43h.73A1.822,1.822,0,0,0,19.1,54.31Z" fill="#4e9e45"/>
        <path id="Path_234_3_" d="M26.45,55.71l-1.24-2.06h-.46v2.06H23.69V50.42h2.02a2.059,2.059,0,0,1,1.41.45,1.555,1.555,0,0,1,.48,1.18,1.509,1.509,0,0,1-.33,1,1.608,1.608,0,0,1-.96.54l1.32,2.12Zm-1.7-2.79h.87c.6,0,.91-.27.91-.8a.829.829,0,0,0-.22-.6.95.95,0,0,0-.69-.21h-.87Z" fill="#4e9e45"/>
        <path id="Path_235_3_" d="M34.39,50.68a2.5,2.5,0,0,1,.95.96,2.956,2.956,0,0,1,0,2.8,2.529,2.529,0,0,1-.95.97,2.667,2.667,0,0,1-1.35.35,2.772,2.772,0,0,1-1.35-.35,2.462,2.462,0,0,1-.95-.97,2.956,2.956,0,0,1,0-2.8,2.5,2.5,0,0,1,.95-.96A2.869,2.869,0,0,1,34.39,50.68Zm-2.16.84a1.387,1.387,0,0,0-.55.6,2.191,2.191,0,0,0,0,1.84,1.387,1.387,0,0,0,.55.6,1.706,1.706,0,0,0,1.64,0,1.387,1.387,0,0,0,.55-.6,2.191,2.191,0,0,0,0-1.84,1.387,1.387,0,0,0-.55-.6A1.706,1.706,0,0,0,32.23,51.52Z" fill="#4e9e45"/>
        <path id="Path_236_3_" d="M42.77,50.87a2.38,2.38,0,0,1,.86,1.39H42.52a1.321,1.321,0,0,0-.54-.67,1.5,1.5,0,0,0-.87-.25,1.451,1.451,0,0,0-.76.21,1.322,1.322,0,0,0-.52.6,2.23,2.23,0,0,0-.19.92,2.039,2.039,0,0,0,.19.91,1.375,1.375,0,0,0,.52.6,1.451,1.451,0,0,0,.76.21,1.5,1.5,0,0,0,.87-.25,1.536,1.536,0,0,0,.54-.67h1.11a2.431,2.431,0,0,1-.86,1.39,2.857,2.857,0,0,1-2.98.17,2.312,2.312,0,0,1-.9-.96,3.178,3.178,0,0,1,0-2.79,2.312,2.312,0,0,1,.9-.96,2.622,2.622,0,0,1,1.34-.34A2.47,2.47,0,0,1,42.77,50.87Z" fill="#4e9e45"/>
        <path id="Path_237_3_" d="M49.9,54.64H47.78l-.38,1.07H46.28l1.95-5.24h1.21l1.94,5.24H50.26Zm-.28-.8-.78-2.24-.78,2.24Z" fill="#4e9e45"/>
        <path id="Path_238_3_" d="M56.97,55.71l-1.24-2.06h-.46v2.06H54.21V50.42h2.02a2.059,2.059,0,0,1,1.41.45,1.555,1.555,0,0,1,.48,1.18,1.509,1.509,0,0,1-.33,1,1.608,1.608,0,0,1-.96.54l1.32,2.12Zm-1.7-2.79h.87c.6,0,.91-.27.91-.8a.829.829,0,0,0-.22-.6.95.95,0,0,0-.69-.21h-.87Z" fill="#4e9e45"/>
        <path id="Path_239_3_" d="M64.8,53.43a1.338,1.338,0,0,1,.29.84,1.281,1.281,0,0,1-.45,1.05,1.936,1.936,0,0,1-1.29.39H61.08V50.42h2.23a1.869,1.869,0,0,1,1.23.35,1.206,1.206,0,0,1,.43.99,1.248,1.248,0,0,1-.26.81,1.149,1.149,0,0,1-.68.41A1.249,1.249,0,0,1,64.8,53.43Zm-2.66-.8h.95a.857.857,0,0,0,.6-.18.658.658,0,0,0,.21-.51.649.649,0,0,0-.2-.51.924.924,0,0,0-.62-.18h-.94Zm1.65,2.03a.746.746,0,0,0,.02-1.06l-.02-.02a.958.958,0,0,0-.65-.19h-1v1.46h1A1.077,1.077,0,0,0,63.79,54.66Z" fill="#4e9e45"/>
        <path id="Path_240_3_" d="M71.91,50.68a2.5,2.5,0,0,1,.95.96,2.956,2.956,0,0,1,0,2.8,2.529,2.529,0,0,1-.95.97,2.667,2.667,0,0,1-1.35.35,2.772,2.772,0,0,1-1.35-.35,2.462,2.462,0,0,1-.95-.97,2.956,2.956,0,0,1,0-2.8,2.5,2.5,0,0,1,.95-.96A2.869,2.869,0,0,1,71.91,50.68Zm-2.16.84a1.387,1.387,0,0,0-.55.6,2.191,2.191,0,0,0,0,1.84,1.387,1.387,0,0,0,.55.6,1.706,1.706,0,0,0,1.64,0,1.387,1.387,0,0,0,.55-.6,2.191,2.191,0,0,0,0-1.84,1.387,1.387,0,0,0-.55-.6,1.706,1.706,0,0,0-1.64,0Z" fill="#4e9e45"/>
        <path id="Path_241_3_" d="M80.74,55.71H79.68l-2.37-3.6v3.6H76.25V50.42h1.06l2.37,3.63V50.42h1.06Z" fill="#4e9e45"/>
        <path id="Path_242_3_" d="M88.89,54.9h1.78v.81H87.84V50.42H88.9V54.9Z" fill="#4e9e45"/>
        <path id="Path_243_3_" d="M94.61,50.41V55.7H93.55V50.41Z" fill="#4e9e45"/>
        <path id="Path_244_3_" d="M103.53,50.47v5.24h-1.05V52.06l-1.34,3.65h-.92l-1.34-3.64v3.64H97.82V50.47H99.1l1.59,3.94,1.56-3.94Z" fill="#4e9e45"/>
        <path id="Path_245_3_" d="M107.79,50.41V55.7h-1.06V50.41Z" fill="#4e9e45"/>
        <path id="Path_246_3_" d="M114.6,50.41v.84h-1.46v4.46h-1.06V51.25h-1.46v-.84Z" fill="#4e9e45"/>
        <path id="Path_247_3_" d="M118.5,51.25v1.37h1.88v.81H118.5v1.42h2.1v.85h-3.16V50.41h3.16v.84h-2.1Z" fill="#4e9e45"/>
        <path id="Path_248_3_" d="M127.96,54.44a2.267,2.267,0,0,1-.96.93,3.186,3.186,0,0,1-1.49.33h-1.88V50.41h1.88a3.186,3.186,0,0,1,1.49.33,2.363,2.363,0,0,1,.96.92,2.822,2.822,0,0,1,.33,1.39A2.907,2.907,0,0,1,127.96,54.44Zm-1.22-.13a1.647,1.647,0,0,0,.47-1.26,1.669,1.669,0,0,0-.47-1.27,1.822,1.822,0,0,0-1.32-.45h-.74v3.43h.74A1.822,1.822,0,0,0,126.74,54.31Z" fill="#4e9e45"/>
      </g>
      <g id="Group_247_2_" transform="translate(-1.3 -50.34)">
        <path id="Path_231_2_" d="M5.69,50.41V55.7H4.63V53.4H2.36v2.3H1.3V50.41H2.36v2.14H4.63V50.41Z" fill="#4e9e45"/>
        <path id="Path_232_2_" d="M13.17,50.41l-1.79,3.44V55.7H10.32V53.85l-1.8-3.44H9.74l1.12,2.32,1.12-2.32Z" fill="#4e9e45"/>
        <path id="Path_233_2_" d="M20.32,51.66a2.242,2.242,0,0,0-.96-.92,3.068,3.068,0,0,0-1.49-.33H15.99V55.7h1.88a3.186,3.186,0,0,0,1.49-.33,2.267,2.267,0,0,0,.96-.93A3.092,3.092,0,0,0,20.32,51.66ZM19.1,54.31a1.822,1.822,0,0,1-1.32.45h-.73V51.33h.73a1.822,1.822,0,0,1,1.32.45,1.669,1.669,0,0,1,.47,1.27A1.647,1.647,0,0,1,19.1,54.31Z" fill="#4e9e45"/>
        <path id="Path_234_2_" d="M26.31,53.6a1.717,1.717,0,0,0,.96-.54,1.686,1.686,0,0,0-.15-2.18,1.964,1.964,0,0,0-1.41-.45H23.69v5.29h1.06V53.66h.46l1.24,2.06h1.18Zm-.69-.68h-.87V51.31h.87a.908.908,0,0,1,.69.21.829.829,0,0,1,.22.6C26.53,52.66,26.22,52.92,25.62,52.92Z" fill="#4e9e45"/>
        <path id="Path_235_2_" d="M35.34,51.64a2.436,2.436,0,0,0-.95-.96,2.814,2.814,0,0,0-2.7,0,2.436,2.436,0,0,0-.95.96,2.956,2.956,0,0,0,0,2.8,2.529,2.529,0,0,0,.95.97,2.779,2.779,0,0,0,2.7,0,2.529,2.529,0,0,0,.95-.97A2.956,2.956,0,0,0,35.34,51.64Zm-.92,2.33a1.387,1.387,0,0,1-.55.6,1.706,1.706,0,0,1-1.64,0,1.445,1.445,0,0,1-.55-.6,2.191,2.191,0,0,1,0-1.84,1.387,1.387,0,0,1,.55-.6,1.706,1.706,0,0,1,1.64,0,1.387,1.387,0,0,1,.55.6A2.191,2.191,0,0,1,34.42,53.97Z" fill="#4e9e45"/>
        <path id="Path_236_2_" d="M42.77,50.87a2.38,2.38,0,0,1,.86,1.39H42.52a1.321,1.321,0,0,0-.54-.67,1.5,1.5,0,0,0-.87-.25,1.451,1.451,0,0,0-.76.21,1.322,1.322,0,0,0-.52.6,2.23,2.23,0,0,0-.19.92,2.039,2.039,0,0,0,.19.91,1.375,1.375,0,0,0,.52.6,1.451,1.451,0,0,0,.76.21,1.5,1.5,0,0,0,.87-.25,1.536,1.536,0,0,0,.54-.67h1.11a2.431,2.431,0,0,1-.86,1.39,2.857,2.857,0,0,1-2.98.17,2.312,2.312,0,0,1-.9-.96,3.178,3.178,0,0,1,0-2.79,2.312,2.312,0,0,1,.9-.96,2.622,2.622,0,0,1,1.34-.34A2.47,2.47,0,0,1,42.77,50.87Z" fill="#4e9e45"/>
        <path id="Path_237_2_" d="M49.44,50.48H48.23l-1.95,5.24H47.4l.38-1.07H49.9l.36,1.07h1.12Zm-1.38,3.37.78-2.24.78,2.24Z" fill="#4e9e45"/>
        <path id="Path_238_2_2" data-name="Path_238_2_" d="M56.83,53.6a1.717,1.717,0,0,0,.96-.54,1.686,1.686,0,0,0-.15-2.18,1.964,1.964,0,0,0-1.41-.45H54.21v5.29h1.06V53.66h.46l1.24,2.06h1.18Zm-.69-.68h-.87V51.31h.87a.908.908,0,0,1,.69.21.829.829,0,0,1,.22.6C57.05,52.66,56.74,52.92,56.14,52.92Z" fill="#4e9e45"/>
        <path id="Path_239_2_2" data-name="Path_239_2_" d="M64.8,53.43a1.249,1.249,0,0,0-.77-.45,1.2,1.2,0,0,0,.68-.41,1.248,1.248,0,0,0,.26-.81,1.206,1.206,0,0,0-.43-.99,1.869,1.869,0,0,0-1.23-.35H61.08v5.29h2.27a1.936,1.936,0,0,0,1.29-.39,1.311,1.311,0,0,0,.45-1.05A1.359,1.359,0,0,0,64.8,53.43Zm-2.66-2.18h.94a.874.874,0,0,1,.62.18.65.65,0,0,1,.2.51.658.658,0,0,1-.21.51.926.926,0,0,1-.6.18h-.95Zm1.65,3.41a1.149,1.149,0,0,1-.65.19h-1V53.39h1a.958.958,0,0,1,.65.19c.01,0,.01.01.02.02A.745.745,0,0,1,63.79,54.66Z" fill="#4e9e45"/>
        <path id="Path_240_2_" d="M72.86,51.64a2.436,2.436,0,0,0-.95-.96,2.814,2.814,0,0,0-2.7,0,2.436,2.436,0,0,0-.95.96,2.956,2.956,0,0,0,0,2.8,2.529,2.529,0,0,0,.95.97,2.779,2.779,0,0,0,2.7,0,2.529,2.529,0,0,0,.95-.97A2.956,2.956,0,0,0,72.86,51.64Zm-.92,2.33a1.387,1.387,0,0,1-.55.6,1.706,1.706,0,0,1-1.64,0,1.445,1.445,0,0,1-.55-.6,2.191,2.191,0,0,1,0-1.84,1.387,1.387,0,0,1,.55-.6,1.706,1.706,0,0,1,1.64,0,1.387,1.387,0,0,1,.55.6A2.191,2.191,0,0,1,71.94,53.97Z" fill="#4e9e45"/>
        <path id="Path_241_2_" d="M80.74,55.71H79.68l-2.37-3.6v3.6H76.25V50.42h1.06l2.37,3.63V50.42h1.06Z" fill="#4e9e45"/>
        <path id="Path_242_2_" d="M88.89,54.9h1.78v.81H87.84V50.42H88.9V54.9Z" fill="#4e9e45"/>
        <path id="Path_243_2_" d="M94.61,50.41V55.7H93.55V50.41Z" fill="#4e9e45"/>
        <path id="Path_244_2_" d="M103.53,50.47v5.24h-1.05V52.06l-1.34,3.65h-.92l-1.34-3.64v3.64H97.82V50.47H99.1l1.59,3.94,1.56-3.94Z" fill="#4e9e45"/>
        <path id="Path_245_2_" d="M107.79,50.41V55.7h-1.06V50.41Z" fill="#4e9e45"/>
        <path id="Path_246_2_" d="M114.6,50.41v.84h-1.46v4.46h-1.06V51.25h-1.46v-.84Z" fill="#4e9e45"/>
        <path id="Path_247_2_" d="M118.5,51.25v1.37h1.88v.81H118.5v1.42h2.1v.85h-3.16V50.41h3.16v.84h-2.1Z" fill="#4e9e45"/>
        <path id="Path_248_2_" d="M127.96,51.66a2.242,2.242,0,0,0-.96-.92,3.068,3.068,0,0,0-1.49-.33h-1.88V55.7h1.88a3.186,3.186,0,0,0,1.49-.33,2.267,2.267,0,0,0,.96-.93,2.935,2.935,0,0,0,.33-1.39A2.771,2.771,0,0,0,127.96,51.66Zm-1.22,2.65a1.822,1.822,0,0,1-1.32.45h-.74V51.33h.74a1.822,1.822,0,0,1,1.32.45,1.669,1.669,0,0,1,.47,1.27A1.647,1.647,0,0,1,126.74,54.31Z" fill="#4e9e45"/>
      </g>
    </g>
  </g>
</svg>
