<svg xmlns="http://www.w3.org/2000/svg" xmlns:xlink="http://www.w3.org/1999/xlink" width="131.27" height="122.424" viewBox="0 0 131.27 122.424"><defs><linearGradient id="a" x1="0.5" x2="0" y2="1.684" gradientUnits="objectBoundingBox"><stop offset="0" stop-color="#ffde27"/><stop offset="1" stop-color="#ff320d"/></linearGradient><linearGradient id="b" x2="-0.607" y2="1.351" xlink:href="#a"/></defs><g transform="translate(-110.563 -108.654)"><g transform="translate(110.563 117.408)"><rect width="20.081" height="10.519" transform="translate(47.382 88.664)" fill="#bebebe"/><path d="M5.062,10.519h0Z" transform="translate(47.382 88.664)" fill="#2e4c89"/><path d="M172.055,398.763H123.76a1.305,1.305,0,0,0-1.3,1.3v6.524a1.305,1.305,0,0,0,1.3,1.3h48.295v-9.127Z" transform="translate(-91.216 -299.834)" fill="#ddd"/><path d="M113.545,58.964H1.3a1.306,1.306,0,0,0-1.3,1.3v74.08a1.305,1.305,0,0,0,1.3,1.3H80.839V96.673a1.788,1.788,0,0,1,1.786-1.786h32.223V60.266A1.306,1.306,0,0,0,113.545,58.964Z" transform="translate(0 -46.727)" fill="#dedede"/><path d="M22.4,159.9a.783.783,0,0,0,.781.781H97.521V133.942a1.788,1.788,0,0,1,1.786-1.786h26.509V109H22.4Z" transform="translate(-16.682 -83.996)" fill="#fff"/><circle cx="3.514" cy="3.514" r="3.514" transform="translate(53.91 79.264)" fill="#445ea0"/><path d="M274.827,223.146H261.2a.768.768,0,0,0-.765.765v15.216a.768.768,0,0,0,.765.765h13.63Z" transform="translate(-193.989 -169.022)" fill="#c3ddf4"/><path d="M265.494,239.127V223.911a.768.768,0,0,1,.765-.765H261.2a.768.768,0,0,0-.765.765v15.216a.768.768,0,0,0,.765.765h5.062A.768.768,0,0,1,265.494,239.127Z" transform="translate(-193.989 -169.022)" fill="#aec1ed"/><path d="M141.977,147.342h11.894V130.662a1.279,1.279,0,0,0-1.276-1.276H80.958a1.279,1.279,0,0,0-1.276,1.276v16.972a1.279,1.279,0,0,0,1.276,1.276h59.249A1.787,1.787,0,0,1,141.977,147.342Z" transform="translate(-59.353 -99.183)" fill="url(#a)"/><path d="M125.034,84.983H23.177a.783.783,0,0,0-.781.781v5.6H125.815v-5.6A.783.783,0,0,0,125.034,84.983Z" transform="translate(-16.682 -66.108)" fill="#ffaf10"/><path d="M28.239,84.983H23.177a.783.783,0,0,0-.781.781v5.6h5.062v-5.6A.784.784,0,0,1,28.239,84.983Z" transform="translate(-16.682 -66.108)" fill="#ff9518"/><g transform="translate(20.368 54.337)"><path d="M103.221,227.806H81.747a1.913,1.913,0,0,1,0-3.827h21.474a1.913,1.913,0,1,1,0,3.827Z" transform="translate(-79.834 -223.979)" fill="#a0a0a0"/><path d="M103.221,252.293H81.747a1.913,1.913,0,0,1,0-3.827h21.474a1.913,1.913,0,1,1,0,3.827Z" transform="translate(-79.834 -242.219)" fill="#a0a0a0"/><path d="M103.221,276.78H81.747a1.913,1.913,0,0,1,0-3.827h21.474a1.913,1.913,0,1,1,0,3.827Z" transform="translate(-79.834 -260.458)" fill="#a0a0a0"/><path d="M199.7,227.806H188.647a1.913,1.913,0,0,1,0-3.827H199.7a1.913,1.913,0,1,1,0,3.827Z" transform="translate(-159.461 -223.979)" fill="#a0a0a0"/><path d="M199.7,252.293H188.647a1.913,1.913,0,1,1,0-3.827H199.7a1.913,1.913,0,1,1,0,3.827Z" transform="translate(-159.461 -242.219)" fill="#a0a0a0"/><path d="M199.7,276.78H188.647a1.913,1.913,0,0,1,0-3.827H199.7a1.913,1.913,0,1,1,0,3.827Z" transform="translate(-159.461 -260.458)" fill="#a0a0a0"/></g><path d="M363.857,198.768a2.047,2.047,0,0,1,2.041,2.041v61.682a2.047,2.047,0,0,1-2.041,2.041H317.9a2.047,2.047,0,0,1-2.041-2.041V200.809a2.047,2.047,0,0,1,2.041-2.041Z" transform="translate(-235.273 -150.863)" fill="#c9c7bf"/><path d="M333.843,268a1.279,1.279,0,0,1-1.276-1.276V215.456a1.279,1.279,0,0,1,1.276-1.276h38.964a1.279,1.279,0,0,1,1.276,1.276v51.267A1.279,1.279,0,0,1,372.806,268Z" transform="translate(-247.72 -162.343)" fill="#fff"/><path d="M400.843,436.227a1.279,1.279,0,0,1-1.276-1.276v-.5a1.279,1.279,0,0,1,1.276-1.276h4.777a1.279,1.279,0,0,1,1.276,1.276v.5a1.279,1.279,0,0,1-1.276,1.276Z" transform="translate(-297.627 -325.47)" fill="#445ea0"/><path d="M374.082,219.1v-3.647a1.279,1.279,0,0,0-1.276-1.276H333.843a1.279,1.279,0,0,0-1.276,1.276V219.1Z" transform="translate(-247.72 -162.343)" fill="#ffaf10"/><path d="M338.9,214.18h-5.062a1.279,1.279,0,0,0-1.276,1.276V219.1h5.062v-3.647A1.279,1.279,0,0,1,338.9,214.18Z" transform="translate(-247.72 -162.343)" fill="#ff9518"/><g transform="translate(94.995 76.266)"><path d="M391.649,313.76H374.257a1.913,1.913,0,1,1,0-3.827h17.392a1.913,1.913,0,1,1,0,3.827Z" transform="translate(-372.344 -309.933)" fill="#a0a0a0"/><path d="M391.649,336.887H374.257a1.913,1.913,0,1,1,0-3.827h17.392a1.913,1.913,0,1,1,0,3.827Z" transform="translate(-372.344 -327.16)" fill="#a0a0a0"/><path d="M391.649,360.012H374.257a1.913,1.913,0,0,1,0-3.827h17.392a1.913,1.913,0,0,1,0,3.827Z" transform="translate(-372.344 -344.385)" fill="#a0a0a0"/></g><path d="M381.69,257.811a1.279,1.279,0,0,1-1.276,1.276H349.377a1.279,1.279,0,0,1-1.276-1.276V247.289a1.279,1.279,0,0,1,1.276-1.276h31.037a1.279,1.279,0,0,1,1.276,1.276Z" transform="translate(-259.291 -186.055)" fill="#c3ddf4"/><path d="M353.163,257.811V247.289a1.279,1.279,0,0,1,1.276-1.276h-5.062a1.279,1.279,0,0,0-1.276,1.276v10.522a1.279,1.279,0,0,0,1.276,1.276h5.062A1.279,1.279,0,0,1,353.163,257.811Z" transform="translate(-259.291 -186.055)" fill="#aec1ed"/><path d="M390.5,393.1a1.279,1.279,0,0,1-1.276,1.276H367.376A1.279,1.279,0,0,1,366.1,393.1v-4.314a1.279,1.279,0,0,1,1.276-1.276h21.853a1.279,1.279,0,0,1,1.276,1.276V393.1Z" transform="translate(-272.698 -291.449)" fill="#c3ddf4"/><path d="M371.162,393.1v-4.314a1.279,1.279,0,0,1,1.276-1.276h-5.062a1.279,1.279,0,0,0-1.276,1.276V393.1a1.279,1.279,0,0,0,1.276,1.276h5.062A1.279,1.279,0,0,1,371.162,393.1Z" transform="translate(-272.698 -291.449)" fill="#aec1ed"/></g><path d="M37.074,30.28a22.876,22.876,0,0,1-5.479,8.535A28.679,28.679,0,0,1,20.887,45.16a3.275,3.275,0,0,1-1.041.184h-.039a3.325,3.325,0,0,1-.639-.063,3.45,3.45,0,0,1-.439-.12A28.677,28.677,0,0,1,8.009,38.82a22.833,22.833,0,0,1-5.478-8.534C.318,24.281.444,17.665.545,12.349l0-.082c.02-.439.034-.9.041-1.409A4.806,4.806,0,0,1,5.113,6.15,18.648,18.648,0,0,0,17.806.8l.03-.028a2.9,2.9,0,0,1,3.943,0L21.808.8A18.651,18.651,0,0,0,34.5,6.15a4.806,4.806,0,0,1,4.525,4.708c.007.513.02.973.041,1.409V12.3C39.169,17.628,39.295,24.257,37.074,30.28Zm0,0" transform="translate(201.244 110.153)" stroke="#eaeaea" stroke-width="3" fill="url(#b)"/><path d="M168.3,214.942l-6.64,6.641-1.435,1.435a1.737,1.737,0,0,1-2.456,0l-3.085-3.086a1.735,1.735,0,0,1,2.454-2.454L159,219.336l6.848-6.848a1.735,1.735,0,0,1,2.454,2.454Zm0,0" transform="translate(59.594 -84.874)" fill="#fff"/></g></svg>