<svg xmlns="http://www.w3.org/2000/svg" width="108.496" height="111.386" viewBox="0 0 108.496 111.386"><g transform="translate(-561.32 -114.807)"><g transform="translate(561.32 117.697)"><path d="M5.086,0H103.41A5.1,5.1,0,0,1,108.5,5.086V103.41a5.1,5.1,0,0,1-5.086,5.086H5.086A5.1,5.1,0,0,1,0,103.41V5.086A5.1,5.1,0,0,1,5.086,0Z" fill="#efefef"/><path d="M34.9,94.523h88.153a3.4,3.4,0,0,1,3.391,3.391V172.5a3.4,3.4,0,0,1-3.391,3.39H34.9a3.4,3.4,0,0,1-3.391-3.39V97.914A3.4,3.4,0,0,1,34.9,94.523Z" transform="translate(-24.727 -74.18)" fill="#ff8a34"/><path d="M104.1,165.415h49.162a1.7,1.7,0,0,1,1.7,1.7v1.7a1.7,1.7,0,0,1-1.7,1.7H104.1a1.7,1.7,0,0,1-1.7-1.7v-1.7A1.7,1.7,0,0,1,104.1,165.415Z" transform="translate(-80.362 -129.815)" fill="#e4e7e7"/><path d="M124.438,220.554H104.1a1.7,1.7,0,0,0-1.7,1.7v1.7a1.7,1.7,0,0,0,1.7,1.7h20.343a1.7,1.7,0,0,0,1.7-1.7v-1.7A1.7,1.7,0,0,0,124.438,220.554Zm-5.086,23.733H104.1a1.7,1.7,0,0,0-1.7,1.7v1.7a1.7,1.7,0,0,0,1.7,1.7h15.257a1.7,1.7,0,0,0,1.7-1.7v-1.7A1.7,1.7,0,0,0,119.352,244.287Zm45.772,0H154.952a1.7,1.7,0,0,0-1.7,1.7v1.7a1.7,1.7,0,0,0,1.7,1.7h10.172a1.7,1.7,0,0,0,1.7-1.7v-1.7A1.7,1.7,0,0,0,165.124,244.287Z" transform="translate(-80.362 -173.087)" fill="#e35e53"/><path d="M165.124,220.554H134.61a1.7,1.7,0,0,0-1.7,1.7v1.7a1.7,1.7,0,0,0,1.7,1.7h30.514a1.7,1.7,0,0,0,1.7-1.7v-1.7A1.7,1.7,0,0,0,165.124,220.554Zm0,35.6H104.1a1.7,1.7,0,0,0-1.7,1.7v1.7a1.7,1.7,0,0,0,1.7,1.7h61.029a1.7,1.7,0,0,0,1.7-1.7v-1.7A1.7,1.7,0,0,0,165.124,256.154Z" transform="translate(-80.362 -173.087)" fill="#26a6d1"/><path d="M144.781,275.692H104.1a1.7,1.7,0,0,0-1.7,1.7v1.7a1.7,1.7,0,0,0,1.7,1.7h40.686a1.7,1.7,0,0,0,1.7-1.7v-1.7A1.7,1.7,0,0,0,144.781,275.692Zm0,11.867H129.524a1.7,1.7,0,0,0-1.7,1.7v1.7a1.7,1.7,0,0,0,1.7,1.7h15.257a1.7,1.7,0,0,0,1.7-1.7v-1.7A1.7,1.7,0,0,0,144.781,287.559Z" transform="translate(-80.362 -216.359)" fill="#49b8a4"/><path d="M34.9,31.508A3.391,3.391,0,1,0,38.289,34.9,3.4,3.4,0,0,0,34.9,31.508Zm10.171,0A3.391,3.391,0,1,0,48.46,34.9,3.4,3.4,0,0,0,45.07,31.508Zm10.172,0A3.391,3.391,0,1,0,58.632,34.9,3.4,3.4,0,0,0,55.241,31.508Z" transform="translate(-24.727 -24.727)" fill="#bfc3c5"/></g><g transform="translate(572.288 114.807)"><path d="M188.054,218.384l13.48,13.48,13.481-13.48Z" transform="translate(-157.831 -172.941)" fill="#f8b64c"/><rect width="49.791" height="55.662" transform="translate(18.699 29.788)" fill="#40596b"/><path d="M208.3,281.587a129.237,129.237,0,0,1-31.744,0,88.06,88.06,0,0,0,0-28.266,129.24,129.24,0,0,1,31.744,0A88.048,88.048,0,0,0,208.3,281.587Z" transform="translate(-148.729 -199.834)" fill="#745e39"/><path d="M146.258,117.029V138.12a22.178,22.178,0,1,0,44.355,0v-21.09Z" transform="translate(-124.732 -92.677)" fill="#7c6d54"/><path d="M157.678,24.033a24.962,24.962,0,0,0-25,24.787h50.008A24.962,24.962,0,0,0,157.678,24.033Z" transform="translate(-113.975 -19.032)" fill="#40596b"/><path d="M169.871,30.875h-3.044c0-15.437-11.958-28.048-26.526-28.048s-26.526,12.611-26.526,28.048h-3.044C110.731,13.7,123.994,0,140.3,0S169.871,13.915,169.871,30.875Z" transform="translate(-96.598)" fill="#cdd6e0"/><path d="M287.04,240.834H272.69v-2.827h14.35a4.826,4.826,0,0,0,4.783-4.783v-5.436h3.044v5.436A7.751,7.751,0,0,1,287.04,240.834Z" transform="translate(-224.856 -180.389)" fill="#f2f2f2"/><path d="M232.1,266.449h-6.523a3.11,3.11,0,0,0-3.044,3.044v.652a3.11,3.11,0,0,0,3.044,3.044H232.1a3.11,3.11,0,0,0,3.044-3.044v-.652A3.11,3.11,0,0,0,232.1,266.449Z" transform="translate(-185.137 -211.005)" fill="#acb3ba"/><g transform="translate(8.262 33.049)"><path d="M406.087,159.869h-1.739v11.089h1.739a2.054,2.054,0,0,0,2.174-2.174v-6.74A2.179,2.179,0,0,0,406.087,159.869Z" transform="translate(-337.38 -159.652)" fill="#cdd6e0"/><path d="M82.519,161v6.74a2.054,2.054,0,0,0,2.174,2.174h1.739V158.824H84.693A2.535,2.535,0,0,0,82.519,161Z" transform="translate(-82.519 -158.824)" fill="#cdd6e0"/></g><g transform="translate(12.176 29.788)"><path d="M364.417,143.151h-5v17.612h5a4.361,4.361,0,0,0,4.349-4.349V147.5A4.361,4.361,0,0,0,364.417,143.151Z" transform="translate(-305.711 -143.151)" fill="#ff7058"/><path d="M101.327,147.5v8.915a4.361,4.361,0,0,0,4.349,4.349h5V143.151h-5A4.361,4.361,0,0,0,101.327,147.5Z" transform="translate(-101.327 -143.151)" fill="#ff7058"/></g><g transform="translate(36.311 23.047)"><path d="M303.294,117.5v-6.74L300.9,117.5Z" transform="translate(-283.508 -110.759)" fill="#7c6d54"/><path d="M220.137,124.119v-5l-2.826,5Z" transform="translate(-217.311 -117.379)" fill="#7c6d54"/></g><path d="M180.739,355.265l15,15,15-15Z" transform="translate(-152.038 -281.34)" fill="#745e39"/><path d="M103.475,355.265H101.3l-15,15-15-15H69.121a26.261,26.261,0,0,0-26.309,26.309v4.131h86.536v-4.131A25.625,25.625,0,0,0,103.475,355.265Z" transform="translate(-42.812 -281.34)" fill="#d3d3d3"/></g></g></svg>