<svg id="_ÎÓÈ_1" data-name="—ÎÓÈ_1" xmlns="http://www.w3.org/2000/svg" xmlns:xlink="http://www.w3.org/1999/xlink" viewBox="0 0 51.56 79.5"><defs><style>.cls-1{mask:url(#mask);filter:url(#luminosity-noclip-2);}.cls-2{mix-blend-mode:multiply;fill:url(#_ÂÁ_Ï_ÌÌ_È_ËÂÌÚ_76);}.cls-3{fill:#fcefe8;}.cls-4{fill:url(#linear-gradient);}.cls-5{opacity:0.67;}.cls-6{fill:#ff6700;}.cls-7{fill:#fff;}.cls-8{fill:url(#linear-gradient-2);}.cls-9{opacity:0.51;}.cls-10{fill:#ff6d00;}.cls-11{mask:url(#mask-2);}.cls-12{opacity:0.78;fill:url(#linear-gradient-3);}.cls-13{fill:url(#linear-gradient-4);}.cls-14{fill:url(#linear-gradient-5);}.cls-15{fill:#d86905;}.cls-16{fill:#f9993a;}.cls-17{fill:url(#linear-gradient-6);}.cls-18{fill:url(#linear-gradient-7);}.cls-19{fill:url(#linear-gradient-8);}.cls-20{fill:url(#linear-gradient-9);}.cls-21{fill:#ce5300;}.cls-22{fill:#fff800;}.cls-23{filter:url(#luminosity-noclip);}</style><filter id="luminosity-noclip" x="26.69" y="-8606.27" width="19.82" height="32766" filterUnits="userSpaceOnUse" color-interpolation-filters="sRGB"><feFlood flood-color="#fff" result="bg"/><feBlend in="SourceGraphic" in2="bg"/></filter><mask id="mask" x="26.69" y="-8606.27" width="19.82" height="32766" maskUnits="userSpaceOnUse"><g class="cls-23"/></mask><linearGradient id="_ÂÁ_Ï_ÌÌ_È_ËÂÌÚ_76" x1="4046.57" y1="11.48" x2="4066.4" y2="11.48" gradientTransform="matrix(-1, 0, 0, 1, 4093.09, 0)" gradientUnits="userSpaceOnUse"><stop offset="0"/><stop offset="0.05" stop-color="#2f2f2f"/><stop offset="0.1" stop-color="#5a5a5a"/><stop offset="0.15" stop-color="#828282"/><stop offset="0.22" stop-color="#a4a4a4"/><stop offset="0.28" stop-color="silver"/><stop offset="0.36" stop-color="#d7d7d7"/><stop offset="0.44" stop-color="#e9e9e9"/><stop offset="0.54" stop-color="#f6f6f6"/><stop offset="0.68" stop-color="#fdfdfd"/><stop offset="1" stop-color="#fff"/></linearGradient><linearGradient id="linear-gradient" x1="4043.53" y1="63.76" x2="4089.27" y2="63.76" gradientTransform="matrix(-1, 0, 0, 1, 4093.09, 0)" gradientUnits="userSpaceOnUse"><stop offset="0" stop-color="#bd6228"/><stop offset="1" stop-color="#fee540"/></linearGradient><linearGradient id="linear-gradient-2" x1="16.78" y1="70.88" x2="16.78" y2="71.06" gradientUnits="userSpaceOnUse"><stop offset="0.01" stop-color="#f8e9d4"/><stop offset="0.32" stop-color="#f9ecd9"/><stop offset="0.68" stop-color="#fcf4e7"/><stop offset="1" stop-color="#fffffa"/></linearGradient><filter id="luminosity-noclip-2" x="26.69" y="2.67" width="19.82" height="17.62" filterUnits="userSpaceOnUse" color-interpolation-filters="sRGB"><feFlood flood-color="#fff" result="bg"/><feBlend in="SourceGraphic" in2="bg"/></filter><mask id="mask-2" x="26.69" y="2.67" width="19.82" height="17.62" maskUnits="userSpaceOnUse"><g class="cls-1"><polygon class="cls-2" points="26.69 20.29 31.9 20.29 46.52 11.85 30.62 2.67 26.7 2.67 26.69 20.29"/></g></mask><linearGradient id="linear-gradient-3" x1="26.69" y1="11.48" x2="46.52" y2="11.48" gradientUnits="userSpaceOnUse"><stop offset="0" stop-color="#ff9248"/><stop offset="0.34" stop-color="#ff934a"/><stop offset="0.49" stop-color="#fe9851"/><stop offset="0.6" stop-color="#fc9f5e"/><stop offset="0.7" stop-color="#faaa70"/><stop offset="0.78" stop-color="#f7b787"/><stop offset="0.85" stop-color="#f4c8a3"/><stop offset="0.91" stop-color="#f0ddc5"/><stop offset="0.97" stop-color="#ebf3ec"/><stop offset="1" stop-color="#e9ffff"/></linearGradient><linearGradient id="linear-gradient-4" x1="4052.01" y1="10.97" x2="4080.78" y2="10.97" gradientTransform="matrix(-1, 0, 0, 1, 4093.09, 0)" gradientUnits="userSpaceOnUse"><stop offset="0" stop-color="#fee5d4" stop-opacity="0.9"/><stop offset="0.29" stop-color="#fee1cd" stop-opacity="0.91"/><stop offset="0.64" stop-color="#fdd5b7" stop-opacity="0.95"/><stop offset="1" stop-color="#fcc395"/></linearGradient><linearGradient id="linear-gradient-5" x1="4075.45" y1="18.87" x2="4071.95" y2="12.76" gradientTransform="matrix(-1, 0, 0, 1, 4093.09, 0)" gradientUnits="userSpaceOnUse"><stop offset="0" stop-color="#f89a2e"/><stop offset="0.12" stop-color="#f89c33"/><stop offset="0.26" stop-color="#f7a341"/><stop offset="0.41" stop-color="#f5af59"/><stop offset="0.56" stop-color="#f3bf7a"/><stop offset="0.72" stop-color="#efd3a5"/><stop offset="0.89" stop-color="#ececd8"/><stop offset="1" stop-color="#e9ffff"/></linearGradient><linearGradient id="linear-gradient-6" x1="4063.93" y1="11.09" x2="4071.38" y2="11.09" gradientTransform="matrix(-1, 0, 0, 1, 4093.09, 0)" gradientUnits="userSpaceOnUse"><stop offset="0.01" stop-color="#f9a26b"/><stop offset="0.21" stop-color="#f49d67"/><stop offset="0.45" stop-color="#e6905a"/><stop offset="0.7" stop-color="#ce7a46"/><stop offset="0.97" stop-color="#ad5b2a"/><stop offset="1" stop-color="#a95726"/></linearGradient><linearGradient id="linear-gradient-7" x1="4062.22" y1="10.04" x2="4069.66" y2="10.04" xlink:href="#linear-gradient-6"/><linearGradient id="linear-gradient-8" x1="4060.46" y1="9.04" x2="4067.91" y2="9.04" xlink:href="#linear-gradient-6"/><linearGradient id="linear-gradient-9" x1="4065.53" y1="12.19" x2="4072.98" y2="12.19" xlink:href="#linear-gradient-6"/></defs><title>icon-shared-pricing</title><polygon class="cls-3" points="26.69 23.29 46.52 11.85 26.7 0.4 6.87 11.85 26.69 23.29"/><path class="cls-4" d="M25.9,77,4.22,64.44a.76.76,0,0,1-.39-.68.77.77,0,0,1,.39-.68L25.9,50.56a1.61,1.61,0,0,1,1.59,0L49.17,63.08a.77.77,0,0,1,.39.68.76.76,0,0,1-.39.68L27.49,77a1.61,1.61,0,0,1-1.59,0Zm.29-25.9L4.5,63.58a.21.21,0,0,0-.1.18.22.22,0,0,0,.1.19L26.19,76.47a1,1,0,0,0,1,0L48.88,63.94a.19.19,0,0,0,.11-.18.2.2,0,0,0-.11-.18L27.2,51.06a1,1,0,0,0-1,0Z"/><g class="cls-5"><polygon class="cls-6" points="26.69 73.46 43.49 63.76 26.7 54.06 9.9 63.76 26.69 73.46"/></g><polygon class="cls-7" points="26.69 67.23 46.52 55.78 26.7 44.34 6.87 55.78 26.69 67.23"/><polygon class="cls-8" points="6.87 11.85 6.87 55.78 26.69 67.23 26.69 23.29 6.87 11.85"/><polygon class="cls-6" points="46.52 11.85 46.52 55.78 26.69 67.23 26.69 23.29 46.52 11.85"/><g class="cls-9"><polygon class="cls-10" points="45.17 14.76 45.17 54.25 28.04 64.15 28.04 24.66 45.17 14.76"/></g><polygon class="cls-6" points="9.85 22.46 9.85 23.63 23.72 31.64 23.72 30.48 9.85 22.46"/><polygon class="cls-6" points="9.85 27.37 9.85 28.54 23.72 36.55 23.72 35.38 9.85 27.37"/><polygon class="cls-6" points="9.85 32.28 9.85 33.44 23.72 41.46 23.72 40.3 9.85 32.28"/><polygon class="cls-6" points="9.85 37.19 9.85 38.35 23.72 46.37 23.72 45.2 9.85 37.19"/><polygon class="cls-6" points="9.85 42.1 9.85 43.26 23.72 51.28 23.72 50.11 9.85 42.1"/><polygon class="cls-6" points="9.85 47.01 9.85 48.17 23.72 56.19 23.72 55.02 9.85 47.01"/><g class="cls-11"><polygon class="cls-12" points="26.69 20.29 31.9 20.29 46.52 11.85 30.62 2.67 26.7 2.67 26.69 20.29"/></g><polygon class="cls-13" points="26.69 19.28 41.08 10.97 26.7 2.67 12.31 10.97 26.69 19.28"/><polygon class="cls-14" points="12.31 10.97 12.31 11.98 26.69 20.29 26.69 19.28 12.31 10.97"/><polygon class="cls-15" points="41.08 10.97 41.08 11.98 26.69 20.29 26.69 19.28 41.08 10.97"/><polygon class="cls-16" points="28.11 13.43 28.75 13.06 28.7 12.76 22.79 9.32 21.97 9.71 22.12 9.97 28.11 13.43"/><polygon class="cls-17" points="22.76 9.6 22.12 9.97 21.71 9.73 22.76 9.13 29.16 12.82 28.75 13.06 22.76 9.6"/><polygon class="cls-16" points="29.83 12.37 30.47 12.01 30.41 11.71 24.5 8.27 23.68 8.66 23.84 8.91 29.83 12.37"/><polygon class="cls-18" points="24.47 8.55 23.84 8.91 23.43 8.68 24.47 8.07 30.88 11.77 30.47 12.01 24.47 8.55"/><polygon class="cls-16" points="31.58 11.38 32.22 11.01 32.16 10.71 26.26 7.27 25.43 7.66 25.59 7.92 31.58 11.38"/><polygon class="cls-19" points="26.22 7.55 25.59 7.92 25.18 7.68 26.22 7.08 32.63 10.77 32.22 11.01 26.22 7.55"/><polygon class="cls-16" points="26.51 14.52 27.15 14.16 27.1 13.86 21.19 10.42 20.37 10.81 20.52 11.06 26.51 14.52"/><polygon class="cls-20" points="21.16 10.7 20.52 11.06 20.11 10.83 21.16 10.22 27.56 13.92 27.15 14.16 21.16 10.7"/><polygon class="cls-21" points="46.52 48.84 26.7 36.87 26.69 23.29 46.52 11.85 46.52 48.84"/><path class="cls-6" d="M27.48,25.27a1.74,1.74,0,0,1,.79-1.37.58.58,0,0,1,.56,0h0l.56.33H29a.88.88,0,0,1,0,.17,1.75,1.75,0,0,1-.79,1.36.85.85,0,0,1-.17.08l.16.3-.55-.32h0A.56.56,0,0,1,27.48,25.27Z"/><path class="cls-6" d="M28,25.6c0,.5.36.71.79.45a1.72,1.72,0,0,0,.79-1.36c0-.51-.35-.71-.79-.46A1.77,1.77,0,0,0,28,25.6Z"/><path class="cls-6" d="M28.38,25.41c0,.28.2.4.45.26a1,1,0,0,0,.45-.79c0-.29-.2-.41-.45-.26A1,1,0,0,0,28.38,25.41Z"/><path class="cls-6" d="M44.11,15.05a1.74,1.74,0,0,1,.78-1.36.56.56,0,0,1,.56-.06h0L46,14h-.34a1,1,0,0,1,0,.17,1.73,1.73,0,0,1-.79,1.37l-.16.08.16.3-.55-.32h0A.58.58,0,0,1,44.11,15.05Z"/><path class="cls-6" d="M44.67,15.38c0,.51.35.71.79.46a1.75,1.75,0,0,0,.79-1.37c0-.5-.36-.7-.79-.45A1.72,1.72,0,0,0,44.67,15.38Z"/><path class="cls-6" d="M45,15.19c0,.29.21.41.46.26a1,1,0,0,0,.45-.78c0-.29-.2-.41-.45-.27A1,1,0,0,0,45,15.19Z"/><path class="cls-6" d="M27.48,64.61a1.72,1.72,0,0,1,.79-1.36.56.56,0,0,1,.56-.06h0l.56.33H29a1,1,0,0,1,0,.17,1.75,1.75,0,0,1-.79,1.37l-.17.08.16.3-.55-.32h0A.56.56,0,0,1,27.48,64.61Z"/><path class="cls-6" d="M28,64.94c0,.51.36.71.79.46A1.73,1.73,0,0,0,29.62,64c0-.5-.35-.7-.79-.45A1.75,1.75,0,0,0,28,64.94Z"/><path class="cls-6" d="M28.38,64.75c0,.29.2.41.45.26a1,1,0,0,0,.45-.78c0-.29-.2-.41-.45-.27A1,1,0,0,0,28.38,64.75Z"/><path class="cls-6" d="M44.11,54.4A1.76,1.76,0,0,1,44.89,53a.58.58,0,0,1,.56-.05h0l.56.33h-.34a.91.91,0,0,1,0,.17,1.72,1.72,0,0,1-.79,1.36.6.6,0,0,1-.16.08l.16.3-.55-.32h0A.56.56,0,0,1,44.11,54.4Z"/><path class="cls-6" d="M44.67,54.73c0,.5.35.71.79.45a1.75,1.75,0,0,0,.79-1.36c0-.51-.36-.71-.79-.46A1.74,1.74,0,0,0,44.67,54.73Z"/><path class="cls-6" d="M45,54.53a.28.28,0,0,0,.46.27,1,1,0,0,0,.45-.79c0-.29-.2-.41-.45-.26A1,1,0,0,0,45,54.53Z"/><polygon class="cls-22" points="39.67 27.25 44.04 24.73 44.04 23.77 39.67 26.3 39.67 27.25"/><polygon class="cls-22" points="37.43 28.55 39 27.64 39 26.68 37.43 27.59 37.43 28.55"/><polygon class="cls-22" points="35.69 29.55 36.76 28.93 36.76 27.98 35.69 28.59 35.69 29.55"/><polygon class="cls-22" points="41.66 28.3 44.04 26.93 44.04 25.96 41.66 27.34 41.66 28.3"/><polygon class="cls-22" points="38.07 30.37 40.99 28.68 40.99 27.73 38.07 29.41 38.07 30.37"/><polygon class="cls-22" points="36.33 31.37 37.4 30.75 37.4 29.8 36.33 30.41 36.33 31.37"/><polygon class="cls-22" points="34.68 32.33 35.75 31.71 35.75 30.75 34.68 31.37 34.68 32.33"/><polygon class="cls-22" points="42.31 30.11 44.04 29.12 44.04 28.16 42.31 29.15 42.31 30.11"/><polygon class="cls-22" points="41.06 30.84 41.65 30.5 41.65 29.54 41.06 29.88 41.06 30.84"/><polygon class="cls-22" points="39.32 31.84 40.39 31.22 40.39 30.26 39.32 30.88 39.32 31.84"/><polygon class="cls-22" points="37.68 34.98 44.04 31.31 44.04 30.35 37.68 34.02 37.68 34.98"/><polygon class="cls-22" points="35.44 36.27 37.01 35.36 37.01 34.41 35.44 35.31 35.44 36.27"/><polygon class="cls-22" points="42.31 34.49 44.04 33.5 44.04 32.54 42.31 33.53 42.31 34.49"/><polygon class="cls-22" points="38.27 36.83 41.65 34.88 41.65 33.92 38.27 35.87 38.27 36.83"/><polygon class="cls-22" points="36.53 37.83 37.6 37.21 37.6 36.26 36.53 36.87 36.53 37.83"/><polygon class="cls-22" points="40.51 37.73 44.04 35.69 44.04 34.73 40.51 36.77 40.51 37.73"/><polygon class="cls-22" points="37.3 39.58 39.84 38.11 39.84 37.15 37.3 38.62 37.3 39.58"/><polygon class="cls-22" points="34.91 40.96 36.63 39.97 36.63 39.01 34.91 40 34.91 40.96"/><polygon class="cls-22" points="42.85 38.57 44.04 37.88 44.04 36.92 42.85 37.61 42.85 38.57"/><polygon class="cls-22" points="40.6 39.87 42.18 38.96 42.18 38 40.6 38.91 40.6 39.87"/><polygon class="cls-22" points="37.4 41.71 39.94 40.25 39.94 39.29 37.4 40.75 37.4 41.71"/><polygon class="cls-22" points="40.39 42.18 44.04 40.08 44.04 39.12 40.39 41.22 40.39 42.18"/><polygon class="cls-22" points="36.31 44.54 39.72 42.57 39.72 41.61 36.31 43.58 36.31 44.54"/><polygon class="cls-22" points="34.57 45.54 35.64 44.92 35.64 43.97 34.57 44.58 34.57 45.54"/><polygon class="cls-22" points="32.9 46.5 33.97 45.89 33.97 44.93 32.9 45.54 32.9 46.5"/><polygon class="cls-22" points="41.85 43.53 44.04 42.27 44.04 41.31 41.85 42.57 41.85 43.53"/><polygon class="cls-22" points="32.72 31.27 29.68 33.02 29.68 32.06 32.72 30.31 32.72 31.27"/><polygon class="cls-22" points="32.07 33.84 29.68 35.21 29.68 34.25 32.07 32.88 32.07 33.84"/><polygon class="cls-22" points="31.41 36.41 29.68 37.4 29.68 36.44 31.41 35.45 31.41 36.41"/><polygon class="cls-22" points="32.19 38.15 29.68 39.59 29.68 38.63 32.19 37.19 32.19 38.15"/><polygon class="cls-22" points="31.41 40.79 29.68 41.79 29.68 40.83 31.41 39.83 31.41 40.79"/><polygon class="cls-22" points="31.87 42.72 29.68 43.98 29.68 43.02 31.87 41.76 31.87 42.72"/><polygon class="cls-22" points="30.88 45.48 29.68 46.17 29.68 45.21 30.88 44.52 30.88 45.48"/><polygon class="cls-22" points="31.99 47.03 29.68 48.36 29.68 47.4 31.99 46.07 31.99 47.03"/><polygon class="cls-22" points="31.87 49.29 29.68 50.55 29.68 49.59 31.87 48.33 31.87 49.29"/><polygon class="cls-22" points="40.26 44.45 41.18 43.91 41.18 42.95 40.26 43.49 40.26 44.45"/><polygon class="cls-22" points="37.5 46.04 39.59 44.84 39.59 43.88 37.5 45.08 37.5 46.04"/><polygon class="cls-22" points="35.77 53.42 39.3 51.38 39.3 50.42 35.77 52.46 35.77 53.42"/><polygon class="cls-22" points="33.35 54.81 34.74 54.01 34.74 53.05 33.35 53.85 33.35 54.81"/></svg>