<svg id="_ÎÓÈ_1" data-name="—ÎÓÈ_1" xmlns="http://www.w3.org/2000/svg" xmlns:xlink="http://www.w3.org/1999/xlink" viewBox="0 0 89.44 73.34"><defs><style>.cls-1{fill:url(#linear-gradient);}.cls-2{fill:url(#_ÂÁ_Ï_ÌÌ_È_ËÂÌÚ_346);}.cls-3{fill:url(#linear-gradient-2);}.cls-4{fill:#8b1e64;}.cls-5{fill:#fff;}</style><linearGradient id="linear-gradient" x1="5.1" y1="46.5" x2="53.43" y2="46.5" gradientUnits="userSpaceOnUse"><stop offset="0" stop-color="#ffcf3f"/><stop offset="0.34" stop-color="#f7aa27"/><stop offset="0.78" stop-color="#ed7f0b"/><stop offset="1" stop-color="#e96e00"/></linearGradient><radialGradient id="_ÂÁ_Ï_ÌÌ_È_ËÂÌÚ_346" cx="-3.47" cy="10.25" r="107.94" gradientUnits="userSpaceOnUse"><stop offset="0" stop-color="#01c8ef"/><stop offset="0.14" stop-color="#03bae4"/><stop offset="0.4" stop-color="#0895c8"/><stop offset="0.76" stop-color="#115a9a"/><stop offset="1" stop-color="#172f78"/></radialGradient><linearGradient id="linear-gradient-2" x1="9.22" y1="32.72" x2="77.76" y2="32.72" xlink:href="#linear-gradient"/></defs><title>nds-product</title><path class="cls-1" d="M77.76,46.48h0V32.8L60.47,35.11,47.53,27.64a9.11,9.11,0,0,0-8.23,0l-2,1.28L9.22,32.66V46.59h0a2.93,2.93,0,0,0,1.69,2.3L39.45,65.36a9.11,9.11,0,0,0,8.23,0l28.38-16.5a2.94,2.94,0,0,0,1.69-2.29h0Z"/><path class="cls-2" d="M76.06,30.33,47.53,13.85a9.11,9.11,0,0,0-8.23,0L10.92,30.36c-2.27,1.31-2.27,3.43,0,4.74L39.45,51.58a9.11,9.11,0,0,0,8.23,0L76.06,35.07C78.33,33.76,78.33,31.64,76.06,30.33Z"/><path class="cls-3" d="M76.06,30.33,47.53,13.85a9.11,9.11,0,0,0-8.23,0L10.92,30.36c-2.27,1.31-2.27,3.43,0,4.74L39.45,51.58a9.11,9.11,0,0,0,8.23,0L76.06,35.07C78.33,33.76,78.33,31.64,76.06,30.33Z"/><path class="cls-4" d="M43.54,46.24a5.84,5.84,0,0,1-2.91-.71L21.73,34.62a2.26,2.26,0,0,1-1.32-1.89,2.26,2.26,0,0,1,1.32-1.9L40.53,19.9a6.36,6.36,0,0,1,5.82,0l18.9,10.91a2.26,2.26,0,0,1,1.32,1.9,2.26,2.26,0,0,1-1.32,1.89L46.45,45.53A5.84,5.84,0,0,1,43.54,46.24Zm-.1-26.31a5.24,5.24,0,0,0-2.54.61L22.1,31.47a1.59,1.59,0,0,0-1,1.26,1.58,1.58,0,0,0,1,1.25L41,44.89a5.61,5.61,0,0,0,5.08,0L64.88,34a1.58,1.58,0,0,0,1-1.25,1.59,1.59,0,0,0-1-1.26L46,20.54A5.24,5.24,0,0,0,43.44,19.93Z"/><path class="cls-5" d="M76.06,34.25,47.68,50.75a9.11,9.11,0,0,1-8.23,0L10.92,34.28a3.16,3.16,0,0,1-1.65-2c-.21,1,.33,2,1.65,2.78L39.45,51.58a9.11,9.11,0,0,0,8.23,0L76.06,35.07c1.32-.76,1.86-1.79,1.65-2.78A3.16,3.16,0,0,1,76.06,34.25Z"/><polygon class="cls-5" points="51.51 55.23 50.16 56.01 50.16 54.45 51.51 53.67 51.51 55.23"/><polygon class="cls-5" points="54.34 53.6 52.99 54.38 52.99 52.82 54.34 52.04 54.34 53.6"/><polygon class="cls-5" points="57.16 51.97 55.81 52.75 55.81 51.19 57.16 50.41 57.16 51.97"/><polygon class="cls-5" points="54.85 56.46 53.5 57.24 53.5 55.68 54.85 54.9 54.85 56.46"/><polygon class="cls-5" points="57.34 55.02 55.99 55.8 55.99 54.24 57.34 53.46 57.34 55.02"/><polygon class="cls-5" points="66.23 46.73 64.88 47.51 64.88 45.95 66.23 45.17 66.23 46.73"/><polygon class="cls-5" points="74.01 42.24 72.66 43.02 72.66 41.46 74.01 40.68 74.01 42.24"/><polygon class="cls-5" points="59.99 50.34 58.64 51.12 58.64 49.55 59.99 48.77 59.99 50.34"/></svg>