<svg id="_ÎÓÈ_1" data-name="—ÎÓÈ_1" xmlns="http://www.w3.org/2000/svg" xmlns:xlink="http://www.w3.org/1999/xlink" viewBox="0 0 89.57 64.48"><defs><style>.cls-1{fill:url(#linear-gradient);}.cls-2{fill:url(#_ÂÁ_Ï_ÌÌ_È_ËÂÌÚ_346);}.cls-3{fill:url(#linear-gradient-2);}.cls-4{fill:#8b1e64;}.cls-5{fill:#fff;}</style><linearGradient id="linear-gradient" x1="7.69" y1="38.96" x2="56.03" y2="38.96" gradientUnits="userSpaceOnUse"><stop offset="0" stop-color="#ffcf3f"/><stop offset="0.34" stop-color="#f7aa27"/><stop offset="0.78" stop-color="#ed7f0b"/><stop offset="1" stop-color="#e96e00"/></linearGradient><radialGradient id="_ÂÁ_Ï_ÌÌ_È_ËÂÌÚ_346" cx="-0.88" cy="2.72" r="107.94" gradientUnits="userSpaceOnUse"><stop offset="0" stop-color="#01c8ef"/><stop offset="0.14" stop-color="#03bae4"/><stop offset="0.4" stop-color="#0895c8"/><stop offset="0.76" stop-color="#115a9a"/><stop offset="1" stop-color="#172f78"/></radialGradient><linearGradient id="linear-gradient-2" x1="11.81" y1="25.18" x2="80.36" y2="25.18" xlink:href="#linear-gradient"/></defs><title>nds-product</title><path class="cls-1" d="M80.36,38.94h0V25.26L63.06,27.57,50.12,20.1a9.09,9.09,0,0,0-8.22,0l-2,1.28L11.82,25.12V39.05h0a2.91,2.91,0,0,0,1.69,2.3L42.05,57.82a9.09,9.09,0,0,0,8.22,0l28.38-16.5A2.92,2.92,0,0,0,80.34,39h0Z"/><path class="cls-2" d="M78.65,22.79,50.12,6.31a9.09,9.09,0,0,0-8.22,0L13.52,22.82c-2.27,1.31-2.27,3.43,0,4.75L42.05,44a9.09,9.09,0,0,0,8.22,0L78.65,27.53C80.92,26.22,80.92,24.1,78.65,22.79Z"/><path class="cls-3" d="M78.65,22.79,50.12,6.31a9.09,9.09,0,0,0-8.22,0L13.52,22.82c-2.27,1.31-2.27,3.43,0,4.75L42.05,44a9.09,9.09,0,0,0,8.22,0L78.65,27.53C80.92,26.22,80.92,24.1,78.65,22.79Z"/><path class="cls-4" d="M46.13,38.7a5.9,5.9,0,0,1-2.9-.7L24.32,27.08A2.25,2.25,0,0,1,23,25.19a2.25,2.25,0,0,1,1.31-1.9l18.8-10.93a6.36,6.36,0,0,1,5.82,0L67.85,23.27a2.25,2.25,0,0,1,1.31,1.9,2.25,2.25,0,0,1-1.31,1.89L49,38A5.81,5.81,0,0,1,46.13,38.7ZM46,12.39A5.23,5.23,0,0,0,43.5,13L24.69,23.93a1.58,1.58,0,0,0-.94,1.26,1.57,1.57,0,0,0,.94,1.25L43.6,37.35a5.59,5.59,0,0,0,5.07,0L67.48,26.42a1.57,1.57,0,0,0,.94-1.25,1.55,1.55,0,0,0-.94-1.25L48.57,13A5.24,5.24,0,0,0,46,12.39Z"/><path class="cls-5" d="M78.65,26.71,50.27,43.21a9.09,9.09,0,0,1-8.22,0L13.52,26.74a3.18,3.18,0,0,1-1.66-2c-.21,1,.34,2,1.66,2.79L42.05,44a9.09,9.09,0,0,0,8.22,0L78.65,27.53c1.32-.76,1.87-1.79,1.66-2.78A3.21,3.21,0,0,1,78.65,26.71Z"/><polygon class="cls-5" points="54.11 47.69 52.76 48.47 52.76 46.91 54.11 46.13 54.11 47.69"/><polygon class="cls-5" points="56.93 46.06 55.58 46.84 55.58 45.28 56.93 44.5 56.93 46.06"/><polygon class="cls-5" points="59.76 44.43 58.41 45.21 58.41 43.65 59.76 42.87 59.76 44.43"/><polygon class="cls-5" points="57.45 48.92 56.1 49.7 56.1 48.14 57.45 47.36 57.45 48.92"/><polygon class="cls-5" points="59.94 47.48 58.59 48.26 58.59 46.7 59.94 45.92 59.94 47.48"/><polygon class="cls-5" points="68.82 39.19 67.47 39.97 67.47 38.41 68.82 37.63 68.82 39.19"/><polygon class="cls-5" points="76.61 34.7 75.26 35.48 75.26 33.92 76.61 33.14 76.61 34.7"/><polygon class="cls-5" points="62.59 42.8 61.23 43.58 61.23 42.02 62.59 41.24 62.59 42.8"/></svg>