<svg xmlns="http://www.w3.org/2000/svg" xmlns:xlink="http://www.w3.org/1999/xlink" width="112.38" height="112.38" viewBox="0 0 112.38 112.38"><defs><linearGradient id="a" x1="0.5" x2="-0.809" y2="1.359" gradientUnits="objectBoundingBox"><stop offset="0" stop-color="#ffde27"/><stop offset="1" stop-color="#ff320d"/></linearGradient></defs><g transform="translate(2.004 2)"><path d="M255.846,27.312c0-15.084-15.4-27.312-34.39-27.312s-34.39,12.228-34.39,27.312c0,13.476,12.289,24.671,28.453,26.905h-.049a17.043,17.043,0,0,1-4.7,14.761,16.861,16.861,0,0,0,16.662-14.76h-.049C243.552,51.986,255.846,40.79,255.846,27.312Z" transform="translate(-147.469)" stroke="#eaeaea" stroke-width="4" fill="url(#a)"/><g transform="translate(59.455 24.902)"><circle cx="2.408" cy="2.408" r="2.408" fill="#f14742"/><circle cx="2.408" cy="2.408" r="2.408" transform="translate(24.245)" fill="#f14742"/><circle cx="2.408" cy="2.408" r="2.408" transform="translate(12.124)" fill="#f14742"/></g><path d="M74.085,179.165a137.734,137.734,0,0,0-10.78-9.586L55.183,177.7l-32.5-32.5,8.122-8.123a137.682,137.682,0,0,0-9.586-10.78,137.735,137.735,0,0,0-10.78-9.586S.708,125.666.053,132.767c-.876,9.5,9.186,26.786,24.982,42.583s33.078,25.857,42.582,24.982c7.1-.655,16.054-10.387,16.054-10.387A137.625,137.625,0,0,0,74.085,179.165Z" transform="translate(0 -92.008)" fill="#dedede" stroke="#efefef" stroke-width="4"/></g></svg>