<svg xmlns="http://www.w3.org/2000/svg" xmlns:xlink="http://www.w3.org/1999/xlink" width="71.032" height="71.032" viewBox="0 0 71.032 71.032"><defs><linearGradient id="a" x1="0.5" x2="0.5" y2="1" gradientUnits="objectBoundingBox"><stop offset="0" stop-color="#d51331"/><stop offset="1" stop-color="#eb7602"/></linearGradient></defs><path d="M67.685,0H3.347A3.351,3.351,0,0,0,0,3.347V13.461a3.351,3.351,0,0,0,3.347,3.347H67.685a3.351,3.351,0,0,0,3.347-3.347V3.347A3.351,3.351,0,0,0,67.685,0Zm1.08,13.461a1.082,1.082,0,0,1-1.08,1.08H3.347a1.082,1.082,0,0,1-1.08-1.08V3.347a1.082,1.082,0,0,1,1.08-1.08H67.685a1.082,1.082,0,0,1,1.08,1.08V13.461Z" fill="url(#a)"/><path d="M83.921,174.327H49.242a1.133,1.133,0,1,0,0,2.267H83.921a1.133,1.133,0,1,0,0-2.267Z" transform="translate(-40.838 -147.98)" fill="url(#a)"/><path d="M395.291,159.327a3.4,3.4,0,1,0,3.4,3.4A3.4,3.4,0,0,0,395.291,159.327Zm0,4.534a1.133,1.133,0,1,1,1.134-1.133A1.135,1.135,0,0,1,395.291,163.861Z" transform="translate(-332.663 -135.247)" fill="url(#a)"/><path d="M329.073,159.327a3.4,3.4,0,1,0,3.4,3.4A3.4,3.4,0,0,0,329.073,159.327Zm0,4.534a1.133,1.133,0,1,1,1.133-1.133A1.135,1.135,0,0,1,329.073,163.861Z" transform="translate(-276.453 -135.247)" fill="url(#a)"/><path d="M67.685,126.218H3.347A3.351,3.351,0,0,0,0,129.565v10.114a3.351,3.351,0,0,0,3.347,3.347H67.685a3.351,3.351,0,0,0,3.347-3.347V129.565A3.351,3.351,0,0,0,67.685,126.218Zm1.08,13.461a1.082,1.082,0,0,1-1.08,1.08H3.347a1.082,1.082,0,0,1-1.08-1.08V129.565a1.082,1.082,0,0,1,1.08-1.08H67.685a1.082,1.082,0,0,1,1.08,1.08Z" transform="translate(0 -107.142)" fill="url(#a)"/><path d="M83.921,300.545H49.242a1.133,1.133,0,0,0,0,2.267H83.921a1.133,1.133,0,1,0,0-2.267Z" transform="translate(-40.838 -255.123)" fill="url(#a)"/><path d="M395.291,285.545a3.4,3.4,0,1,0,3.4,3.4A3.4,3.4,0,0,0,395.291,285.545Zm0,4.534a1.133,1.133,0,1,1,1.134-1.133A1.135,1.135,0,0,1,395.291,290.079Z" transform="translate(-332.663 -242.39)" fill="url(#a)"/><path d="M329.073,285.545a3.4,3.4,0,1,0,3.4,3.4A3.4,3.4,0,0,0,329.073,285.545Zm0,4.534a1.133,1.133,0,1,1,1.133-1.133A1.135,1.135,0,0,1,329.073,290.079Z" transform="translate(-276.453 -242.39)" fill="url(#a)"/><path d="M67.685,252.436H3.347A3.351,3.351,0,0,0,0,255.783V265.9a3.351,3.351,0,0,0,3.347,3.347H67.685a3.351,3.351,0,0,0,3.347-3.347V255.783A3.351,3.351,0,0,0,67.685,252.436Zm1.08,13.461a1.082,1.082,0,0,1-1.08,1.08H3.347a1.082,1.082,0,0,1-1.08-1.08V255.783a1.082,1.082,0,0,1,1.08-1.08H67.685a1.082,1.082,0,0,1,1.08,1.08Z" transform="translate(0 -214.285)" fill="url(#a)"/><path d="M69.9,386.414a1.133,1.133,0,0,0,0-2.267H44.245a1.133,1.133,0,0,0-1.119-.959H40.152v-3.4a1.133,1.133,0,0,0-2.267,0v4.534a1.133,1.133,0,0,0,1.133,1.133h2.974v4.737H29.04v-4.737h5.445a1.134,1.134,0,0,0,0-2.267H33.147v-3.4a1.133,1.133,0,0,0-2.267,0v3.4H27.906a1.133,1.133,0,0,0-1.119.959H1.133a1.133,1.133,0,0,0,0,2.267H26.773v2.267H1.133a1.133,1.133,0,1,0,0,2.267H26.773v.378a1.133,1.133,0,0,0,1.133,1.133h15.22a1.133,1.133,0,0,0,1.133-1.133v-.378H69.9a1.133,1.133,0,1,0,0-2.267H44.26v-2.267Z" transform="translate(0 -321.427)" fill="url(#a)"/><path d="M83.921,48.109H49.242a1.133,1.133,0,0,0,0,2.267H83.921a1.133,1.133,0,1,0,0-2.267Z" transform="translate(-40.838 -40.838)" fill="url(#a)"/><path d="M395.291,33.109a3.4,3.4,0,1,0,3.4,3.4A3.4,3.4,0,0,0,395.291,33.109Zm0,4.534a1.133,1.133,0,1,1,1.134-1.133A1.135,1.135,0,0,1,395.291,37.643Z" transform="translate(-332.663 -28.105)" fill="url(#a)"/><path d="M329.073,33.109a3.4,3.4,0,1,0,3.4,3.4A3.4,3.4,0,0,0,329.073,33.109Zm0,4.534a1.133,1.133,0,1,1,1.133-1.133A1.135,1.135,0,0,1,329.073,37.643Z" transform="translate(-276.453 -28.105)" fill="url(#a)"/></svg>