<svg xmlns="http://www.w3.org/2000/svg" xmlns:xlink="http://www.w3.org/1999/xlink" width="584.499" height="466.518" viewBox="0 0 584.499 466.518"><defs><style>.a,.c{fill:none;}.b{opacity:0.962;clip-path:url(#a);}.c{stroke:#e71718;stroke-width:0.5px;}</style><clipPath id="a"><rect class="a" width="584.499" height="466.518"/></clipPath></defs><g transform="translate(138.249 -1502.491)"><g class="b" transform="translate(-138.249 1502.491)"><g transform="translate(-146.751 -1520.491)"><line class="c" x2="0.058" y2="6.676" transform="translate(160.5 1531.412)"/><line class="c" x2="6.441" transform="translate(157.279 1534.692)"/></g><g transform="translate(-66.751 -1520.491)"><line class="c" x2="0.058" y2="6.676" transform="translate(160.5 1531.412)"/><line class="c" x2="6.441" transform="translate(157.279 1534.692)"/></g><g transform="translate(13.249 -1520.491)"><line class="c" x2="0.058" y2="6.676" transform="translate(160.5 1531.412)"/><line class="c" x2="6.441" transform="translate(157.279 1534.692)"/></g><g transform="translate(93.249 -1520.491)"><line class="c" x2="0.058" y2="6.676" transform="translate(160.5 1531.412)"/><line class="c" x2="6.441" transform="translate(157.279 1534.692)"/></g><g transform="translate(173.249 -1520.491)"><line class="c" x2="0.058" y2="6.676" transform="translate(160.5 1531.412)"/><line class="c" x2="6.441" transform="translate(157.279 1534.692)"/></g><g transform="translate(253.249 -1520.491)"><line class="c" x2="0.058" y2="6.676" transform="translate(160.5 1531.412)"/><line class="c" x2="6.441" transform="translate(157.279 1534.692)"/></g><g transform="translate(333.249 -1520.491)"><line class="c" x2="0.058" y2="6.676" transform="translate(160.5 1531.412)"/><line class="c" x2="6.441" transform="translate(157.279 1534.692)"/></g><g transform="translate(413.249 -1520.491)"><line class="c" x2="0.058" y2="6.676" transform="translate(160.5 1531.412)"/><line class="c" x2="6.441" transform="translate(157.279 1534.692)"/></g><g transform="translate(-146.751 -1471.491)"><line class="c" x2="0.058" y2="6.676" transform="translate(160.5 1531.412)"/><line class="c" x2="6.441" transform="translate(157.279 1534.692)"/></g><g transform="translate(-66.751 -1471.491)"><line class="c" x2="0.058" y2="6.676" transform="translate(160.5 1531.412)"/><line class="c" x2="6.441" transform="translate(157.279 1534.692)"/></g><g transform="translate(13.249 -1471.491)"><line class="c" x2="0.058" y2="6.676" transform="translate(160.5 1531.412)"/><line class="c" x2="6.441" transform="translate(157.279 1534.692)"/></g><g transform="translate(93.249 -1471.491)"><line class="c" x2="0.058" y2="6.676" transform="translate(160.5 1531.412)"/><line class="c" x2="6.441" transform="translate(157.279 1534.692)"/></g><g transform="translate(173.249 -1471.491)"><line class="c" x2="0.058" y2="6.676" transform="translate(160.5 1531.412)"/><line class="c" x2="6.441" transform="translate(157.279 1534.692)"/></g><g transform="translate(253.249 -1471.491)"><line class="c" x2="0.058" y2="6.676" transform="translate(160.5 1531.412)"/><line class="c" x2="6.441" transform="translate(157.279 1534.692)"/></g><g transform="translate(333.249 -1471.491)"><line class="c" x2="0.058" y2="6.676" transform="translate(160.5 1531.412)"/><line class="c" x2="6.441" transform="translate(157.279 1534.692)"/></g><g transform="translate(413.249 -1471.491)"><line class="c" x2="0.058" y2="6.676" transform="translate(160.5 1531.412)"/><line class="c" x2="6.441" transform="translate(157.279 1534.692)"/></g><g transform="translate(-146.751 -1422.491)"><line class="c" x2="0.058" y2="6.676" transform="translate(160.5 1531.412)"/><line class="c" x2="6.441" transform="translate(157.279 1534.692)"/></g><g transform="translate(-66.751 -1422.491)"><line class="c" x2="0.058" y2="6.676" transform="translate(160.5 1531.412)"/><line class="c" x2="6.441" transform="translate(157.279 1534.692)"/></g><g transform="translate(13.249 -1422.491)"><line class="c" x2="0.058" y2="6.676" transform="translate(160.5 1531.412)"/><line class="c" x2="6.441" transform="translate(157.279 1534.692)"/></g><g transform="translate(93.249 -1422.491)"><line class="c" x2="0.058" y2="6.676" transform="translate(160.5 1531.412)"/><line class="c" x2="6.441" transform="translate(157.279 1534.692)"/></g><g transform="translate(173.249 -1422.491)"><line class="c" x2="0.058" y2="6.676" transform="translate(160.5 1531.412)"/><line class="c" x2="6.441" transform="translate(157.279 1534.692)"/></g><g transform="translate(253.249 -1422.491)"><line class="c" x2="0.058" y2="6.676" transform="translate(160.5 1531.412)"/><line class="c" x2="6.441" transform="translate(157.279 1534.692)"/></g><g transform="translate(333.249 -1422.491)"><line class="c" x2="0.058" y2="6.676" transform="translate(160.5 1531.412)"/><line class="c" x2="6.441" transform="translate(157.279 1534.692)"/></g><g transform="translate(413.249 -1422.491)"><line class="c" x2="0.058" y2="6.676" transform="translate(160.5 1531.412)"/><line class="c" x2="6.441" transform="translate(157.279 1534.692)"/></g><g transform="translate(-146.751 -1373.491)"><line class="c" x2="0.058" y2="6.676" transform="translate(160.5 1531.412)"/><line class="c" x2="6.441" transform="translate(157.279 1534.692)"/></g><g transform="translate(-66.751 -1373.491)"><line class="c" x2="0.058" y2="6.676" transform="translate(160.5 1531.412)"/><line class="c" x2="6.441" transform="translate(157.279 1534.692)"/></g><g transform="translate(13.249 -1373.491)"><line class="c" x2="0.058" y2="6.676" transform="translate(160.5 1531.412)"/><line class="c" x2="6.441" transform="translate(157.279 1534.692)"/></g><g transform="translate(93.249 -1373.491)"><line class="c" x2="0.058" y2="6.676" transform="translate(160.5 1531.412)"/><line class="c" x2="6.441" transform="translate(157.279 1534.692)"/></g><g transform="translate(173.249 -1373.491)"><line class="c" x2="0.058" y2="6.676" transform="translate(160.5 1531.412)"/><line class="c" x2="6.441" transform="translate(157.279 1534.692)"/></g><g transform="translate(253.249 -1373.491)"><line class="c" x2="0.058" y2="6.676" transform="translate(160.5 1531.412)"/><line class="c" x2="6.441" transform="translate(157.279 1534.692)"/></g><g transform="translate(333.249 -1373.491)"><line class="c" x2="0.058" y2="6.676" transform="translate(160.5 1531.412)"/><line class="c" x2="6.441" transform="translate(157.279 1534.692)"/></g><g transform="translate(413.249 -1373.491)"><line class="c" x2="0.058" y2="6.676" transform="translate(160.5 1531.412)"/><line class="c" x2="6.441" transform="translate(157.279 1534.692)"/></g><g transform="translate(-146.751 -1324.491)"><line class="c" x2="0.058" y2="6.676" transform="translate(160.5 1531.412)"/><line class="c" x2="6.441" transform="translate(157.279 1534.692)"/></g><g transform="translate(-66.751 -1324.491)"><line class="c" x2="0.058" y2="6.676" transform="translate(160.5 1531.412)"/><line class="c" x2="6.441" transform="translate(157.279 1534.692)"/></g><g transform="translate(13.249 -1324.491)"><line class="c" x2="0.058" y2="6.676" transform="translate(160.5 1531.412)"/><line class="c" x2="6.441" transform="translate(157.279 1534.692)"/></g><g transform="translate(93.249 -1324.491)"><line class="c" x2="0.058" y2="6.676" transform="translate(160.5 1531.412)"/><line class="c" x2="6.441" transform="translate(157.279 1534.692)"/></g><g transform="translate(173.249 -1324.491)"><line class="c" x2="0.058" y2="6.676" transform="translate(160.5 1531.412)"/><line class="c" x2="6.441" transform="translate(157.279 1534.692)"/></g><g transform="translate(253.249 -1324.491)"><line class="c" x2="0.058" y2="6.676" transform="translate(160.5 1531.412)"/><line class="c" x2="6.441" transform="translate(157.279 1534.692)"/></g><g transform="translate(333.249 -1324.491)"><line class="c" x2="0.058" y2="6.676" transform="translate(160.5 1531.412)"/><line class="c" x2="6.441" transform="translate(157.279 1534.692)"/></g><g transform="translate(413.249 -1324.491)"><line class="c" x2="0.058" y2="6.676" transform="translate(160.5 1531.412)"/><line class="c" x2="6.441" transform="translate(157.279 1534.692)"/></g><g transform="translate(-146.751 -1275.491)"><line class="c" x2="0.058" y2="6.676" transform="translate(160.5 1531.412)"/><line class="c" x2="6.441" transform="translate(157.279 1534.692)"/></g><g transform="translate(-66.751 -1275.491)"><line class="c" x2="0.058" y2="6.676" transform="translate(160.5 1531.412)"/><line class="c" x2="6.441" transform="translate(157.279 1534.692)"/></g><g transform="translate(13.249 -1275.491)"><line class="c" x2="0.058" y2="6.676" transform="translate(160.5 1531.412)"/><line class="c" x2="6.441" transform="translate(157.279 1534.692)"/></g><g transform="translate(93.249 -1275.491)"><line class="c" x2="0.058" y2="6.676" transform="translate(160.5 1531.412)"/><line class="c" x2="6.441" transform="translate(157.279 1534.692)"/></g><g transform="translate(173.249 -1275.491)"><line class="c" x2="0.058" y2="6.676" transform="translate(160.5 1531.412)"/><line class="c" x2="6.441" transform="translate(157.279 1534.692)"/></g><g transform="translate(253.249 -1275.491)"><line class="c" x2="0.058" y2="6.676" transform="translate(160.5 1531.412)"/><line class="c" x2="6.441" transform="translate(157.279 1534.692)"/></g><g transform="translate(333.249 -1275.491)"><line class="c" x2="0.058" y2="6.676" transform="translate(160.5 1531.412)"/><line class="c" x2="6.441" transform="translate(157.279 1534.692)"/></g><g transform="translate(413.249 -1275.491)"><line class="c" x2="0.058" y2="6.676" transform="translate(160.5 1531.412)"/><line class="c" x2="6.441" transform="translate(157.279 1534.692)"/></g><g transform="translate(-146.751 -1226.491)"><line class="c" x2="0.058" y2="6.676" transform="translate(160.5 1531.412)"/><line class="c" x2="6.441" transform="translate(157.279 1534.692)"/></g><g transform="translate(-66.751 -1226.491)"><line class="c" x2="0.058" y2="6.676" transform="translate(160.5 1531.412)"/><line class="c" x2="6.441" transform="translate(157.279 1534.692)"/></g><g transform="translate(13.249 -1226.491)"><line class="c" x2="0.058" y2="6.676" transform="translate(160.5 1531.412)"/><line class="c" x2="6.441" transform="translate(157.279 1534.692)"/></g><g transform="translate(93.249 -1226.491)"><line class="c" x2="0.058" y2="6.676" transform="translate(160.5 1531.412)"/><line class="c" x2="6.441" transform="translate(157.279 1534.692)"/></g><g transform="translate(173.249 -1226.491)"><line class="c" x2="0.058" y2="6.676" transform="translate(160.5 1531.412)"/><line class="c" x2="6.441" transform="translate(157.279 1534.692)"/></g><g transform="translate(253.249 -1226.491)"><line class="c" x2="0.058" y2="6.676" transform="translate(160.5 1531.412)"/><line class="c" x2="6.441" transform="translate(157.279 1534.692)"/></g><g transform="translate(333.249 -1226.491)"><line class="c" x2="0.058" y2="6.676" transform="translate(160.5 1531.412)"/><line class="c" x2="6.441" transform="translate(157.279 1534.692)"/></g><g transform="translate(413.249 -1226.491)"><line class="c" x2="0.058" y2="6.676" transform="translate(160.5 1531.412)"/><line class="c" x2="6.441" transform="translate(157.279 1534.692)"/></g><g transform="translate(-146.751 -1177.491)"><line class="c" x2="0.058" y2="6.676" transform="translate(160.5 1531.412)"/><line class="c" x2="6.441" transform="translate(157.279 1534.692)"/></g><g transform="translate(-66.751 -1177.491)"><line class="c" x2="0.058" y2="6.676" transform="translate(160.5 1531.412)"/><line class="c" x2="6.441" transform="translate(157.279 1534.692)"/></g><g transform="translate(13.249 -1177.491)"><line class="c" x2="0.058" y2="6.676" transform="translate(160.5 1531.412)"/><line class="c" x2="6.441" transform="translate(157.279 1534.692)"/></g><g transform="translate(93.249 -1177.491)"><line class="c" x2="0.058" y2="6.676" transform="translate(160.5 1531.412)"/><line class="c" x2="6.441" transform="translate(157.279 1534.692)"/></g><g transform="translate(173.249 -1177.491)"><line class="c" x2="0.058" y2="6.676" transform="translate(160.5 1531.412)"/><line class="c" x2="6.441" transform="translate(157.279 1534.692)"/></g><g transform="translate(253.249 -1177.491)"><line class="c" x2="0.058" y2="6.676" transform="translate(160.5 1531.412)"/><line class="c" x2="6.441" transform="translate(157.279 1534.692)"/></g><g transform="translate(333.249 -1177.491)"><line class="c" x2="0.058" y2="6.676" transform="translate(160.5 1531.412)"/><line class="c" x2="6.441" transform="translate(157.279 1534.692)"/></g><g transform="translate(413.249 -1177.491)"><line class="c" x2="0.058" y2="6.676" transform="translate(160.5 1531.412)"/><line class="c" x2="6.441" transform="translate(157.279 1534.692)"/></g><g transform="translate(-146.751 -1128.491)"><line class="c" x2="0.058" y2="6.676" transform="translate(160.5 1531.412)"/><line class="c" x2="6.441" transform="translate(157.279 1534.692)"/></g><g transform="translate(-66.751 -1128.491)"><line class="c" x2="0.058" y2="6.676" transform="translate(160.5 1531.412)"/><line class="c" x2="6.441" transform="translate(157.279 1534.692)"/></g><g transform="translate(13.249 -1128.491)"><line class="c" x2="0.058" y2="6.676" transform="translate(160.5 1531.412)"/><line class="c" x2="6.441" transform="translate(157.279 1534.692)"/></g><g transform="translate(93.249 -1128.491)"><line class="c" x2="0.058" y2="6.676" transform="translate(160.5 1531.412)"/><line class="c" x2="6.441" transform="translate(157.279 1534.692)"/></g><g transform="translate(173.249 -1128.491)"><line class="c" x2="0.058" y2="6.676" transform="translate(160.5 1531.412)"/><line class="c" x2="6.441" transform="translate(157.279 1534.692)"/></g><g transform="translate(253.249 -1128.491)"><line class="c" x2="0.058" y2="6.676" transform="translate(160.5 1531.412)"/><line class="c" x2="6.441" transform="translate(157.279 1534.692)"/></g><g transform="translate(333.249 -1128.491)"><line class="c" x2="0.058" y2="6.676" transform="translate(160.5 1531.412)"/><line class="c" x2="6.441" transform="translate(157.279 1534.692)"/></g><g transform="translate(413.249 -1128.491)"><line class="c" x2="0.058" y2="6.676" transform="translate(160.5 1531.412)"/><line class="c" x2="6.441" transform="translate(157.279 1534.692)"/></g><g transform="translate(-146.751 -1079.491)"><line class="c" x2="0.058" y2="6.676" transform="translate(160.5 1531.412)"/><line class="c" x2="6.441" transform="translate(157.279 1534.692)"/></g><g transform="translate(-66.751 -1079.491)"><line class="c" x2="0.058" y2="6.676" transform="translate(160.5 1531.412)"/><line class="c" x2="6.441" transform="translate(157.279 1534.692)"/></g><g transform="translate(13.249 -1079.491)"><line class="c" x2="0.058" y2="6.676" transform="translate(160.5 1531.412)"/><line class="c" x2="6.441" transform="translate(157.279 1534.692)"/></g><g transform="translate(93.249 -1079.491)"><line class="c" x2="0.058" y2="6.676" transform="translate(160.5 1531.412)"/><line class="c" x2="6.441" transform="translate(157.279 1534.692)"/></g><g transform="translate(173.249 -1079.491)"><line class="c" x2="0.058" y2="6.676" transform="translate(160.5 1531.412)"/><line class="c" x2="6.441" transform="translate(157.279 1534.692)"/></g><g transform="translate(253.249 -1079.491)"><line class="c" x2="0.058" y2="6.676" transform="translate(160.5 1531.412)"/><line class="c" x2="6.441" transform="translate(157.279 1534.692)"/></g><g transform="translate(333.249 -1079.491)"><line class="c" x2="0.058" y2="6.676" transform="translate(160.5 1531.412)"/><line class="c" x2="6.441" transform="translate(157.279 1534.692)"/></g><g transform="translate(413.249 -1079.491)"><line class="c" x2="0.058" y2="6.676" transform="translate(160.5 1531.412)"/><line class="c" x2="6.441" transform="translate(157.279 1534.692)"/></g></g></g></svg>