<svg xmlns="http://www.w3.org/2000/svg" xmlns:xlink="http://www.w3.org/1999/xlink" width="79.66" height="71.697" viewBox="0 0 79.66 71.697"><defs><linearGradient id="a" x1="0.5" x2="0.5" y2="1" gradientUnits="objectBoundingBox"><stop offset="0" stop-color="#d51331"/><stop offset="1" stop-color="#eb7602"/></linearGradient></defs><g transform="translate(22.57 63.731)"><rect width="2.655" height="2.655" fill="url(#a)"/></g><g transform="translate(27.881 63.731)"><rect width="2.655" height="2.655" fill="url(#a)"/></g><g transform="translate(22.57 47.799)"><rect width="2.655" height="2.655" fill="url(#a)"/></g><g transform="translate(27.881 47.799)"><rect width="2.655" height="2.655" fill="url(#a)"/></g><g transform="translate(0 0)"><path d="M62.4,39.926a17.316,17.316,0,0,0-2.3.154A22.561,22.561,0,0,0,15.966,45.3c-.453-.042-.908-.064-1.362-.064a14.6,14.6,0,0,0,0,29.209H17.26v3.983a1.328,1.328,0,0,0,1.328,1.328h2.655v2.655H18.587a1.328,1.328,0,0,0-1.328,1.328V94.36a1.328,1.328,0,0,0,1.328,1.328H61.072A1.328,1.328,0,0,0,62.4,94.36V83.739a1.328,1.328,0,0,0-1.328-1.328H58.417V79.756h2.655A1.328,1.328,0,0,0,62.4,78.429V74.446a17.26,17.26,0,1,0,0-34.519Zm-2.655,45.14v7.966H19.915V85.067ZM23.9,82.412V79.756H55.762v2.655ZM59.745,77.1H19.915V69.135h39.83Zm5.641-5.62a14.607,14.607,0,0,1-2.986.309V67.807a1.328,1.328,0,0,0-1.328-1.328H47.8V54.531H59.989a3.983,3.983,0,1,0,0-2.655H46.468A1.328,1.328,0,0,0,45.14,53.2V66.48H38.5V41.254h5.555a3.983,3.983,0,1,0,0-2.655H37.174a1.328,1.328,0,0,0-1.328,1.328V66.48H29.209V57.186a1.328,1.328,0,0,0-1.328-1.328H21a3.983,3.983,0,1,0,0,2.655h5.555V66.48H18.587a1.328,1.328,0,0,0-1.328,1.328V71.79H14.6a11.949,11.949,0,0,1,0-23.9,12.124,12.124,0,0,1,2.406.243,1.345,1.345,0,0,0,1.111-.28,1.327,1.327,0,0,0,.479-1.041c0-.027-.012-.223-.013-.25A19.9,19.9,0,0,1,57.845,41.9a1.328,1.328,0,0,0,1.561.99,14.6,14.6,0,0,1,5.98,28.59ZM62.4,53.2a1.328,1.328,0,1,1,1.328,1.328A1.328,1.328,0,0,1,62.4,53.2ZM46.468,39.926A1.328,1.328,0,1,1,47.8,41.254,1.328,1.328,0,0,1,46.468,39.926ZM18.587,57.186a1.328,1.328,0,1,1-1.328-1.328A1.328,1.328,0,0,1,18.587,57.186Z" transform="translate(0 -23.992)" fill="url(#a)"/></g></svg>