<svg xmlns="http://www.w3.org/2000/svg" xmlns:xlink="http://www.w3.org/1999/xlink" width="77.115" height="77.115" viewBox="0 0 77.115 77.115"><defs><linearGradient id="a" x1="0.5" x2="0.5" y2="1" gradientUnits="objectBoundingBox"><stop offset="0" stop-color="#d51331"/><stop offset="1" stop-color="#eb7602"/></linearGradient></defs><path d="M421.369,74.976a1.5,1.5,0,0,1-1.064-.441l-.021-.021a1.505,1.505,0,0,1,2.129-2.129l.021.021a1.5,1.5,0,0,1-1.064,2.569Zm0,0" transform="translate(-356.608 -61.108)" fill="url(#a)"/><path d="M111.682,221.22a1.386,1.386,0,0,0-1.422,1.1l-1.554,5.021-1.516-4.778c-.3-.909-.824-1.362-1.554-1.362q-1.025,0-1.46,1.362l-1.533,4.778-1.554-5.021a1.42,1.42,0,0,0-1.443-1.1,1.368,1.368,0,0,0-1.029.427,1.436,1.436,0,0,0-.41,1.033,1.59,1.59,0,0,0,.115.606l2.6,6.955c.376.986.965,1.477,1.759,1.477q1.121,0,1.576-1.345l1.421-4.205,1.422,4.205q.468,1.345,1.571,1.345,1.211,0,1.763-1.477l2.6-6.955a2.02,2.02,0,0,0,.111-.606,1.423,1.423,0,0,0-1.456-1.46Zm0,0" transform="translate(-83.416 -187.887)" fill="url(#a)"/><path d="M330.068,221.22a1.386,1.386,0,0,0-1.422,1.1l-1.554,5.021-1.516-4.778q-.455-1.363-1.554-1.362-1.024,0-1.46,1.362l-1.533,4.778-1.554-5.021a1.415,1.415,0,0,0-1.439-1.1,1.379,1.379,0,0,0-1.034.427,1.438,1.438,0,0,0-.409,1.033,1.589,1.589,0,0,0,.115.606l2.6,6.955c.38.986.965,1.477,1.763,1.477.742,0,1.268-.448,1.571-1.345l1.422-4.205,1.421,4.205q.474,1.345,1.571,1.345c.811,0,1.4-.491,1.763-1.477l2.6-6.955a1.932,1.932,0,0,0,.115-.606,1.429,1.429,0,0,0-1.46-1.46Zm0,0" transform="translate(-268.91 -187.887)" fill="url(#a)"/><path d="M220.873,221.22a1.386,1.386,0,0,0-1.422,1.1l-1.554,5.021-1.516-4.778q-.455-1.363-1.554-1.362-1.025,0-1.46,1.362l-1.533,4.778-1.554-5.021a1.416,1.416,0,0,0-1.439-1.1,1.371,1.371,0,0,0-1.033.427,1.439,1.439,0,0,0-.41,1.033,1.6,1.6,0,0,0,.115.606l2.6,6.955c.38.986.965,1.477,1.763,1.477q1.115,0,1.571-1.345l1.421-4.205,1.422,4.205c.316.9.837,1.345,1.571,1.345q1.211,0,1.763-1.477l2.6-6.955a1.9,1.9,0,0,0,.111-.606,1.423,1.423,0,0,0-1.456-1.46Zm0,0" transform="translate(-176.161 -187.887)" fill="url(#a)"/><path d="M69.793,15.949a1.505,1.505,0,0,0-2.437,1.767,35.4,35.4,0,0,1,4.827,9.268c-3.6-3.919-9-7.147-15.555-9.259a39.772,39.772,0,0,0-4.559-9.213,25.771,25.771,0,0,0-3.394-4.044A35.328,35.328,0,0,1,59.059,9.513,1.5,1.5,0,1,0,60.8,7.056a38.559,38.559,0,0,0-49.5,58.765A38.559,38.559,0,0,0,77.115,38.555,38.277,38.277,0,0,0,69.793,15.949Zm-.665,27.128V40.06H74c-.756,5.856-5.892,11.286-14.123,14.884a5.514,5.514,0,0,0-1.546-1.43c.3-1.31.565-2.652.785-4.014h3.587A6.429,6.429,0,0,0,69.127,43.077ZM65.215,25.032c5.15,3.386,8.219,7.605,8.791,12.018H69.127V34.073a6.429,6.429,0,0,0-6.419-6.424H59.13A59.767,59.767,0,0,0,57.749,21.3,37.636,37.636,0,0,1,65.215,25.032Zm-9.137,2.617H40.06V21.78a5.5,5.5,0,0,0,3.691-3.538,55.153,55.153,0,0,1,10.521,1.912A55.287,55.287,0,0,1,56.078,27.649ZM40.06,3.131c4.274.678,7.5,4.135,9.528,7.085A34.674,34.674,0,0,1,53.021,16.7a59.167,59.167,0,0,0-9.144-1.472,5.493,5.493,0,0,0-3.817-3.979Zm.961,13.386a2.466,2.466,0,1,1-2.466-2.466A2.468,2.468,0,0,1,41.021,16.517ZM37.05,21.78v5.869H21.036a55.212,55.212,0,0,1,1.806-7.495A55.166,55.166,0,0,1,33.36,18.242,5.5,5.5,0,0,0,37.05,21.78Zm0-18.649v8.123a5.494,5.494,0,0,0-3.817,3.979A59.218,59.218,0,0,0,24.091,16.7a34.665,34.665,0,0,1,3.434-6.489C29.552,7.266,32.778,3.81,37.05,3.131ZM28.42,4.485a25.8,25.8,0,0,0-3.375,4.027,39.737,39.737,0,0,0-4.559,9.213c-6.545,2.109-11.929,5.327-15.532,9.236A35.706,35.706,0,0,1,28.42,4.485ZM14.7,49.5H17.99c.219,1.351.482,2.693.787,4.014a5.529,5.529,0,0,0-1.546,1.429C9,51.346,3.867,45.917,3.111,40.061H8.283v3.016A6.429,6.429,0,0,0,14.7,49.5ZM8.283,34.073V37.05H3.109c.571-4.412,3.641-8.632,8.79-12.018A37.64,37.64,0,0,1,19.365,21.3a59.934,59.934,0,0,0-1.38,6.348H14.7A6.429,6.429,0,0,0,8.283,34.073Zm-3.322,16.1a32.963,32.963,0,0,0,11.228,7.6c-.009.132-.016.266-.016.4a5.482,5.482,0,0,0,5.476,5.476,5.579,5.579,0,0,0,.564-.029,30.142,30.142,0,0,0,6.228,9.016A35.707,35.707,0,0,1,4.961,50.173Zm14.222,8a2.465,2.465,0,1,1,2.466,2.466A2.468,2.468,0,0,1,19.183,58.173ZM37.05,73.984c-4.574-.738-8.863-4.82-12.043-11.491a5.518,5.518,0,0,0,1.378-1.579A61.189,61.189,0,0,0,37.05,62.085Zm0-14.909a58.222,58.222,0,0,1-9.931-1.083,5.481,5.481,0,0,0-5.44-5.293c-.24-1.054-.454-2.123-.638-3.2H37.05ZM14.7,46.49a3.416,3.416,0,0,1-3.409-3.414v-9A3.416,3.416,0,0,1,14.7,30.659H62.708a3.416,3.416,0,0,1,3.409,3.414v9a3.416,3.416,0,0,1-3.409,3.414Zm40.76,9.218a2.466,2.466,0,0,1,.732.111h0a2.465,2.465,0,1,1-.733-.112Zm-5.471,2.285a58.21,58.21,0,0,1-9.931,1.083V49.5H56.07q-.277,1.626-.637,3.2A5.48,5.48,0,0,0,49.991,57.992ZM40.06,73.984v-11.9a61.241,61.241,0,0,0,10.665-1.17A5.506,5.506,0,0,0,52.1,62.494C48.928,69.165,44.637,73.247,40.06,73.984Zm8.615-1.348A30.1,30.1,0,0,0,54.9,63.62a5.579,5.579,0,0,0,.564.029,5.482,5.482,0,0,0,5.476-5.476c0-.134-.006-.267-.016-.4a32.974,32.974,0,0,0,11.233-7.6A35.709,35.709,0,0,1,48.675,72.635Zm0,0" fill="url(#a)"/></svg>