<svg xmlns="http://www.w3.org/2000/svg" xmlns:xlink="http://www.w3.org/1999/xlink" width="130.075" height="122.102" viewBox="0 0 130.075 122.102"><defs><linearGradient id="a" x1="0.5" x2="0.685" y2="-1.839" gradientUnits="objectBoundingBox"><stop offset="0" stop-color="#ffde27"/><stop offset="1" stop-color="#ff320d"/></linearGradient><linearGradient id="b" x2="0.5" y2="1" xlink:href="#a"/></defs><g transform="translate(-327.695 -73.456)"><g transform="translate(327.695 91.267)"><path d="M4.889,0H99.4a4.9,4.9,0,0,1,4.889,4.889V99.4a4.9,4.9,0,0,1-4.889,4.889H4.889A4.9,4.9,0,0,1,0,99.4V4.889A4.9,4.9,0,0,1,4.889,0Z" fill="#efefef"/><path d="M34.767,102.4H119.5a3.269,3.269,0,0,1,3.259,3.259v70.07a3.269,3.269,0,0,1-3.259,3.259H34.767a3.269,3.269,0,0,1-3.259-3.259v-70.07A3.269,3.269,0,0,1,34.767,102.4Z" transform="translate(-24.99 -81.216)" fill="#fff"/><path d="M192.305,35.446H244.45a3.259,3.259,0,0,1,0,6.518H192.305a3.259,3.259,0,1,1,0-6.518Z" transform="translate(-149.937 -28.113)" fill="#dcdcdc"/><path d="M74.151,141.785h68.441a3.269,3.269,0,0,1,3.259,3.259V164.6a3.269,3.269,0,0,1-3.259,3.259H74.151a3.269,3.269,0,0,1-3.259-3.259V145.044A3.269,3.269,0,0,1,74.151,141.785Z" transform="translate(-56.226 -112.453)" fill="url(#a)"/><path d="M74.151,311.138h26.887A3.269,3.269,0,0,1,104.3,314.4v17.925a3.269,3.269,0,0,1-3.259,3.259H74.151a3.269,3.269,0,0,1-3.259-3.259V314.4A3.269,3.269,0,0,1,74.151,311.138Zm69.255,0H113.26a2.444,2.444,0,1,0,0,4.888h30.146a2.4,2.4,0,0,0,2.444-2.444A2.451,2.451,0,0,0,143.406,311.138Zm0,9.777H113.26a2.444,2.444,0,1,0,0,4.888h30.146a2.4,2.4,0,0,0,2.444-2.444A2.451,2.451,0,0,0,143.406,320.915Zm0,9.777H113.26a2.444,2.444,0,1,0,0,4.888h30.146a2.4,2.4,0,0,0,2.444-2.444A2.451,2.451,0,0,0,143.406,330.693Z" transform="translate(-56.226 -246.771)" fill="#ebebeb"/><path d="M135.4,173.292c-.489,4.155-2.77,6.437-6.926,6.926,4.155.489,6.437,2.77,6.926,6.926.489-4.155,2.77-6.437,6.926-6.926C138.168,179.729,135.887,177.447,135.4,173.292Zm-27.7,3.259a5.393,5.393,0,0,1-5.3,5.3,5.393,5.393,0,0,1,5.3,5.3,5.393,5.393,0,0,1,5.3-5.3A5.393,5.393,0,0,1,107.7,176.551Z" transform="translate(-81.216 -137.442)" fill="#efc75e"/><path d="M165.551,165.415a4.14,4.14,0,0,1-4.074,4.074,4.14,4.14,0,0,1,4.074,4.074,4.14,4.14,0,0,1,4.074-4.074A4.14,4.14,0,0,1,165.551,165.415Zm33.813,8.148a3.759,3.759,0,0,1-3.666,3.666,3.759,3.759,0,0,1,3.666,3.666,3.759,3.759,0,0,1,3.666-3.666A3.759,3.759,0,0,1,199.364,173.563Zm8.555-8.148a4.14,4.14,0,0,1-4.074,4.074,4.14,4.14,0,0,1,4.074,4.074,4.14,4.14,0,0,1,4.074-4.074A4.14,4.14,0,0,1,207.919,165.415Z" transform="translate(-128.071 -131.195)" fill="#5b717c"/><path d="M34.767,35.446a3.259,3.259,0,1,0,3.259,3.259A3.269,3.269,0,0,0,34.767,35.446Zm9.777,0A3.259,3.259,0,1,0,47.8,38.705,3.269,3.269,0,0,0,44.544,35.446Zm9.777,0a3.259,3.259,0,1,0,3.259,3.259A3.269,3.269,0,0,0,54.322,35.446Z" transform="translate(-24.99 -28.113)" fill="#bfc3c5"/></g><g transform="translate(400.209 68.436)"><path d="M47.071,38.557a29.129,29.129,0,0,1-6.977,10.869A36.518,36.518,0,0,1,26.46,57.5a4.171,4.171,0,0,1-1.325.234h-.05a4.233,4.233,0,0,1-.813-.08,4.392,4.392,0,0,1-.559-.152,36.516,36.516,0,0,1-13.651-8.074A29.075,29.075,0,0,1,3.086,38.565C.268,30.918.429,22.494.558,15.724l0-.1c.026-.559.043-1.146.052-1.795A6.119,6.119,0,0,1,6.374,7.831C13.013,7.46,18.148,5.3,22.536,1.018l.038-.035a3.7,3.7,0,0,1,5.021,0l.037.035C32.022,5.3,37.157,7.46,43.8,7.831a6.119,6.119,0,0,1,5.762,5.995c.009.653.026,1.239.052,1.795v.044C49.74,22.447,49.9,30.888,47.071,38.557Zm0,0" transform="translate(5.053 6.52)" fill="#ddd" stroke="#efefef" stroke-width="3"/><path d="M268.689,33.491Zm-2.84,25.6" transform="translate(-211.128 -12.867)" fill="#ddd"/><path d="M117.15,141.526a13.144,13.144,0,0,1-13.081,13.128h-.046a13.128,13.128,0,1,1,0-26.256h.046A13.144,13.144,0,0,1,117.15,141.526Zm0,0" transform="translate(-73.886 -106.137)" fill="url(#b)"/><path d="M166.822,214.632l-5.944,5.945-1.285,1.284a1.555,1.555,0,0,1-2.2,0l-2.762-2.763a1.554,1.554,0,1,1,2.2-2.2l1.664,1.664,6.131-6.131a1.554,1.554,0,0,1,2.2,2.2Zm0,0" transform="translate(-130.695 -181.143)" fill="#ddd"/></g></g></svg>