<svg xmlns="http://www.w3.org/2000/svg" xmlns:xlink="http://www.w3.org/1999/xlink" width="106.252" height="88.105" viewBox="0 0 106.252 88.105"><defs><linearGradient id="a" x1="0.5" x2="0.5" y2="1" gradientUnits="objectBoundingBox"><stop offset="0" stop-color="#ffde27"/><stop offset="1" stop-color="#ff320d"/></linearGradient></defs><g transform="translate(0 -5)"><g transform="translate(0 5)"><path d="M0,5V75.773H101.623V5Z" transform="translate(0 -5)" fill="#dcd6cd"/><path d="M56.192,28.608a8.27,8.27,0,0,1-10.761,0l-3.787-3.344C29.8,35.838,0,59.264,0,59.264H101.623s-29.8-23.426-41.644-34Z" transform="translate(0 11.509)" fill="#e8e3d9"/><path d="M0,5,45.431,45.118a8.27,8.27,0,0,0,10.761,0L101.623,5Z" transform="translate(0 -5)" fill="#efebde"/></g><g transform="translate(61.7 48.553)"><path d="M21.776,0A21.776,21.776,0,1,1,0,21.776,21.776,21.776,0,0,1,21.776,0Z" stroke="#fcfcfc" stroke-width="2" fill="url(#a)"/><path d="M62.813,35.325a1.812,1.812,0,0,0-2.526.454L50.132,50.369l-7.166-5.883a1.814,1.814,0,1,0-2.3,2.806l8.685,7.13a1.82,1.82,0,0,0,1.151.412,1.927,1.927,0,0,0,.249-.016,1.824,1.824,0,0,0,1.241-.76l11.277-16.2A1.818,1.818,0,0,0,62.813,35.325Z" transform="translate(-29.112 -24.112)" fill="#fff"/></g></g></svg>