<svg id="_ÎÓÈ_1" data-name="—ÎÓÈ_1" xmlns="http://www.w3.org/2000/svg" xmlns:xlink="http://www.w3.org/1999/xlink" viewBox="0 0 97.03 150.19"><defs><style>.cls-1{fill:url(#linear-gradient);}.cls-2{fill:url(#linear-gradient-2);}.cls-3{fill:#fff;}.cls-4{fill:#06033e;opacity:0.4;}.cls-5{fill:#121a46;}.cls-6{fill:url(#_ÂÁ_Ï_ÌÌ_È_ËÂÌÚ_136);}.cls-7{fill:#e2b1a6;}.cls-8{fill:url(#_ÂÁ_Ï_ÌÌ_È_ËÂÌÚ_124);}.cls-9{fill:url(#_ÂÁ_Ï_ÌÌ_È_ËÂÌÚ_163);}.cls-10{fill:#f0f6ff;}.cls-11{fill:#c4ccd6;}.cls-12{fill:url(#_ÂÁ_Ï_ÌÌ_È_ËÂÌÚ_67);}.cls-13{fill:#020230;opacity:0.6;}.cls-14{fill:#fcd1c5;}.cls-15{fill:url(#_ÂÁ_Ï_ÌÌ_È_ËÂÌÚ_67-2);}.cls-16{fill:#380031;opacity:0.5;}.cls-17{fill:url(#_ÂÁ_Ï_ÌÌ_È_ËÂÌÚ_136-2);}.cls-18{fill:#1e262d;}</style><linearGradient id="linear-gradient" x1="15.61" y1="106.97" x2="84.15" y2="106.97" gradientUnits="userSpaceOnUse"><stop offset="0" stop-color="#ffcf3f"/><stop offset="0.34" stop-color="#f7aa27"/><stop offset="0.78" stop-color="#ed7f0b"/><stop offset="1" stop-color="#e96e00"/></linearGradient><linearGradient id="linear-gradient-2" x1="11.49" y1="120.75" x2="59.82" y2="120.75" xlink:href="#linear-gradient"/><radialGradient id="_ÂÁ_Ï_ÌÌ_È_ËÂÌÚ_136" cx="1493.24" cy="49.94" r="18.52" gradientTransform="matrix(-1, 0, 0, 1, 1503.74, 0)" gradientUnits="userSpaceOnUse"><stop offset="0" stop-color="#01c8ef"/><stop offset="0.14" stop-color="#02c3eb"/><stop offset="0.3" stop-color="#03b5df"/><stop offset="0.47" stop-color="#069dca"/><stop offset="0.65" stop-color="#097cae"/><stop offset="0.84" stop-color="#0d538a"/><stop offset="1" stop-color="#122865"/></radialGradient><radialGradient id="_ÂÁ_Ï_ÌÌ_È_ËÂÌÚ_124" cx="1502.43" cy="21.59" r="53.07" gradientTransform="matrix(-1, 0, 0, 1, 1503.74, 0)" gradientUnits="userSpaceOnUse"><stop offset="0" stop-color="#01c8ef"/><stop offset="0.21" stop-color="#01c5ed"/><stop offset="0.37" stop-color="#03bbe5"/><stop offset="0.51" stop-color="#05abd8"/><stop offset="0.65" stop-color="#0993c6"/><stop offset="0.78" stop-color="#0d75af"/><stop offset="0.9" stop-color="#125192"/><stop offset="1" stop-color="#172f78"/></radialGradient><linearGradient id="_ÂÁ_Ï_ÌÌ_È_ËÂÌÚ_163" x1="22.42" y1="38.65" x2="47.18" y2="49.26" gradientUnits="userSpaceOnUse"><stop offset="0" stop-color="#01c8ef"/><stop offset="0.46" stop-color="#0c7bb3"/><stop offset="0.82" stop-color="#144489"/><stop offset="1" stop-color="#172f78"/></linearGradient><radialGradient id="_ÂÁ_Ï_ÌÌ_È_ËÂÌÚ_67" cx="1447.47" cy="42.94" r="50.78" gradientTransform="matrix(-1, 0, 0, 1, 1503.74, 0)" gradientUnits="userSpaceOnUse"><stop offset="0" stop-color="#f9636b"/><stop offset="1" stop-color="#b6246e"/></radialGradient><radialGradient id="_ÂÁ_Ï_ÌÌ_È_ËÂÌÚ_67-2" cx="45.24" cy="14.7" r="15.87" gradientTransform="matrix(1, 0, 0, 1, 0, 0)" xlink:href="#_ÂÁ_Ï_ÌÌ_È_ËÂÌÚ_67"/><radialGradient id="_ÂÁ_Ï_ÌÌ_È_ËÂÌÚ_136-2" cx="1329.38" cy="69.97" r="101" xlink:href="#_ÂÁ_Ï_ÌÌ_È_ËÂÌÚ_136"/></defs><title>nds-product</title><path class="cls-1" d="M82.45,104.58,53.92,88.11a9.11,9.11,0,0,0-8.23,0l-28.38,16.5c-2.27,1.32-2.27,3.44,0,4.75l28.54,16.47a9,9,0,0,0,8.22,0l28.38-16.5C84.72,108,84.72,105.89,82.45,104.58Z"/><path class="cls-2" d="M84.15,120.74h0V107.06l-17.29,2.31-12.94-7.48a9.11,9.11,0,0,0-8.23,0l-2,1.28-28.07,3.75v13.93h0a2.9,2.9,0,0,0,1.69,2.3l28.54,16.48a9.09,9.09,0,0,0,8.22,0l28.38-16.51a2.92,2.92,0,0,0,1.69-2.29h0Z"/><path class="cls-3" d="M82.45,108.5,54.07,125a9.09,9.09,0,0,1-8.22,0L17.31,108.53a3.13,3.13,0,0,1-1.65-2c-.21,1,.33,2,1.65,2.79l28.54,16.47a9,9,0,0,0,8.22,0l28.38-16.5c1.32-.76,1.86-1.8,1.65-2.79A3.13,3.13,0,0,1,82.45,108.5Z"/><polygon class="cls-3" points="57.9 129.49 56.55 130.27 56.55 128.71 57.9 127.93 57.9 129.49"/><polygon class="cls-3" points="60.73 127.85 59.38 128.63 59.38 127.07 60.73 126.3 60.73 127.85"/><polygon class="cls-3" points="63.55 126.22 62.2 127 62.2 125.44 63.55 124.66 63.55 126.22"/><polygon class="cls-3" points="61.24 130.72 59.89 131.5 59.89 129.94 61.24 129.16 61.24 130.72"/><polygon class="cls-3" points="63.73 129.28 62.38 130.06 62.38 128.5 63.73 127.72 63.73 129.28"/><polygon class="cls-3" points="72.62 120.99 71.27 121.77 71.27 120.21 72.62 119.43 72.62 120.99"/><polygon class="cls-3" points="80.4 116.5 79.05 117.28 79.05 115.72 80.4 114.94 80.4 116.5"/><polygon class="cls-3" points="66.38 124.59 65.03 125.37 65.03 123.81 66.38 123.03 66.38 124.59"/><ellipse class="cls-4" cx="49.88" cy="106.54" rx="19.57" ry="11.3"/><path class="cls-5" d="M59.13,105.07a4.18,4.18,0,0,1,.45,2c-.17.8-2.11,3.58-2.68,5.11s-3.48,3.83-5.12,3.83-3.13-.68-2.35-2.5a12.42,12.42,0,0,1,2.09-3.33,15.45,15.45,0,0,0,2.1-4.2C53.8,105,59.13,105.07,59.13,105.07Z"/><path class="cls-5" d="M51.12,97.6a6.25,6.25,0,0,1,0,2.19c-.24.58-.75,1.11-2.21,1.53a16.66,16.66,0,0,0-5.2,2c-2.4,1.43-5.69,2-6.68.46s2.44-3.92,3.69-4.53S44,98.32,45,97.38s1.23-.72,1.23-.72Z"/><path class="cls-6" d="M59.9,69.24s-1.19,10.69-.83,14.44,2.76,10.72,2,15.41a28.05,28.05,0,0,1-1.72,6.65s-3.23,3.3-5.69.35c0,0,1-1.9.89-6.83-.07-2.5-.12-3.94-.15-4.75a3.69,3.69,0,0,0-.5-1.72,43.91,43.91,0,0,1-3.47-7.38s.55,6.94.51,10.06A7,7,0,0,0,51,96.91a3.71,3.71,0,0,1,.05,1.33c-.17.81-3.05,3.84-5.4,1.41,0,0-.9-.62-.71-2.52a38.58,38.58,0,0,0-.47-6.26A14.34,14.34,0,0,0,43,85.94a41.15,41.15,0,0,1-1.65-5c-.77-2.34-3.64-13.52-3.69-16.07s3.09-4.36,3.09-4.36,7.2,3.52,7.06,3.91,9,4.23,9,4.23Z"/><path class="cls-4" d="M40.72,60.55s7.2,3.52,7.06,3.91,9,4.23,9,4.23l3.1.55s-1.19,10.69-.83,14.44,2.76,10.72,2,15.41a28.05,28.05,0,0,1-1.72,6.65,6.65,6.65,0,0,1-1.32,1,38.87,38.87,0,0,0,1.78-10.51c-.05-5-2.21-13-2.33-15.54A2.6,2.6,0,0,0,55,78.11a17.61,17.61,0,0,1-7.27-1.62c.67,2.77,2.63,8.92,2.63,8.92s.59,7.42.5,10.36a3.7,3.7,0,0,0,.09.88,4.36,4.36,0,0,1,.1,1.59A3.43,3.43,0,0,1,50,99.62c-.06-3-.66-10.75-.88-12.53-.25-2-2.34-9.91-2.34-9.91-1.09-.86-1.63-2.9-1.84-3.91-.93-2-1.07-3.91-2.81-3.94-.15,0-2.3,2.66-3.73.56a37.76,37.76,0,0,1-.76-5C37.58,62.38,40.72,60.55,40.72,60.55Z"/><path class="cls-7" d="M38,65.28l.39,1.36s.62.09,1.47-.88a1.41,1.41,0,0,0,0-1.87l-1.61.36Z"/><path class="cls-8" d="M43.57,28.37a3.21,3.21,0,0,0-1.46.51c-1,.54-2.3,2-3,5.41s-3.77,12.42-4,14.09a95.26,95.26,0,0,0,1.33,16.76.58.58,0,0,0,.75.44A13.44,13.44,0,0,0,40.5,64c1.27-1,1-8.68,1-8.68l-.86-9.87,1.4-8.08s2-6.39,1.71-6.8A6.48,6.48,0,0,1,43.57,28.37Z"/><path class="cls-9" d="M65.63,38.2a7,7,0,0,1-.45,6.22C63.32,48,58.85,55.33,58.85,55.33S60.3,65.56,60.1,68.06,58,73.5,57.55,74.44s-4.37,3.31-8.87,1-4.88-5.32-5.33-8.65-.3-3.14-.3-3.14S41,70.29,39.7,69.06c-.54-.53-.58-2.15-.44-3.86a81.81,81.81,0,0,0,.26-10.83c0-.14,0-.25,0-.34,0-1.15-.21-11.64.1-14.46s-.12-7.27,1.36-9.1a7.53,7.53,0,0,1,2.6-2.1l2.09-.11s12.19-1,13.25.56a13.44,13.44,0,0,1,1.43,2.56,41.62,41.62,0,0,1,5.29,6.82Z"/><path class="cls-10" d="M56,27.07a1.69,1.69,0,0,1,.72.85,15.22,15.22,0,0,0,1.13,2.59,100.06,100.06,0,0,0-7.41,7.73A16.5,16.5,0,0,0,47.74,43L45,39.74l.86-1,.48-2.15.82-2.44.6-2.42L54.4,28Z"/><path class="cls-11" d="M50.62,34a4.34,4.34,0,0,1,1.46,1.74,7.6,7.6,0,0,0-1.36-.8A7,7,0,0,0,49.79,36a22,22,0,0,0,0,3.06l-.38.56-.44,0s0-2-.11-2.07a13.39,13.39,0,0,1-.1-1.8,20.58,20.58,0,0,1,1.46-1.48l.5-.33Z"/><path class="cls-12" d="M47.78,33.41a2.34,2.34,0,0,1,1.14-.22,6.09,6.09,0,0,1,1.82.93c.18.24-.05.54-.73,1.07s-.76.85-.76.85a13.59,13.59,0,0,1,.17,3.59,22.72,22.72,0,0,0-1.74,3.78c-.3,1.23-1.59-4-1.59-4s.45-1.66.65-2.08,1-2.66.79-3S47.78,33.41,47.78,33.41Z"/><path class="cls-13" d="M60,31.71,59,33.63l-1.62-.09.19,1.68s-6.66,4.43-9.2,9.06l.16.49a31,31,0,0,1,9.43-9l.21-.13L57.88,34l1.43.27Z"/><path class="cls-14" d="M49,32.23a1.43,1.43,0,0,0,1.16.9c.85.07,5.49-1.73,6.18-4.45,0,0-.29-1.3-.31-1.53a1.27,1.27,0,0,0,.39-.68,10,10,0,0,1,.55-1.6,2.12,2.12,0,0,0,.21-1.27s1.39-7.57-2.77-8.87-7.17,0-8.53,4.25c0,0-.33,1.16-.59,2a3,3,0,0,0,0,1.67,2.63,2.63,0,0,1,.14.85,11.34,11.34,0,0,0-.09,3.19s-.33.81.22,1.1.43,2.69.43,2.69l1.54,1.58S47.79,32.42,49,32.23Z"/><path class="cls-15" d="M57.17,24s3-6.74-1.81-9.47c-3.76-2.15-8.42-1.12-9.78,3.74,0,0-.35,1.26,1.34,1.86a18.69,18.69,0,0,0,4.83,1.24c1,0,1.48.53,1.49,1.83a2.34,2.34,0,0,0,.18,1.14.77.77,0,0,1,.1.4V25a.4.4,0,0,0,.25.37c.24.07.51,0,.52-.05h0a2.73,2.73,0,0,1,1.2-1.95C56.21,22.89,57.07,22.65,57.17,24Z"/><path class="cls-16" d="M46.74,37.37c.21-.42,1-2.66.79-3s.25-.91.25-.91a2.34,2.34,0,0,1,1.14-.22l.16.05v0s-.58,1-.71,1.28-.66,2.88-1,3.47a25.46,25.46,0,0,0-.84,2.64l-.18-.1c-.17-.62-.29-1.1-.29-1.1S46.54,37.79,46.74,37.37Z"/><path class="cls-7" d="M47.18,30.63A5.79,5.79,0,0,1,48,32.26a1,1,0,0,1-.51-.19l-.61-.63Z"/><path class="cls-14" d="M42.29,40.69a5,5,0,0,1-.8-2.38,15.5,15.5,0,0,1,.33-2.38s-.62,0-.58-.89a3.21,3.21,0,0,1,.6-2,.87.87,0,0,1,.63-.17s.23-.75.89-.63a1.18,1.18,0,0,1,.58-.85.63.63,0,0,1,.91.19s.23-.79.45-.93a1.66,1.66,0,0,1,.62-.17s1.07-.15,1.26.14a21.13,21.13,0,0,1,.67,3.51c0,.16-.29,1.74-.45,2.24S46,38.16,45.81,38.77a14,14,0,0,1-2.16,2.59S42.29,40.69,42.29,40.69Z"/><path class="cls-13" d="M43.05,63.7S43.11,53,44.88,48.3L44,49.83A60.2,60.2,0,0,0,42.8,64.45Z"/><path class="cls-13" d="M43.33,47s8,7.13,8,7.22S62.94,47,62.94,47l.35.81c-2,3.52-4.44,7.49-4.44,7.49s.18,1.23.4,3c0,0-5.73,6.11-9.3,5.33-3.08-.67-6.37-10.9-7.2-13.65a2.22,2.22,0,0,1,0-1.35Z"/><path class="cls-7" d="M41.82,39.62a9.49,9.49,0,0,1,3.2-.87l-2.41,2.11-.32-.17a6.48,6.48,0,0,1-.52-1Z"/><path class="cls-17" d="M56.5,42.57A18.17,18.17,0,0,1,61,38.77c1.45-.94,3-1.66,3.9-1.06,1.87,1.29,1.48,3.67.6,6S56.6,59.6,51,59.31a48.12,48.12,0,0,1-5.91-7.49C43.51,49.06,41,44.3,40.2,42.88a.61.61,0,0,1,.12-.73c1.1-1,4.47-3.94,5.47-3.45,0,0,2.28,5.78,4.58,8.63L52.16,49a49,49,0,0,1,2.68-4.32C55.27,44.15,55.91,43.32,56.5,42.57Z"/><path class="cls-7" d="M50.12,33.13a1.43,1.43,0,0,1-1.16-.9s4.77-1.91,5.28-4.82c0,0,0,3.07-1.22,4.68A7.77,7.77,0,0,1,50.12,33.13Z"/><path class="cls-18" d="M50.4,85.41v.08A.22.22,0,0,1,50.4,85.41Z"/><path class="cls-4" d="M54.57,106.91a3.69,3.69,0,0,1-.94-.82s1-1.9.89-6.83c-.07-2.5-.12-3.94-.15-4.75a3.69,3.69,0,0,0-.5-1.72,44.12,44.12,0,0,1-3.3-6.9v-.06c.8,1.42,4.45,5.78,4.93,9.12S54.92,104.86,54.57,106.91Z"/><path class="cls-18" d="M50.56,85.83l0,0c0-.12-.09-.24-.13-.37S50.47,85.49,50.56,85.83Z"/><path class="cls-13" d="M40.85,41.68s7.28,15.74,10.6,16.37S63.71,47.1,63.71,47.1v0C60.84,51.9,55.21,59.53,51,59.31a48.12,48.12,0,0,1-5.91-7.49C43.51,49.06,41,44.3,40.2,42.88a.61.61,0,0,1,.12-.73Z"/><path class="cls-13" d="M52.16,49a16.44,16.44,0,0,1,1.26,2.41l-1.09-2.71Z"/><path class="cls-16" d="M57.17,24a12.17,12.17,0,0,0,.91-4.2,1.42,1.42,0,0,1-.57,1c-.82.54-4.25,2.87-4.25,2.87a1.41,1.41,0,0,0,.16.66.77.77,0,0,1,.1.4V25a.4.4,0,0,0,.25.37c.24.07.51,0,.52-.05h0a2.73,2.73,0,0,1,1.2-1.95C56.21,22.89,57.07,22.65,57.17,24Z"/></svg>