<svg id="_ÎÓÈ_1" data-name="—ÎÓÈ_1" xmlns="http://www.w3.org/2000/svg" xmlns:xlink="http://www.w3.org/1999/xlink" viewBox="0 0 244.69 246.37"><defs><style>.cls-1,.cls-2{fill:#ff6700;}.cls-1,.cls-4{opacity:0.8;}.cls-3,.cls-4{fill:#ffc55f;}.cls-12,.cls-3,.cls-30,.cls-31,.cls-5{opacity:0.4;}.cls-5,.cls-6{fill:#f8359e;}.cls-31,.cls-7{fill:#843500;}.cls-30,.cls-8{fill:#03a7d3;}.cls-9{fill:url(#linear-gradient);}.cls-10{fill:url(#linear-gradient-2);}.cls-11{fill:#fff;}.cls-12{fill:#06033e;}.cls-13{fill:url(#linear-gradient-3);}.cls-14{fill:url(#linear-gradient-4);}.cls-15{fill:url(#linear-gradient-5);}.cls-16{fill:url(#_ÂÁ_Ï_ÌÌ_È_ËÂÌÚ_346);}.cls-17{fill:url(#linear-gradient-6);}.cls-18{fill:url(#linear-gradient-7);}.cls-19{fill:url(#linear-gradient-8);}.cls-20{fill:url(#linear-gradient-9);}.cls-21{fill:url(#linear-gradient-10);}.cls-22{fill:url(#linear-gradient-11);}.cls-23{fill:url(#linear-gradient-12);}.cls-24{fill:url(#linear-gradient-13);}.cls-25{fill:url(#linear-gradient-14);}.cls-26{fill:url(#linear-gradient-15);}.cls-27{fill:url(#linear-gradient-16);}.cls-28{fill:url(#linear-gradient-17);}.cls-29{fill:url(#linear-gradient-18);}</style><linearGradient id="linear-gradient" x1="78.45" y1="139.23" x2="126.78" y2="139.23" gradientUnits="userSpaceOnUse"><stop offset="0" stop-color="#ffcf3f"/><stop offset="0.34" stop-color="#f7aa27"/><stop offset="0.78" stop-color="#ed7f0b"/><stop offset="1" stop-color="#e96e00"/></linearGradient><linearGradient id="linear-gradient-2" x1="82.57" y1="125.45" x2="151.11" y2="125.45" xlink:href="#linear-gradient"/><linearGradient id="linear-gradient-3" x1="78.45" y1="113.57" x2="126.78" y2="113.57" xlink:href="#linear-gradient"/><linearGradient id="linear-gradient-4" x1="82.57" y1="99.78" x2="151.11" y2="99.78" xlink:href="#linear-gradient"/><linearGradient id="linear-gradient-5" x1="78.45" y1="87.9" x2="126.78" y2="87.9" xlink:href="#linear-gradient"/><radialGradient id="_ÂÁ_Ï_ÌÌ_È_ËÂÌÚ_346" cx="69.88" cy="51.66" r="107.94" gradientUnits="userSpaceOnUse"><stop offset="0" stop-color="#01c8ef"/><stop offset="0.14" stop-color="#03bae4"/><stop offset="0.4" stop-color="#0895c8"/><stop offset="0.76" stop-color="#115a9a"/><stop offset="1" stop-color="#172f78"/></radialGradient><linearGradient id="linear-gradient-6" x1="82.57" y1="74.12" x2="151.11" y2="74.12" xlink:href="#linear-gradient"/><linearGradient id="linear-gradient-7" x1="78.45" y1="62.72" x2="126.78" y2="62.72" xlink:href="#linear-gradient"/><linearGradient id="linear-gradient-8" x1="82.57" y1="48.94" x2="151.11" y2="48.94" xlink:href="#linear-gradient"/><linearGradient id="linear-gradient-9" x1="128.57" y1="166.72" x2="176.9" y2="166.72" xlink:href="#linear-gradient"/><linearGradient id="linear-gradient-10" x1="132.69" y1="152.94" x2="201.23" y2="152.94" xlink:href="#linear-gradient"/><linearGradient id="linear-gradient-11" x1="128.57" y1="141.06" x2="176.9" y2="141.06" xlink:href="#linear-gradient"/><linearGradient id="linear-gradient-12" x1="132.69" y1="127.28" x2="201.23" y2="127.28" xlink:href="#linear-gradient"/><linearGradient id="linear-gradient-13" x1="128.57" y1="115.39" x2="176.9" y2="115.39" xlink:href="#linear-gradient"/><linearGradient id="linear-gradient-14" x1="132.69" y1="101.61" x2="201.23" y2="101.61" xlink:href="#linear-gradient"/><linearGradient id="linear-gradient-15" x1="37.38" y1="166.7" x2="85.72" y2="166.7" xlink:href="#linear-gradient"/><linearGradient id="linear-gradient-16" x1="41.51" y1="152.92" x2="110.05" y2="152.92" xlink:href="#linear-gradient"/><linearGradient id="linear-gradient-17" x1="82.91" y1="194.53" x2="131.24" y2="194.53" xlink:href="#linear-gradient"/><linearGradient id="linear-gradient-18" x1="87.03" y1="180.75" x2="155.57" y2="180.75" xlink:href="#linear-gradient"/></defs><title>nds-product</title><rect class="cls-1" x="158.73" y="30.89" width="2.01" height="2.01"/><rect class="cls-2" x="163" y="30.89" width="2.01" height="2.01"/><rect class="cls-3" x="167.28" y="30.89" width="2.01" height="2.01"/><rect class="cls-2" x="171.55" y="30.89" width="2.01" height="2.01"/><rect class="cls-2" x="185.14" y="30.89" width="2.01" height="2.01"/><rect class="cls-4" x="171.55" y="45.2" width="2.01" height="2.01"/><rect class="cls-2" x="171.55" y="54.15" width="2.01" height="2.01" transform="translate(345.1 110.31) rotate(180)"/><rect class="cls-5" x="171.55" y="58.22" width="2.01" height="2.01" transform="translate(345.1 118.45) rotate(180)"/><rect class="cls-6" x="171.55" y="62.29" width="2.01" height="2.01" transform="translate(345.1 126.58) rotate(180)"/><rect class="cls-4" x="181.33" y="56.73" width="2.01" height="2.01" transform="translate(364.66 115.46) rotate(180)"/><rect class="cls-2" x="184.72" y="53.64" width="2.01" height="2.01" transform="translate(371.46 109.28) rotate(180)"/><rect class="cls-3" x="189.41" y="30.89" width="2.01" height="2.01"/><rect class="cls-7" x="51.9" y="121.97" width="0.59" height="46.15" transform="translate(-99.5 117.66) rotate(-59.98)"/><rect class="cls-7" x="43.85" y="126.62" width="0.59" height="46.15" transform="matrix(0.5, -0.87, 0.87, 0.5, -107.55, 113.02)"/><rect class="cls-7" x="35.79" y="131.27" width="0.59" height="46.15" transform="matrix(0.5, -0.87, 0.87, 0.5, -115.6, 108.37)"/><rect class="cls-7" x="27.74" y="135.91" width="0.59" height="46.15" transform="matrix(0.5, -0.87, 0.87, 0.5, -123.65, 103.72)"/><path class="cls-8" d="M116.77,168.34a8.74,8.74,0,0,1-4.24-1L84,150.85a2.76,2.76,0,0,1,0-5.2l28.38-16.51a9.41,9.41,0,0,1,8.49,0l28.53,16.48a2.76,2.76,0,0,1,0,5.2L121,167.33A8.75,8.75,0,0,1,116.77,168.34Zm-.15-39.69a8.12,8.12,0,0,0-4,.95L84.26,146.1a2.25,2.25,0,0,0,0,4.29l28.54,16.48a8.83,8.83,0,0,0,8,0l28.38-16.51a2.25,2.25,0,0,0,0-4.29L120.6,129.6A8.19,8.19,0,0,0,116.62,128.65Z"/><path class="cls-9" d="M151.11,139.21h0V125.53l-17.29,2.31-12.95-7.47a9.09,9.09,0,0,0-8.22,0l-2,1.28-28.07,3.74v13.93h0a2.93,2.93,0,0,0,1.69,2.3l28.53,16.47a9.11,9.11,0,0,0,8.23,0l28.38-16.5a2.94,2.94,0,0,0,1.69-2.29h0Z"/><path class="cls-10" d="M149.41,123.06l-28.54-16.47a9,9,0,0,0-8.22,0l-28.38,16.5c-2.27,1.31-2.27,3.44,0,4.75l28.53,16.47a9.11,9.11,0,0,0,8.23,0l28.38-16.5C151.68,126.49,151.68,124.37,149.41,123.06Z"/><path class="cls-11" d="M149.41,127,121,143.48a9.11,9.11,0,0,1-8.23,0L84.27,127a3.16,3.16,0,0,1-1.65-2c-.22,1,.33,2,1.65,2.79l28.53,16.47a9.11,9.11,0,0,0,8.23,0l28.38-16.5c1.32-.77,1.86-1.8,1.65-2.79A3.16,3.16,0,0,1,149.41,127Z"/><polygon class="cls-11" points="124.86 147.96 123.51 148.74 123.51 147.18 124.86 146.4 124.86 147.96"/><polygon class="cls-11" points="127.69 146.33 126.34 147.11 126.34 145.55 127.69 144.77 127.69 146.33"/><polygon class="cls-11" points="130.51 144.7 129.16 145.48 129.16 143.92 130.51 143.14 130.51 144.7"/><polygon class="cls-11" points="128.2 149.19 126.85 149.97 126.85 148.41 128.2 147.63 128.2 149.19"/><polygon class="cls-11" points="130.69 147.75 129.34 148.53 129.34 146.98 130.69 146.2 130.69 147.75"/><polygon class="cls-11" points="139.58 139.46 138.23 140.24 138.23 138.69 139.58 137.91 139.58 139.46"/><polygon class="cls-11" points="147.36 134.97 146.01 135.75 146.01 134.19 147.36 133.41 147.36 134.97"/><polygon class="cls-11" points="133.34 143.07 131.99 143.85 131.99 142.29 133.34 141.51 133.34 143.07"/><path class="cls-12" d="M115.22,137.35,96,126.27c-.78-.45-.68-1.24.22-1.76L115,113.68a3.38,3.38,0,0,1,3-.13l19.2,11.09c.78.45.68,1.23-.22,1.75l-18.76,10.83A3.4,3.4,0,0,1,115.22,137.35Z"/><path class="cls-11" d="M107.67,149.35,91.83,140.2a1.63,1.63,0,0,1-.68-1.31v-1.17c0-.51.3-.74.68-.52l15.84,9.14a1.65,1.65,0,0,1,.69,1.31v1.18C108.36,149.33,108.05,149.56,107.67,149.35Z"/><path class="cls-13" d="M151.11,113.55h0V99.87l-17.29,2.31L120.87,94.7a9.09,9.09,0,0,0-8.22,0l-2,1.28L82.57,99.73v13.93h0A2.9,2.9,0,0,0,84.27,116l28.53,16.48a9.11,9.11,0,0,0,8.23,0l28.38-16.51a2.92,2.92,0,0,0,1.69-2.29h0Z"/><path class="cls-14" d="M149.41,97.39,120.87,80.92a9.09,9.09,0,0,0-8.22,0L84.27,97.42c-2.27,1.32-2.27,3.44,0,4.75l28.53,16.47a9,9,0,0,0,8.23,0l28.38-16.5C151.68,100.83,151.68,98.71,149.41,97.39Z"/><path class="cls-12" d="M135.82,98.39l-16.63-9.6a5.32,5.32,0,0,0-4.79,0L97.86,98.41c-1.32.76-1.32,2,0,2.76l16.63,9.6a5.26,5.26,0,0,0,4.79,0l16.54-9.61C137.14,100.39,137.14,99.15,135.82,98.39Z"/><path class="cls-11" d="M149.41,101.31,121,117.82a9.11,9.11,0,0,1-8.23,0L84.27,101.34a3.13,3.13,0,0,1-1.65-2c-.22,1,.33,2,1.65,2.79l28.53,16.47a9,9,0,0,0,8.23,0l28.38-16.5c1.32-.76,1.86-1.8,1.65-2.79A3.13,3.13,0,0,1,149.41,101.31Z"/><polygon class="cls-11" points="124.86 122.3 123.51 123.08 123.51 121.52 124.86 120.74 124.86 122.3"/><polygon class="cls-11" points="127.69 120.67 126.34 121.44 126.34 119.89 127.69 119.11 127.69 120.67"/><polygon class="cls-11" points="130.51 119.03 129.16 119.81 129.16 118.25 130.51 117.47 130.51 119.03"/><polygon class="cls-11" points="128.2 123.53 126.85 124.31 126.85 122.75 128.2 121.97 128.2 123.53"/><polygon class="cls-11" points="130.69 122.09 129.34 122.87 129.34 121.31 130.69 120.53 130.69 122.09"/><polygon class="cls-11" points="139.58 113.8 138.23 114.58 138.23 113.02 139.58 112.24 139.58 113.8"/><polygon class="cls-11" points="147.36 109.31 146.01 110.08 146.01 108.53 147.36 107.75 147.36 109.31"/><polygon class="cls-11" points="133.34 117.4 131.99 118.18 131.99 116.62 133.34 115.84 133.34 117.4"/><path class="cls-15" d="M151.11,87.89h0V74.21l-17.29,2.3L120.87,69a9.09,9.09,0,0,0-8.22,0l-2,1.28L82.57,74.06V88h0a2.93,2.93,0,0,0,1.69,2.3l28.53,16.47a9.11,9.11,0,0,0,8.23,0l28.38-16.5A2.94,2.94,0,0,0,151.1,88h0Z"/><path class="cls-16" d="M149.41,71.73,120.87,55.26a9.09,9.09,0,0,0-8.22,0L84.27,71.76c-2.27,1.31-2.27,3.44,0,4.75L112.8,93A9.11,9.11,0,0,0,121,93l28.38-16.5C151.68,75.17,151.68,73,149.41,71.73Z"/><path class="cls-17" d="M149.41,71.73,120.87,55.26a9.09,9.09,0,0,0-8.22,0L84.27,71.76c-2.27,1.31-2.27,3.44,0,4.75L112.8,93A9.11,9.11,0,0,0,121,93l28.38-16.5C151.68,75.17,151.68,73,149.41,71.73Z"/><path class="cls-12" d="M138.42,72.54,119.51,61.62a6,6,0,0,0-5.44,0L95.26,72.56c-1.5.86-1.5,2.27,0,3.14l18.9,10.92a6.08,6.08,0,0,0,5.45,0l18.81-10.94C139.92,74.81,139.92,73.4,138.42,72.54Z"/><path class="cls-11" d="M149.41,75.65,121,92.15a9.11,9.11,0,0,1-8.23,0L84.27,75.68a3.16,3.16,0,0,1-1.65-2c-.22,1,.33,2,1.65,2.79L112.8,93A9.11,9.11,0,0,0,121,93l28.38-16.5c1.32-.76,1.86-1.8,1.65-2.79A3.16,3.16,0,0,1,149.41,75.65Z"/><polygon class="cls-11" points="124.86 96.63 123.51 97.41 123.51 95.85 124.86 95.07 124.86 96.63"/><polygon class="cls-11" points="127.69 95 126.34 95.78 126.34 94.22 127.69 93.44 127.69 95"/><polygon class="cls-11" points="130.51 93.37 129.16 94.15 129.16 92.59 130.51 91.81 130.51 93.37"/><polygon class="cls-11" points="128.2 97.86 126.85 98.64 126.85 97.08 128.2 96.3 128.2 97.86"/><polygon class="cls-11" points="130.69 96.43 129.34 97.21 129.34 95.65 130.69 94.87 130.69 96.43"/><polygon class="cls-11" points="139.58 88.14 138.23 88.92 138.23 87.36 139.58 86.58 139.58 88.14"/><polygon class="cls-11" points="147.36 83.64 146.01 84.42 146.01 82.86 147.36 82.08 147.36 83.64"/><polygon class="cls-11" points="133.34 91.74 131.99 92.52 131.99 90.96 133.34 90.18 133.34 91.74"/><path class="cls-18" d="M151.11,62.7h0V49l-17.29,2.31-12.95-7.47a9.09,9.09,0,0,0-8.22,0l-2,1.28L82.57,48.88V62.81h0a2.93,2.93,0,0,0,1.69,2.3L112.8,81.58a9.11,9.11,0,0,0,8.23,0l28.38-16.5a2.94,2.94,0,0,0,1.69-2.29h0Z"/><path class="cls-19" d="M149.41,46.55,120.87,30.08a9,9,0,0,0-8.22,0L84.27,46.58C82,47.89,82,50,84.27,51.33L112.8,67.8a9.11,9.11,0,0,0,8.23,0l28.38-16.5C151.68,50,151.68,47.86,149.41,46.55Z"/><path class="cls-12" d="M135.82,47.55,119.19,38a5.26,5.26,0,0,0-4.79,0L97.86,47.56c-1.32.77-1.32,2,0,2.77l16.63,9.6a5.32,5.32,0,0,0,4.79,0l16.54-9.62C137.14,49.55,137.14,48.31,135.82,47.55Z"/><path class="cls-11" d="M149.41,50.47,121,67a9.11,9.11,0,0,1-8.23,0L84.27,50.5a3.16,3.16,0,0,1-1.65-2c-.22,1,.33,2,1.65,2.79L112.8,67.8a9.11,9.11,0,0,0,8.23,0l28.38-16.5c1.32-.77,1.86-1.8,1.65-2.79A3.16,3.16,0,0,1,149.41,50.47Z"/><polygon class="cls-11" points="124.86 71.45 123.51 72.23 123.51 70.67 124.86 69.89 124.86 71.45"/><polygon class="cls-11" points="127.69 69.82 126.34 70.6 126.34 69.04 127.69 68.26 127.69 69.82"/><polygon class="cls-11" points="130.51 68.19 129.16 68.97 129.16 67.41 130.51 66.63 130.51 68.19"/><polygon class="cls-11" points="128.2 72.68 126.85 73.46 126.85 71.9 128.2 71.12 128.2 72.68"/><polygon class="cls-11" points="130.69 71.25 129.34 72.03 129.34 70.47 130.69 69.69 130.69 71.25"/><polygon class="cls-11" points="139.58 62.95 138.23 63.73 138.23 62.17 139.58 61.4 139.58 62.95"/><polygon class="cls-11" points="147.36 58.46 146.01 59.24 146.01 57.68 147.36 56.9 147.36 58.46"/><polygon class="cls-11" points="133.34 66.56 131.99 67.34 131.99 65.78 133.34 65 133.34 66.56"/><path class="cls-7" d="M166.9,195.83a8.64,8.64,0,0,1-4.25-1l-28.53-16.47a2.77,2.77,0,0,1,0-5.21l28.38-16.5a9.41,9.41,0,0,1,8.49,0l28.53,16.47a2.76,2.76,0,0,1,0,5.21l-28.38,16.5A8.63,8.63,0,0,1,166.9,195.83Zm-.15-39.68a8.08,8.08,0,0,0-4,.95l-28.38,16.5a2.25,2.25,0,0,0,0,4.29l28.53,16.47a8.79,8.79,0,0,0,8,0l28.38-16.5a2.25,2.25,0,0,0,0-4.29L170.72,157.1A8,8,0,0,0,166.75,156.15Z"/><path class="cls-20" d="M201.23,166.71h0V153l-17.29,2.31L171,147.86a9.09,9.09,0,0,0-8.22,0l-2,1.28-28.07,3.75v13.93h0a2.92,2.92,0,0,0,1.69,2.3l28.54,16.48a9.09,9.09,0,0,0,8.22,0l28.38-16.51a2.92,2.92,0,0,0,1.69-2.29h0Z"/><path class="cls-21" d="M199.53,150.55,171,134.08a9.09,9.09,0,0,0-8.22,0l-28.39,16.5c-2.27,1.31-2.27,3.44,0,4.75l28.54,16.47a9.09,9.09,0,0,0,8.22,0l28.38-16.5C201.8,154,201.8,151.86,199.53,150.55Z"/><path class="cls-11" d="M199.53,154.47,171.15,171a9,9,0,0,1-8.22,0L134.39,154.5a3.13,3.13,0,0,1-1.65-2c-.21,1,.34,2,1.65,2.79l28.54,16.47a9.09,9.09,0,0,0,8.22,0l28.38-16.5c1.32-.76,1.87-1.8,1.65-2.79A3.13,3.13,0,0,1,199.53,154.47Z"/><polygon class="cls-11" points="174.98 175.46 173.63 176.24 173.63 174.68 174.98 173.9 174.98 175.46"/><polygon class="cls-11" points="177.81 173.82 176.46 174.6 176.46 173.04 177.81 172.26 177.81 173.82"/><polygon class="cls-11" points="180.64 172.19 179.28 172.97 179.28 171.41 180.64 170.63 180.64 172.19"/><polygon class="cls-11" points="178.32 176.69 176.97 177.47 176.97 175.91 178.32 175.13 178.32 176.69"/><polygon class="cls-11" points="180.81 175.25 179.46 176.03 179.46 174.47 180.81 173.69 180.81 175.25"/><polygon class="cls-11" points="189.7 166.96 188.35 167.74 188.35 166.18 189.7 165.4 189.7 166.96"/><polygon class="cls-11" points="197.48 162.46 196.13 163.24 196.13 161.68 197.48 160.91 197.48 162.46"/><polygon class="cls-11" points="183.46 170.56 182.11 171.34 182.11 169.78 183.46 169 183.46 170.56"/><path class="cls-12" d="M165.35,164.84l-19.2-11.08c-.78-.45-.68-1.24.22-1.76l18.76-10.83a3.38,3.38,0,0,1,3-.12l19.2,11.08c.78.45.68,1.24-.22,1.76l-18.76,10.83A3.38,3.38,0,0,1,165.35,164.84Z"/><path class="cls-11" d="M157.79,176.84,142,167.69a1.64,1.64,0,0,1-.68-1.3v-1.18c0-.5.31-.74.68-.52l15.84,9.15a1.64,1.64,0,0,1,.69,1.31v1.17C158.48,176.83,158.17,177.06,157.79,176.84Z"/><path class="cls-22" d="M201.23,141h0V127.36l-17.29,2.31L171,122.2a9.09,9.09,0,0,0-8.22,0l-2,1.28-28.07,3.74v13.93h0a3,3,0,0,0,1.69,2.3l28.54,16.47a9.09,9.09,0,0,0,8.22,0l28.38-16.5a2.94,2.94,0,0,0,1.69-2.29h0Z"/><path class="cls-23" d="M199.53,124.89,171,108.42a9,9,0,0,0-8.22,0l-28.39,16.5c-2.27,1.31-2.27,3.43,0,4.75l28.54,16.47a9.09,9.09,0,0,0,8.22,0l28.38-16.5C201.8,128.32,201.8,126.2,199.53,124.89Z"/><path class="cls-12" d="M185.94,125.89l-16.63-9.6a5.25,5.25,0,0,0-4.79,0L148,125.9c-1.32.77-1.32,2,0,2.77l16.63,9.6a5.32,5.32,0,0,0,4.79,0l16.54-9.62C187.26,127.89,187.26,126.65,185.94,125.89Z"/><path class="cls-11" d="M199.53,128.81l-28.38,16.5a9.09,9.09,0,0,1-8.22,0l-28.54-16.47a3.16,3.16,0,0,1-1.65-2c-.21,1,.34,2,1.65,2.79l28.54,16.47a9.09,9.09,0,0,0,8.22,0l28.38-16.5c1.32-.77,1.87-1.8,1.65-2.79A3.16,3.16,0,0,1,199.53,128.81Z"/><polygon class="cls-11" points="174.98 149.79 173.63 150.57 173.63 149.01 174.98 148.23 174.98 149.79"/><polygon class="cls-11" points="177.81 148.16 176.46 148.94 176.46 147.38 177.81 146.6 177.81 148.16"/><polygon class="cls-11" points="180.64 146.53 179.28 147.31 179.28 145.75 180.64 144.97 180.64 146.53"/><polygon class="cls-11" points="178.32 151.02 176.97 151.8 176.97 150.24 178.32 149.46 178.32 151.02"/><polygon class="cls-11" points="180.81 149.59 179.46 150.37 179.46 148.81 180.81 148.03 180.81 149.59"/><polygon class="cls-11" points="189.7 141.29 188.35 142.07 188.35 140.51 189.7 139.74 189.7 141.29"/><polygon class="cls-11" points="197.48 136.8 196.13 137.58 196.13 136.02 197.48 135.24 197.48 136.8"/><polygon class="cls-11" points="183.46 144.9 182.11 145.68 182.11 144.12 183.46 143.34 183.46 144.9"/><path class="cls-24" d="M201.23,115.38h0V101.7L183.94,104,171,96.53a9.09,9.09,0,0,0-8.22,0l-2,1.28-28.07,3.75v13.93h0a2.92,2.92,0,0,0,1.69,2.29l28.54,16.48a9.09,9.09,0,0,0,8.22,0l28.38-16.51a2.92,2.92,0,0,0,1.69-2.29h0Z"/><path class="cls-25" d="M199.53,99.22,171,82.75a9.09,9.09,0,0,0-8.22,0l-28.39,16.5c-2.27,1.32-2.27,3.44,0,4.75l28.54,16.47a9,9,0,0,0,8.22,0L199.53,104C201.8,102.66,201.8,100.53,199.53,99.22Z"/><path class="cls-12" d="M188.54,100l-18.9-10.91a6,6,0,0,0-5.45,0l-18.81,10.93c-1.5.87-1.5,2.28,0,3.15l18.91,10.91a6,6,0,0,0,5.45,0l18.8-10.93C190.05,102.31,190.05,100.9,188.54,100Z"/><path class="cls-11" d="M199.53,103.14l-28.38,16.51a9.09,9.09,0,0,1-8.22,0l-28.54-16.48a3.13,3.13,0,0,1-1.65-2c-.21,1,.34,2,1.65,2.79l28.54,16.47a9,9,0,0,0,8.22,0L199.53,104c1.32-.76,1.87-1.8,1.65-2.79A3.13,3.13,0,0,1,199.53,103.14Z"/><polygon class="cls-11" points="174.98 124.13 173.63 124.91 173.63 123.35 174.98 122.57 174.98 124.13"/><polygon class="cls-11" points="177.81 122.5 176.46 123.27 176.46 121.72 177.81 120.94 177.81 122.5"/><polygon class="cls-11" points="180.64 120.86 179.28 121.64 179.28 120.08 180.64 119.3 180.64 120.86"/><polygon class="cls-11" points="178.32 125.36 176.97 126.14 176.97 124.58 178.32 123.8 178.32 125.36"/><polygon class="cls-11" points="180.81 123.92 179.46 124.7 179.46 123.14 180.81 122.36 180.81 123.92"/><polygon class="cls-11" points="189.7 115.63 188.35 116.41 188.35 114.85 189.7 114.07 189.7 115.63"/><polygon class="cls-11" points="197.48 111.14 196.13 111.92 196.13 110.36 197.48 109.58 197.48 111.14"/><polygon class="cls-11" points="183.46 119.23 182.11 120.01 182.11 118.45 183.46 117.67 183.46 119.23"/><path class="cls-7" d="M121.23,223.64a8.74,8.74,0,0,1-4.24-1L88.46,206.15a2.76,2.76,0,0,1,0-5.2l28.38-16.51a9.41,9.41,0,0,1,8.49,0l28.53,16.48a2.76,2.76,0,0,1,0,5.2l-28.38,16.51A8.75,8.75,0,0,1,121.23,223.64ZM121.09,184a8.13,8.13,0,0,0-4,1L88.72,201.41a2.25,2.25,0,0,0,0,4.29l28.54,16.47a8.83,8.83,0,0,0,7.95,0l28.38-16.5a2.25,2.25,0,0,0,0-4.29L125.06,184.9A8.12,8.12,0,0,0,121.09,184Z"/><path class="cls-7" d="M75.71,195.81a8.61,8.61,0,0,1-4.24-1L42.94,178.32a2.76,2.76,0,0,1,0-5.21l28.38-16.5a9.38,9.38,0,0,1,8.48,0l28.54,16.47a2.77,2.77,0,0,1,0,5.21L80,194.79A8.65,8.65,0,0,1,75.71,195.81Zm-.15-39.69a8.19,8.19,0,0,0-4,.95L43.2,173.57a2.25,2.25,0,0,0,0,4.29l28.53,16.47a8.79,8.79,0,0,0,8,0l28.38-16.5a2.25,2.25,0,0,0,0-4.29L79.54,157.07A8.19,8.19,0,0,0,75.56,156.12Z"/><path class="cls-26" d="M110.05,166.68h0V153l-17.28,2.31-13-7.47a9,9,0,0,0-8.22,0l-2,1.28-28.06,3.74v13.93h0a2.93,2.93,0,0,0,1.69,2.3l28.53,16.47a9.09,9.09,0,0,0,8.22,0l28.38-16.5a2.92,2.92,0,0,0,1.69-2.3h0Z"/><path class="cls-27" d="M108.34,150.53,79.81,134.05a9.09,9.09,0,0,0-8.22,0L43.21,150.56c-2.27,1.31-2.27,3.43,0,4.74l28.53,16.48a9.09,9.09,0,0,0,8.22,0l28.38-16.51C110.61,154,110.61,151.84,108.34,150.53Z"/><path class="cls-11" d="M108.34,154.44,80,171a9.09,9.09,0,0,1-8.22,0L43.21,154.47a3.14,3.14,0,0,1-1.65-1.95c-.22,1,.33,2,1.65,2.78l28.53,16.48a9.09,9.09,0,0,0,8.22,0l28.38-16.51c1.32-.76,1.87-1.79,1.66-2.78A3.16,3.16,0,0,1,108.34,154.44Z"/><polygon class="cls-11" points="83.8 175.43 82.45 176.21 82.45 174.65 83.8 173.87 83.8 175.43"/><polygon class="cls-11" points="86.62 173.8 85.27 174.58 85.27 173.02 86.62 172.24 86.62 173.8"/><polygon class="cls-11" points="89.45 172.16 88.1 172.94 88.1 171.39 89.45 170.61 89.45 172.16"/><polygon class="cls-11" points="87.14 176.66 85.79 177.44 85.79 175.88 87.14 175.1 87.14 176.66"/><polygon class="cls-11" points="89.63 175.22 88.28 176 88.28 174.44 89.63 173.66 89.63 175.22"/><polygon class="cls-11" points="98.52 166.93 97.16 167.71 97.16 166.15 98.52 165.37 98.52 166.93"/><polygon class="cls-11" points="106.3 162.44 104.95 163.22 104.95 161.66 106.3 160.88 106.3 162.44"/><polygon class="cls-11" points="92.28 170.53 90.93 171.31 90.93 169.75 92.28 168.97 92.28 170.53"/><path class="cls-11" d="M66.61,176.81l-15.84-9.14a1.65,1.65,0,0,1-.69-1.31v-1.18c0-.5.31-.73.69-.51l15.84,9.14a1.64,1.64,0,0,1,.68,1.31v1.18C67.29,176.8,67,177,66.61,176.81Z"/><path class="cls-28" d="M155.57,194.52h0V180.84l-17.29,2.3-13-7.47a9.09,9.09,0,0,0-8.22,0l-2,1.28L87,180.7v13.92h0a2.92,2.92,0,0,0,1.69,2.3l28.53,16.47a9.11,9.11,0,0,0,8.23,0l28.38-16.5a2.92,2.92,0,0,0,1.69-2.29h0Z"/><path class="cls-29" d="M153.87,178.36l-28.54-16.47a9.09,9.09,0,0,0-8.22,0l-28.38,16.5c-2.27,1.31-2.27,3.44,0,4.75l28.53,16.47a9.11,9.11,0,0,0,8.23,0l28.38-16.5C156.14,181.8,156.14,179.67,153.87,178.36Z"/><path class="cls-11" d="M153.87,182.28l-28.38,16.5a9.11,9.11,0,0,1-8.23,0L88.73,182.31a3.13,3.13,0,0,1-1.65-2c-.21,1,.33,2,1.65,2.79l28.53,16.47a9.11,9.11,0,0,0,8.23,0l28.38-16.5c1.32-.76,1.86-1.8,1.65-2.79A3.13,3.13,0,0,1,153.87,182.28Z"/><polygon class="cls-11" points="129.32 203.26 127.97 204.04 127.97 202.48 129.32 201.7 129.32 203.26"/><polygon class="cls-11" points="132.15 201.63 130.8 202.41 130.8 200.85 132.15 200.07 132.15 201.63"/><polygon class="cls-11" points="134.97 200 133.62 200.78 133.62 199.22 134.97 198.44 134.97 200"/><polygon class="cls-11" points="132.66 204.49 131.31 205.27 131.31 203.71 132.66 202.94 132.66 204.49"/><polygon class="cls-11" points="135.15 203.06 133.8 203.84 133.8 202.28 135.15 201.5 135.15 203.06"/><polygon class="cls-11" points="144.04 194.77 142.69 195.55 142.69 193.99 144.04 193.21 144.04 194.77"/><polygon class="cls-11" points="151.82 190.27 150.47 191.05 150.47 189.49 151.82 188.71 151.82 190.27"/><polygon class="cls-11" points="137.8 198.37 136.45 199.15 136.45 197.59 137.8 196.81 137.8 198.37"/><path class="cls-12" d="M119.68,192.65l-19.19-11.08c-.78-.45-.68-1.24.22-1.76L119.47,169a3.34,3.34,0,0,1,3-.12l19.2,11.08c.78.45.68,1.24-.22,1.76l-18.76,10.83A3.4,3.4,0,0,1,119.68,192.65Z"/><path class="cls-11" d="M112.13,204.65,96.29,195.5a1.63,1.63,0,0,1-.68-1.31V193c0-.51.3-.74.68-.52l15.84,9.15a1.64,1.64,0,0,1,.69,1.31v1.17C112.82,204.64,112.51,204.87,112.13,204.65Z"/><rect class="cls-7" x="202.66" y="175.91" width="0.53" height="42.43" transform="translate(-69.25 274.29) rotate(-60)"/><path class="cls-7" d="M236.75,199,225,192.18a9.69,9.69,0,0,0-4-1.14l-12.6-1a10.14,10.14,0,0,1-4.19-1.2l-11.74-6.78.26-.46,11.75,6.78a9.38,9.38,0,0,0,4,1.13l12.6,1a10.29,10.29,0,0,1,4.2,1.21L237,198.5Z"/><path class="cls-7" d="M205.57,217l-11.74-6.78a4.22,4.22,0,0,1-2.15-2.52L190,200.38a3.77,3.77,0,0,0-1.9-2.19l-11.74-6.77.26-.46,11.74,6.77a4.21,4.21,0,0,1,2.15,2.53l1.72,7.28a3.68,3.68,0,0,0,1.89,2.18l11.74,6.78Z"/><path class="cls-7" d="M213.37,212.46l-12.52-7.23a5.23,5.23,0,0,1-1.54-1.29l-5-6.48a4.74,4.74,0,0,0-1.38-1.16l-12.52-7.22.27-.46,12.51,7.22a5.41,5.41,0,0,1,1.54,1.3l5,6.48a4.79,4.79,0,0,0,1.39,1.16L213.63,212Z"/><path class="cls-7" d="M229,203.46l-12.52-7.23a8.27,8.27,0,0,0-2.05-.81l-11.22-2.91a8.87,8.87,0,0,1-2.19-.88l-12.52-7.22.27-.46,12.51,7.22a8.13,8.13,0,0,0,2.06.82l11.22,2.91a9,9,0,0,1,2.19.87L229.22,203Z"/><circle class="cls-30" cx="73.71" cy="119.38" r="1.3"/><path class="cls-7" d="M39.82,91.46a1,1,0,0,1-.5-.13,1.61,1.61,0,0,1-.64-1.47V85.34A4.18,4.18,0,0,1,40.43,82L69.14,65.43a1.2,1.2,0,0,1,1.23-.09A1.61,1.61,0,0,1,71,66.81v4.53a4.17,4.17,0,0,1-1.75,3.33L40.56,91.24A1.49,1.49,0,0,1,39.82,91.46Zm30.05-26a1.2,1.2,0,0,0-.61.19L40.56,82.22a3.9,3.9,0,0,0-1.63,3.12v4.52a1.37,1.37,0,0,0,.52,1.25,1,1,0,0,0,1-.09L69.14,74.45a3.92,3.92,0,0,0,1.62-3.11V66.81a1.39,1.39,0,0,0-.52-1.25A.69.69,0,0,0,69.87,65.46Z"/><path class="cls-31" d="M69.2,86.83l-5.38,3.11c-.93.53-1.69,0-1.69-1.28V84.14a4.05,4.05,0,0,1,1.69-3.23L69.2,77.8c.93-.53,1.69,0,1.69,1.28V83.6A4.05,4.05,0,0,1,69.2,86.83Z"/><path class="cls-7" d="M63.15,90.26a1,1,0,0,1-.5-.13A1.61,1.61,0,0,1,62,88.66V84.14a4.2,4.2,0,0,1,1.75-3.34l5.39-3.11a1.25,1.25,0,0,1,1.23-.09A1.64,1.64,0,0,1,71,79.08V83.6a4.19,4.19,0,0,1-1.75,3.34l-5.38,3.11A1.51,1.51,0,0,1,63.15,90.26Zm6.72-12.53a1.28,1.28,0,0,0-.61.18L63.88,81a3.94,3.94,0,0,0-1.62,3.12v4.52a1.37,1.37,0,0,0,.52,1.25.92.92,0,0,0,1-.09l5.39-3.1a3.94,3.94,0,0,0,1.62-3.12V79.08a1.37,1.37,0,0,0-.52-1.25A.69.69,0,0,0,69.87,77.73Z"/><path class="cls-7" d="M63.15,102.53a1,1,0,0,1-.5-.13,1.62,1.62,0,0,1-.65-1.47V96.4a4.2,4.2,0,0,1,1.75-3.33L69.14,90a1.2,1.2,0,0,1,1.23-.09A1.64,1.64,0,0,1,71,91.35v4.52a4.19,4.19,0,0,1-1.75,3.34l-5.38,3.1A1.43,1.43,0,0,1,63.15,102.53ZM69.87,90a1.28,1.28,0,0,0-.61.18l-5.38,3.11a3.92,3.92,0,0,0-1.62,3.11v4.53a1.39,1.39,0,0,0,.52,1.25.94.94,0,0,0,1-.09L69.14,99a3.94,3.94,0,0,0,1.62-3.12V91.35a1.39,1.39,0,0,0-.52-1.26A.78.78,0,0,0,69.87,90Z"/><path class="cls-7" d="M39.81,116.37a1.09,1.09,0,0,1-.54-.14,1.4,1.4,0,0,1-.59-1.28V97.45a4.14,4.14,0,0,1,1.87-3.25l16-9.24a1.22,1.22,0,0,1,2,1.16v17.5a4.17,4.17,0,0,1-1.87,3.25l-5.25,3-.12-.22,5.24-3a3.9,3.9,0,0,0,1.75-3V86.12a1.18,1.18,0,0,0-.47-1.07,1.15,1.15,0,0,0-1.15.13l-16,9.24a3.86,3.86,0,0,0-1.75,3V115A1.15,1.15,0,0,0,39.4,116a1.12,1.12,0,0,0,1.15-.13l9-5.16.13.22-9,5.16A1.72,1.72,0,0,1,39.81,116.37Z"/><path class="cls-7" d="M42.67,111.06a.53.53,0,0,1-.28-.07.86.86,0,0,1-.36-.79v-5.67a2.14,2.14,0,0,1,.91-1.72l.12-.07a.67.67,0,0,1,.68,0,.85.85,0,0,1,.35.79v5.67a2.1,2.1,0,0,1-.9,1.71l-.13.08A.86.86,0,0,1,42.67,111.06Zm.52-8.1-.13.07a1.92,1.92,0,0,0-.77,1.5v5.67a.62.62,0,0,0,.23.57.45.45,0,0,0,.42,0l.12-.08a1.89,1.89,0,0,0,.78-1.49v-5.67a.62.62,0,0,0-.23-.57.4.4,0,0,0-.42,0Z"/><path class="cls-7" d="M46.37,108.93a.54.54,0,0,1-.28-.08.85.85,0,0,1-.36-.79v-3.9a2.1,2.1,0,0,1,.91-1.71l.12-.08a.67.67,0,0,1,.68,0,.86.86,0,0,1,.36.79V107a2.14,2.14,0,0,1-.91,1.72l-.12.07A.8.8,0,0,1,46.37,108.93Zm.79-6.42a.61.61,0,0,0-.27.08l-.12.08a1.88,1.88,0,0,0-.78,1.49v3.9a.62.62,0,0,0,.23.57.4.4,0,0,0,.42,0l.12-.07a1.9,1.9,0,0,0,.78-1.5v-3.9a.62.62,0,0,0-.23-.57A.26.26,0,0,0,47.16,102.51Z"/><path class="cls-7" d="M50.07,106.79a.55.55,0,0,1-.28-.07.86.86,0,0,1-.35-.79v-9a2.1,2.1,0,0,1,.9-1.71l.13-.08a.68.68,0,0,1,.67,0,.86.86,0,0,1,.36.79v9a2.12,2.12,0,0,1-.91,1.72l-.12.07A.8.8,0,0,1,50.07,106.79Zm.79-11.52a.61.61,0,0,0-.27.08l-.12.08a1.89,1.89,0,0,0-.78,1.49v9a.63.63,0,0,0,.23.57.42.42,0,0,0,.42,0l.13-.07a1.9,1.9,0,0,0,.77-1.5v-9a.64.64,0,0,0-.22-.57A.29.29,0,0,0,50.86,95.27Z"/><path class="cls-7" d="M53.77,104.65a.55.55,0,0,1-.28-.07.88.88,0,0,1-.35-.79V92.64a2.12,2.12,0,0,1,.9-1.72l.13-.07a.66.66,0,0,1,.67,0,.86.86,0,0,1,.36.79v11.16a2.1,2.1,0,0,1-.91,1.71l-.12.08A.89.89,0,0,1,53.77,104.65ZM54.56,91a.66.66,0,0,0-.27.09l-.12.07a1.88,1.88,0,0,0-.78,1.5v11.15a.62.62,0,0,0,.23.57.44.44,0,0,0,.42,0l.13-.08a1.88,1.88,0,0,0,.77-1.49V91.59a.65.65,0,0,0-.22-.57A.42.42,0,0,0,54.56,91Z"/><path class="cls-7" d="M37.44,121.69a1.5,1.5,0,0,1-.75-.2,2,2,0,0,1-.83-1.81v-36A6,6,0,0,1,38.56,79L71,60.29a1.74,1.74,0,0,1,2.83,1.64v36a6,6,0,0,1-2.71,4.67L51.43,114l-.12-.22L71,102.35a5.69,5.69,0,0,0,2.57-4.45v-36a1.73,1.73,0,0,0-.71-1.6,1.75,1.75,0,0,0-1.74.18L38.68,79.25a5.69,5.69,0,0,0-2.57,4.46v36a1.49,1.49,0,0,0,2.45,1.41l10.94-6.32.13.22-11,6.32A2.5,2.5,0,0,1,37.44,121.69Z"/><path class="cls-7" d="M37.44,139.65a1.49,1.49,0,0,1-.75-.19,2,2,0,0,1-.83-1.82v-5.43a6,6,0,0,1,2.7-4.68L60.33,115l.12.22L38.68,127.75a5.69,5.69,0,0,0-2.57,4.46v5.43a1.48,1.48,0,0,0,2.45,1.41L71,120.32a5.69,5.69,0,0,0,2.57-4.46v-5.43A1.48,1.48,0,0,0,71.13,109l-8.77,5.06-.12-.22L71,108.8a1.73,1.73,0,0,1,2.83,1.63v5.43a6,6,0,0,1-2.71,4.68L38.68,139.27A2.5,2.5,0,0,1,37.44,139.65Z"/><path class="cls-31" d="M43.71,130.46a4.24,4.24,0,0,1-1.92,3.33c-1.06.62-1.92.12-1.92-1.11a4.27,4.27,0,0,1,1.92-3.33C42.85,128.74,43.71,129.24,43.71,130.46Z"/><path class="cls-31" d="M56.77,122.92a4.27,4.27,0,0,1-1.92,3.34c-1.07.61-1.93.11-1.93-1.11a4.26,4.26,0,0,1,1.93-3.34C55.91,121.2,56.77,121.7,56.77,122.92Z"/><path class="cls-31" d="M69.83,115.39a4.28,4.28,0,0,1-1.93,3.33c-1.06.61-1.92.11-1.92-1.11a4.24,4.24,0,0,1,1.92-3.33C69,113.66,69.83,114.16,69.83,115.39Z"/><path class="cls-7" d="M40.93,134.18a1,1,0,0,1-.56-.14,1.47,1.47,0,0,1-.63-1.36,4.39,4.39,0,0,1,2-3.44,1.46,1.46,0,0,1,1.48-.13,1.45,1.45,0,0,1,.63,1.35,4.38,4.38,0,0,1-2,3.44A1.81,1.81,0,0,1,40.93,134.18Zm1.72-5a1.69,1.69,0,0,0-.8.24A4.13,4.13,0,0,0,40,132.68a1.25,1.25,0,0,0,.5,1.14,1.22,1.22,0,0,0,1.24-.14,4.12,4.12,0,0,0,1.86-3.22,1.23,1.23,0,0,0-.5-1.13A.82.82,0,0,0,42.65,129.22Z"/><path class="cls-7" d="M47.46,130.42a1.1,1.1,0,0,1-.57-.15,1.48,1.48,0,0,1-.62-1.36,4.42,4.42,0,0,1,2-3.44,1.3,1.3,0,0,1,2.12,1.22,4.41,4.41,0,0,1-2,3.45A1.94,1.94,0,0,1,47.46,130.42Zm1.72-5a1.66,1.66,0,0,0-.8.24,4.15,4.15,0,0,0-1.86,3.22,1.25,1.25,0,0,0,.5,1.14,1.22,1.22,0,0,0,1.23-.13,4.12,4.12,0,0,0,1.86-3.23,1.21,1.21,0,0,0-.5-1.13A.79.79,0,0,0,49.18,125.45Z"/><path class="cls-7" d="M54,126.65a1.1,1.1,0,0,1-.57-.15,1.47,1.47,0,0,1-.63-1.35,4.44,4.44,0,0,1,2-3.45,1.3,1.3,0,0,1,2.12,1.22,4.44,4.44,0,0,1-2,3.45A1.94,1.94,0,0,1,54,126.65Zm1.71-5a1.62,1.62,0,0,0-.79.24,4.12,4.12,0,0,0-1.86,3.23,1.24,1.24,0,0,0,.5,1.13,1.22,1.22,0,0,0,1.23-.13,4.12,4.12,0,0,0,1.86-3.23,1.23,1.23,0,0,0-.5-1.13A.8.8,0,0,0,55.7,121.68Z"/><path class="cls-7" d="M60.51,122.88a1.09,1.09,0,0,1-.56-.15,1.47,1.47,0,0,1-.63-1.35,4.41,4.41,0,0,1,2-3.45,1.3,1.3,0,0,1,2.11,1.23,4.42,4.42,0,0,1-2,3.44A2,2,0,0,1,60.51,122.88Zm1.72-5a1.54,1.54,0,0,0-.79.25,4.09,4.09,0,0,0-1.86,3.22,1.21,1.21,0,0,0,.5,1.13,1.22,1.22,0,0,0,1.23-.13,4.12,4.12,0,0,0,1.86-3.22,1.25,1.25,0,0,0-.5-1.14A.93.93,0,0,0,62.23,117.91Z"/><path class="cls-7" d="M67,119.11a1.09,1.09,0,0,1-.56-.15,1.45,1.45,0,0,1-.63-1.35,4.38,4.38,0,0,1,2-3.44,1.46,1.46,0,0,1,1.49-.14,1.48,1.48,0,0,1,.62,1.36,4.41,4.41,0,0,1-2,3.44A2,2,0,0,1,67,119.11Zm1.72-5a1.54,1.54,0,0,0-.79.25,4.09,4.09,0,0,0-1.86,3.22,1.21,1.21,0,0,0,.5,1.13,1.22,1.22,0,0,0,1.23-.13,4.13,4.13,0,0,0,1.86-3.22,1.25,1.25,0,0,0-.5-1.14A.93.93,0,0,0,68.76,114.14Z"/><path class="cls-7" d="M61.5,118.05h-.25v-4.18a1.18,1.18,0,0,0-.49-1.1,1.2,1.2,0,0,0-1.19.13l-7.17,4.15a1.26,1.26,0,0,1-2.06-1.19v-9.33h.25v9.33a1,1,0,0,0,1.68,1l7.17-4.14a1.26,1.26,0,0,1,2.06,1.19Z"/></svg>