<svg xmlns="http://www.w3.org/2000/svg" xmlns:xlink="http://www.w3.org/1999/xlink" width="84.34" height="82.934" viewBox="0 0 84.34 82.934"><defs><linearGradient id="a" x1="0.5" x2="0.5" y2="1" gradientUnits="objectBoundingBox"><stop offset="0" stop-color="#d51331"/><stop offset="1" stop-color="#eb7602"/></linearGradient></defs><g transform="translate(0 0)"><path d="M34.142,3.267H3.217A4.142,4.142,0,0,0-1,7.484V38.409a4.142,4.142,0,0,0,4.217,4.217H34.142a4.142,4.142,0,0,0,4.217-4.217V7.484A4.142,4.142,0,0,0,34.142,3.267Zm1.406,35.142a1.328,1.328,0,0,1-1.406,1.406H3.217a1.328,1.328,0,0,1-1.406-1.406V7.484A1.328,1.328,0,0,1,3.217,6.078H34.142a1.328,1.328,0,0,1,1.406,1.406V38.409Z" transform="translate(1 -3.267)" fill="url(#a)"/><path d="M440.58,178.728l.843,2.952a1.369,1.369,0,0,0,1.406,1.125c.141,0,.281,0,.141-.141a1.423,1.423,0,0,0,1.125-1.687,27.366,27.366,0,0,0-.843-3.233,1.423,1.423,0,1,0-2.671.984Z" transform="translate(-367.767 -148.225)" fill="url(#a)"/><path d="M421.743,136.409a1.351,1.351,0,0,0,1.265.843.774.774,0,0,0,.7-.281,1.481,1.481,0,0,0,.562-1.827l-1.687-2.952a1.423,1.423,0,0,0-2.39,1.546A16.57,16.57,0,0,1,421.743,136.409Z" transform="translate(-350.616 -110.404)" fill="url(#a)"/><path d="M302.948,53.755l2.952.843h.422a1.35,1.35,0,0,0,1.265-.984,1.406,1.406,0,0,0-.843-1.827c-1.125-.281-2.249-.562-3.233-.843a1.458,1.458,0,0,0-1.687,1.125A1.541,1.541,0,0,0,302.948,53.755Z" transform="translate(-251.922 -43.072)" fill="url(#a)"/><path d="M348.587,69.506a26.09,26.09,0,0,1,2.671,1.546,1.074,1.074,0,0,0,.7.281,1.279,1.279,0,0,0,1.125-.562,1.383,1.383,0,0,0-.422-1.968l-2.952-1.687a1.241,1.241,0,0,0-1.827.562A1.209,1.209,0,0,0,348.587,69.506Z" transform="translate(-290.252 -56.433)" fill="url(#a)"/><path d="M391.545,99.966a1.276,1.276,0,0,0,.984.422,1.215,1.215,0,0,0,.843-.422A1.366,1.366,0,0,0,393.512,98a19.2,19.2,0,0,0-2.39-2.39,1.4,1.4,0,0,0-1.827,2.109C390.139,98.42,390.842,99.264,391.545,99.966Z" transform="translate(-324.635 -80.147)" fill="url(#a)"/><path d="M65.684,353.137a1.352,1.352,0,1,0-2.39,1.265l1.687,2.952a1.252,1.252,0,0,0,1.125.7,1.074,1.074,0,0,0,.7-.281,1.383,1.383,0,0,0,.422-1.968A16.544,16.544,0,0,1,65.684,353.137Z" transform="translate(-52.611 -294.942)" fill="url(#a)"/><path d="M50.306,310.141l-.843-2.952a1.434,1.434,0,0,0-2.811.562,27.361,27.361,0,0,0,.843,3.233,1.693,1.693,0,0,0,1.406.984c.141,0,.281-.141.562,0A1.462,1.462,0,0,0,50.306,310.141Z" transform="translate(-38.779 -256.164)" fill="url(#a)"/><path d="M178.267,446.544l-2.952-.843a1.423,1.423,0,1,0-.984,2.671c.984.281,2.109.562,3.233.843h.281a2.13,2.13,0,0,0,1.546-.984A1.542,1.542,0,0,0,178.267,446.544Z" transform="translate(-144.671 -372.746)" fill="url(#a)"/><path d="M93.16,393.272a1.4,1.4,0,0,0-2.108,1.827,19.2,19.2,0,0,0,2.39,2.39,1.518,1.518,0,0,0,.984.422,2.243,2.243,0,0,0,1.125-.422,1.505,1.505,0,0,0-.141-1.968C94.566,394.819,93.863,393.975,93.16,393.272Z" transform="translate(-75.589 -328.612)" fill="url(#a)"/><path d="M133,426.009a26.091,26.091,0,0,1-2.671-1.546,1.423,1.423,0,1,0-1.546,2.39l2.952,1.687c.141.141.281.141.562.141a1.351,1.351,0,0,0,1.265-.843A1.241,1.241,0,0,0,133,426.009Z" transform="translate(-106.85 -354.883)" fill="url(#a)"/><path d="M311.416,290.318c-.367-5.313-17.724-5.451-19.671-5.451s-19.3.139-19.671,5.451c-.005.056-.009.113-.009.171v25.3c0,5.482,17.711,5.623,19.679,5.623s19.679-.141,19.679-5.623v-25.3C311.425,290.431,311.422,290.374,311.416,290.318Zm-2.8,16.9c-.7,1.125-6.888,2.952-16.868,2.952s-16.165-1.827-16.868-2.952v-5.06a18.711,18.711,0,0,0,3.224,1.037,67.088,67.088,0,0,0,13.644,1.353c1.475,0,11.79-.079,16.868-2.425Zm0-8.434c-.7,1.125-6.888,2.952-16.868,2.952s-16.165-1.827-16.868-2.952v-5.06a18.707,18.707,0,0,0,3.223,1.036,67.082,67.082,0,0,0,13.645,1.353c1.475,0,11.79-.079,16.868-2.425Zm-16.868-11.1c9.7,0,15.743,1.687,16.728,2.811a1.859,1.859,0,0,1-.394.319c-1.744,1.061-7.2,2.39-15.383,2.486h-.028q-.456.005-.922.005t-.922-.005H290.8c-8.179-.1-13.639-1.425-15.383-2.486a1.839,1.839,0,0,1-.394-.319C276,289.365,282.046,287.678,291.745,287.678Zm0,30.925c-9.98,0-16.165-1.827-16.868-2.952v-5.06a18.7,18.7,0,0,0,3.223,1.036,67.078,67.078,0,0,0,13.645,1.353c1.475,0,11.79-.079,16.868-2.425v5.1C307.911,316.776,301.726,318.6,291.745,318.6Z" transform="translate(-227.085 -238.48)" fill="url(#a)"/><path d="M34.54,48.745H48.6a1.406,1.406,0,0,0,0-2.811H34.54a1.406,1.406,0,0,0,0,2.811Z" transform="translate(-27.511 -38.906)" fill="url(#a)"/><path d="M75.6,80.067H60.14a1.406,1.406,0,1,0,0,2.811H75.6a1.406,1.406,0,1,0,0-2.811Z" transform="translate(-48.894 -67.416)" fill="url(#a)"/><path d="M48.6,114.2H34.54a1.406,1.406,0,0,0,0,2.811H48.6a1.406,1.406,0,0,0,0-2.811Z" transform="translate(-27.511 -95.926)" fill="url(#a)"/><path d="M41.568,149.74a1.328,1.328,0,0,0-1.406-1.406H34.54a1.406,1.406,0,0,0,0,2.811h5.623A1.328,1.328,0,0,0,41.568,149.74Z" transform="translate(-27.511 -124.438)" fill="url(#a)"/><path d="M62.851,182.467H51.606a1.406,1.406,0,0,0,0,2.811H62.851a1.406,1.406,0,1,0,0-2.811Z" transform="translate(-41.766 -152.948)" fill="url(#a)"/></g></svg>