<svg xmlns="http://www.w3.org/2000/svg" xmlns:xlink="http://www.w3.org/1999/xlink" width="90.9" height="90.907" viewBox="0 0 90.9 90.907"><defs><linearGradient id="a" x1="0.5" x2="0.5" y2="1" gradientUnits="objectBoundingBox"><stop offset="0" stop-color="#d51331"/><stop offset="1" stop-color="#ffba76"/></linearGradient><linearGradient id="r" x1="0.5" x2="0.5" y2="1" gradientUnits="objectBoundingBox"><stop offset="0" stop-color="#d51331"/><stop offset="1" stop-color="#eb7602"/></linearGradient></defs><g transform="translate(-2 -1.995)"><path d="M15.09,24.545a4.545,4.545,0,1,0-4.545,4.545A4.545,4.545,0,0,0,15.09,24.545Zm-6.06,0a1.515,1.515,0,1,1,1.515,1.515A1.515,1.515,0,0,1,9.03,24.545Z" transform="translate(2.06 9.272)" fill="url(#a)"/><path d="M18.545,29.09A4.545,4.545,0,1,0,14,24.545,4.545,4.545,0,0,0,18.545,29.09Zm0-6.06a1.515,1.515,0,1,1-1.515,1.515A1.515,1.515,0,0,1,18.545,23.03Z" transform="translate(6.18 9.272)" fill="url(#a)"/><path d="M10.545,36a4.545,4.545,0,1,0,4.545,4.545A4.545,4.545,0,0,0,10.545,36Zm0,6.06a1.515,1.515,0,1,1,1.515-1.515A1.515,1.515,0,0,1,10.545,42.06Z" transform="translate(2.06 17.512)" fill="url(#a)"/><path d="M18.545,36a4.545,4.545,0,1,0,4.545,4.545A4.545,4.545,0,0,0,18.545,36Zm0,6.06a1.515,1.515,0,1,1,1.515-1.515A1.515,1.515,0,0,1,18.545,42.06Z" transform="translate(6.18 17.512)" fill="url(#a)"/><path d="M26.545,36a4.545,4.545,0,1,0,4.545,4.545A4.545,4.545,0,0,0,26.545,36Zm0,6.06a1.515,1.515,0,1,1,1.515-1.515A1.515,1.515,0,0,1,26.545,42.06Z" transform="translate(10.3 17.512)" fill="url(#a)"/><path d="M34.545,40h-3.03a1.515,1.515,0,1,0,0,3.03h3.03a1.515,1.515,0,0,0,0-3.03Z" transform="translate(14.42 19.572)" fill="url(#a)"/><path d="M10.545,52a4.545,4.545,0,1,0,4.545,4.545A4.545,4.545,0,0,0,10.545,52Zm0,6.06a1.515,1.515,0,1,1,1.515-1.515A1.515,1.515,0,0,1,10.545,58.06Z" transform="translate(2.06 25.752)" fill="url(#a)"/><path d="M18.545,52a4.545,4.545,0,1,0,4.545,4.545A4.545,4.545,0,0,0,18.545,52Zm0,6.06a1.515,1.515,0,1,1,1.515-1.515A1.515,1.515,0,0,1,18.545,58.06Z" transform="translate(6.18 25.752)" fill="url(#a)"/><path d="M26.545,52a4.545,4.545,0,1,0,4.545,4.545A4.545,4.545,0,0,0,26.545,52Zm0,6.06a1.515,1.515,0,1,1,1.515-1.515A1.515,1.515,0,0,1,26.545,58.06Z" transform="translate(10.3 25.752)" fill="url(#a)"/><path d="M34.545,52h-3.03a1.515,1.515,0,1,0,0,3.03h3.03a1.515,1.515,0,0,0,0-3.03Z" transform="translate(14.42 25.752)" fill="url(#a)"/><path d="M34.545,56h-3.03a1.515,1.515,0,1,0,0,3.03h3.03a1.515,1.515,0,0,0,0-3.03Z" transform="translate(14.42 27.812)" fill="url(#a)"/><path d="M40.545,52h-3.03a1.515,1.515,0,0,0,0,3.03h3.03a1.515,1.515,0,1,0,0-3.03Z" transform="translate(17.51 25.752)" fill="url(#a)"/><path d="M40.545,56h-3.03a1.515,1.515,0,0,0,0,3.03h3.03a1.515,1.515,0,0,0,0-3.03Z" transform="translate(17.51 27.812)" fill="url(#a)"/><path d="M42,53.515a1.515,1.515,0,0,0,1.515,1.515h3.03a1.515,1.515,0,0,0,0-3.03h-3.03A1.515,1.515,0,0,0,42,53.515Z" transform="translate(20.6 25.752)" fill="url(#a)"/><path d="M46.545,56h-3.03a1.515,1.515,0,0,0,0,3.03h3.03a1.515,1.515,0,1,0,0-3.03Z" transform="translate(20.6 27.812)" fill="url(#a)"/><path d="M50.725,41.21A19.718,19.718,0,0,1,31.03,21.515a1.515,1.515,0,0,0-3.03,0A22.751,22.751,0,0,0,50.725,44.24a1.515,1.515,0,0,0,0-3.03Z" transform="translate(13.39 9.272)" fill="url(#a)"/><path d="M43.515,6a1.515,1.515,0,0,0,0,3.03A19.718,19.718,0,0,1,63.21,28.725a1.515,1.515,0,1,0,3.03,0A22.751,22.751,0,0,0,43.515,6Z" transform="translate(20.6 2.062)" fill="url(#a)"/><path d="M92.9,30.787a28.767,28.767,0,0,0-56.525-7.575H12.6A10.6,10.6,0,0,0,11.09,44.3v3.269a10.592,10.592,0,0,0,0,20.971v3.272A10.6,10.6,0,0,0,12.6,92.9h51.51A10.6,10.6,0,0,0,65.63,71.814V68.544a10.6,10.6,0,0,0,9.09-10.487c0-.177-.038-.342-.047-.518A28.811,28.811,0,0,0,92.9,30.787ZM38.774,44.422a28.515,28.515,0,0,0,1.915,3.03H14.12v-3.03ZM5.03,33.817A7.589,7.589,0,0,1,12.6,26.242h23.12a27.794,27.794,0,0,0,1.654,15.15H12.6A7.584,7.584,0,0,1,5.03,33.817Zm9.09,37.875v-3.03H62.6v3.03ZM71.69,82.3a7.584,7.584,0,0,1-7.575,7.575H12.6a7.575,7.575,0,1,1,0-15.15h51.51A7.584,7.584,0,0,1,71.69,82.3ZM69.463,63.414a7.469,7.469,0,0,1-5.348,2.218H12.6a7.575,7.575,0,1,1,0-15.15H43.181a28.482,28.482,0,0,0,28.462,8.057A7.451,7.451,0,0,1,69.463,63.414Zm-5.348-6.872A25.755,25.755,0,1,1,89.87,30.787,25.755,25.755,0,0,1,64.115,56.542Z" transform="translate(0 0)" fill="url(#r)"/><path d="M54.734,20.09a4.545,4.545,0,1,0-4.545-4.545,4.447,4.447,0,0,0,.086.847l-10.8,6.3a4.545,4.545,0,1,0-.244,7.12L50.35,35.626A4.56,4.56,0,1,0,52.062,33.1L40.938,27.288A4.518,4.518,0,0,0,41.1,26.15a4.447,4.447,0,0,0-.086-.847l10.8-6.3a4.509,4.509,0,0,0,2.916,1.088Zm0-6.06a1.515,1.515,0,1,1-1.515,1.515A1.515,1.515,0,0,1,54.734,14.03ZM35.039,26.15a1.515,1.515,0,1,1,1.515,1.515A1.515,1.515,0,0,1,35.039,26.15Zm21.21,10.6a1.515,1.515,0,1,1-1.515-1.515A1.515,1.515,0,0,1,56.249,36.755Z" transform="translate(15.441 4.637)" fill="url(#a)"/></g></svg>