<svg xmlns="http://www.w3.org/2000/svg" width="334.784" height="314.604" viewBox="0 0 334.784 314.604"><g transform="matrix(0.809, -0.588, 0.588, 0.809, 0, 159.878)" opacity="0.132" style="mix-blend-mode:multiply;isolation:isolate"><path d="M87.636,159.378h.012l.031,0H232.158a7.97,7.97,0,0,0,7.662-5.779L271.694,42.033a7.968,7.968,0,0,0-7.662-10.158H69.258L63.562,6.24A7.97,7.97,0,0,0,55.782,0H7.969a7.969,7.969,0,0,0,0,15.938H49.39C50.4,20.48,76.65,138.613,78.161,145.41a23.9,23.9,0,0,0,9.5,45.841h144.5a7.969,7.969,0,0,0,0-15.938H87.657a7.968,7.968,0,0,1-.021-15.936ZM253.468,47.813l-27.322,95.626H94.048L72.8,47.813Zm0,0"/><path d="M150,383.906A23.906,23.906,0,1,0,173.906,360,23.934,23.934,0,0,0,150,383.906Zm23.906-7.969a7.969,7.969,0,1,1-7.969,7.969A7.979,7.979,0,0,1,173.906,375.938Zm0,0" transform="translate(-70.312 -168.749)"/><path d="M362,383.906A23.906,23.906,0,1,0,385.906,360,23.934,23.934,0,0,0,362,383.906Zm23.906-7.969a7.969,7.969,0,1,1-7.969,7.969A7.979,7.979,0,0,1,385.906,375.938Zm0,0" transform="translate(-169.686 -168.749)"/></g></svg>