<svg xmlns="http://www.w3.org/2000/svg" width="313" height="263.791" viewBox="0 0 313 263.791"><g opacity="0.249"><path d="M275.8,129c-6.225,5.254-12.661,10.685-19.5,16.611a8.437,8.437,0,0,1-11.052,0c-6.838-5.926-13.274-11.358-19.5-16.611-11.316-9.552-21.089-17.8-29.461-25.8-15.275-14.59-29.41-31.208-29.41-53.809C166.883,22.425,186.1,0,213.05,0c16.047,0,28.87,8.314,37.729,21.694C259.641,8.314,272.462,0,288.508,0c27,0,46.169,22.48,46.169,49.395,0,14.164-5.478,27.211-17.24,41.063C307.251,102.457,292.679,114.757,275.8,129Zm12.7-112.122c-8.879,0-16.447,4.19-22.491,12.456a50.437,50.437,0,0,0-7.106,14.056,8.432,8.432,0,0,1-16.255.029,50.279,50.279,0,0,0-7.115-14.082c-6.043-8.266-13.61-12.459-22.491-12.459-16.7,0-29.29,13.979-29.29,32.517,0,13.311,6.783,24.976,24.19,41.6,8,7.638,17.587,15.732,28.69,25.1,4.57,3.858,9.255,7.811,14.139,11.995,4.887-4.184,9.569-8.136,14.139-11.993C297.9,88.269,317.8,71.468,317.8,49.395,317.8,30.856,305.208,16.877,288.508,16.877Zm0,0" transform="translate(-140.548)"/><path d="M3.965,295.881c7.735-11.863,24.155-16,37.375-9.413l53.19,26.471c5.984-16.9,23.273-29.151,43.612-29.151H172.66L207.408,267.8a53.693,53.693,0,0,1,52,3.973c8.188,5.48,20.964,12.012,35.335,12.012h9.091c5.065,0,9.17,3.779,9.17,8.438v67.509c0,4.66-4.1,8.438-9.17,8.438H230.609l-55.2,8.459a188.815,188.815,0,0,1-28.637,2.18,185.627,185.627,0,0,1-91.5-23.893L13.278,331.1C.29,323.722-3.889,307.924,3.965,295.881Zm290.693,4.783a72.566,72.566,0,0,1-18.954-2.639v53.268h18.954ZM22.907,316.735l41.986,23.818a167.2,167.2,0,0,0,107.5,19.43c60.431-9.262,56.371-8.69,57.46-8.69h27.512V290.669q-4.42-2.357-8.747-5.247a34.084,34.084,0,0,0-33-2.527l-36.684,16.877a9.81,9.81,0,0,1-4.1.892H138.142c-11.957,0-22.156,7.053-25.941,16.875h62.625c5.065,0,9.17,3.779,9.17,8.44s-4.1,8.325-9.17,8.325h-73.2a9.688,9.688,0,0,1-4.683-.978L32.611,301.31a10.145,10.145,0,0,0-12.919,3.252A8.547,8.547,0,0,0,22.907,316.735Zm0,0" transform="translate(0 -115.019)"/></g></svg>