<svg xmlns="http://www.w3.org/2000/svg" width="274" height="266.708" viewBox="0 0 274 266.708"><g transform="translate(0 -6.786)" opacity="0.13" style="mix-blend-mode:multiply;isolation:isolate"><path d="M271.051,114.988l-37.087-30.6V51.92a8.058,8.058,0,0,0-8.059-8.059H184.837L142.131,8.628a8.069,8.069,0,0,0-10.262,0L89.163,43.861H48.1a8.058,8.058,0,0,0-8.059,8.059V84.392L2.95,114.988l-.021.021A8.129,8.129,0,0,0,0,121.237v144.2a8.057,8.057,0,0,0,8.059,8.059H265.941A8.051,8.051,0,0,0,274,265.436v-144.2a8.311,8.311,0,0,0-2.95-6.248ZM257.882,246.755,188.92,181.678c42.093-27.758,30.919-20.4,68.962-45.479ZM21.6,120.506c11.066-9.129,7.037-5.8,18.439-15.215v27.373C29.906,125.977,25.607,123.152,21.6,120.506ZM56.154,59.979H217.846V143.3c-72.32,47.7-26.283,17.328-80.846,53.317C98.167,171,115.713,182.579,56.154,143.3V59.979ZM137,25.294l22.506,18.568H114.494Zm115.4,95.212c-3.88,2.561-8.635,5.687-18.439,12.158V105.291c11.419,9.426,7.365,6.081,18.439,15.215ZM16.118,136.2,85.08,181.678,16.118,246.755Zm82.78,54.6,33.664,22.2a8.083,8.083,0,0,0,8.875,0l33.664-22.2,70.558,66.582H28.34Z"/><path d="M219.379,173.648a8.062,8.062,0,0,0,8.059-8.059,7.34,7.34,0,0,1,7.532-7.35,7.424,7.424,0,0,1,7.167,7.167c.116,4.9-3.215,5.558-7.291,10.385a33.845,33.845,0,0,0-8.118,22.183,8.061,8.061,0,1,0,16.118-.253c0-5.012,2.1-9.933,6.8-13.974a23.467,23.467,0,1,0-38.328-18.159A8.062,8.062,0,0,0,219.379,173.648Z" transform="translate(-97.787 -62.625)"/><path d="M248.059,268.434A8.058,8.058,0,0,0,240,276.493v4.717a8.059,8.059,0,1,0,16.118,0v-4.717A8.058,8.058,0,0,0,248.059,268.434Z" transform="translate(-111.059 -121.076)"/></g></svg>