<svg xmlns="http://www.w3.org/2000/svg" width="263.39" height="262.667" viewBox="0 0 263.39 262.667"><g style="isolation:isolate"><g transform="translate(125.771 72.614)"><path d="M482.754,260.024l-.312,110.035L345.134,450.077l.312-110.036Z" transform="translate(-345.134 -260.024)" fill="#ddb176"/></g><g transform="translate(0 80.018)"><path d="M449.523,333.915l-.312,110.036L323.441,371.336l.312-110.035Z" transform="translate(-323.441 -261.301)" fill="#c19564"/></g><g transform="translate(0.312)"><path d="M586.573,320.113,449.265,400.131,323.495,327.517,460.8,247.5Z" transform="translate(-323.495 -247.499)" fill="#fcd9a9"/></g></g><g transform="translate(51.676 29.962)"><path d="M470.538,252.667,332.354,332.448v25.686l14.566,8.409V340.649l138-79.677Z" transform="translate(-332.354 -252.667)" fill="#c58c67" opacity="0.7"/><path d="M335.224,333.982l137.949-79.647-1.794-1.036-137.95,79.647Z" transform="translate(-327.198 -249.638)" fill="#a47f65" opacity="0.2" style="mix-blend-mode:multiply;isolation:isolate"/><g transform="translate(89.736 57.664)"><path d="M410.481,295.719l-52.075,30.065v-33.1l52.075-30.066Z" transform="translate(-297.103 -262.614)" fill="#e4e4e4"/><path d="M398.793,282.764l-50.961,29.423v-4.464L398.793,278.3Zm-7.067,8.986L354.9,313.01v1.716l36.827-21.26Zm0,5.577L354.9,318.594v1.716l36.827-21.26Zm0,5.583L354.9,324.171v1.716l36.827-21.26Zm0,5.577L354.9,329.748v1.716l36.827-21.26Zm0,5.583L354.9,335.331v1.716l36.827-21.26Z" transform="translate(-347.832 -187.356)" fill="#363633" opacity="0.4"/><path d="M396.613,264.166l-36.827,21.26v1.716l36.827-21.26Zm0,5.577L359.786,291v1.716l36.827-21.26Zm0,5.577-36.827,21.26V298.3l36.827-21.266Zm0,5.583-36.827,21.26v1.716l36.827-21.26Zm0,5.577-36.827,21.26v1.716l36.827-21.26Z" transform="translate(-290.481 -255.166)" fill="#363633" opacity="0.4"/></g></g><path d="M332.354,266.428v25.685l14.567,8.41v-25.9Z" transform="translate(-280.679 -156.686)" fill="#c58c67" opacity="0.5" style="mix-blend-mode:multiply;isolation:isolate"/><g transform="translate(134.277 136.259)"><path d="M353.5,277.932c-1.02,2.36-3.281,4.273-5.055,4.273s-2.371-1.913-1.351-4.273,3.281-4.267,5.05-4.267S354.524,275.572,353.5,277.932Z" transform="translate(-346.601 -258.226)" fill="#4c4b44"/><path d="M355.809,276.6c-1.02,2.36-3.281,4.273-5.05,4.273s-2.377-1.913-1.356-4.273,3.287-4.267,5.055-4.267S356.829,274.246,355.809,276.6Z" transform="translate(-335.537 -264.617)" fill="#4c4b44"/><path d="M358.111,275.269c-1.02,2.36-3.281,4.267-5.05,4.267s-2.371-1.908-1.351-4.267S354.992,271,356.76,271,359.132,272.909,358.111,275.269Z" transform="translate(-324.47 -271.002)" fill="#4c4b44"/></g></svg>