<svg xmlns="http://www.w3.org/2000/svg" width="159.475" height="41.315" viewBox="0 0 159.475 41.315"><path d="M659.151,173.655c-6.634-3.772-9.381-7.65-18.52-8.863a26.561,26.561,0,0,1-5.457-.983c-4.449-1.639-3.539-5.376-4.54-8.334-1.967-5.83-14.815-9.516-24.234-6.951-3.945,1.074-7.52,3.054-11.883,2.879-8.721-.353-7.676-6.729-13.638-10.366-5.628-3.435-17.1-3.885-24.416-1.707a40.155,40.155,0,0,0-12.848,6.186c-3.547,2.725-3.389,6.933-6.005,9.935-2.495,2.9-8.469,4.163-11.075,7.017-2.258,2.475-2.952,5.109-1.112,7.724,3.724,5.3,14.653,9.123,24.562,9.123H683.843S666.542,177.855,659.151,173.655Z" transform="translate(-524.368 -138.001)" fill="#f3faff"/></svg>