<svg xmlns="http://www.w3.org/2000/svg" width="347.38" height="416.826" viewBox="0 0 347.38 416.826">
  <g id="Group_555" data-name="Group 555" transform="translate(-521.471 -224.629)">
    <g id="Group_546" data-name="Group 546" transform="translate(578.882 224.629)">
      <g id="Group_545" data-name="Group 545">
        <path id="Path_560" data-name="Path 560" d="M727.893,240.036a29.88,29.88,0,0,1-3.632,3.524c-8.231,7-31.38,21.955-78.839,21.955-39.26,0-62.923-6.476-74.27-10.749a54.713,54.713,0,0,1-8.2-3.684s-11.761-30.269,33.326-26.048,70.24,20.446,88.864,12.822S734.051,227.951,727.893,240.036Z" transform="translate(-508.142 -224.629)" fill="#5c17b2"/>
        <path id="Path_561" data-name="Path 561" d="M720.966,239.825c-8.231,7-31.38,21.955-78.839,21.955-39.26,0-62.923-6.476-74.27-10.749l-.031-.033s-19.929-28.038,25.158-23.818,69.369,16.648,88.753,11.294C699.559,233.556,722.6,229.5,720.966,239.825Z" transform="translate(-504.847 -220.894)" fill="#3b1189"/>
        <g id="Group_539" data-name="Group 539" transform="translate(174.797 75.305)">
          <path id="Path_562" data-name="Path 562" d="M677.741,258.7a3.988,3.988,0,0,0-5.633.094c-9.575,9.876-25.553,8.093-45.187-2.958l-.08-.044a30.494,30.494,0,0,0-21.36-3.27v11.805a38.683,38.683,0,0,1,14.216,6.393c.224.16.451.337.683.531,6.86,5.722,16.333,25.526,28.345,32.8a26.29,26.29,0,0,0,22.143,2.734,3.988,3.988,0,0,0-2.339-7.618c-13.337,3.441-26.065-6.44-37.071-26.153a30.046,30.046,0,0,0-6.695-8.231,31.028,31.028,0,0,0-6.811-4.417,53.774,53.774,0,0,1,7.5,2.651c9.481,3.95,22.054,10.31,32.3,10.271a26.286,26.286,0,0,0,20.324-9.207,3.934,3.934,0,0,0,.887-2.5A4,4,0,0,0,677.741,258.7Z" transform="translate(-605.481 -251.874)" fill="#ffac00"/>
          <path id="Path_563" data-name="Path 563" d="M626.922,255.841l-.08-.044a30.479,30.479,0,0,0-21.36-3.267v11.8a38.7,38.7,0,0,1,14.216,6.393c.224.16.451.337.683.531a20.413,20.413,0,0,0,4.384-6.473,31.028,31.028,0,0,0-6.811-4.417,53.765,53.765,0,0,1,7.5,2.651A29.282,29.282,0,0,0,626.922,255.841Z" transform="translate(-605.481 -251.873)" fill="#fa8a00"/>
        </g>
        <path id="Path_564" data-name="Path 564" d="M727.011,232.8s-7.361,44.181-49.333,68.479c0,0-27.273,9.55-47.829,3.292a31.173,31.173,0,0,1-13.287-7.712s-45.656-34.6-54.49-53.014c0,0,5.7-14.091,39.761-15.094a83.625,83.625,0,0,1,19.647,2.211C648.656,236.724,681.128,250.45,727.011,232.8Z" transform="translate(-507.259 -217.395)" fill="#7742ca"/>
        <path id="Path_565" data-name="Path 565" d="M644.938,232.025s-10.081,34.769-29.6,46.035a30.21,30.21,0,0,1-9.859-3.049S626.922,266.39,644.938,232.025Z" transform="translate(-430.684 -211.582)" fill="#7742ca"/>
        <path id="Path_566" data-name="Path 566" d="M687.225,589.339c-164.295,0-166.816-124.376-115.551-201.656s80.787-135.305,80.787-135.305l4.224.713a171.078,171.078,0,0,0,18.776,2.1h0a171.815,171.815,0,0,0,42.171-2.817s8.469,14.508,23.348,38.674,36.165,58,61.8,96.631c16.485,24.849,27.408,54.565,29.175,83.455h0C835.693,532.09,798.691,589.339,687.225,589.339Z" transform="translate(-542.241 -175.68)" fill="#7742ca"/>
        <g id="Group_541" data-name="Group 541" transform="translate(0 76.697)">
          <path id="Path_568" data-name="Path 568" d="M799.166,556.419c-22.961,20.045-59.079,32.92-111.941,32.92-164.295,0-166.816-124.376-115.551-201.656s80.787-135.305,80.787-135.305l4.224.713q3.342.56,6.706.992,6.02.767,12.071,1.111h0S665.6,326.379,623.453,385.14s-24.39,141.787,63.772,157.128,148.366-15.468,144.728-71.13h0C833.921,503.184,824.626,534.207,799.166,556.419Z" transform="translate(-542.241 -252.377)" fill="#5c17b2"/>
        </g>
        <path id="Path_569" data-name="Path 569" d="M583.565,229.606v-.033l.006-.055A.879.879,0,0,1,583.565,229.606Z" transform="translate(-469.345 -216.004)" fill="#5c17b2"/>
        <g id="Group_542" data-name="Group 542" transform="translate(54.813 11.335)">
          <path id="Path_570" data-name="Path 570" d="M640.756,294.764c.976-15.473-21.822-20.625-33.075-39.385-11.761-19.6,13.8-24.415,13.8-24.415a83.625,83.625,0,0,0-19.647-2.211c-11.15.332-19.26,2.059-25.125,4.243-12.054,4.478-14.636,10.852-14.636,10.852,7.532,15.7,41.823,43.158,51.77,50.917Z" transform="translate(-562.072 -228.73)" fill="#5c17b2"/>
        </g>
        <g id="Group_543" data-name="Group 543" transform="translate(101.373 71.098)">
          <path id="Path_571" data-name="Path 571" d="M661.623,260.873a7.278,7.278,0,0,1-2.465,5.558s-38.884-11.988-78.065,2.126a11.983,11.983,0,0,1-2.156-7.507,12.476,12.476,0,0,1,2-5.984s37.862-10.727,78.7.182A10.519,10.519,0,0,1,661.623,260.873Z" transform="translate(-578.917 -250.351)" fill="#ffac00"/>
          <path id="Path_572" data-name="Path 572" d="M661.623,257.7a7.278,7.278,0,0,1-2.465,5.558s-38.884-11.988-78.065,2.126a11.983,11.983,0,0,1-2.156-7.507C588.107,254.774,625.162,246.814,661.623,257.7Z" transform="translate(-578.917 -247.175)" fill="#fa8a00"/>
        </g>
        <g id="Group_544" data-name="Group 544" transform="translate(98.031 64.797)">
          <path id="Path_573" data-name="Path 573" d="M666.58,258.833c-.791.987-2.225,1.838-4.815,1.841,0,0-35.684-13.77-78.7-.182a6.472,6.472,0,0,1-4.359-2.172,5.126,5.126,0,0,1-1-3.1s46.862-16.449,89.834.556A4.628,4.628,0,0,1,666.58,258.833Z" transform="translate(-577.708 -248.072)" fill="#ffac00"/>
          <path id="Path_574" data-name="Path 574" d="M665.944,256.644c-.791.987-2.225,1.838-4.815,1.841,0,0-35.684-13.77-78.7-.182a6.473,6.473,0,0,1-4.359-2.172C585.015,253.907,626.926,241.671,665.944,256.644Z" transform="translate(-577.071 -245.882)" fill="#fa8a00"/>
        </g>
      </g>
    </g>
    <g id="Group_554" data-name="Group 554" transform="translate(521.471 469.372)">
      <path id="Path_575" data-name="Path 575" d="M683.8,359.458a85.991,85.991,0,0,1-97.264,123.185q-3-.759-5.946-1.728a86.172,86.172,0,0,1-24.149-12.457q-2.164-1.592-4.229-3.322a85.732,85.732,0,0,1-20.985-26.162q-.738-1.414-1.413-2.864A86.068,86.068,0,0,1,599.3,313.561q3.105-.294,6.208-.365a86.194,86.194,0,0,1,26.557,3.577q2.832.846,5.6,1.877a85.629,85.629,0,0,1,44.593,38.006C682.792,357.578,683.3,358.515,683.8,359.458Z" transform="translate(-521.471 -313.174)" fill="#ffce4f"/>
      <path id="Path_576" data-name="Path 576" d="M618.349,333.384,575.189,472.694a85.3,85.3,0,0,1-22.9,2.866l49.673-156.893A85.458,85.458,0,0,1,618.349,333.384Z" transform="translate(-467.112 -303.483)" fill="#fff" opacity="0.2"/>
      <path id="Path_577" data-name="Path 577" d="M585.893,313.182,536.82,468.444q-2.164-1.592-4.229-3.322l47.094-151.575Q582.79,313.253,585.893,313.182Z" transform="translate(-501.854 -313.16)" fill="#fff" opacity="0.2"/>
      <path id="Path_578" data-name="Path 578" d="M599.938,316.353,548.8,480.346q-3-.759-5.946-1.728l51.48-164.143Q597.17,315.322,599.938,316.353Z" transform="translate(-483.743 -310.877)" fill="#fff" opacity="0.2"/>
      <path id="Path_579" data-name="Path 579" d="M657.446,356.4c.489.934.951,1.885,1.4,2.83a68.76,68.76,0,0,1-121.822,63.493c-.52-.909-1.031-1.833-1.52-2.77A68.756,68.756,0,0,1,657.446,356.4Z" transform="translate(-510.435 -302.136)" fill="#fa8a00"/>
      <path id="Path_580" data-name="Path 580" d="M656.985,355.663a68.843,68.843,0,0,1-30.592,89.92c-.733.381-1.462.741-2.2,1.092a68.407,68.407,0,0,1-46.063,4.652q-2.848-.7-5.639-1.647a68.829,68.829,0,0,1-23.176-13.353,65.553,65.553,0,0,1-4.729-4.547,68.09,68.09,0,0,1-9.422-12.623,68.777,68.777,0,0,1,43.307-95.022,67.391,67.391,0,0,1,6.659-1.564,68.669,68.669,0,0,1,27.209.52q2.861.634,5.68,1.518a68.532,68.532,0,0,1,36.2,26.678C655.191,352.692,656.114,354.157,656.985,355.663Z" transform="translate(-508.575 -298.567)" fill="#ffac00"/>
      <path id="Path_581" data-name="Path 581" d="M608,342.7l-30.026,95.39a68.276,68.276,0,0,1-22.986,6.377l37.187-118.141A68.357,68.357,0,0,1,608,342.7Z" transform="translate(-462.352 -289.979)" fill="#fff" opacity="0.2"/>
      <path id="Path_582" data-name="Path 582" d="M575.042,321.858,539.228,435.615a65.5,65.5,0,0,1-4.729-4.547l33.884-107.646A67.376,67.376,0,0,1,575.042,321.858Z" transform="translate(-498.489 -297.855)" fill="#fff" opacity="0.2"/>
      <path id="Path_583" data-name="Path 583" d="M590.122,323.563l-39.888,126.72q-2.848-.7-5.639-1.647l39.846-126.59Q587.3,322.68,590.122,323.563Z" transform="translate(-480.679 -297.524)" fill="#fff" opacity="0.2"/>
    </g>
  </g>
</svg>
