<svg xmlns="http://www.w3.org/2000/svg" xmlns:xlink="http://www.w3.org/1999/xlink" width="432.908" height="257.353" viewBox="0 0 432.908 257.353">
  <defs>
    <linearGradient id="linear-gradient" x1="0.5" y1="1" x2="0.5" gradientUnits="objectBoundingBox">
      <stop offset="0" stop-color="#466de5"/>
      <stop offset="1" stop-color="#78bfff"/>
    </linearGradient>
    <linearGradient id="linear-gradient-3" x1="1.294" y1="0.807" x2="-0.165" y2="0.279" xlink:href="#linear-gradient"/>
    <linearGradient id="linear-gradient-5" x1="0.497" y1="0.987" x2="0.497" y2="0.033" xlink:href="#linear-gradient"/>
    <linearGradient id="linear-gradient-6" x1="0.29" y1="1.082" x2="0.781" y2="0.221" xlink:href="#linear-gradient"/>
    <linearGradient id="linear-gradient-7" x1="0.755" y1="1.136" x2="0.18" y2="0.178" gradientUnits="objectBoundingBox">
      <stop offset="0" stop-color="#b3d3f4"/>
      <stop offset="1" stop-color="#d3dced"/>
    </linearGradient>
    <linearGradient id="linear-gradient-8" x1="0.5" y1="1" x2="0.5" gradientUnits="objectBoundingBox">
      <stop offset="0" stop-color="#ffd5a7"/>
      <stop offset="0.372" stop-color="#ffd7aa"/>
      <stop offset="0.654" stop-color="#ffddb3"/>
      <stop offset="0.907" stop-color="#ffe8c3"/>
      <stop offset="1" stop-color="#fec"/>
    </linearGradient>
    <linearGradient id="linear-gradient-9" x1="0.755" y1="1.235" x2="0.245" y2="-0.235" gradientUnits="objectBoundingBox">
      <stop offset="0" stop-color="#cde8ff"/>
      <stop offset="1" stop-color="#eee7e9"/>
    </linearGradient>
    <linearGradient id="linear-gradient-10" x1="0.75" y1="1.588" x2="0.25" y2="0.412" xlink:href="#linear-gradient-9"/>
    <linearGradient id="linear-gradient-11" x1="-11.573" y1="1.069" x2="-11.037" y2="0.223" xlink:href="#linear-gradient"/>
  </defs>
  <g id="Group_1595" data-name="Group 1595" transform="translate(-266.468 -176.834)">
    <g id="Group_1545" data-name="Group 1545" transform="translate(266.468 278.915)">
      <g id="Group_1542" data-name="Group 1542" transform="translate(339.423)">
        <path id="Path_749" data-name="Path 749" d="M568.932,401.793c-1.3-44.712,8.809-98.977,44.032-129.778,5.653-4.943,12.565-11.312,20.588-10.732,3.733.271,5.584,4.541,6.145,7.709,1,5.656.027,11.473-1.354,17.049-7.625,30.791-32.77,84.691-39.2,115.752" transform="translate(-568.823 -261.246)" fill="url(#linear-gradient)"/>
        <path id="Path_750" data-name="Path 750" d="M626.311,272.011C591.3,317.771,585,374.951,586.106,399.7" transform="translate(-566.719 -259.926)" fill="none" stroke="#92d0ff" stroke-miterlimit="10" stroke-width="1"/>
        <g id="Group_1541" data-name="Group 1541" transform="translate(30.319 42.52)">
          <path id="Path_751" data-name="Path 751" d="M595.831,397.149c4.716-28.936,9.668-52.568,26.251-76.745,6.823-9.946,19.965-22.239,30.421-21.223,11.219,1.091,3.258,18.043-3.4,30.7A178.415,178.415,0,0,0,630.7,383.945c.926-5.671,4.861-21.82,16.489-29C650.6,352.842,659,351.611,659,358.6c0,12.28-11.937,27.028-14.923,38.549" transform="translate(-595.831 -299.122)" fill="url(#linear-gradient)"/>
          <path id="Path_752" data-name="Path 752" d="M647.062,307.129c-10.756,13.653-32.2,60.9-34.832,88.181" transform="translate(-593.821 -298.141)" fill="none" stroke="#92d0ff" stroke-miterlimit="10" stroke-width="1"/>
          <path id="Path_753" data-name="Path 753" d="M648.084,353.017c-8.265,8.265-13.334,23.414-16.2,37.525" transform="translate(-591.411 -292.515)" fill="none" stroke="#92d0ff" stroke-miterlimit="10" stroke-width="1"/>
        </g>
      </g>
      <g id="Group_1543" data-name="Group 1543" transform="translate(0 18.515)">
        <path id="Path_754" data-name="Path 754" d="M359.927,399.771c-6.82-56.413-1.865-81,4.558-96.622,2.993-7.282,7.293-14.494,13.38-19.632,24.357-20.555,23.617,19.409,22.473,31.523-2.607,27.6-9.524,57.1-10.151,84.731" transform="translate(-255.412 -277.739)" fill="url(#linear-gradient-3)"/>
        <path id="Path_755" data-name="Path 755" d="M346.476,399.643c-.773-17.747-8.695-35.061-18.783-49.383-10.147-14.4-24.1-25.894-33.239-41.023-4.895-8.106-12.639-20.851-1.187-27.5,12.7-7.37,31.353.357,41.566,8.783,11.107,9.164,18.406,22.146,24.5,34.967,10.762,22.645,12.922,49.082,13.091,74.154" transform="translate(-263.912 -277.611)" fill="url(#linear-gradient)"/>
        <path id="Path_756" data-name="Path 756" d="M351.452,394.62c.051-18.064-9.153-37.133-23.687-51.243-9.495-9.219-20.854-17.858-33.808-21.66-6.724-1.975-25.52-5.1-27.4,6.075-.714,4.234,3.107,12.194,12.263,19.444,12.729,10.079,47.894,25.751,52.136,47.384" transform="translate(-266.468 -272.588)" fill="url(#linear-gradient-5)"/>
        <path id="Path_757" data-name="Path 757" d="M274.265,327.392c24.361,6.624,58.32,28.86,64.775,65.856" transform="translate(-265.512 -271.652)" fill="none" stroke="#92d0ff" stroke-miterlimit="10" stroke-width="1"/>
        <path id="Path_758" data-name="Path 758" d="M298.109,287.675c24.414,12.875,54.19,53.083,57.521,110.442" transform="translate(-262.589 -276.521)" fill="none" stroke="#92d0ff" stroke-miterlimit="10" stroke-width="1"/>
        <path id="Path_759" data-name="Path 759" d="M385.529,282.592c-13.723,33.328-16.113,80.114-15.316,116.148" transform="translate(-253.766 -277.144)" fill="none" stroke="#92d0ff" stroke-miterlimit="10" stroke-width="1"/>
      </g>
      <g id="Group_1544" data-name="Group 1544" transform="translate(25.993 99.229)">
        <path id="Path_760" data-name="Path 760" d="M331.395,390.956c-2.18-9.744-4.1-19.9-9.9-28.3-3.8-5.491-11.545-13.141-18.44-13.021-5.126.089-6.291,5.019-5.695,9.458,1.564,11.635,8.015,15.185,10.52,27.765-1.249-4.765-8.939-21.266-15.69-14.957-7.426,6.939,3.647,19.05,3.647,19.05" transform="translate(-289.623 -349.639)" fill="url(#linear-gradient-6)"/>
        <path id="Path_761" data-name="Path 761" d="M294.487,372.21c3.532,4.045,8.066,9.815,9.892,15.979" transform="translate(-289.027 -346.872)" fill="none" stroke="#92d0ff" stroke-miterlimit="10" stroke-width="1"/>
        <path id="Path_762" data-name="Path 762" d="M303.994,356c9.352,9.353,15.884,29.09,17.577,34.175" transform="translate(-287.861 -348.859)" fill="none" stroke="#92d0ff" stroke-miterlimit="10" stroke-width="1"/>
      </g>
    </g>
    <g id="Group_1562" data-name="Group 1562" transform="translate(394.464 176.834)">
      <path id="Path_802" data-name="Path 802" d="M500.824,170.313,380.485,275.684v144.9H621.163v-144.9Z" transform="translate(-380.485 -170.313)" fill="url(#linear-gradient-7)"/>
      <rect id="Rectangle_764" data-name="Rectangle 764" width="216.348" height="198.247" transform="translate(12.165 37.067)" fill="url(#linear-gradient-8)"/>
      <path id="Path_803" data-name="Path 803" d="M500.824,356.165,380.485,264.177V394.119H621.163V264.177Z" transform="translate(-380.485 -158.805)" fill="#c9d3f4" opacity="0.55" style="mix-blend-mode: multiply;isolation: isolate"/>
      <path id="Path_804" data-name="Path 804" d="M500.824,371.142,380.485,264.177v144.9H621.163v-144.9Z" transform="translate(-380.485 -158.805)" fill="url(#linear-gradient-9)"/>
      <path id="Path_805" data-name="Path 805" d="M500.824,292.189,380.485,405.638H621.163Z" transform="translate(-380.485 -155.371)" fill="#c9d3f4" opacity="0.35" style="mix-blend-mode: multiply;isolation: isolate"/>
      <path id="Path_806" data-name="Path 806" d="M500.824,302.039,380.485,404.431H621.163Z" transform="translate(-380.485 -154.164)" fill="url(#linear-gradient-10)"/>
    </g>
    <g id="Group_1563" data-name="Group 1563" transform="translate(592.581 380.718)">
      <path id="Path_807" data-name="Path 807" d="M557.9,405.346c-2.436-12.693.108-25.728,5.18-36.58,3.317-7.1,10.961-16.989,19.486-16.833,6.337.116,9,6.49,9.364,12.227.961,15.039-6.106,19.631-6.069,35.893.356-6.159,6.313-26.159,15.618-19.336,9.112,6.682.236,24.629.236,24.629" transform="translate(-556.967 -351.931)" fill="url(#linear-gradient-11)"/>
      <path id="Path_808" data-name="Path 808" d="M595.257,381.11c-3.12,5.23-6.982,12.69-7.585,20.659" transform="translate(-553.202 -348.354)" fill="none" stroke="#92d0ff" stroke-miterlimit="10" stroke-width="1"/>
      <path id="Path_809" data-name="Path 809" d="M580.62,360.156c-8.6,12.091-11.327,37.607-12.041,44.182" transform="translate(-555.543 -350.923)" fill="none" stroke="#92d0ff" stroke-miterlimit="10" stroke-width="1"/>
    </g>
  </g>
</svg>
