<svg id="Group_1501" data-name="Group 1501" xmlns="http://www.w3.org/2000/svg" width="270.869" height="259.168" viewBox="0 0 270.869 259.168">
  <path id="Path_484" data-name="Path 484" d="M379.463,261.538l39.433,3.679,97.01,56.919-39.434-3.68Z" transform="translate(-245.037 -204.798)" fill="#edc895"/>
  <path id="Path_485" data-name="Path 485" d="M480.316,308.4,458.05,251.751l-99.644,58.441,22.267,56.651Z" transform="translate(-346.061 -251.751)" fill="#e3bf8f"/>
  <g id="Group_1500" data-name="Group 1500" transform="translate(33.427 56.491)">
    <g id="Group_1497" data-name="Group 1497" style="isolation: isolate">
      <g id="Group_1494" data-name="Group 1494" transform="translate(99.11 57.221)">
        <path id="Path_486" data-name="Path 486" d="M480.117,271.365l-.246,86.711L379.137,416.821l.246-86.71Z" transform="translate(-379.137 -271.365)" fill="#ddb176"/>
      </g>
      <g id="Group_1495" data-name="Group 1495" transform="translate(0 58.745)">
        <path id="Path_487" data-name="Path 487" d="M461.4,328.849l-.246,86.711-99.11-57.221.246-86.711Z" transform="translate(-362.042 -271.628)" fill="#c19564"/>
      </g>
      <g id="Group_1496" data-name="Group 1496" transform="translate(0.246)">
        <path id="Path_488" data-name="Path 488" d="M561.929,318.717,461.2,377.462l-99.11-57.221L462.819,261.5Z" transform="translate(-362.085 -261.495)" fill="#fcd9a9"/>
        <path id="Path_489" data-name="Path 489" d="M362.663,318.622l97.387-56.791,95.743,55.281L458.423,373.9Z" transform="translate(-359.309 -259.882)" fill="#deb277"/>
        <path id="Path_490" data-name="Path 490" d="M380.808,348.587V261.832l95.743,55.281L379.18,373.9Z" transform="translate(-280.066 -259.882)" fill="#be9c70"/>
      </g>
    </g>
    <g id="Group_1499" data-name="Group 1499" transform="translate(111.435 69.052)">
      <g id="Group_1498" data-name="Group 1498">
        <path id="Path_491" data-name="Path 491" d="M429.344,299.493l-41.036,23.693V297.1l41.036-23.693Z" transform="translate(-347.466 -273.406)" fill="#e5e5e5"/>
        <path id="Path_492" data-name="Path 492" d="M421.423,288.542l-40.16,23.185v-3.519l40.16-23.185Zm-5.572,7.085-29.017,16.749v1.357l29.017-16.755Zm0,4.395-29.017,16.755v1.351l29.017-16.755Zm0,4.395-29.017,16.755v1.357l29.017-16.755Zm0,4.4-29.017,16.749v1.357l29.017-16.755Zm0,4.395-29.017,16.755v1.351l29.017-16.755Z" transform="translate(-381.263 -217.67)" fill="#363633" opacity="0.4"/>
        <path id="Path_493" data-name="Path 493" d="M418.413,274.629,389.4,291.384v1.351l29.017-16.755Zm0,4.395L389.4,295.779v1.351l29.017-16.755Zm0,4.395L389.4,300.173v1.357l29.017-16.755Zm0,4.4L389.4,304.574v1.351l29.017-16.755Zm0,4.395L389.4,308.968v1.351l29.017-16.749Z" transform="translate(-342.244 -267.537)" fill="#363633" opacity="0.4"/>
      </g>
    </g>
  </g>
  <path id="Path_494" data-name="Path 494" d="M513.716,321l-33.8-49.634L379.179,330.11l33.8,49.633Z" transform="translate(-246.397 -157.652)" fill="#edc895"/>
  <path id="Path_495" data-name="Path 495" d="M356.277,321.259l33.8-49.634,99.138,57.237-33.8,49.633Z" transform="translate(-356.277 -156.405)" fill="#e3bf8f"/>
  <path id="Path_496" data-name="Path 496" d="M375.581,290.067l20.865,12.046,22.488-13.273L398.074,276.8Z" transform="translate(-263.66 -131.6)" fill="#edc895"/>
</svg>
