<svg xmlns="http://www.w3.org/2000/svg" width="1280" height="485.304" viewBox="0 0 1280 485.304">
  <g id="Group_1597" data-name="Group 1597" transform="translate(-160 -218)">
    <rect id="Rectangle_774" data-name="Rectangle 774" width="1280" height="424" rx="43" transform="translate(160 218)" fill="#d9e0db"/>
    <path id="Path_878" data-name="Path 878" d="M629,0a43,43,0,0,1,43,43V381a43,43,0,0,1-43,43H-112c-13.418,0,30.277-108.524,179.341-146.314C209.971,247.973,268.707,28.292,400,0H629Z" transform="translate(768 218)" fill="#87c9ce"/>
    <g id="Group_1596" data-name="Group 1596" transform="translate(536.661 268.181)">
      <g id="Group_1325" data-name="Group 1325" transform="translate(361.426 170.04)">
        <g id="Group_1311" data-name="Group 1311" transform="translate(6.583 38.877)">
          <g id="Group_1306" data-name="Group 1306">
            <g id="Group_1305" data-name="Group 1305" style="isolation: isolate">
              <g id="Group_1302" data-name="Group 1302" transform="translate(300.773 106.925)">
                <path id="Path_361" data-name="Path 361" d="M531.2,74.514l-.011,3.961L413.25,190.15l.011-3.961Z" transform="translate(-413.25 -74.514)" fill="#e25534"/>
              </g>
              <g id="Group_1303" data-name="Group 1303" transform="translate(0 111.656)">
                <path id="Path_362" data-name="Path 362" d="M663.32,182.256l-.011,3.961L362.536,79.274l.011-3.962Z" transform="translate(-362.536 -75.312)" fill="#20363d"/>
              </g>
              <g id="Group_1304" data-name="Group 1304" transform="translate(0.011)">
                <path id="Path_363" data-name="Path 363" d="M781.254,163.41,663.311,275.085,362.538,168.141,480.45,56.485Z" transform="translate(-362.538 -56.485)" fill="#f86745"/>
              </g>
            </g>
          </g>
          <g id="Group_1310" data-name="Group 1310" transform="translate(75.938 49.77)">
            <g id="Group_1307" data-name="Group 1307" transform="translate(166.024 50.032)">
              <path id="Path_364" data-name="Path 364" d="M494.746,80.156l-72.169,68.323-19.243-6.825,72.2-68.341Z" transform="translate(-403.334 -73.313)" fill="#566b70"/>
            </g>
            <g id="Group_1308" data-name="Group 1308" transform="translate(15.269 1.092)">
              <path id="Path_365" data-name="Path 365" d="M443.288,68.232,386.87,121.651l-8.955-3.171,56.418-53.419Z" transform="translate(-377.915 -65.061)" fill="#566b70"/>
            </g>
            <g id="Group_1309" data-name="Group 1309">
              <path id="Path_366" data-name="Path 366" d="M426.01,68.048,384.3,107.565l-8.956-3.171,41.713-39.518Z" transform="translate(-375.34 -64.877)" fill="#566b70"/>
            </g>
          </g>
        </g>
        <g id="Group_1312" data-name="Group 1312" transform="translate(301.231 106.925)">
          <path id="Path_367" data-name="Path 367" d="M412.217,173.034v42.828L523.179,110.8l.011-42.838Z" transform="translate(-412.217 -67.959)" fill="#b7bfb7"/>
        </g>
        <g id="Group_1313" data-name="Group 1313" transform="translate(3.551 111.656)">
          <path id="Path_368" data-name="Path 368" d="M665.841,175.7l-.011,42.838-3.043,3.644L365.057,111.6,362.025,72.4l3.043-3.645Z" transform="translate(-362.025 -68.757)" fill="#e25534"/>
        </g>
        <g id="Group_1314" data-name="Group 1314" transform="translate(0 115.3)">
          <path id="Path_369" data-name="Path 369" d="M665.75,176.314c-4.1,13.623-3.262,28.6-.012,42.838L364.966,112.209c-4.822-11.808-4.62-27.762.012-42.838Z" transform="translate(-361.426 -69.371)" fill="#f86745"/>
          <path id="Path_370" data-name="Path 370" d="M364.66,84.777A49.007,49.007,0,0,1,364,72.649l272.856,97.015a93.105,93.105,0,0,0-.581,11.689Z" transform="translate(-349.294 -53.208)" fill="#fff"/>
        </g>
        <g id="Group_1320" data-name="Group 1320" transform="translate(6.583)">
          <g id="Group_1319" data-name="Group 1319">
            <g id="Group_1318" data-name="Group 1318" style="isolation: isolate">
              <g id="Group_1315" data-name="Group 1315" transform="translate(300.773 106.925)">
                <path id="Path_371" data-name="Path 371" d="M531.2,67.959l-.011,3.962L413.25,183.595l.011-3.961Z" transform="translate(-413.25 -67.959)" fill="#e25534"/>
              </g>
              <g id="Group_1316" data-name="Group 1316" transform="translate(0 111.656)">
                <path id="Path_372" data-name="Path 372" d="M663.32,175.7l-.011,3.961L362.536,72.718l.011-3.962Z" transform="translate(-362.536 -68.757)" fill="#e25534"/>
              </g>
              <g id="Group_1317" data-name="Group 1317" transform="translate(0.011)">
                <path id="Path_373" data-name="Path 373" d="M781.254,156.855,663.311,268.53,362.538,161.586,480.45,49.93Z" transform="translate(-362.538 -49.93)" fill="#f86745"/>
              </g>
            </g>
          </g>
        </g>
        <g id="Group_1324" data-name="Group 1324" transform="translate(83.937 43.776)">
          <g id="Group_1321" data-name="Group 1321">
            <path id="Path_374" data-name="Path 374" d="M466.991,64.136l-72.2,68.341-19.213-6.843,72.168-68.323Z" transform="translate(-375.579 -57.311)" fill="#fff"/>
          </g>
          <g id="Group_1322" data-name="Group 1322" transform="translate(176.823 67.498)">
            <path id="Path_375" data-name="Path 375" d="M470.737,71.881,414.319,125.3l-8.925-3.188,56.419-53.419Z" transform="translate(-405.394 -68.692)" fill="#fff"/>
          </g>
          <g id="Group_1323" data-name="Group 1323" transform="translate(206.797 82.492)">
            <path id="Path_376" data-name="Path 376" d="M461.086,74.409l-41.714,39.518-8.924-3.188L452.162,71.22Z" transform="translate(-410.448 -71.22)" fill="#fff"/>
          </g>
        </g>
      </g>
      <g id="Group_1344" data-name="Group 1344" transform="translate(383.617 123.658)">
        <g id="Group_1330" data-name="Group 1330" transform="translate(6.799 29.16)">
          <g id="Group_1329" data-name="Group 1329" style="isolation: isolate">
            <g id="Group_1326" data-name="Group 1326" transform="translate(178.757 176.27)">
              <path id="Path_377" data-name="Path 377" d="M591.486,76.747l-.011,3.961-195.02,66.1.011-3.962Z" transform="translate(-396.455 -76.747)" fill="#836e57"/>
            </g>
            <g id="Group_1327" data-name="Group 1327" transform="translate(0 66.102)">
              <path id="Path_378" data-name="Path 378" d="M545.082,234.442l-.011,3.962L366.314,62.133l.011-3.962Z" transform="translate(-366.314 -58.172)" fill="#836e57"/>
            </g>
            <g id="Group_1328" data-name="Group 1328" transform="translate(0.011)">
              <path id="Path_379" data-name="Path 379" d="M561.336,47.026,740.093,223.3,545.072,289.4,366.316,113.128Z" transform="translate(-366.316 -47.026)" fill="#99846d"/>
            </g>
          </g>
        </g>
        <g id="Group_1333" data-name="Group 1333" transform="translate(176.748 170.499)">
          <g id="Group_1331" data-name="Group 1331">
            <path id="Path_380" data-name="Path 380" d="M590,70.858l-.011,33.12L394.97,170.08l.011-33.119Z" transform="translate(-394.97 -70.858)" fill="#b7bfb7"/>
          </g>
          <g id="Group_1332" data-name="Group 1332">
            <path id="Path_381" data-name="Path 381" d="M590,70.858l-.011,33.12L394.97,170.08l.011-33.119Z" transform="translate(-394.97 -70.858)" fill="#b7bfb7"/>
          </g>
        </g>
        <g id="Group_1338" data-name="Group 1338" transform="translate(6.799)">
          <g id="Group_1337" data-name="Group 1337" style="isolation: isolate">
            <g id="Group_1334" data-name="Group 1334" transform="translate(178.757 176.27)">
              <path id="Path_382" data-name="Path 382" d="M591.486,71.831l-.011,3.961-195.02,66.1.011-3.961Z" transform="translate(-396.455 -71.831)" fill="#836e57"/>
            </g>
            <g id="Group_1335" data-name="Group 1335" transform="translate(0 66.102)">
              <path id="Path_383" data-name="Path 383" d="M545.082,229.525l-.011,3.961L366.314,57.217l.011-3.962Z" transform="translate(-366.314 -53.255)" fill="#836e57"/>
            </g>
            <g id="Group_1336" data-name="Group 1336" transform="translate(0.011)">
              <path id="Path_384" data-name="Path 384" d="M561.336,42.109l178.757,176.27-195.021,66.1L366.316,108.212Z" transform="translate(-366.316 -42.109)" fill="#99846d"/>
            </g>
          </g>
        </g>
        <g id="Group_1343" data-name="Group 1343" transform="translate(0 66.104)">
          <g id="Group_1342" data-name="Group 1342" style="isolation: isolate">
            <g id="Group_1339" data-name="Group 1339" transform="translate(178.757 176.27)">
              <path id="Path_385" data-name="Path 385" d="M402.127,82.977l-.011,33.12-6.808,2.186.011-33.119Z" transform="translate(-395.308 -82.977)" fill="#695845"/>
            </g>
            <g id="Group_1340" data-name="Group 1340" transform="translate(0 2.187)">
              <path id="Path_386" data-name="Path 386" d="M543.936,229.894l-.011,33.119L365.168,86.743l.011-33.119Z" transform="translate(-365.168 -53.624)" fill="#303030"/>
            </g>
            <g id="Group_1341" data-name="Group 1341" transform="translate(0.011)">
              <path id="Path_387" data-name="Path 387" d="M371.978,53.255l178.757,176.27-6.808,2.187L365.17,55.442Z" transform="translate(-365.17 -53.255)" fill="#836e57"/>
            </g>
          </g>
        </g>
      </g>
      <g id="Group_1368" data-name="Group 1368" transform="translate(372.114 112.027)">
        <g id="Group_1346" data-name="Group 1346" transform="translate(159.298)">
          <path id="Path_388" data-name="Path 388" d="M643.983,185.2l-3.713,2.129v25.864L390.088,68.959V43.095l3.713-2.129c1.666-.955,3.167-1.044,4.252-.421L648.235,184.78C647.144,184.158,645.644,184.247,643.983,185.2Z" transform="translate(-390.088 -40.148)" fill="#566b70"/>
          <g id="Group_1345" data-name="Group 1345" transform="translate(250.182 144.237)">
            <path id="Path_389" data-name="Path 389" d="M442.016,68.772c0-3.831-2.693-5.4-6.032-3.487l-3.713,2.129V93.278l3.713-2.129A13.254,13.254,0,0,0,442.016,80.7Z" transform="translate(-432.272 -64.468)" fill="#375d68"/>
          </g>
        </g>
        <g id="Group_1356" data-name="Group 1356" transform="translate(0 24.658)">
          <g id="Group_1351" data-name="Group 1351">
            <g id="Group_1350" data-name="Group 1350" style="isolation: isolate">
              <g id="Group_1347" data-name="Group 1347" transform="translate(249.986 144.329)">
                <path id="Path_390" data-name="Path 390" d="M564.882,68.642,564.87,72.6,405.379,165.289l.011-3.961Z" transform="translate(-405.379 -68.642)" fill="#2a4850"/>
              </g>
              <g id="Group_1348" data-name="Group 1348" transform="translate(0 92.686)">
                <path id="Path_391" data-name="Path 391" d="M613.225,204.263l-.011,3.961L363.228,63.9l.011-3.961Z" transform="translate(-363.228 -59.934)" fill="#1e3238"/>
              </g>
              <g id="Group_1349" data-name="Group 1349" transform="translate(0.011)">
                <path id="Path_392" data-name="Path 392" d="M772.707,188.635,613.216,281.322,363.23,136.992,522.721,44.306Z" transform="translate(-363.23 -44.306)" fill="#2f505a"/>
              </g>
            </g>
          </g>
          <g id="Group_1355" data-name="Group 1355" transform="translate(87.077 56.003)">
            <g id="Group_1352" data-name="Group 1352" transform="translate(130.076 75.022)">
              <path id="Path_393" data-name="Path 393" d="M513.447,75.624l-97.625,56.733-15.979-9.225L497.468,66.4Z" transform="translate(-399.843 -66.398)" fill="#566b70"/>
            </g>
            <g id="Group_1353" data-name="Group 1353" transform="translate(8.877 5.07)">
              <path id="Path_394" data-name="Path 394" d="M463.178,58.9l-76.324,44.355-7.447-4.3L455.731,54.6Z" transform="translate(-379.407 -54.603)" fill="#566b70"/>
            </g>
            <g id="Group_1354" data-name="Group 1354">
              <path id="Path_395" data-name="Path 395" d="M441.8,58.048l-56.441,32.8-7.447-4.3,56.441-32.8Z" transform="translate(-377.911 -53.749)" fill="#566b70"/>
            </g>
          </g>
        </g>
        <g id="Group_1357" data-name="Group 1357" transform="translate(13.916 100.143)">
          <path id="Path_396" data-name="Path 396" d="M557.837,82.31,405.429,170.278v-17.2L557.837,65.109Z" transform="translate(-169.066 -17.217)" fill="#b7bfb7"/>
          <path id="Path_397" data-name="Path 397" d="M365.575,74.235l236.362,135.86v-17.2L365.575,57.034Z" transform="translate(-365.575 -57.034)" fill="#9fa69f"/>
        </g>
        <g id="Group_1367" data-name="Group 1367" transform="translate(0 2.851)">
          <g id="Group_1362" data-name="Group 1362">
            <g id="Group_1361" data-name="Group 1361" style="isolation: isolate">
              <g id="Group_1358" data-name="Group 1358" transform="translate(249.986 144.329)">
                <path id="Path_398" data-name="Path 398" d="M564.882,64.965l-.011,3.962L405.379,161.613l.011-3.962Z" transform="translate(-405.379 -64.965)" fill="#2a4850"/>
              </g>
              <g id="Group_1359" data-name="Group 1359" transform="translate(0 92.686)">
                <path id="Path_399" data-name="Path 399" d="M613.225,200.586l-.011,3.962L363.228,60.219l.011-3.962Z" transform="translate(-363.228 -56.257)" fill="#1e3238"/>
              </g>
              <g id="Group_1360" data-name="Group 1360" transform="translate(0.011)">
                <path id="Path_400" data-name="Path 400" d="M772.707,184.958,613.216,277.645,363.23,133.315,522.721,40.629Z" transform="translate(-363.23 -40.629)" fill="#2f505a"/>
              </g>
            </g>
          </g>
          <g id="Group_1366" data-name="Group 1366" transform="translate(87.077 56.003)">
            <g id="Group_1363" data-name="Group 1363" transform="translate(130.076 75.022)">
              <path id="Path_401" data-name="Path 401" d="M513.447,71.947,415.822,128.68l-15.979-9.225,97.625-56.733Z" transform="translate(-399.843 -62.721)" fill="#566b70"/>
            </g>
            <g id="Group_1364" data-name="Group 1364" transform="translate(8.877 5.07)">
              <path id="Path_402" data-name="Path 402" d="M463.178,55.226,386.854,99.581l-7.447-4.3,76.324-44.355Z" transform="translate(-379.407 -50.927)" fill="#566b70"/>
            </g>
            <g id="Group_1365" data-name="Group 1365">
              <path id="Path_403" data-name="Path 403" d="M441.8,54.371l-56.441,32.8-7.447-4.3,56.441-32.8Z" transform="translate(-377.911 -50.072)" fill="#566b70"/>
            </g>
          </g>
        </g>
      </g>
      <g id="Group_1388" data-name="Group 1388" transform="translate(400.088 45.353)">
        <g id="Group_1373" data-name="Group 1373" transform="translate(194.976)">
          <g id="Group_1372" data-name="Group 1372" style="isolation: isolate">
            <g id="Group_1369" data-name="Group 1369" transform="translate(178.757 176.27)">
              <path id="Path_404" data-name="Path 404" d="M437.78,58.627l-.011,33.119-6.808,2.187.011-33.12Z" transform="translate(-430.961 -58.627)" fill="#695845"/>
            </g>
            <g id="Group_1370" data-name="Group 1370" transform="translate(0 2.187)">
              <path id="Path_405" data-name="Path 405" d="M579.589,205.544l-.011,33.12L400.82,62.394l.011-33.119Z" transform="translate(-400.82 -29.275)" fill="#303030"/>
            </g>
            <g id="Group_1371" data-name="Group 1371" transform="translate(0.011)">
              <path id="Path_406" data-name="Path 406" d="M407.63,28.906l178.757,176.27-6.808,2.186L400.822,31.093Z" transform="translate(-400.822 -28.906)" fill="#836e57"/>
            </g>
          </g>
        </g>
        <g id="Group_1378" data-name="Group 1378" transform="translate(0 31.384)">
          <g id="Group_1377" data-name="Group 1377" style="isolation: isolate">
            <g id="Group_1374" data-name="Group 1374" transform="translate(178.757 176.269)">
              <path id="Path_407" data-name="Path 407" d="M593.117,63.919l-.01,3.962-195.021,66.1.011-3.961Z" transform="translate(-398.086 -63.919)" fill="#836e57"/>
            </g>
            <g id="Group_1375" data-name="Group 1375" transform="translate(0 66.102)">
              <path id="Path_408" data-name="Path 408" d="M546.713,221.613l-.011,3.961L367.945,49.3l.011-3.961Z" transform="translate(-367.945 -45.343)" fill="#836e57"/>
            </g>
            <g id="Group_1376" data-name="Group 1376" transform="translate(0.011)">
              <path id="Path_409" data-name="Path 409" d="M562.967,34.2,741.723,210.467,546.7,276.57,367.947,100.3Z" transform="translate(-367.947 -34.198)" fill="#99846d"/>
            </g>
          </g>
        </g>
        <g id="Group_1382" data-name="Group 1382" transform="translate(10.714 66.189)">
          <g id="Group_1381" data-name="Group 1381" style="isolation: isolate">
            <g id="Group_1379" data-name="Group 1379" transform="translate(170.073 110.081)">
              <path id="Path_410" data-name="Path 410" d="M586.968,58.627l-.011,26.8L398.428,149.383l.011-33.119Z" transform="translate(-398.428 -58.627)" fill="#b7bfb7"/>
            </g>
            <g id="Group_1380" data-name="Group 1380">
              <path id="Path_411" data-name="Path 411" d="M369.751,40.066V73.2L539.824,240.9l.011-33.119Z" transform="translate(-369.751 -40.066)" fill="#9aa99a"/>
            </g>
          </g>
        </g>
        <g id="Group_1387" data-name="Group 1387" transform="translate(0 2.223)">
          <g id="Group_1386" data-name="Group 1386" style="isolation: isolate">
            <g id="Group_1383" data-name="Group 1383" transform="translate(178.757 176.27)">
              <path id="Path_412" data-name="Path 412" d="M593.117,59l-.01,3.962-195.021,66.1.011-3.962Z" transform="translate(-398.086 -59.002)" fill="#836e57"/>
            </g>
            <g id="Group_1384" data-name="Group 1384" transform="translate(0 66.103)">
              <path id="Path_413" data-name="Path 413" d="M546.713,216.7l-.011,3.962L367.945,44.388l.011-3.961Z" transform="translate(-367.945 -40.427)" fill="#836e57"/>
            </g>
            <g id="Group_1385" data-name="Group 1385" transform="translate(0.011)">
              <path id="Path_414" data-name="Path 414" d="M562.967,29.281l178.756,176.27-195.02,66.1L367.947,95.384Z" transform="translate(-367.947 -29.281)" fill="#99846d"/>
            </g>
          </g>
        </g>
      </g>
      <g id="Group_1484" data-name="Group 1484" transform="translate(406.119 25.57)">
        <g id="Group_1397" data-name="Group 1397" transform="translate(8.771 39.694)">
          <g id="Group_1392" data-name="Group 1392" transform="translate(0 43.853)">
            <g id="Group_1391" data-name="Group 1391" style="isolation: isolate">
              <g id="Group_1389" data-name="Group 1389" transform="translate(225.337 46.551)">
                <path id="Path_415" data-name="Path 415" d="M552.211,47.507l-.01,3.571L408.435,134.625l.01-3.571Z" transform="translate(-408.435 -47.507)" fill="#2a4850"/>
              </g>
              <g id="Group_1390" data-name="Group 1390">
                <path id="Path_416" data-name="Path 416" d="M595.788,169.756l-.01,3.571L370.441,43.228l.01-3.571Z" transform="translate(-370.441 -39.658)" fill="#1e3238"/>
              </g>
            </g>
          </g>
          <g id="Group_1396" data-name="Group 1396" transform="translate(70.969)">
            <g id="Group_1393" data-name="Group 1393">
              <path id="Path_417" data-name="Path 417" d="M484.809,40.58l-88,51.139-14.4-8.316,88-51.14Z" transform="translate(-382.407 -32.263)" fill="#566b70"/>
            </g>
            <g id="Group_1394" data-name="Group 1394" transform="translate(136.169 78.638)">
              <path id="Path_418" data-name="Path 418" d="M480.878,49.4l-68.8,39.982L405.367,85.5l68.8-39.981Z" transform="translate(-405.367 -45.523)" fill="#566b70"/>
            </g>
            <g id="Group_1395" data-name="Group 1395" transform="translate(162.064 93.638)">
              <path id="Path_419" data-name="Path 419" d="M467.322,51.928,416.445,81.494l-6.713-3.876L460.61,48.052Z" transform="translate(-409.733 -48.052)" fill="#566b70"/>
            </g>
          </g>
        </g>
        <g id="Group_1406" data-name="Group 1406" transform="translate(8.771 39.694)">
          <g id="Group_1401" data-name="Group 1401" transform="translate(0 43.853)">
            <g id="Group_1400" data-name="Group 1400" style="isolation: isolate">
              <g id="Group_1398" data-name="Group 1398" transform="translate(225.337 46.551)">
                <path id="Path_420" data-name="Path 420" d="M552.211,47.507l-.01,3.571L408.435,134.625l.01-3.571Z" transform="translate(-408.435 -47.507)" fill="#2a4850"/>
              </g>
              <g id="Group_1399" data-name="Group 1399">
                <path id="Path_421" data-name="Path 421" d="M595.788,169.756l-.01,3.571L370.441,43.228l.01-3.571Z" transform="translate(-370.441 -39.658)" fill="#1e3238"/>
              </g>
            </g>
          </g>
          <g id="Group_1405" data-name="Group 1405" transform="translate(70.969)">
            <g id="Group_1402" data-name="Group 1402">
              <path id="Path_422" data-name="Path 422" d="M484.809,40.58l-88,51.139-14.4-8.316,88-51.14Z" transform="translate(-382.407 -32.263)" fill="#566b70"/>
            </g>
            <g id="Group_1403" data-name="Group 1403" transform="translate(136.169 78.638)">
              <path id="Path_423" data-name="Path 423" d="M480.878,49.4l-68.8,39.982L405.367,85.5l68.8-39.981Z" transform="translate(-405.367 -45.523)" fill="#566b70"/>
            </g>
            <g id="Group_1404" data-name="Group 1404" transform="translate(162.064 93.638)">
              <path id="Path_424" data-name="Path 424" d="M467.322,51.928,416.445,81.494l-6.713-3.876L460.61,48.052Z" transform="translate(-409.733 -48.052)" fill="#566b70"/>
            </g>
          </g>
        </g>
        <g id="Group_1415" data-name="Group 1415" transform="translate(8.771 39.694)">
          <g id="Group_1410" data-name="Group 1410" transform="translate(0 43.853)">
            <g id="Group_1409" data-name="Group 1409" style="isolation: isolate">
              <g id="Group_1407" data-name="Group 1407" transform="translate(225.337 46.551)">
                <path id="Path_425" data-name="Path 425" d="M552.211,47.507l-.01,3.571L408.435,134.625l.01-3.571Z" transform="translate(-408.435 -47.507)" fill="#2a4850"/>
              </g>
              <g id="Group_1408" data-name="Group 1408">
                <path id="Path_426" data-name="Path 426" d="M595.788,169.756l-.01,3.571L370.441,43.228l.01-3.571Z" transform="translate(-370.441 -39.658)" fill="#1e3238"/>
              </g>
            </g>
          </g>
          <g id="Group_1414" data-name="Group 1414" transform="translate(70.969)">
            <g id="Group_1411" data-name="Group 1411">
              <path id="Path_427" data-name="Path 427" d="M484.809,40.58l-88,51.139-14.4-8.316,88-51.14Z" transform="translate(-382.407 -32.263)" fill="#566b70"/>
            </g>
            <g id="Group_1412" data-name="Group 1412" transform="translate(136.169 78.638)">
              <path id="Path_428" data-name="Path 428" d="M480.878,49.4l-68.8,39.982L405.367,85.5l68.8-39.981Z" transform="translate(-405.367 -45.523)" fill="#566b70"/>
            </g>
            <g id="Group_1413" data-name="Group 1413" transform="translate(162.064 93.638)">
              <path id="Path_429" data-name="Path 429" d="M467.322,51.928,416.445,81.494l-6.713-3.876L460.61,48.052Z" transform="translate(-409.733 -48.052)" fill="#566b70"/>
            </g>
          </g>
        </g>
        <g id="Group_1424" data-name="Group 1424" transform="translate(8.771 39.694)">
          <g id="Group_1419" data-name="Group 1419" transform="translate(0 43.853)">
            <g id="Group_1418" data-name="Group 1418" style="isolation: isolate">
              <g id="Group_1416" data-name="Group 1416" transform="translate(225.337 46.551)">
                <path id="Path_430" data-name="Path 430" d="M552.211,47.507l-.01,3.571L408.435,134.625l.01-3.571Z" transform="translate(-408.435 -47.507)" fill="#2a4850"/>
              </g>
              <g id="Group_1417" data-name="Group 1417">
                <path id="Path_431" data-name="Path 431" d="M595.788,169.756l-.01,3.571L370.441,43.228l.01-3.571Z" transform="translate(-370.441 -39.658)" fill="#1e3238"/>
              </g>
            </g>
          </g>
          <g id="Group_1423" data-name="Group 1423" transform="translate(70.969)">
            <g id="Group_1420" data-name="Group 1420">
              <path id="Path_432" data-name="Path 432" d="M484.809,40.58l-88,51.139-14.4-8.316,88-51.14Z" transform="translate(-382.407 -32.263)" fill="#566b70"/>
            </g>
            <g id="Group_1421" data-name="Group 1421" transform="translate(136.169 78.638)">
              <path id="Path_433" data-name="Path 433" d="M480.878,49.4l-68.8,39.982L405.367,85.5l68.8-39.981Z" transform="translate(-405.367 -45.523)" fill="#566b70"/>
            </g>
            <g id="Group_1422" data-name="Group 1422" transform="translate(162.064 93.638)">
              <path id="Path_434" data-name="Path 434" d="M467.322,51.928,416.445,81.494l-6.713-3.876L460.61,48.052Z" transform="translate(-409.733 -48.052)" fill="#566b70"/>
            </g>
          </g>
        </g>
        <g id="Group_1433" data-name="Group 1433" transform="translate(8.771 39.694)">
          <g id="Group_1428" data-name="Group 1428" transform="translate(0 43.853)">
            <g id="Group_1427" data-name="Group 1427" style="isolation: isolate">
              <g id="Group_1425" data-name="Group 1425" transform="translate(225.337 46.551)">
                <path id="Path_435" data-name="Path 435" d="M552.211,47.507l-.01,3.571L408.435,134.625l.01-3.571Z" transform="translate(-408.435 -47.507)" fill="#2a4850"/>
              </g>
              <g id="Group_1426" data-name="Group 1426">
                <path id="Path_436" data-name="Path 436" d="M595.788,169.756l-.01,3.571L370.441,43.228l.01-3.571Z" transform="translate(-370.441 -39.658)" fill="#1e3238"/>
              </g>
            </g>
          </g>
          <g id="Group_1432" data-name="Group 1432" transform="translate(70.969)">
            <g id="Group_1429" data-name="Group 1429">
              <path id="Path_437" data-name="Path 437" d="M484.809,40.58l-88,51.139-14.4-8.316,88-51.14Z" transform="translate(-382.407 -32.263)" fill="#566b70"/>
            </g>
            <g id="Group_1430" data-name="Group 1430" transform="translate(136.169 78.638)">
              <path id="Path_438" data-name="Path 438" d="M480.878,49.4l-68.8,39.982L405.367,85.5l68.8-39.981Z" transform="translate(-405.367 -45.523)" fill="#566b70"/>
            </g>
            <g id="Group_1431" data-name="Group 1431" transform="translate(162.064 93.638)">
              <path id="Path_439" data-name="Path 439" d="M467.322,51.928,416.445,81.494l-6.713-3.876L460.61,48.052Z" transform="translate(-409.733 -48.052)" fill="#566b70"/>
            </g>
          </g>
        </g>
        <g id="Group_1442" data-name="Group 1442" transform="translate(8.771 39.694)">
          <g id="Group_1437" data-name="Group 1437" transform="translate(0 43.853)">
            <g id="Group_1436" data-name="Group 1436" style="isolation: isolate">
              <g id="Group_1434" data-name="Group 1434" transform="translate(225.337 46.551)">
                <path id="Path_440" data-name="Path 440" d="M552.211,47.507l-.01,3.571L408.435,134.625l.01-3.571Z" transform="translate(-408.435 -47.507)" fill="#2a4850"/>
              </g>
              <g id="Group_1435" data-name="Group 1435">
                <path id="Path_441" data-name="Path 441" d="M595.788,169.756l-.01,3.571L370.441,43.228l.01-3.571Z" transform="translate(-370.441 -39.658)" fill="#1e3238"/>
              </g>
            </g>
          </g>
          <g id="Group_1441" data-name="Group 1441" transform="translate(70.969)">
            <g id="Group_1438" data-name="Group 1438">
              <path id="Path_442" data-name="Path 442" d="M484.809,40.58l-88,51.139-14.4-8.316,88-51.14Z" transform="translate(-382.407 -32.263)" fill="#566b70"/>
            </g>
            <g id="Group_1439" data-name="Group 1439" transform="translate(136.169 78.638)">
              <path id="Path_443" data-name="Path 443" d="M480.878,49.4l-68.8,39.982L405.367,85.5l68.8-39.981Z" transform="translate(-405.367 -45.523)" fill="#566b70"/>
            </g>
            <g id="Group_1440" data-name="Group 1440" transform="translate(162.064 93.638)">
              <path id="Path_444" data-name="Path 444" d="M467.322,51.928,416.445,81.494l-6.713-3.876L460.61,48.052Z" transform="translate(-409.733 -48.052)" fill="#566b70"/>
            </g>
          </g>
        </g>
        <g id="Group_1451" data-name="Group 1451" transform="translate(8.771 39.694)">
          <g id="Group_1446" data-name="Group 1446" transform="translate(0 43.853)">
            <g id="Group_1445" data-name="Group 1445" style="isolation: isolate">
              <g id="Group_1443" data-name="Group 1443" transform="translate(225.337 46.551)">
                <path id="Path_445" data-name="Path 445" d="M552.211,47.507l-.01,3.571L408.435,134.625l.01-3.571Z" transform="translate(-408.435 -47.507)" fill="#2a4850"/>
              </g>
              <g id="Group_1444" data-name="Group 1444">
                <path id="Path_446" data-name="Path 446" d="M595.788,169.756l-.01,3.571L370.441,43.228l.01-3.571Z" transform="translate(-370.441 -39.658)" fill="#1e3238"/>
              </g>
            </g>
          </g>
          <g id="Group_1450" data-name="Group 1450" transform="translate(70.969)">
            <g id="Group_1447" data-name="Group 1447">
              <path id="Path_447" data-name="Path 447" d="M484.809,40.58l-88,51.139-14.4-8.316,88-51.14Z" transform="translate(-382.407 -32.263)" fill="#566b70"/>
            </g>
            <g id="Group_1448" data-name="Group 1448" transform="translate(136.169 78.638)">
              <path id="Path_448" data-name="Path 448" d="M480.878,49.4l-68.8,39.982L405.367,85.5l68.8-39.981Z" transform="translate(-405.367 -45.523)" fill="#566b70"/>
            </g>
            <g id="Group_1449" data-name="Group 1449" transform="translate(162.064 93.638)">
              <path id="Path_449" data-name="Path 449" d="M467.322,51.928,416.445,81.494l-6.713-3.876L460.61,48.052Z" transform="translate(-409.733 -48.052)" fill="#566b70"/>
            </g>
          </g>
        </g>
        <g id="Group_1460" data-name="Group 1460" transform="translate(8.771 39.694)">
          <g id="Group_1455" data-name="Group 1455" transform="translate(0 43.853)">
            <g id="Group_1454" data-name="Group 1454" style="isolation: isolate">
              <g id="Group_1452" data-name="Group 1452" transform="translate(225.337 46.551)">
                <path id="Path_450" data-name="Path 450" d="M552.211,47.507l-.01,3.571L408.435,134.625l.01-3.571Z" transform="translate(-408.435 -47.507)" fill="#2a4850"/>
              </g>
              <g id="Group_1453" data-name="Group 1453">
                <path id="Path_451" data-name="Path 451" d="M595.788,169.756l-.01,3.571L370.441,43.228l.01-3.571Z" transform="translate(-370.441 -39.658)" fill="#1e3238"/>
              </g>
            </g>
          </g>
          <g id="Group_1459" data-name="Group 1459" transform="translate(70.969)">
            <g id="Group_1456" data-name="Group 1456">
              <path id="Path_452" data-name="Path 452" d="M484.809,40.58l-88,51.139-14.4-8.316,88-51.14Z" transform="translate(-382.407 -32.263)" fill="#566b70"/>
            </g>
            <g id="Group_1457" data-name="Group 1457" transform="translate(136.169 78.638)">
              <path id="Path_453" data-name="Path 453" d="M480.878,49.4l-68.8,39.982L405.367,85.5l68.8-39.981Z" transform="translate(-405.367 -45.523)" fill="#566b70"/>
            </g>
            <g id="Group_1458" data-name="Group 1458" transform="translate(162.064 93.638)">
              <path id="Path_454" data-name="Path 454" d="M467.322,51.928,416.445,81.494l-6.713-3.876L460.61,48.052Z" transform="translate(-409.733 -48.052)" fill="#566b70"/>
            </g>
          </g>
        </g>
        <g id="Group_1469" data-name="Group 1469" transform="translate(8.771 39.694)">
          <g id="Group_1464" data-name="Group 1464" transform="translate(0 43.853)">
            <g id="Group_1463" data-name="Group 1463" style="isolation: isolate">
              <g id="Group_1461" data-name="Group 1461" transform="translate(225.337 46.551)">
                <path id="Path_455" data-name="Path 455" d="M552.211,47.507l-.01,3.571L408.435,134.625l.01-3.571Z" transform="translate(-408.435 -47.507)" fill="#2a4850"/>
              </g>
              <g id="Group_1462" data-name="Group 1462">
                <path id="Path_456" data-name="Path 456" d="M595.788,169.756l-.01,3.571L370.441,43.228l.01-3.571Z" transform="translate(-370.441 -39.658)" fill="#1e3238"/>
              </g>
            </g>
          </g>
          <g id="Group_1468" data-name="Group 1468" transform="translate(70.969)">
            <g id="Group_1465" data-name="Group 1465">
              <path id="Path_457" data-name="Path 457" d="M484.809,40.58l-88,51.139-14.4-8.316,88-51.14Z" transform="translate(-382.407 -32.263)" fill="#566b70"/>
            </g>
            <g id="Group_1466" data-name="Group 1466" transform="translate(136.169 78.638)">
              <path id="Path_458" data-name="Path 458" d="M480.878,49.4l-68.8,39.982L405.367,85.5l68.8-39.981Z" transform="translate(-405.367 -45.523)" fill="#566b70"/>
            </g>
            <g id="Group_1467" data-name="Group 1467" transform="translate(162.064 93.638)">
              <path id="Path_459" data-name="Path 459" d="M467.322,51.928,416.445,81.494l-6.713-3.876L460.61,48.052Z" transform="translate(-409.733 -48.052)" fill="#566b70"/>
            </g>
          </g>
        </g>
        <g id="Group_1474" data-name="Group 1474" transform="translate(8.771 19.895)">
          <g id="Group_1473" data-name="Group 1473" style="isolation: isolate">
            <g id="Group_1470" data-name="Group 1470" transform="translate(225.337 130.098)">
              <path id="Path_460" data-name="Path 460" d="M552.211,50.861l-.01,3.571L408.435,137.98l.01-3.571Z" transform="translate(-408.435 -50.861)" fill="#3a57f8"/>
            </g>
            <g id="Group_1471" data-name="Group 1471" transform="translate(0 83.547)">
              <path id="Path_461" data-name="Path 461" d="M595.788,173.111l-.01,3.571L370.441,46.583l.01-3.571Z" transform="translate(-370.441 -43.012)" fill="#1e3238"/>
            </g>
            <g id="Group_1472" data-name="Group 1472" transform="translate(0.01)">
              <path id="Path_462" data-name="Path 462" d="M739.545,159.023,595.779,242.571l-225.337-130.1L514.208,28.925Z" transform="translate(-370.443 -28.925)" fill="#b7bfb7"/>
            </g>
          </g>
        </g>
        <path id="Path_463" data-name="Path 463" d="M545.424,63.7,408.043,143v-15.5L545.424,48.2Z" transform="translate(-176.261 85.989)" fill="#b7bfb7"/>
        <g id="Group_1475" data-name="Group 1475" transform="translate(234.108 130.098)">
          <path id="Path_464" data-name="Path 464" d="M552.211,47.507l-.01,3.571L408.435,134.625l.01-3.571Z" transform="translate(-408.435 -47.507)" fill="#3752e3"/>
        </g>
        <g id="Group_1476" data-name="Group 1476" transform="translate(8.771 83.547)">
          <path id="Path_465" data-name="Path 465" d="M595.788,169.756l-.01,3.571L370.441,43.228l.01-3.571Z" transform="translate(-370.441 -39.658)" fill="#1e3238"/>
        </g>
        <g id="Group_1477" data-name="Group 1477" transform="translate(8.786)">
          <path id="Path_466" data-name="Path 466" d="M739.546,155.669,595.781,239.216l-225.337-130.1L514.209,25.57Z" transform="translate(-370.443 -25.57)" fill="#3a57f8"/>
        </g>
        <g id="Group_1481" data-name="Group 1481" transform="translate(79.739 39.694)">
          <g id="Group_1478" data-name="Group 1478">
            <path id="Path_467" data-name="Path 467" d="M484.809,40.58l-88,51.139-14.4-8.316,88-51.14Z" transform="translate(-382.407 -32.263)" fill="#b7bfb7"/>
          </g>
          <g id="Group_1479" data-name="Group 1479" transform="translate(136.169 78.638)">
            <path id="Path_468" data-name="Path 468" d="M480.878,49.4l-68.8,39.982L405.367,85.5l68.8-39.981Z" transform="translate(-405.367 -45.523)" fill="#b7bfb7"/>
          </g>
          <g id="Group_1480" data-name="Group 1480" transform="translate(162.064 93.638)">
            <path id="Path_469" data-name="Path 469" d="M467.322,51.928,416.445,81.494l-6.713-3.876L460.61,48.052Z" transform="translate(-409.733 -48.052)" fill="#b7bfb7"/>
          </g>
        </g>
        <g id="Group_1483" data-name="Group 1483" transform="translate(0 83.549)" style="isolation: isolate">
          <g id="Group_1482" data-name="Group 1482" transform="translate(222.45 130.097)">
            <path id="Path_470" data-name="Path 470" d="M418.136,61.594l-6.067.047a12.219,12.219,0,0,0-5.6,9.418l2.888,12.621c0,3.458,2.426,4.875,5.409,3.167l3.369-1.939Z" transform="translate(-406.47 -61.594)" fill="#3752e3"/>
          </g>
          <path id="Path_471" data-name="Path 471" d="M599.7,171.688a11.951,11.951,0,0,0-5.4,9.371v10.782a3.818,3.818,0,0,0,1.6,3.529L370.563,65.273a3.824,3.824,0,0,1-1.6-3.529V50.956a11.931,11.931,0,0,1,5.409-9.365l3.375-1.933,225.333,130.1Z" transform="translate(-368.962 -39.658)" fill="#3752e3"/>
        </g>
      </g>
    </g>
    <circle id="Ellipse_55" data-name="Ellipse 55" cx="34" cy="34" r="34" transform="translate(1294 351)" fill="#eded98"/>
    <circle id="Ellipse_56" data-name="Ellipse 56" cx="16" cy="16" r="16" transform="translate(750 576)" fill="#ea98ed"/>
  </g>
</svg>
