<svg xmlns="http://www.w3.org/2000/svg" width="135.655" height="357.891" viewBox="0 0 135.655 357.891"><path d="M89.185,186.328s-.152,1.377-.284,1.974c.106,1.595-.071,4.87,1.225,6.035,3.114,2.779,5.974,3.468,9.442,6.364,2.481,2.066,6.4,5.68,9.508,6.82a32.224,32.224,0,0,0,11.3,1.934c4.435-.253,9.078-2.425,9.275-6.212.147-2.84-.339-3.909-.6-4.1-2.268-1.656-13.062-3.372-17.75-5.711-4.956-2.471-9.979-4.779-14.748-7.437C94.409,184.8,88.38,181.817,89.185,186.328Z" transform="translate(-13.496 111.502)" fill="#e19b5d"/><path d="M99.286,202.1c-.967-3.838-.354-8.526-3.726-11.189-2.724-2.157-13.994-4.729-15.381,1.073-.354,1.493-3.949,20.509-3.483,25.506.314,3.347,3.5,6.642,6.166,8.546,3.336,2.39,6.622,2.41,10.293,1.21,2.987-.977,5.574-4.253,7.113-7.275C101.474,217.592,100.77,207.993,99.286,202.1Z" transform="translate(-63.25 129.864)" fill="#e19b5d"/><path d="M91.2,206.866c-4.055-3.65-1.676-10.171-1.2-15.609a29.822,29.822,0,0,0-.866-8.885l18.52-2.3c.142,1.934.3,3.868.425,5.8.314,4.779.663,9.7,2.734,14.019,2.167,4.526,23.314,10.951,17.578,17.978a5.989,5.989,0,0,1-2.481,1.615,20.18,20.18,0,0,1-17.482-1.281c-4.283-2.511-7.559-6.577-12.054-8.678C94.605,208.7,92.646,208.172,91.2,206.866Z" transform="translate(-13.596 95.885)" fill="#232020"/><path d="M79.509,198.074c-.025-.932-.911-11.285-.815-11.29l18.636-1.043c1.286-.071.466,14.115.334,15.274-.9,7.761,1.6,13.715,2.425,21.426.658,6.182-7.559,11.275-11.751,11.148-2.506-.076-11.366-3.782-11.5-9.437C76.78,221.4,79.62,202.15,79.509,198.074Z" transform="translate(-62.498 118.908)" fill="#232020"/><g transform="translate(72.296 59.348)"><path d="M127.2,208.851c-4.238-5.751-10.293-17.791-12.728-21.345-5.463-29.04-13-43.175-17.937-47a26,26,0,0,0-5.842-3.22,33.715,33.715,0,0,1-2.4,8.065,43.533,43.533,0,0,1,2.136,17.107c8.809,14.621,8.829,32.133,10.313,34.731,1.691,2.962,17.208,17.948,17.208,17.948Z" transform="translate(-88.287 -137.289)" fill="#f6c29e"/></g><path d="M116.042,178.054c1.215,5.863-17.507,12.414-23.911,8.728,0,0-7.1-30-3.934-40.244,2.861-9.265,8.764-12.08,13.295-9.4C111.44,143.02,116.042,178.054,116.042,178.054Z" transform="translate(-19.657 -82.482)" fill="#5368de"/><path d="M147.269,157.54c-4.627,3.984-56.774,7.65-62.465,9.265-2.5,15.568-6.749,42.213-5.493,72.21a200.4,200.4,0,0,1-1.119,29.212c-1.914,18.246-.83,35.085-1.109,48.456-.395,7.842,21.056,10.353,21.405.365,0,0,3.9-24.079,11.239-54.891,1.352-5.68,8.217-39.216,10.414-54.384l5.27,28.154c3.514,27.04,9.229,39.181,11.614,52.456.613,3.392,20.621,5.448,20.605-3.109,0,0-1.124-49.889-1.939-58.268C155.329,223.225,151.977,179.518,147.269,157.54Z" transform="translate(-61.748 4.334)" fill="#302b2b"/><path d="M88.465,158.068c3.752-2.962,11.067-6.683,15.983-9.022l27.623-11.1c5.083-2.035,7.645-2.238,9.781-1.266,6.5,2.952,7.164,102.921,7.356,107.908-1.352,15.016-45.459,20.3-62.465,9.265-1.007-21.714-9.862-64.586-10.085-67.117C75.793,176.856,79.98,164.776,88.465,158.068Z" transform="translate(-63.688 -82.712)" fill="#657bf5"/><g transform="translate(44.532 136.838)"><path d="M173.906,165.4l-54.683-12.8L82.8,174.45l1.643,1.434L138.673,189.6l35.253-22.652Z" transform="translate(-82.803 -152.595)" fill="#474644"/><path d="M116.8,152.86l-33.336,20L135.265,186,167.8,165Z" transform="translate(-80.132 -151.518)" fill="#f1f1f1"/></g><path d="M98.452,156.291a17.877,17.877,0,0,1-3.164,2.7,10.068,10.068,0,0,1,1.448-3.838A11.187,11.187,0,0,0,98.452,156.291Z" transform="translate(12.453 -5.347)" fill="#474644"/><path d="M81.92,134.3c-.01.2,22.337.491,22.676,2.577a65.411,65.411,0,0,1,.932,6.627,32.947,32.947,0,0,0,2.4,10.607,23.083,23.083,0,0,1-3.62.927c-.324,2.663-.927,14.095-.927,14.095l-3.995-11.1s-9.381,5.316-12.166,4.44c-1.985-.623-4.151-1.321-4.627-3.6a14.289,14.289,0,0,1-.248-1.959c-.137-2.238.116-4.653.116-6.779C82.467,144.994,83.014,139.359,81.92,134.3Z" transform="translate(-41.858 -90.101)" fill="#efb68f"/><path d="M78.307,155.857c1.3-.678,2.607-1.428,3.913-2.228,4.982-2.744,10.227-5.437,14.657-8.652,1.19,6.485,1.6,21.714-1.969,44.993-.091.608,27.663,12.292,30.043,12.672,2.81.451,15.457-1.63,16.252,1.048.911,3.053-10.353,2.562-9.234,4.167l6.89,4.572,9.964,2.521a49.7,49.7,0,0,1-8.561,1.924c-.653.091-4.749,1.21-10.91-1.564a69.269,69.269,0,0,0-14.733-4.693c-5.539-1.256-11.1-2.42-16.56-3.691-4.962-1.22-9.893-2.481-14.581-4.065-2.349-.82-6.313-1.812-7.483-3.873-2.2-3.984-.79-26.018.658-42.634A4.723,4.723,0,0,0,78.307,155.857Z" transform="translate(-70.566 -46.707)" fill="#f6c29e"/><path d="M104.014,192.478c-2.283,7.832-29.557,2.511-30.007-4.177,0,0,9.28-37.535,17.684-44.2,7.594-6.025,13-2.557,15.224,2.218C111.8,156.791,104.014,192.478,104.014,192.478Z" transform="translate(-74.007 -63.299)" fill="#5368de"/><path d="M88.068,136.912s.82,3.357.932,3.909c.172.891-.552,2.658-2.658,3.584,2.359,1.726,4.88,4.126,7.366,6.313.167-.673-1.18-6.936-2.734-10.272A12.586,12.586,0,0,0,88.068,136.912Z" transform="translate(-23.893 -79.473)" fill="#5368de"/><path d="M102.734,144.7a95.8,95.8,0,0,0-2.85,11.938c-15.988-1.291-17.629-6.2-18.788-8.8.572-1.919,2.152-6.551,2.891-9.331,0,0,1.742-.552,1.742-.927-.208,4.329,5.372,6.5,8.46,7.24C96.462,145.364,100.5,145.576,102.734,144.7Z" transform="translate(-45.206 -76.771)" fill="#5368de"/><g transform="translate(30.302 4.721)"><path d="M112.746,166.719c-1.119,3.033-1.438,7.2-5.058,7.923-5.726,1.144-15-1.453-19.983-7.493-5.407-6.546-8.247-16.834-4.956-25.78,1.321-3.59,8.141-3.721,11.366-6.283a29.785,29.785,0,0,1,7.584-4.081c7.66-3.088,13.907-2.759,14.237,4.987.167,3.913.795,7.832.5,11.741C115.5,160.147,114.341,162.4,112.746,166.719Z" transform="translate(-74.493 -115.591)" fill="#f6c29e"/><path d="M109.816,127.44a20.216,20.216,0,0,1,11.766,7.756c3.767,5.858,2.855,12.434.051,15.72,0-.015.03-4.045-1.706-4.258-3.63-.446-6.85,1.174-10.014,2.719a18.088,18.088,0,0,1-4.344,1.58c-1.478.324-4.536,1.185-5.513,2.506-1.772,2.415-.395,6.6-.851,9.361-.278,1.676-1.078,2.866-2.992,1.838-1.261-.678-1.6-2.43-2.749-3.271a2.817,2.817,0,0,0-4.491,1.585c-.456,1.671.987,10.44,3.382,13.988a32.051,32.051,0,0,1-3.286-2.779c-1.752-1.8-3.382-2.936-4.445-5.194-1.372-2.926-1.195-4.562-2.142-7.63a36.2,36.2,0,0,1-1.549-9.214c-.132-2.526-.532-2.962-.82-5.468a14.446,14.446,0,0,1,2.78-10.693,19.384,19.384,0,0,1,5.625-5.23c1.149-.709,2.4-1.119,3.584-1.742a15.849,15.849,0,0,1,2.865-1.57C99.629,126.033,105.123,126.346,109.816,127.44Z" transform="translate(-79.992 -126.499)" fill="#352d28"/></g><g transform="translate(29.955)"><path d="M99.563,160.765c6,1.038,24.17-3.22,25.8-11.452,0,0-.608-27.045-29.172-23.41-18.489,3.306-16.181,24.1-16.181,24.1C80.365,153.2,94.42,159.879,99.563,160.765Z" transform="translate(-79.924 -125.567)" fill="#5368de"/><path d="M124.5,139.573c-4.364.516-9.412,2.572-14.859,5.964a15.887,15.887,0,0,1-14.631,1.018c-3.61-1.539-7.964-3.625-12.5-6.091,6.668,1.418,32.964-2.582,32.24-10.429C114.752,130.035,128.644,139.087,124.5,139.573Z" transform="translate(-69.408 -107.413)" fill="#657bf5"/></g><path d="M100.47,148.775l-11.351,5.793-.908-5.981,11.351-5.793Z" transform="translate(-16.301 -55.574)" fill="#f1f1f1"/><path d="M89.367,127.3c0,.775-1.357,1.407-3.033,1.407S83.3,128.076,83.3,127.3s1.357-1.413,3.033-1.413S89.367,126.522,89.367,127.3Z" transform="translate(-36.243 -124.257)" fill="#0f6ea1"/><path d="M113.633,164.552c-.891-.709-6.536-8.571-11.244-15.254-3.751,2.744-6,6.1-9.893,8.652l13.032,14.393c.319,1.053-.405,2.911-.147,3.8.208.744,1.185,1.478,1.742,2.01,1.493,1.428,3.671,2.79,5.756,2.785,3.1,0,4.389-3.6,5.989-5.746C121.8,171.255,116.666,166.977,113.633,164.552Z" transform="translate(1.11 -29.151)" fill="#f6c29e"/><path d="M105.539,153.879l-7.442,10.7c-.481.765-2.233.025-1.969-.926l7.463-11.148C104.339,151.388,106.375,152.806,105.539,153.879Z" transform="translate(15.755 -17.775)" fill="#474644"/></svg>