<svg xmlns="http://www.w3.org/2000/svg" width="350.184" height="191.027" viewBox="0 0 350.184 191.027"><g transform="translate(0 -19.835)"><path d="M520.963,322.046H647.895A35.546,35.546,0,0,0,683.442,286.5h0a35.547,35.547,0,0,0-35.547-35.546H376.9A18.855,18.855,0,0,1,358.046,232.1h0A18.855,18.855,0,0,1,376.9,213.243H604.6a16.7,16.7,0,0,0,16.7-16.7h0a16.7,16.7,0,0,0-16.7-16.7H396.234a9.186,9.186,0,0,1-9.185-9.185h0a9.186,9.186,0,0,1,9.185-9.185h60.583" transform="translate(-333.758 -111.684)" fill="none" stroke="#b3d3f4" stroke-miterlimit="10" stroke-width="1" stroke-dasharray="4"/><g transform="translate(114.838 19.835)"><path d="M461.268,135.064a19.334,19.334,0,0,0-16.724,32.9l-2.611,5.3,5.86-2.738a19.34,19.34,0,1,0,13.476-35.466Z" transform="translate(-438.707 -134.791)" fill="#f3faff"/><path d="M448.535,162.174l-2-2.4a2.176,2.176,0,0,1,.276-3.066l2.3-1.92a2.177,2.177,0,0,1,3.066.276s1.063,1.6,2.31,1.313c1.419-.324,4.505-2.576,6.165-4.322,1.17-1.229-.8-3.4-.8-3.4a2.178,2.178,0,0,1,.277-3.067l2.3-1.92a2.176,2.176,0,0,1,3.066.277l2,2.394C472.006,151.748,452.459,166.878,448.535,162.174Z" transform="translate(-437.809 -133.764)" fill="#b3d3f4"/></g><g transform="translate(269.666 23.723)"><path d="M615.023,188.588l-33.967-18.177L590,143.86l41.343,21.4Z" transform="translate(-576.084 -137.567)" fill="#cfe0f5"/><path d="M630.366,165.952l-41.343-21.4,29.47-6.293Z" transform="translate(-575.107 -138.254)" fill="#cfe0f5"/><rect width="37.269" height="31.481" transform="translate(19.008 6.282) rotate(27.373)" fill="#fff4e1"/><path d="M590.543,143.86l-13.916,26.879,27.138-1.788Z" transform="translate(-576.627 -137.567)" fill="#e6f1fc"/><path d="M628.922,162.927l-13.916,26.879-14.2-23.193Z" transform="translate(-573.663 -135.229)" fill="#e6f1fc"/><path d="M617.969,190.3l-41.343-21.4,31.439-9.96Z" transform="translate(-576.627 -135.719)" fill="#e6f1fc" style="mix-blend-mode:multiply;isolation:isolate"/><path d="M617.969,189.895l-41.343-21.4L606.1,162.2Z" transform="translate(-576.627 -135.319)" fill="#e6f1fc"/></g><g transform="translate(0 55.782)"><path d="M372.393,196l-27.678,6.93-8.3-19.016,33.33-8.829Z" transform="translate(-336.411 -165.798)" fill="#cfe0f5"/><path d="M369.74,176.1l-33.33,8.829,13.036-18.115Z" transform="translate(-336.411 -166.812)" fill="#cfe0f5"/><rect width="27.602" height="23.315" transform="matrix(0.967, -0.256, 0.256, 0.967, 2.788, 15.576)" fill="#fff4e1"/><path d="M336.411,182.949l5.74,21.669,14-14.484Z" transform="translate(-336.411 -164.834)" fill="#e6f1fc"/><path d="M367.585,175.085l5.74,21.669L353.993,191.1Z" transform="translate(-334.255 -165.798)" fill="#e6f1fc"/><path d="M374.853,195.728l-33.33,8.829,12.291-21.107Z" transform="translate(-335.784 -164.772)" fill="#e6f1fc" style="mix-blend-mode:multiply;isolation:isolate"/><path d="M374.853,195.4l-33.33,8.829,13.036-18.116Z" transform="translate(-335.784 -164.446)" fill="#e6f1fc"/></g></g></svg>