<svg xmlns="http://www.w3.org/2000/svg" xmlns:xlink="http://www.w3.org/1999/xlink" width="439.527" height="407.971" viewBox="0 0 439.527 407.971"><defs><linearGradient id="a" x1="0.5" x2="0" y2="0.975" gradientUnits="objectBoundingBox"><stop offset="0" stop-color="#75bafd"/><stop offset="1" stop-color="#4848c9"/></linearGradient><linearGradient id="b" x1="0.5" y1="1" x2="0.5" gradientUnits="objectBoundingBox"><stop offset="0.005" stop-color="#fcf5f1"/><stop offset="0.477" stop-color="#fceeec"/><stop offset="1" stop-color="#fce1e3"/></linearGradient><linearGradient id="c" x1="0.5" y1="1" x2="0.5" gradientUnits="objectBoundingBox"><stop offset="0" stop-color="#466de5"/><stop offset="1" stop-color="#78bfff"/></linearGradient><linearGradient id="e" x1="1.294" y1="0.807" x2="-0.165" y2="0.279" xlink:href="#c"/><linearGradient id="g" x1="0.497" y1="0.987" x2="0.497" y2="0.033" xlink:href="#c"/><linearGradient id="h" x1="0.29" y1="1.082" x2="0.781" y2="0.221" xlink:href="#c"/><linearGradient id="i" x1="0.755" y1="1.136" x2="0.18" y2="0.178" gradientUnits="objectBoundingBox"><stop offset="0" stop-color="#b3d3f4"/><stop offset="1" stop-color="#d3dced"/></linearGradient><linearGradient id="j" x1="0.5" y1="1" x2="0.5" gradientUnits="objectBoundingBox"><stop offset="0" stop-color="#ffd5a7"/><stop offset="0.372" stop-color="#ffd7aa"/><stop offset="0.654" stop-color="#ffddb3"/><stop offset="0.907" stop-color="#ffe8c3"/><stop offset="1" stop-color="#fec"/></linearGradient><linearGradient id="k" x1="0.755" y1="1.235" x2="0.245" y2="-0.235" gradientUnits="objectBoundingBox"><stop offset="0" stop-color="#cde8ff"/><stop offset="1" stop-color="#eee7e9"/></linearGradient><linearGradient id="l" x1="0.75" y1="1.588" x2="0.25" y2="0.412" xlink:href="#k"/><linearGradient id="m" x1="-11.573" y1="1.069" x2="-11.037" y2="0.223" xlink:href="#c"/></defs><g transform="translate(-168.473 -1858)"><circle cx="192" cy="192" r="192" transform="translate(224 1858)" opacity="0.747" fill="url(#a)"/><g transform="translate(-97.995 1808.281)"><path d="M294.043,386.444H700.266c13.235,0-10.454,6.91-18.214,14.671s-7.308,10.988-26.621,16.861c-41.534,12.63-59.3-12.093-125.246-2.361-28.1,4.146-63.926,12.068-92.184,7.858-23.8-3.546-29.58-19.778-47.569-21.092-27.614-2.018-41.39-.035-66.585-1.266C302.261,400.06,259.516,386.444,294.043,386.444Z" transform="translate(1.786 33.018)" fill="url(#b)"/><g transform="translate(266.468 278.915)"><g transform="translate(339.423)"><path d="M568.932,401.793c-1.3-44.712,8.809-98.977,44.032-129.778,5.653-4.943,12.565-11.312,20.588-10.732,3.733.271,5.584,4.541,6.145,7.709,1,5.656.027,11.473-1.354,17.049-7.625,30.791-32.77,84.691-39.2,115.752" transform="translate(-568.823 -261.246)" fill="url(#c)"/><path d="M626.311,272.011C591.3,317.771,585,374.951,586.106,399.7" transform="translate(-566.719 -259.926)" fill="none" stroke="#92d0ff" stroke-miterlimit="10" stroke-width="1"/><g transform="translate(30.319 42.52)"><path d="M595.831,397.149c4.716-28.936,9.668-52.568,26.251-76.745,6.823-9.946,19.965-22.239,30.421-21.223,11.219,1.091,3.258,18.043-3.4,30.7A178.415,178.415,0,0,0,630.7,383.945c.926-5.671,4.861-21.82,16.489-29C650.6,352.842,659,351.611,659,358.6c0,12.28-11.937,27.028-14.923,38.549" transform="translate(-595.831 -299.122)" fill="url(#c)"/><path d="M647.062,307.129c-10.756,13.653-32.2,60.9-34.832,88.181" transform="translate(-593.821 -298.141)" fill="none" stroke="#92d0ff" stroke-miterlimit="10" stroke-width="1"/><path d="M648.084,353.017c-8.265,8.265-13.334,23.414-16.2,37.525" transform="translate(-591.411 -292.515)" fill="none" stroke="#92d0ff" stroke-miterlimit="10" stroke-width="1"/></g></g><g transform="translate(0 18.515)"><path d="M359.927,399.771c-6.82-56.413-1.865-81,4.558-96.622,2.993-7.282,7.293-14.494,13.38-19.632,24.357-20.555,23.617,19.409,22.473,31.523-2.607,27.6-9.524,57.1-10.151,84.731" transform="translate(-255.412 -277.739)" fill="url(#e)"/><path d="M346.476,399.643c-.773-17.747-8.695-35.061-18.783-49.383-10.147-14.4-24.1-25.894-33.239-41.023-4.895-8.106-12.639-20.851-1.187-27.5,12.7-7.37,31.353.357,41.566,8.783,11.107,9.164,18.406,22.146,24.5,34.967,10.762,22.645,12.922,49.082,13.091,74.154" transform="translate(-263.912 -277.611)" fill="url(#c)"/><path d="M351.452,394.62c.051-18.064-9.153-37.133-23.687-51.243-9.495-9.219-20.854-17.858-33.808-21.66-6.724-1.975-25.52-5.1-27.4,6.075-.714,4.234,3.107,12.194,12.263,19.444,12.729,10.079,47.894,25.751,52.136,47.384" transform="translate(-266.468 -272.588)" fill="url(#g)"/><path d="M274.265,327.392c24.361,6.624,58.32,28.86,64.775,65.856" transform="translate(-265.512 -271.652)" fill="none" stroke="#92d0ff" stroke-miterlimit="10" stroke-width="1"/><path d="M298.109,287.675c24.414,12.875,54.19,53.083,57.521,110.442" transform="translate(-262.589 -276.521)" fill="none" stroke="#92d0ff" stroke-miterlimit="10" stroke-width="1"/><path d="M385.529,282.592c-13.723,33.328-16.113,80.114-15.316,116.148" transform="translate(-253.766 -277.144)" fill="none" stroke="#92d0ff" stroke-miterlimit="10" stroke-width="1"/></g><g transform="translate(25.993 99.229)"><path d="M331.395,390.956c-2.18-9.744-4.1-19.9-9.9-28.3-3.8-5.491-11.545-13.141-18.44-13.021-5.126.089-6.291,5.019-5.695,9.458,1.564,11.635,8.015,15.185,10.52,27.765-1.249-4.765-8.939-21.266-15.69-14.957-7.426,6.939,3.647,19.05,3.647,19.05" transform="translate(-289.623 -349.639)" fill="url(#h)"/><path d="M294.487,372.21c3.532,4.045,8.066,9.815,9.892,15.979" transform="translate(-289.027 -346.872)" fill="none" stroke="#92d0ff" stroke-miterlimit="10" stroke-width="1"/><path d="M303.994,356c9.352,9.353,15.884,29.09,17.577,34.175" transform="translate(-287.861 -348.859)" fill="none" stroke="#92d0ff" stroke-miterlimit="10" stroke-width="1"/></g></g><g transform="translate(344.985 117.122)"><path d="M520.963,322.046H647.895A35.546,35.546,0,0,0,683.442,286.5h0a35.547,35.547,0,0,0-35.547-35.546H376.9A18.855,18.855,0,0,1,358.046,232.1h0A18.855,18.855,0,0,1,376.9,213.243H604.6a16.7,16.7,0,0,0,16.7-16.7h0a16.7,16.7,0,0,0-16.7-16.7H396.234a9.186,9.186,0,0,1-9.185-9.185h0a9.186,9.186,0,0,1,9.185-9.185h60.583" transform="translate(-333.758 -111.684)" fill="none" stroke="#b3d3f4" stroke-miterlimit="10" stroke-width="1" stroke-dasharray="4"/><g transform="translate(114.838 19.835)"><path d="M461.268,135.064a19.334,19.334,0,0,0-16.724,32.9l-2.611,5.3,5.86-2.738a19.34,19.34,0,1,0,13.476-35.466Z" transform="translate(-438.707 -134.791)" fill="#f3faff"/><path d="M448.535,162.174l-2-2.4a2.176,2.176,0,0,1,.276-3.066l2.3-1.92a2.177,2.177,0,0,1,3.066.276s1.063,1.6,2.31,1.313c1.419-.324,4.505-2.576,6.165-4.322,1.17-1.229-.8-3.4-.8-3.4a2.178,2.178,0,0,1,.277-3.067l2.3-1.92a2.176,2.176,0,0,1,3.066.277l2,2.394C472.006,151.748,452.459,166.878,448.535,162.174Z" transform="translate(-437.809 -133.764)" fill="#b3d3f4"/></g><path d="M535.035,163.987c2.866-2.749,4.052-5.576,8-6.459a7.437,7.437,0,0,0,2.357-.716c1.922-1.194,1.529-3.918,1.961-6.074.85-4.249,6.4-6.935,10.469-5.066,1.7.782,3.249,2.226,5.134,2.1,3.767-.257,3.316-4.9,5.891-7.555,2.431-2.5,7.387-2.831,10.548-1.244a16.2,16.2,0,0,1,5.55,4.508c1.532,1.986,1.464,5.053,2.594,7.241,1.078,2.115,3.659,3.034,4.784,5.115a6.336,6.336,0,0,1,.48,5.63c-1.609,3.862-6.33,6.649-10.611,6.649H524.368S531.842,167.048,535.035,163.987Z" transform="translate(-313.368 -114.563)" fill="#f3faff"/><path d="M415.868,139.084c-2.423-2.324-3.425-4.713-6.761-5.459a6.288,6.288,0,0,1-1.993-.605c-1.624-1.009-1.293-3.312-1.657-5.135-.718-3.591-5.41-5.861-8.848-4.282-1.44.662-2.746,1.883-4.339,1.774-3.185-.217-2.8-4.145-4.98-6.385-2.055-2.116-6.243-2.392-8.915-1.051a13.67,13.67,0,0,0-4.691,3.81c-1.3,1.677-1.237,4.27-2.192,6.119-.91,1.787-3.092,2.564-4.044,4.323a5.356,5.356,0,0,0-.406,4.758c1.359,3.265,5.35,5.62,8.968,5.62h48.873S418.567,141.672,415.868,139.084Z" transform="translate(-332.702 -117.122)" fill="#f3faff"/><g transform="translate(269.666 23.723)"><path d="M615.023,188.588l-33.967-18.177L590,143.86l41.343,21.4Z" transform="translate(-576.084 -137.567)" fill="#cfe0f5"/><path d="M630.366,165.952l-41.343-21.4,29.47-6.293Z" transform="translate(-575.107 -138.254)" fill="#cfe0f5"/><rect width="37.269" height="31.481" transform="translate(19.008 6.282) rotate(27.373)" fill="#fff4e1"/><path d="M590.543,143.86l-13.916,26.879,27.138-1.788Z" transform="translate(-576.627 -137.567)" fill="#e6f1fc"/><path d="M628.922,162.927l-13.916,26.879-14.2-23.193Z" transform="translate(-573.663 -135.229)" fill="#e6f1fc"/><path d="M617.969,190.3l-41.343-21.4,31.439-9.96Z" transform="translate(-576.627 -135.719)" fill="#e6f1fc" style="mix-blend-mode:multiply;isolation:isolate"/><path d="M617.969,189.895l-41.343-21.4L606.1,162.2Z" transform="translate(-576.627 -135.319)" fill="#e6f1fc"/></g><g transform="translate(0 55.782)"><path d="M372.393,196l-27.678,6.93-8.3-19.016,33.33-8.829Z" transform="translate(-336.411 -165.798)" fill="#cfe0f5"/><path d="M369.74,176.1l-33.33,8.829,13.036-18.115Z" transform="translate(-336.411 -166.812)" fill="#cfe0f5"/><rect width="27.602" height="23.315" transform="matrix(0.967, -0.256, 0.256, 0.967, 2.788, 15.576)" fill="#fff4e1"/><path d="M336.411,182.949l5.74,21.669,14-14.484Z" transform="translate(-336.411 -164.834)" fill="#e6f1fc"/><path d="M367.585,175.085l5.74,21.669L353.993,191.1Z" transform="translate(-334.255 -165.798)" fill="#e6f1fc"/><path d="M374.853,195.728l-33.33,8.829,12.291-21.107Z" transform="translate(-335.784 -164.772)" fill="#e6f1fc" style="mix-blend-mode:multiply;isolation:isolate"/><path d="M374.853,195.4l-33.33,8.829,13.036-18.116Z" transform="translate(-335.784 -164.446)" fill="#e6f1fc"/></g></g><g transform="translate(394.464 176.834)"><path d="M500.824,170.313,380.485,275.684v144.9H621.163v-144.9Z" transform="translate(-380.485 -170.313)" fill="url(#i)"/><rect width="216.348" height="198.247" transform="translate(12.165 37.067)" fill="url(#j)"/><path d="M500.824,356.165,380.485,264.177V394.119H621.163V264.177Z" transform="translate(-380.485 -158.805)" fill="#c9d3f4" opacity="0.55" style="mix-blend-mode:multiply;isolation:isolate"/><path d="M500.824,371.142,380.485,264.177v144.9H621.163v-144.9Z" transform="translate(-380.485 -158.805)" fill="url(#k)"/><path d="M500.824,292.189,380.485,405.638H621.163Z" transform="translate(-380.485 -155.371)" fill="#c9d3f4" opacity="0.35" style="mix-blend-mode:multiply;isolation:isolate"/><path d="M500.824,302.039,380.485,404.431H621.163Z" transform="translate(-380.485 -154.164)" fill="url(#l)"/></g><g transform="translate(592.581 380.718)"><path d="M557.9,405.346c-2.436-12.693.108-25.728,5.18-36.58,3.317-7.1,10.961-16.989,19.486-16.833,6.337.116,9,6.49,9.364,12.227.961,15.039-6.106,19.631-6.069,35.893.356-6.159,6.313-26.159,15.618-19.336,9.112,6.682.236,24.629.236,24.629" transform="translate(-556.967 -351.931)" fill="url(#m)"/><path d="M595.257,381.11c-3.12,5.23-6.982,12.69-7.585,20.659" transform="translate(-553.202 -348.354)" fill="none" stroke="#92d0ff" stroke-miterlimit="10" stroke-width="1"/><path d="M580.62,360.156c-8.6,12.091-11.327,37.607-12.041,44.182" transform="translate(-555.543 -350.923)" fill="none" stroke="#92d0ff" stroke-miterlimit="10" stroke-width="1"/></g><g transform="translate(287.961 156.708)"><path d="M534.289,152.458l-5.639,2.36a.912.912,0,0,0-.242,1.533l4.043,3.479a.912.912,0,0,0,1.475-.451l1.6-5.839A.912.912,0,0,0,534.289,152.458Z" transform="translate(-255.887 -152.385)" fill="none" stroke="#cfe0f5" stroke-miterlimit="10" stroke-width="1"/><path d="M317.646,218.186l1.654,5.885a.912.912,0,0,0,1.492.428l3.947-3.588a.912.912,0,0,0-.268-1.519l-5.6-2.3A.912.912,0,0,0,317.646,218.186Z" transform="translate(-281.691 -144.461)" fill="none" stroke="#cfe0f5" stroke-miterlimit="10" stroke-width="1"/><path d="M637.473,281.819l4.332-4.312a.912.912,0,0,0-.354-1.512l-5.056-1.7a.912.912,0,0,0-1.2.973l.723,6.01A.913.913,0,0,0,637.473,281.819Z" transform="translate(-242.756 -137.445)" fill="none" stroke="#cfe0f5" stroke-miterlimit="10" stroke-width="1"/><path d="M619.148,221.6l1.592,5.9a.913.913,0,0,0,1.489.445l3.984-3.546a.912.912,0,0,0-.253-1.522l-5.576-2.356A.913.913,0,0,0,619.148,221.6Z" transform="translate(-244.727 -144.04)" fill="none" stroke="#cfe0f5" stroke-miterlimit="10" stroke-width="1"/><rect width="3.495" height="3.494" transform="translate(353.007 67.585) rotate(-37.391)" fill="#cfe0f5"/><rect width="3.494" height="3.494" transform="matrix(0.999, -0.044, 0.044, 0.999, 327.109, 41.638)" fill="#cfe0f5"/><rect width="3.494" height="3.494" transform="matrix(0.932, -0.363, 0.363, 0.932, 102.914, 87.997)" fill="#cfe0f5"/><rect width="3.494" height="3.494" transform="translate(137.622 1.612) rotate(20.972)" fill="#cfe0f5"/><rect width="3.494" height="3.494" transform="matrix(0.999, -0.044, 0.044, 0.999, 0, 176.18)" fill="#cfe0f5"/></g></g></g></svg>