<svg xmlns="http://www.w3.org/2000/svg" xmlns:xlink="http://www.w3.org/1999/xlink" width="461.398" height="425" viewBox="0 0 461.398 425"><defs><linearGradient id="a" x1="0.5" x2="0" y2="0.975" gradientUnits="objectBoundingBox"><stop offset="0" stop-color="#75bafd"/><stop offset="1" stop-color="#4848c9"/></linearGradient><clipPath id="b"><rect width="461.239" height="283.82" fill="none"/></clipPath><clipPath id="c"><path d="M362.663,318.622l97.387-56.791,95.743,55.281L458.423,373.9Z" transform="translate(-362.663 -261.832)" fill="none"/></clipPath><linearGradient id="d" x1="174.016" y1="-29.687" x2="176.115" y2="-29.687" gradientUnits="objectBoundingBox"><stop offset="0" stop-color="#fff"/><stop offset="1" stop-color="#eee"/></linearGradient><linearGradient id="e" x1="-322.583" y1="649.995" x2="-320.586" y2="649.995" xlink:href="#d"/><linearGradient id="f" x1="-16.905" y1="-362.878" x2="-14.84" y2="-362.878" xlink:href="#d"/><linearGradient id="g" x1="146.228" y1="-140.985" x2="148.228" y2="-140.985" xlink:href="#d"/><linearGradient id="h" x1="104.819" y1="323.068" x2="108.737" y2="323.068" xlink:href="#d"/><linearGradient id="i" x1="-608.114" y1="35.468" x2="-605.556" y2="35.468" xlink:href="#d"/><linearGradient id="j" x1="175.577" y1="-49.055" x2="177.659" y2="-49.055" xlink:href="#d"/><linearGradient id="k" x1="-421.97" y1="472.464" x2="-420" y2="472.464" xlink:href="#d"/><linearGradient id="l" x1="-467.515" y1="294.781" x2="-465.455" y2="294.781" xlink:href="#d"/><linearGradient id="m" x1="185.887" y1="11.194" x2="188.054" y2="11.194" xlink:href="#d"/><linearGradient id="n" x1="-771.528" y1="-82.729" x2="-768.171" y2="-82.729" xlink:href="#d"/><linearGradient id="o" x1="-233.879" y1="563.382" x2="-231.662" y2="563.382" xlink:href="#d"/><linearGradient id="p" x1="-222.241" y1="517.236" x2="-219.854" y2="517.236" xlink:href="#d"/><linearGradient id="q" x1="-752.497" y1="-152.877" x2="-748.468" y2="-152.877" xlink:href="#d"/><linearGradient id="r" x1="-343.155" y1="-247.327" x2="-340.169" y2="-247.327" xlink:href="#d"/><linearGradient id="s" x1="-487.325" y1="303.015" x2="-485.267" y2="303.015" xlink:href="#d"/><linearGradient id="t" x1="-33.202" y1="-357.668" x2="-31.099" y2="-357.668" xlink:href="#d"/><linearGradient id="u" x1="-468.419" y1="289.03" x2="-466.359" y2="289.03" xlink:href="#d"/><linearGradient id="v" x1="60.725" y1="353.745" x2="64.489" y2="353.745" xlink:href="#d"/><linearGradient id="w" x1="-382.128" y1="630.704" x2="-380.178" y2="630.704" xlink:href="#d"/><linearGradient id="x" x1="-728.982" y1="-52.592" x2="-725.836" y2="-52.592" xlink:href="#d"/><linearGradient id="y" x1="-562.391" y1="112.388" x2="-560.002" y2="112.388" xlink:href="#d"/><linearGradient id="z" x1="-74.087" y1="-355.376" x2="-71.902" y2="-355.376" xlink:href="#d"/><linearGradient id="aa" x1="-633.035" y1="42.465" x2="-630.493" y2="42.465" xlink:href="#d"/><linearGradient id="ab" x1="-275.559" y1="583.421" x2="-273.432" y2="583.421" xlink:href="#d"/><linearGradient id="ac" x1="-283.858" y1="586.421" x2="-281.769" y2="586.421" xlink:href="#d"/><linearGradient id="ad" x1="-537.168" y1="168.94" x2="-534.954" y2="168.94" xlink:href="#d"/><linearGradient id="ae" x1="-327.562" y1="659.258" x2="-325.574" y2="659.258" xlink:href="#d"/><linearGradient id="af" x1="-213.033" y1="518.398" x2="-210.742" y2="518.398" xlink:href="#d"/><linearGradient id="ag" x1="131.904" y1="-198.72" x2="133.873" y2="-198.72" xlink:href="#d"/><linearGradient id="ah" x1="242.424" y1="231.823" x2="245.958" y2="231.823" xlink:href="#d"/><linearGradient id="ai" x1="66.875" y1="-341.66" x2="68.83" y2="-341.66" xlink:href="#d"/><linearGradient id="aj" x1="248.679" y1="226.336" x2="251.973" y2="226.336" xlink:href="#d"/><linearGradient id="ak" x1="-432.125" y1="434.909" x2="-430.138" y2="434.909" xlink:href="#d"/><linearGradient id="al" x1="-639.888" y1="37.639" x2="-637.23" y2="37.639" xlink:href="#d"/><linearGradient id="am" x1="-637.555" y1="17.907" x2="-634.87" y2="17.907" xlink:href="#d"/><linearGradient id="an" x1="-626.84" y1="-197.422" x2="-623.031" y2="-197.422" xlink:href="#d"/><linearGradient id="ao" x1="-6.795" y1="-355.964" x2="-4.751" y2="-355.964" xlink:href="#d"/><linearGradient id="ap" x1="255.436" y1="224.554" x2="258.809" y2="224.554" xlink:href="#d"/><linearGradient id="aq" x1="106.54" y1="-286.616" x2="108.49" y2="-286.616" xlink:href="#d"/><linearGradient id="ar" x1="-13.896" y1="-370.914" x2="-11.835" y2="-370.914" xlink:href="#d"/><linearGradient id="as" x1="84.389" y1="331.062" x2="88.272" y2="331.062" xlink:href="#d"/><linearGradient id="at" x1="230.912" y1="129.52" x2="233.475" y2="129.52" xlink:href="#d"/><linearGradient id="au" x1="200.748" y1="30.138" x2="202.956" y2="30.138" xlink:href="#d"/><linearGradient id="av" x1="-539.075" y1="161.027" x2="-536.833" y2="161.027" xlink:href="#d"/><linearGradient id="aw" x1="229.785" y1="137.462" x2="232.397" y2="137.462" xlink:href="#d"/><linearGradient id="ax" x1="-122.226" y1="445.347" x2="-119.406" y2="445.347" xlink:href="#d"/><linearGradient id="ay" x1="157.879" y1="-109.683" x2="159.9" y2="-109.683" xlink:href="#d"/><linearGradient id="az" x1="-735.402" y1="-73.762" x2="-732.052" y2="-73.762" xlink:href="#d"/><linearGradient id="ba" x1="-525.814" y1="187.719" x2="-523.601" y2="187.719" xlink:href="#d"/><linearGradient id="bb" x1="-250.015" y1="-291.779" x2="-247.342" y2="-291.779" xlink:href="#d"/><linearGradient id="bc" x1="-427.814" y1="517.594" x2="-425.849" y2="517.594" xlink:href="#d"/><linearGradient id="bd" x1="113.57" y1="-220.782" x2="115.53" y2="-220.782" xlink:href="#d"/><linearGradient id="be" x1="-249.316" y1="-278.822" x2="-246.623" y2="-278.822" xlink:href="#d"/><linearGradient id="bf" x1="-547.102" y1="168.577" x2="-544.878" y2="168.577" xlink:href="#d"/><linearGradient id="bg" x1="-665.16" y1="11.283" x2="-662.437" y2="11.283" xlink:href="#d"/><linearGradient id="bh" x1="131.891" y1="-186.926" x2="133.863" y2="-186.926" xlink:href="#d"/><linearGradient id="bi" x1="-435.774" y1="413.469" x2="-433.775" y2="413.469" xlink:href="#d"/><linearGradient id="bj" x1="-313.495" y1="-252.845" x2="-310.602" y2="-252.845" xlink:href="#d"/><linearGradient id="bk" x1="-278.318" y1="620.91" x2="-276.254" y2="620.91" xlink:href="#d"/><linearGradient id="bl" x1="131.966" y1="-189.243" x2="133.939" y2="-189.243" xlink:href="#d"/><linearGradient id="bm" x1="-771.355" y1="-100.41" x2="-767.723" y2="-100.41" xlink:href="#d"/><linearGradient id="bn" x1="-154.121" y1="453.954" x2="-151.439" y2="453.954" xlink:href="#d"/><linearGradient id="bo" x1="-791.645" y1="-157.859" x2="-787.635" y2="-157.859" xlink:href="#d"/><linearGradient id="bp" x1="-287.975" y1="603.576" x2="-285.876" y2="603.576" xlink:href="#d"/><linearGradient id="bq" x1="-191.141" y1="487.375" x2="-188.611" y2="487.375" xlink:href="#d"/><linearGradient id="br" x1="-553.362" y1="127.393" x2="-551.026" y2="127.393" xlink:href="#d"/><linearGradient id="bs" x1="-379.094" y1="599.804" x2="-377.145" y2="599.804" xlink:href="#d"/><linearGradient id="bt" x1="140.787" y1="-131.89" x2="142.787" y2="-131.89" xlink:href="#d"/><linearGradient id="bu" x1="42.634" y1="-355.908" x2="44.606" y2="-355.908" xlink:href="#d"/><linearGradient id="bv" x1="241.932" y1="238.406" x2="245.473" y2="238.406" xlink:href="#d"/><linearGradient id="bw" x1="-390.418" y1="-246.572" x2="-387.295" y2="-246.572" xlink:href="#d"/><linearGradient id="bx" x1="58.663" y1="-353.964" x2="60.625" y2="-353.964" xlink:href="#d"/><linearGradient id="by" x1="-195.405" y1="485.974" x2="-192.9" y2="485.974" xlink:href="#d"/><linearGradient id="bz" x1="-672.675" y1="-182.229" x2="-668.778" y2="-182.229" xlink:href="#d"/><linearGradient id="ca" x1="-243.893" y1="559.063" x2="-241.651" y2="559.063" xlink:href="#d"/><linearGradient id="cb" x1="-545.958" y1="153.401" x2="-543.698" y2="153.401" xlink:href="#d"/><linearGradient id="cc" x1="-267.082" y1="567.023" x2="-264.956" y2="567.023" xlink:href="#d"/><linearGradient id="cd" x1="-242.844" y1="566.238" x2="-240.638" y2="566.238" xlink:href="#d"/><linearGradient id="ce" x1="-332.288" y1="-253.674" x2="-329.329" y2="-253.674" xlink:href="#d"/><linearGradient id="cf" x1="-301.203" y1="632.249" x2="-299.146" y2="632.249" xlink:href="#d"/><linearGradient id="cg" x1="-272.59" y1="582.653" x2="-270.407" y2="582.653" xlink:href="#d"/><linearGradient id="ch" x1="-593.769" y1="84.312" x2="-591.371" y2="84.312" xlink:href="#d"/><linearGradient id="ci" x1="252.441" y1="225.436" x2="255.659" y2="225.436" xlink:href="#d"/><linearGradient id="cj" x1="-443.588" y1="394.713" x2="-441.573" y2="394.713" xlink:href="#d"/><linearGradient id="ck" x1="-194.373" y1="494.757" x2="-191.84" y2="494.757" xlink:href="#d"/><linearGradient id="cl" x1="-242.35" y1="-297.229" x2="-239.713" y2="-297.229" xlink:href="#d"/><linearGradient id="cm" x1="-491.105" y1="227.485" x2="-488.958" y2="227.485" xlink:href="#d"/><linearGradient id="cn" x1="-529.565" y1="165.991" x2="-527.323" y2="165.991" xlink:href="#d"/><linearGradient id="co" x1="8.974" y1="-356.416" x2="10.987" y2="-356.416" xlink:href="#d"/><linearGradient id="cp" x1="243.668" y1="252.628" x2="247.291" y2="252.628" xlink:href="#d"/><linearGradient id="cq" x1="-212.472" y1="534.275" x2="-210.182" y2="534.275" xlink:href="#d"/><linearGradient id="cr" x1="-323.186" y1="662.849" x2="-321.189" y2="662.849" xlink:href="#d"/><linearGradient id="cs" x1="-69.485" y1="396.514" x2="-66.33" y2="396.514" xlink:href="#d"/><linearGradient id="ct" x1="239.198" y1="254.228" x2="242.927" y2="254.228" xlink:href="#d"/><linearGradient id="cu" x1="-391.967" y1="541.643" x2="-390.014" y2="541.643" xlink:href="#d"/><linearGradient id="cv" x1="220.254" y1="103.63" x2="222.668" y2="103.63" xlink:href="#d"/><linearGradient id="cw" x1="148.043" y1="-140.27" x2="150.045" y2="-140.27" xlink:href="#d"/><linearGradient id="cx" x1="-124.656" y1="448.924" x2="-121.9" y2="448.924" xlink:href="#d"/><linearGradient id="cy" x1="7.293" y1="-369.937" x2="9.321" y2="-369.937" xlink:href="#d"/><linearGradient id="cz" x1="-701.364" y1="-53.476" x2="-698.26" y2="-53.476" xlink:href="#d"/><linearGradient id="da" x1="-742.72" y1="-82.086" x2="-739.315" y2="-82.086" xlink:href="#d"/><linearGradient id="db" x1="-110.147" y1="441.977" x2="-107.324" y2="441.977" xlink:href="#d"/><linearGradient id="dc" x1="182.661" y1="299.969" x2="186.671" y2="299.969" xlink:href="#d"/><linearGradient id="dd" x1="236.637" y1="137.521" x2="239.264" y2="137.521" xlink:href="#d"/><linearGradient id="de" x1="199.719" y1="54.619" x2="201.969" y2="54.619" xlink:href="#d"/><linearGradient id="df" x1="220.686" y1="116.35" x2="223.167" y2="116.35" xlink:href="#d"/><linearGradient id="dg" x1="240.505" y1="141.502" x2="243.076" y2="141.502" xlink:href="#d"/><linearGradient id="dh" x1="54.795" y1="-363.826" x2="56.764" y2="-363.826" xlink:href="#d"/><linearGradient id="di" x1="229.906" y1="109.05" x2="232.353" y2="109.05" xlink:href="#d"/><linearGradient id="dj" x1="2.338" y1="-363.812" x2="4.362" y2="-363.812" xlink:href="#d"/><linearGradient id="dk" x1="-24.905" y1="-368.649" x2="-22.812" y2="-368.649" xlink:href="#d"/><linearGradient id="dl" x1="221.507" y1="285.896" x2="225.451" y2="285.896" xlink:href="#d"/><linearGradient id="dm" x1="251.149" y1="186.859" x2="254.168" y2="186.859" xlink:href="#d"/><linearGradient id="dn" x1="130.022" y1="-178.05" x2="131.996" y2="-178.05" xlink:href="#d"/><linearGradient id="do" x1="253.92" y1="180.279" x2="256.815" y2="180.279" xlink:href="#d"/><linearGradient id="dp" x1="-11.909" y1="377.768" x2="-8.468" y2="377.768" xlink:href="#d"/><linearGradient id="dq" x1="-180.379" y1="476.343" x2="-177.869" y2="476.343" xlink:href="#d"/><linearGradient id="dr" x1="-82.843" y1="418.305" x2="-79.862" y2="418.305" xlink:href="#d"/><linearGradient id="ds" x1="-241.337" y1="-288.67" x2="-238.653" y2="-288.67" xlink:href="#d"/><linearGradient id="dt" x1="135.718" y1="-154.126" x2="137.704" y2="-154.126" xlink:href="#d"/><linearGradient id="du" x1="200.571" y1="32.723" x2="202.772" y2="32.723" xlink:href="#d"/><linearGradient id="dv" x1="-18.135" y1="-365.24" x2="-16.055" y2="-365.24" xlink:href="#d"/><linearGradient id="dw" x1="-578.489" y1="122.408" x2="-576.169" y2="122.408" xlink:href="#d"/><linearGradient id="dx" x1="-124.46" y1="435.821" x2="-121.61" y2="435.821" xlink:href="#d"/><linearGradient id="dy" x1="190.297" y1="6.044" x2="192.455" y2="6.044" xlink:href="#d"/><linearGradient id="dz" x1="-794.973" y1="-134.164" x2="-791.109" y2="-134.164" xlink:href="#d"/><linearGradient id="ea" x1="-149.921" y1="449.681" x2="-147.285" y2="449.681" xlink:href="#d"/><linearGradient id="eb" x1="-388.943" y1="-254.122" x2="-385.827" y2="-254.122" xlink:href="#d"/><linearGradient id="ec" x1="260.949" y1="194.531" x2="263.978" y2="194.531" xlink:href="#d"/><linearGradient id="ed" x1="254.294" y1="219.425" x2="257.441" y2="219.425" xlink:href="#d"/><linearGradient id="ee" x1="80.174" y1="-300.006" x2="82.123" y2="-300.006" xlink:href="#d"/><linearGradient id="ef" x1="-300.894" y1="-269.061" x2="-298.065" y2="-269.061" xlink:href="#d"/><linearGradient id="eg" x1="-473.892" y1="-231.334" x2="-470.54" y2="-231.334" xlink:href="#d"/><linearGradient id="eh" x1="-798.472" y1="-141.887" x2="-794.477" y2="-141.887" xlink:href="#d"/><linearGradient id="ei" x1="-237.151" y1="-294.688" x2="-234.532" y2="-294.688" xlink:href="#d"/><linearGradient id="ej" x1="-608.296" y1="31.196" x2="-605.728" y2="31.196" xlink:href="#d"/><linearGradient id="ek" x1="-624.894" y1="26.768" x2="-622.202" y2="26.768" xlink:href="#d"/><linearGradient id="el" x1="-474.907" y1="337.505" x2="-472.865" y2="337.505" xlink:href="#d"/><linearGradient id="em" x1="-164.416" y1="474.632" x2="-161.744" y2="474.632" xlink:href="#d"/><linearGradient id="en" x1="-118.54" y1="-337.322" x2="-116.243" y2="-337.322" xlink:href="#d"/><linearGradient id="eo" x1="46.799" y1="-354.979" x2="48.771" y2="-354.979" xlink:href="#d"/><linearGradient id="ep" x1="2.274" y1="-369.513" x2="4.303" y2="-369.513" xlink:href="#d"/><linearGradient id="eq" x1="-43.293" y1="-367.922" x2="-41.163" y2="-367.922" xlink:href="#d"/><linearGradient id="er" x1="-640.634" y1="16.6" x2="-637.864" y2="16.6" xlink:href="#d"/><linearGradient id="es" x1="-447.13" y1="379.736" x2="-445.123" y2="379.736" xlink:href="#d"/><linearGradient id="et" x1="-606.548" y1="45.655" x2="-604.028" y2="45.655" xlink:href="#d"/><linearGradient id="eu" x1="-380.611" y1="584.88" x2="-378.661" y2="584.88" xlink:href="#d"/><linearGradient id="ev" x1="-313.288" y1="633.512" x2="-311.259" y2="633.512" xlink:href="#d"/><linearGradient id="ew" x1="-282.861" y1="-273.136" x2="-280.081" y2="-273.136" xlink:href="#d"/><linearGradient id="ex" x1="-283.816" y1="617.256" x2="-281.772" y2="617.256" xlink:href="#d"/><linearGradient id="ey" x1="-216.354" y1="-292.295" x2="-213.731" y2="-292.295" xlink:href="#d"/><linearGradient id="ez" x1="246.939" y1="204.459" x2="250.064" y2="204.459" xlink:href="#d"/><linearGradient id="fa" x1="165.741" y1="-74.987" x2="167.785" y2="-74.987" xlink:href="#d"/><linearGradient id="fb" x1="-498.086" y1="-231.147" x2="-494.674" y2="-231.147" xlink:href="#d"/><linearGradient id="fc" x1="115.681" y1="-263.756" x2="117.633" y2="-263.756" xlink:href="#d"/><linearGradient id="fd" x1="194.674" y1="35.118" x2="196.879" y2="35.118" xlink:href="#d"/><linearGradient id="fe" x1="221.346" y1="267.424" x2="225.18" y2="267.424" xlink:href="#d"/><linearGradient id="ff" x1="-83.059" y1="423.139" x2="-80.017" y2="423.139" xlink:href="#d"/><linearGradient id="fg" x1="-590.476" y1="74.651" x2="-588.053" y2="74.651" xlink:href="#d"/><linearGradient id="fh" x1="111.692" y1="-244.964" x2="113.646" y2="-244.964" xlink:href="#d"/><linearGradient id="fi" x1="108.239" y1="-243.652" x2="110.192" y2="-243.652" xlink:href="#d"/><linearGradient id="fj" x1="-603.582" y1="81.811" x2="-601.134" y2="81.811" xlink:href="#d"/><linearGradient id="fk" x1="239.581" y1="169.483" x2="242.345" y2="169.483" xlink:href="#d"/><linearGradient id="fl" x1="252.172" y1="246.428" x2="255.739" y2="246.428" xlink:href="#d"/><linearGradient id="fm" x1="-503.993" y1="194.981" x2="-501.79" y2="194.981" xlink:href="#d"/><linearGradient id="fn" x1="-448.576" y1="335.049" x2="-446.537" y2="335.049" xlink:href="#d"/><linearGradient id="fo" x1="-47.876" y1="403.219" x2="-44.604" y2="403.219" xlink:href="#d"/><linearGradient id="fp" x1="-733.432" y1="-71.648" x2="-730.007" y2="-71.648" xlink:href="#d"/><linearGradient id="fq" x1="-98.439" y1="-341.683" x2="-96.205" y2="-341.683" xlink:href="#d"/><linearGradient id="fr" x1="-274.848" y1="-284.279" x2="-272.092" y2="-284.279" xlink:href="#d"/><linearGradient id="fs" x1="-346.771" y1="642.514" x2="-344.816" y2="642.514" xlink:href="#d"/><linearGradient id="ft" x1="-515.812" y1="242.764" x2="-513.689" y2="242.764" xlink:href="#d"/><linearGradient id="fu" x1="-85.667" y1="-327.42" x2="-83.445" y2="-327.42" xlink:href="#d"/><linearGradient id="fv" x1="-245.889" y1="-274.932" x2="-243.206" y2="-274.932" xlink:href="#d"/><linearGradient id="fw" x1="-80.627" y1="419.978" x2="-77.504" y2="419.978" xlink:href="#d"/><linearGradient id="fx" x1="185.134" y1="-12.08" x2="187.264" y2="-12.08" xlink:href="#d"/><linearGradient id="fy" x1="149.85" y1="-141.16" x2="151.846" y2="-141.16" xlink:href="#d"/><linearGradient id="fz" x1="127.233" y1="-202.891" x2="129.203" y2="-202.891" xlink:href="#d"/><linearGradient id="ga" x1="-614.393" y1="41.797" x2="-611.779" y2="41.797" xlink:href="#d"/><linearGradient id="gb" x1="-422.776" y1="425.489" x2="-420.781" y2="425.489" xlink:href="#d"/><linearGradient id="gc" x1="-755.017" y1="-88.422" x2="-751.381" y2="-88.422" xlink:href="#d"/><linearGradient id="gd" x1="224.314" y1="109.232" x2="226.734" y2="109.232" xlink:href="#d"/><linearGradient id="ge" x1="-685.223" y1="-174.866" x2="-681.281" y2="-174.866" xlink:href="#d"/><linearGradient id="gf" x1="-550.889" y1="162.139" x2="-548.645" y2="162.139" xlink:href="#d"/><linearGradient id="gg" x1="-53.176" y1="406.031" x2="-49.951" y2="406.031" xlink:href="#d"/><linearGradient id="gh" x1="61.45" y1="-353.185" x2="63.407" y2="-353.185" xlink:href="#d"/><linearGradient id="gi" x1="-653.337" y1="-12.201" x2="-650.464" y2="-12.201" xlink:href="#d"/><linearGradient id="gj" x1="-650.605" y1="-183.078" x2="-646.729" y2="-183.078" xlink:href="#d"/><linearGradient id="gk" x1="-173.418" y1="-310.091" x2="-170.933" y2="-310.091" xlink:href="#d"/><linearGradient id="gl" x1="-273.404" y1="574.749" x2="-271.28" y2="574.749" xlink:href="#d"/><linearGradient id="gm" x1="31.803" y1="-358.785" x2="33.789" y2="-358.785" xlink:href="#d"/><linearGradient id="gn" x1="-787.847" y1="-158.747" x2="-783.832" y2="-158.747" xlink:href="#d"/><linearGradient id="go" x1="225.789" y1="92.813" x2="228.178" y2="92.813" xlink:href="#d"/><linearGradient id="gp" x1="218.632" y1="80.906" x2="220.964" y2="80.906" xlink:href="#d"/><linearGradient id="gq" x1="-753.125" y1="-74.529" x2="-749.726" y2="-74.529" xlink:href="#d"/><linearGradient id="gr" x1="-28.668" y1="-355.826" x2="-26.572" y2="-355.826" xlink:href="#d"/><linearGradient id="gs" x1="-543.503" y1="114.79" x2="-541.155" y2="114.79" xlink:href="#d"/><linearGradient id="gt" x1="-759.233" y1="-157.827" x2="-755.212" y2="-157.827" xlink:href="#d"/><linearGradient id="gu" x1="133.671" y1="311.7" x2="137.667" y2="311.7" xlink:href="#d"/></defs><g transform="translate(-168.602 -818)"><circle cx="192" cy="192" r="192" transform="translate(208 818)" opacity="0.747" fill="url(#a)"/><g transform="translate(168.602 899.567)" clip-path="url(#b)"><g transform="translate(-323.441 -247.499)"><g transform="translate(323.441 247.499)"><g style="isolation:isolate"><g transform="translate(125.771 72.614)"><path d="M482.754,260.024l-.312,110.035L345.134,450.077l.312-110.036Z" transform="translate(-345.134 -260.024)" fill="#ddb176"/></g><g transform="translate(0 80.018)"><path d="M449.523,333.915l-.312,110.036L323.441,371.336l.312-110.035Z" transform="translate(-323.441 -261.301)" fill="#c19564"/></g><g transform="translate(0.312)"><path d="M586.573,320.113,449.265,400.131,323.495,327.517,460.8,247.5Z" transform="translate(-323.495 -247.499)" fill="#fcd9a9"/></g></g><g transform="translate(51.676 29.962)"><path d="M470.538,252.667,332.354,332.448v25.686l14.566,8.409V340.649l138-79.677Z" transform="translate(-332.354 -252.667)" fill="#c58c67" opacity="0.7"/><path d="M335.224,333.982l137.949-79.647-1.794-1.036-137.95,79.647Z" transform="translate(-327.198 -249.638)" fill="#a47f65" opacity="0.2" style="mix-blend-mode:multiply;isolation:isolate"/><g transform="translate(89.736 57.664)"><path d="M410.481,295.719l-52.075,30.065v-33.1l52.075-30.066Z" transform="translate(-297.103 -262.614)" fill="#e4e4e4"/><path d="M398.793,282.764l-50.961,29.423v-4.464L398.793,278.3Zm-7.067,8.986L354.9,313.01v1.716l36.827-21.26Zm0,5.577L354.9,318.594v1.716l36.827-21.26Zm0,5.583L354.9,324.171v1.716l36.827-21.26Zm0,5.577L354.9,329.748v1.716l36.827-21.26Zm0,5.583L354.9,335.331v1.716l36.827-21.26Z" transform="translate(-347.832 -187.356)" fill="#363633" opacity="0.4"/><path d="M396.613,264.166l-36.827,21.26v1.716l36.827-21.26Zm0,5.577L359.786,291v1.716l36.827-21.26Zm0,5.577-36.827,21.26V298.3l36.827-21.266Zm0,5.583-36.827,21.26v1.716l36.827-21.26Zm0,5.577-36.827,21.26v1.716l36.827-21.26Z" transform="translate(-290.481 -255.166)" fill="#363633" opacity="0.4"/></g></g><path d="M332.354,266.428v25.685l14.567,8.41v-25.9Z" transform="translate(-280.679 -156.686)" fill="#c58c67" opacity="0.5" style="mix-blend-mode:multiply;isolation:isolate"/><g transform="translate(134.277 136.259)"><path d="M353.5,277.932c-1.02,2.36-3.281,4.273-5.055,4.273s-2.371-1.913-1.351-4.273,3.281-4.267,5.05-4.267S354.524,275.572,353.5,277.932Z" transform="translate(-346.601 -258.226)" fill="#4c4b44"/><path d="M355.809,276.6c-1.02,2.36-3.281,4.273-5.05,4.273s-2.377-1.913-1.356-4.273,3.287-4.267,5.055-4.267S356.829,274.246,355.809,276.6Z" transform="translate(-335.537 -264.617)" fill="#4c4b44"/><path d="M358.111,275.269c-1.02,2.36-3.281,4.267-5.05,4.267s-2.371-1.908-1.351-4.267S354.992,271,356.76,271,359.132,272.909,358.111,275.269Z" transform="translate(-324.47 -271.002)" fill="#4c4b44"/></g></g><g transform="translate(513.811 272.151)"><path d="M379.463,261.538l39.433,3.679,97.01,56.919-39.434-3.68Z" transform="translate(-245.037 -204.798)" fill="#edc895"/><path d="M480.316,308.4,458.05,251.751l-99.644,58.441,22.267,56.651Z" transform="translate(-346.061 -251.751)" fill="#e3bf8f"/><g transform="translate(33.427 56.491)"><g style="isolation:isolate"><g transform="translate(99.11 57.221)"><path d="M480.117,271.365l-.246,86.711L379.137,416.821l.246-86.71Z" transform="translate(-379.137 -271.365)" fill="#ddb176"/></g><g transform="translate(0 58.745)"><path d="M461.4,328.849l-.246,86.711-99.11-57.221.246-86.711Z" transform="translate(-362.042 -271.628)" fill="#c19564"/></g><g transform="translate(0.246)"><path d="M561.929,318.717,461.2,377.462l-99.11-57.221L462.819,261.5Z" transform="translate(-362.085 -261.495)" fill="#fcd9a9"/><path d="M362.663,318.622l97.387-56.791,95.743,55.281L458.423,373.9Z" transform="translate(-359.309 -259.882)" fill="#deb277"/><path d="M380.808,348.587V261.832l95.743,55.281L379.18,373.9Z" transform="translate(-280.066 -259.882)" fill="#be9c70"/></g></g><g transform="translate(111.435 69.052)"><path d="M429.344,299.493l-41.036,23.693V297.1l41.036-23.693Z" transform="translate(-347.466 -273.406)" fill="#e5e5e5"/><path d="M421.423,288.542l-40.16,23.185v-3.519l40.16-23.185Zm-5.572,7.085-29.017,16.749v1.357l29.017-16.755Zm0,4.395-29.017,16.755v1.351l29.017-16.755Zm0,4.395-29.017,16.755v1.357l29.017-16.755Zm0,4.4-29.017,16.749v1.357l29.017-16.755Zm0,4.395-29.017,16.755v1.351l29.017-16.755Z" transform="translate(-381.263 -217.67)" fill="#363633" opacity="0.4"/><path d="M418.413,274.629,389.4,291.384v1.351l29.017-16.755Zm0,4.395L389.4,295.779v1.351l29.017-16.755Zm0,4.395L389.4,300.173v1.357l29.017-16.755Zm0,4.4L389.4,304.574v1.351l29.017-16.755Zm0,4.395L389.4,308.968v1.351l29.017-16.749Z" transform="translate(-342.244 -267.537)" fill="#363633" opacity="0.4"/></g></g><path d="M513.716,321l-33.8-49.634L379.179,330.11l33.8,49.633Z" transform="translate(-246.397 -157.652)" fill="#edc895"/><path d="M356.277,321.259l33.8-49.634,99.138,57.237-33.8,49.633Z" transform="translate(-356.277 -156.405)" fill="#e3bf8f"/><path d="M375.581,290.067l20.865,12.046,22.488-13.273L398.074,276.8Z" transform="translate(-263.66 -131.6)" fill="#edc895"/><g transform="translate(37.027 58.441)"><g clip-path="url(#c)"><path d="M533.7,311.886a12.039,12.039,0,0,0-1.612-1c1.27-1.739,1.994-3.67,1.119-4.412-1.565-1.328-4.632.916-6.094,3.368a4.453,4.453,0,0,0-.081-.945c1.258-1.734,1.983-3.658,1.107-4.4-.168-.139-.4-.093-.591-.156a1.776,1.776,0,0,0-.412-1.229c-1.125-1.27-3.9.389-5.774,2.371-.081-.093-.11-.238-.209-.313,1.229-1.374,1.867-2.957.91-4.035-1.3-1.467-4.87.98-6.6,3.322-.029-.168-.18-.273-.255-.423a3.466,3.466,0,0,0,.064-.585c1.363-.446,2.36-1.125,2.29-1.96-.093-1.078-1.218-1.71-2.632-2,.423-1.241.417-2.4-.516-3.026-1.386-.922-3.641,1.316-4.974,3.67a3.785,3.785,0,0,0-.563.406,2.286,2.286,0,0,0-.614-.168,8.823,8.823,0,0,0,1.7-2.968,1.827,1.827,0,0,0,.406-1.484,1.342,1.342,0,0,0-.621-.829c-.133-.2-.185-.452-.406-.6a1.566,1.566,0,0,0-1.531.035,10.852,10.852,0,0,0-2.557.18,1.774,1.774,0,0,0,.041-.765c-.157-.812-1.026-1.235-2.18-1.368a2.246,2.246,0,0,0-.325-2.6c-1.42-1.322-4.725,1.368-6.256,3.844a4.758,4.758,0,0,0-.614-.133,3.384,3.384,0,0,1,.232-.446,1.127,1.127,0,0,0,.846-.185,1.89,1.89,0,0,0,.591-1.629c.754-1.287,1.026-2.592.128-3.426a1.588,1.588,0,0,0-1.594-.243c-1.478-1.994-3.687-3.461-5.114-2.261a15.562,15.562,0,0,0-1.948-1.635c.615-1.044.881-2.018.377-2.563-1.5-1.618-5.206.643-6.818,3.113a4.029,4.029,0,0,0-.406-.174c.041-.1.116-.2.151-.3,1.658-1.647,2.841-3.7,2-4.609-.945-1.02-2.748-.481-4.366.649a5.853,5.853,0,0,0-3.049-2.081,1.193,1.193,0,0,0,.238-1.009c-.452-1.583-2.957-1.722-5.27-1.1a1.168,1.168,0,0,0,.2-.87c-.215-.742-.939-1.107-1.815-1.3a8.531,8.531,0,0,0-4.9-3.571,3.224,3.224,0,0,0-2.052-.406c-.394.017-1.542-1.038-1.989-1.229a7.007,7.007,0,0,1-1.907-.789c-1.1-.922-1.693-2.145-3.287-2.51a5.186,5.186,0,0,0-1.89.046c-1.194.174-2.018.075-3,.887a8.528,8.528,0,0,0-2.2,3.1,9.753,9.753,0,0,0-2.006.939c.557-1.664.626-3.212-.232-3.658-2.226-1.165-5.456,3.363-5.531,6.354a1.844,1.844,0,0,0-.643.91c-2.771-1.113-7.073-.933-7.27,1.484-.116,1.432,2.151,2.261,4.5,2.487a3.917,3.917,0,0,0,.678,1.444,4.388,4.388,0,0,0-1.449-.238c-1.212-1.42-2.609-2.377-3.548-1.716-1.165-.377-2.185-.423-2.609.2-.551.812-.209,1.867.527,2.887a1.716,1.716,0,0,0-.417.6c-.18-.069-.348-.128-.527-.2-1.322-1.792-3.026-3.16-4.018-2.522-.759.487-.916,1.461-.823,2.661a2.259,2.259,0,0,0,.7,2.394c-.11-.012-.232-.058-.336-.064-2.354-1.745-6.8-2.882-7.491-1.264-.487,1.148.447,2.435,1.873,3.421a6.378,6.378,0,0,0,.388.545,2.681,2.681,0,0,0-2.1-.116c-1.994-1.681-4.661-2.9-5.519-1.8-.98,1.247.215,3.281,1.954,4.783a9.413,9.413,0,0,0-1.861,2.574,1.178,1.178,0,0,0-.162.452c-.1.1-.2.2-.3.3-.11-.087-.221-.186-.331-.261,1.142-1.432,1.687-3.038.678-4.058-1.571-1.583-5.867,2.029-7.015,4.644-.933.139-1.722.481-1.977,1.322a1.588,1.588,0,0,0,.475,1.432c-2.4-1.832-6.864-2.789-7.6-.365-.325,1.084.858,2.134,2.476,2.887-.133.07-.261.139-.383.215-2.1-1.473-9.143.957-8.731,3.137a11.161,11.161,0,0,0-4.325,3.258c-1.159-1.385-2.6-2.215-3.792-1.449-1.362.876-.313,3.716,1.217,5.891-2.452-1.038-7.148-.2-7.925,1.954-2.261-.7-4.7-.585-5.177,1.125-.255.922.574,1.792,1.815,2.47a2.164,2.164,0,0,0-.4.435c-2.852-1-7.5-.47-7.461,2.064.029,1.513,2.621,2.151,5.119,2.076.151,1.438,2.655,2.052,5.09,1.971-.464.017.087,2.98.29,3.3.794,1.293,2.127.73,3.392.985,1.339.267,1.664,1.56,2.8,1.861a1.772,1.772,0,0,0,1.716-.806,12.841,12.841,0,0,0,1.531.829c-.528,1.786,3.055,3.658,5.884,4.11a2.027,2.027,0,0,0-.609,2.006c.452,1.415,3.009,1.27,5.334.516a1.773,1.773,0,0,0-.267,1.461c.272.852,1.333,1.119,2.626,1.061A7.372,7.372,0,0,0,399.543,338c.046.145.018.307.11.452.557.852,1.9.7,3.339.122a7.141,7.141,0,0,0,1.623,1.4c.046.151.012.313.1.452.58.887,2,.69,3.508.052-.319,1.165-.325,2.168.313,2.557a2.184,2.184,0,0,0,2.313-.249,1.9,1.9,0,0,0-.435,1.664c.394,1.42,2.928,1.391,5.276.742a1.646,1.646,0,0,0-.2,1.235c.18.661.887.968,1.774,1.09a8.1,8.1,0,0,0,5.838,2.731c1.7,1.432,4.238,2.435,5.8,1.872-1.014,1.618-1.589,3.392-.441,4.412,1.583,1.409,5.282-2.018,6.488-4.661.238-.093.446-.2.667-.3A7.873,7.873,0,0,1,435.2,353c-1.849,1.739-3.1,4.221-1.664,5.5a1.41,1.41,0,0,0,1.159.267c.876,1.229,3.241,1.032,5.351.116-.493.563-.748,1.125-.539,1.618.661,1.565,3.3,1.345,5.566.377a11.807,11.807,0,0,0,.852,1.316,1.434,1.434,0,0,0,.174.493c.081.1.267.041.371.116,1.478,1.664,3.3,2.887,4.232,2.145.22-.18.22-.487.319-.742,1.542,1.965,3.711,3.548,4.754,2.713.829-.661.719-1.919.2-3.229.73.383,1.409.545,1.855.186.238-.186.238-.51.342-.783,1.542,1.983,3.687,3.595,4.731,2.76.87-.7.748-2.029.157-3.409,1.623.168,3.844-1.594,5.078-3.577,1.16-.023,2.545-.928,3.8-2.162a9.751,9.751,0,0,0,1.606-2.91c.151-.046.336-.023.446-.134.093-.081.093-.209.157-.307,1.71,1.8,3.96,3.189,4.916,2.284,1.165-1.1.244-3.322-1.293-5.067a7.013,7.013,0,0,0,1.194-2.081,15.065,15.065,0,0,0,1.571-1.786c.128.145.215.319.354.458-1.5,1.774-2.493,3.884-1.577,4.708,1.513,1.374,4.615-.742,6.169-3.125.087-.058.191-.064.273-.139a1.4,1.4,0,0,0,.336-1.078,2.942,2.942,0,0,0,.185-1.5,1.872,1.872,0,0,0,1.368-.4c1.617,1.879,3.9,3.218,5.235,1.907.8-.789.272-2.267-.765-3.7,2.337,1.89,8.424-3.624,7.027-6.389,1.571,1.67,3.629,2.742,4.882,1.548a1.8,1.8,0,0,0,.209-1.9,5.827,5.827,0,0,0,3.5-1.809,2.224,2.224,0,0,0,2.511-.447c.5-.574.226-1.438-.273-2.348a4.775,4.775,0,0,0,1.8-.446c1.78,1.89,4.319,3.212,5.6,1.728.69-.8.151-2.116-.87-3.386,2.284.22,5.937-2.916,6.337-5.363a3.782,3.782,0,0,0,1.293-.406c1.531,1.542,3.467,2.464,4.667,1.328a1.9,1.9,0,0,0,.174-2.093c2.568,1.038,7.583-4.331,6.18-6.882,2.081,1.444,4.742,2.157,5.7.51C542.09,315.353,536.3,311.631,533.7,311.886Z" transform="translate(-354.34 -246.44)" fill="#e8e8e8"/><g transform="translate(13.872 13.168)"><path d="M373.7,279.864c1.368,2.563,9.763-2.029,8.633-4.3C380.853,272.565,371.977,276.641,373.7,279.864Z" transform="translate(-324.65 -214.141)" fill="url(#d)"/><path d="M389.1,274.456c.672-2.829-8.656-4.94-9.323-2.487C378.907,275.192,388.259,278.01,389.1,274.456Z" transform="translate(-294.702 -231.546)" fill="url(#e)"/><path d="M375.7,272.953c-1.061,2.708,7.885,6.1,8.882,3.768C385.9,273.654,377.036,269.549,375.7,272.953Z" transform="translate(-314.398 -227.799)" fill="url(#f)"/><path d="M377.468,271.392c.881,2.771,9.966-.226,9.27-2.667C385.823,265.513,376.355,267.913,377.468,271.392Z" transform="translate(-305.942 -249.168)" fill="url(#g)"/><path d="M371.232,281.7c2.876-.435,1.351-9.879-1.171-9.578C366.745,272.519,367.62,282.248,371.232,281.7Z" transform="translate(-350.969 -225.65)" fill="url(#h)"/><path d="M387.225,278.831c-2.261-1.832-8.2,5.664-6.273,7.328C383.48,288.339,390.066,281.127,387.225,278.831Z" transform="translate(-290.613 -194.816)" fill="url(#i)"/><path d="M379.133,269.706c1.31,2.6,9.81-1.792,8.737-4.1C386.461,262.581,377.492,266.448,379.133,269.706Z" transform="translate(-298.476 -262.139)" fill="url(#j)"/><path d="M389.622,279.181c-.6-2.847-9.937-.789-9.491,1.71C380.71,284.179,390.375,282.753,389.622,279.181Z" transform="translate(-292.807 -198.373)" fill="url(#k)"/><path d="M385.565,277.918c-1.217-2.638-9.867,1.438-8.876,3.78C377.987,284.776,387.089,281.24,385.565,277.918Z" transform="translate(-309.627 -201.938)" fill="url(#l)"/><path d="M371.385,281.451c1.595,2.435,9.549-2.87,8.227-5.044C377.879,273.554,369.391,278.4,371.385,281.451Z" transform="translate(-336.136 -209.234)" fill="url(#m)"/><path d="M394.261,271c-2.76-.916-5.7,8.181-3.322,9.062C394.076,281.217,397.723,272.155,394.261,271Z" transform="translate(-245.076 -231.344)" fill="url(#n)"/><path d="M384.774,271.835c1.554-2.452-6.569-7.5-8-5.4C374.9,269.2,382.815,274.92,384.774,271.835Z" transform="translate(-310.205 -255.322)" fill="url(#o)"/><path d="M395.594,281.275c1.9-2.2-5.4-8.383-7.119-6.517C386.213,277.217,393.205,284.035,395.594,281.275Z" transform="translate(-254.833 -214.642)" fill="url(#p)"/><path d="M376.841,271.172c-2.91.064-2.6,9.624-.064,9.647C380.117,280.849,380.488,271.091,376.841,271.172Z" transform="translate(-318.476 -230.188)" fill="url(#q)"/><path d="M369.952,271.464c-2.51,1.472,2.406,9.676,4.638,8.459C377.524,278.328,373.1,269.62,369.952,271.464Z" transform="translate(-344.906 -230.01)" fill="url(#r)"/><path d="M396.152,274.889c-1.206-2.65-9.867,1.4-8.888,3.751C388.551,281.719,397.665,278.211,396.152,274.889Z" transform="translate(-258.881 -216.512)" fill="url(#s)"/><path d="M377.474,275.867c-1.211,2.644,7.514,6.551,8.65,4.279C387.614,277.154,379,272.551,377.474,275.867Z" transform="translate(-306.03 -213.187)" fill="url(#t)"/><path d="M386.077,280.08c-1.217-2.644-9.867,1.444-8.876,3.786C378.506,286.939,387.6,283.4,386.077,280.08Z" transform="translate(-307.166 -191.572)" fill="url(#u)"/><path d="M381.854,278.277c2.835-.649.6-9.949-1.9-9.456C376.683,269.464,378.3,279.1,381.854,278.277Z" transform="translate(-302.084 -241.559)" fill="url(#v)"/><path d="M394.8,275.332c.023-2.91-9.543-2.887-9.641-.348C385.032,278.323,394.772,278.984,394.8,275.332Z" transform="translate(-268.61 -220.879)" fill="url(#w)"/><path d="M388.618,271.658c-2.673-1.142-6.343,7.693-4.035,8.76C387.609,281.827,391.974,273.09,388.618,271.658Z" transform="translate(-274.874 -228.343)" fill="url(#x)"/><path d="M379.539,268.121c-2.041-2.064-8.777,4.725-7.05,6.586C374.762,277.154,382.107,270.718,379.539,268.121Z" transform="translate(-330.74 -246.68)" fill="url(#y)"/><path d="M383.744,268.295c-1.473,2.51,6.824,7.276,8.175,5.125C393.7,270.59,385.594,265.146,383.744,268.295Z" transform="translate(-276.233 -248.552)" fill="url(#z)"/><path d="M397.9,272.839c-2.244-1.844-8.25,5.6-6.343,7.276C394.069,282.318,400.713,275.158,397.9,272.839Z" transform="translate(-239.701 -223.587)" fill="url(#aa)"/><path d="M389.9,279.551c1.293-2.6-7.311-6.777-8.511-4.54C379.8,277.956,388.272,282.821,389.9,279.551Z" transform="translate(-287.659 -214.825)" fill="url(#ab)"/><path d="M385.872,282.882c1.154-2.673-7.659-6.383-8.743-4.081C375.709,281.821,384.428,286.233,385.872,282.882Z" transform="translate(-307.882 -197.047)" fill="url(#ac)"/><path d="M392.616,274.65c-1.716-2.354-9.392,3.351-7.96,5.45C386.534,282.859,394.761,277.6,392.616,274.65Z" transform="translate(-271.874 -216.185)" fill="url(#ad)"/><path d="M390.039,272.848c.6-2.841-8.772-4.743-9.381-2.273C379.864,273.816,389.274,276.419,390.039,272.848Z" transform="translate(-290.43 -238.524)" fill="url(#ae)"/><path d="M377.032,279.748c1.722-2.337-6.03-7.943-7.6-5.943C367.367,276.426,374.864,282.688,377.032,279.748Z" transform="translate(-345.771 -219.585)" fill="url(#af)"/><path d="M384.971,275.478c.609,2.841,9.943.754,9.491-1.751C393.864,270.446,384.206,271.907,384.971,275.478Z" transform="translate(-269.719 -226.713)" fill="url(#ag)"/><path d="M368.365,281.942c2.812.736,5.16-8.534,2.725-9.259C367.89,271.733,364.835,281.009,368.365,281.942Z" transform="translate(-356.747 -223.263)" fill="url(#ah)"/><path d="M375.818,271.594c-.186,2.9,9.363,3.415,9.607.881C385.738,269.153,376.044,267.947,375.818,271.594Z" transform="translate(-313.435 -238.865)" fill="url(#ai)"/><path d="M383.678,282.5c2.736.986,5.89-8.047,3.531-8.98C384.1,272.29,380.24,281.259,383.678,282.5Z" transform="translate(-282.184 -219.478)" fill="url(#aj)"/><path d="M387.433,274.713c-.777-2.806-9.966-.157-9.363,2.313C378.858,280.267,388.413,278.226,387.433,274.713Z" transform="translate(-302.758 -218.979)" fill="url(#ak)"/><path d="M386.062,265.586c-2.365-1.7-7.867,6.128-5.85,7.676C382.862,275.292,389.024,267.714,386.062,265.586Z" transform="translate(-294.436 -258.135)" fill="url(#al)"/><path d="M386.467,273.459c-2.389-1.664-7.78,6.238-5.74,7.757C383.406,283.21,389.458,275.546,386.467,273.459Z" transform="translate(-292.04 -220.316)" fill="url(#am)"/><path d="M379.942,272.015c-2.846.6-.8,9.937,1.7,9.5C384.934,280.932,383.513,271.267,379.942,272.015Z" transform="translate(-300.265 -226.34)" fill="url(#an)"/><path d="M368.552,275.689c-.956,2.748,8.1,5.821,9.016,3.455C378.768,276.025,369.764,272.245,368.552,275.689Z" transform="translate(-348.62 -215.073)" fill="url(#ao)"/><path d="M375.918,277.556c2.765.91,5.659-8.209,3.27-9.079C376.046,267.341,372.452,276.42,375.918,277.556Z" transform="translate(-319.745 -243.587)" fill="url(#ap)"/><path d="M387.541,273.428c.226,2.9,9.757,2.064,9.636-.475C397.026,269.619,387.257,269.787,387.541,273.428Z" transform="translate(-257.21 -233.081)" fill="url(#aq)"/><path d="M380.9,271.825c-1.038,2.719,7.925,6.053,8.911,3.71C391.1,272.457,382.208,268.416,380.9,271.825Z" transform="translate(-289.452 -233.281)" fill="url(#ar)"/><path d="M376.217,283.9c2.864-.493,1.16-9.9-1.357-9.554C371.55,274.805,372.617,284.511,376.217,283.9Z" transform="translate(-327.574 -215.025)" fill="url(#as)"/><path d="M376.13,280.8c2.267,1.821,8.186-5.693,6.255-7.346C379.852,271.278,373.283,278.508,376.13,280.8Z" transform="translate(-315.295 -221.179)" fill="url(#at)"/><path d="M380.806,274.53c1.693,2.36,9.41-3.3,7.995-5.4C386.934,266.349,378.672,271.561,380.806,274.53Z" transform="translate(-291.169 -243.789)" fill="url(#au)"/><path d="M389.482,272.714c-1.774-2.3-9.3,3.606-7.809,5.664C383.626,281.092,391.708,275.607,389.482,272.714Z" transform="translate(-286.266 -225.3)" fill="url(#av)"/><path d="M375.19,282.839c2.319,1.757,8.018-5.919,6.041-7.519C378.634,273.221,372.28,280.636,375.19,282.839Z" transform="translate(-320.02 -212.066)" fill="url(#aw)"/><path d="M385.873,277.812c2.394-1.652-3.119-9.468-5.258-8.088C377.814,271.539,382.87,279.894,385.873,277.812Z" transform="translate(-294.334 -237.911)" fill="url(#ax)"/><path d="M382.294,271.74c1.02,2.725,9.949-.713,9.131-3.125C390.352,265.455,381.012,268.319,382.294,271.74Z" transform="translate(-282.934 -249.006)" fill="url(#ay)"/><path d="M380.732,274.747c-2.754-.927-5.722,8.163-3.345,9.056C380.518,284.968,384.194,275.918,380.732,274.747Z" transform="translate(-310.059 -213.354)" fill="url(#az)"/><path d="M386.285,268.649c-1.71-2.354-9.392,3.345-7.966,5.45C380.2,276.859,388.43,271.6,386.285,268.649Z" transform="translate(-302.265 -244.976)" fill="url(#ba)"/><path d="M383.409,269.859c-2.261,1.826,3.815,9.212,5.844,7.682C391.914,275.523,386.25,267.563,383.409,269.859Z" transform="translate(-279.388 -238.463)" fill="url(#bb)"/><path d="M396.016,270.248c-.551-2.858-9.925-.951-9.52,1.56C387.024,275.1,396.712,273.831,396.016,270.248Z" transform="translate(-262.253 -241.473)" fill="url(#bc)"/><path d="M366.987,274.681c.487,2.864,9.9,1.165,9.554-1.357C376.078,270.019,366.373,271.08,366.987,274.681Z" transform="translate(-355.925 -229.406)" fill="url(#bd)"/><path d="M374.129,272.753c-2.279,1.8,3.722,9.253,5.763,7.74C382.576,278.5,376.993,270.492,374.129,272.753Z" transform="translate(-323.967 -224.515)" fill="url(#be)"/><path d="M395.541,272.019c-1.734-2.331-9.352,3.45-7.9,5.537C389.546,280.292,397.721,274.946,395.541,272.019Z" transform="translate(-257.586 -228.738)" fill="url(#bf)"/><path d="M393.843,269.336c-2.423-1.612-7.653,6.395-5.589,7.867C390.973,279.146,396.875,271.366,393.843,269.336Z" transform="translate(-256.027 -240.016)" fill="url(#bg)"/><path d="M380.522,278.986c.638,2.841,9.949.661,9.473-1.838C389.37,273.872,379.728,275.426,380.522,278.986Z" transform="translate(-291.076 -210.138)" fill="url(#bh)"/><path d="M384.661,271.767c-.881-2.771-9.972.209-9.276,2.65C376.289,277.634,385.762,275.251,384.661,271.767Z" transform="translate(-315.686 -232.677)" fill="url(#bi)"/><path d="M368.676,270.645c-2.447,1.571,2.8,9.572,4.98,8.267C376.52,277.2,371.748,268.674,368.676,270.645Z" transform="translate(-350.743 -234.125)" fill="url(#bj)"/><path d="M383.4,271.2c1.055-2.707-7.891-6.093-8.888-3.757C373.2,270.514,382.077,274.6,383.4,271.2Z" transform="translate(-320.326 -251.838)" fill="url(#bk)"/><path d="M381.043,276.933c.632,2.835,9.949.655,9.467-1.838C389.884,271.814,380.243,273.368,381.043,276.933Z" transform="translate(-288.582 -220.005)" fill="url(#bl)"/><path d="M380.686,273.162c-2.835-.638-4.847,8.72-2.383,9.352C381.538,283.348,384.245,273.962,380.686,273.162Z" transform="translate(-306.829 -220.79)" fill="url(#bm)"/><path d="M385.174,283.46c2.267-1.814-3.774-9.23-5.809-7.705C376.693,277.755,382.322,285.738,385.174,283.46Z" transform="translate(-299.769 -209.185)" fill="url(#bn)"/><path d="M389.376,272.6c-2.91-.058-3.026,9.5-.487,9.641C392.222,282.419,393.023,272.684,389.376,272.6Z" transform="translate(-259.381 -223.322)" fill="url(#bo)"/><path d="M392.991,277.888c1.194-2.65-7.566-6.493-8.679-4.215C382.84,276.676,391.49,281.216,392.991,277.888Z" transform="translate(-273.479 -221.516)" fill="url(#bp)"/><path d="M392.844,282.652c2.11-2.006-4.557-8.865-6.453-7.172C383.9,277.707,390.206,285.174,392.844,282.652Z" transform="translate(-265.429 -210.794)" fill="url(#bq)"/><path d="M382.531,269.635c-1.96-2.151-8.969,4.354-7.317,6.285C377.382,278.459,384.989,272.331,382.531,269.635Z" transform="translate(-317.521 -239.626)" fill="url(#br)"/><path d="M383.085,269.99c-.214-2.9-9.746-2.1-9.636.435C373.589,273.764,383.358,273.631,383.085,269.99Z" transform="translate(-324.79 -244.723)" fill="url(#bs)"/><path d="M369.48,279.075c.881,2.771,9.966-.22,9.271-2.661C377.84,273.2,368.367,275.6,369.48,279.075Z" transform="translate(-344.266 -212.285)" fill="url(#bt)"/><path d="M369.561,272.581c-.441,2.876,9.033,4.226,9.491,1.728C379.661,271.021,370.112,268.969,369.561,272.581Z" transform="translate(-343.512 -232.581)" fill="url(#bu)"/><path d="M374.38,282.633c2.812.736,5.137-8.546,2.7-9.265C373.876,272.429,370.844,281.711,374.38,282.633Z" transform="translate(-327.935 -219.971)" fill="url(#bv)"/><path d="M378.5,271.459c-2.586,1.328,1.855,9.8,4.157,8.714C385.671,278.741,381.752,269.8,378.5,271.459Z" transform="translate(-304.324 -229.796)" fill="url(#bw)"/><path d="M378.536,276.64c-.319,2.887,9.195,3.861,9.554,1.345C388.566,274.674,378.941,273.01,378.536,276.64Z" transform="translate(-300.424 -213.78)" fill="url(#bx)"/><path d="M391,284.049c2.07-2.035-4.7-8.8-6.563-7.067C381.978,279.243,388.39,286.612,391,284.049Z" transform="translate(-274.721 -203.658)" fill="url(#by)"/><path d="M378.282,267.018c-2.87.47-1.229,9.9,1.293,9.56C382.886,276.143,381.883,266.426,378.282,267.018Z" transform="translate(-308.879 -250.244)" fill="url(#bz)"/><path d="M392.588,275.453c1.618-2.418-6.383-7.659-7.861-5.595C382.784,272.577,390.559,278.485,392.588,275.453Z" transform="translate(-272.165 -238.752)" fill="url(#ca)"/><path d="M389.549,271.627c-1.814-2.273-9.23,3.768-7.711,5.8C383.839,280.1,391.828,274.479,389.549,271.627Z" transform="translate(-285.516 -230.422)" fill="url(#cb)"/><path d="M382.7,282.711c1.3-2.609-7.311-6.783-8.511-4.545C372.605,281.11,381.076,285.975,382.7,282.711Z" transform="translate(-322.183 -199.693)" fill="url(#cc)"/><path d="M387.6,274.24c1.525-2.476-6.656-7.427-8.059-5.311C377.693,271.713,385.671,277.342,387.6,274.24Z" transform="translate(-296.897 -243.407)" fill="url(#cd)"/><path d="M372.826,272.814c-2.493,1.5,2.516,9.647,4.737,8.407C380.479,279.591,375.951,270.93,372.826,272.814Z" transform="translate(-331.036 -223.59)" fill="url(#ce)"/><path d="M394.39,273.66c1.026-2.725-7.966-5.995-8.934-3.647C384.186,273.1,393.109,277.075,394.39,273.66Z" transform="translate(-267.775 -239.609)" fill="url(#cf)"/><path d="M400.37,277.463c1.467-2.51-6.835-7.259-8.186-5.108C390.4,275.185,398.526,280.617,400.37,277.463Z" transform="translate(-236.123 -227.121)" fill="url(#cg)"/><path d="M396.236,274.095c-2.058-2.052-8.749,4.777-7.009,6.633C391.517,283.157,398.821,276.675,396.236,274.095Z" transform="translate(-250.466 -217.99)" fill="url(#ch)"/><path d="M390.511,281.59c2.7,1.067,6.122-7.867,3.786-8.87C391.23,271.4,387.114,280.257,390.511,281.59Z" transform="translate(-249.06 -223.404)" fill="url(#ci)"/><path d="M384.024,268.719c-.98-2.742-9.955.557-9.178,2.974C375.867,274.876,385.247,272.157,384.024,268.719Z" transform="translate(-318.313 -246.93)" fill="url(#cj)"/><path d="M397.109,280.414c2.111-2.006-4.539-8.876-6.441-7.189C388.175,275.445,394.466,282.924,397.109,280.414Z" transform="translate(-244.927 -221.607)" fill="url(#ck)"/><path d="M385.183,267.627c-2.226,1.867,3.995,9.131,5.989,7.56C393.8,273.123,387.977,265.279,385.183,267.627Z" transform="translate(-270.772 -249.276)" fill="url(#cl)"/><path d="M380.1,272.157c-1.531-2.47-9.613,2.644-8.343,4.847C373.43,279.9,382.028,275.265,380.1,272.157Z" transform="translate(-333.537 -228.621)" fill="url(#cm)"/><path d="M384.659,271.569c-1.774-2.3-9.3,3.606-7.809,5.664C378.8,279.947,386.885,274.463,384.659,271.569Z" transform="translate(-309.405 -230.793)" fill="url(#cn)"/><path d="M366.138,273.225c-.783,2.8,8.459,5.276,9.218,2.852C376.353,272.888,367.118,269.705,366.138,273.225Z" transform="translate(-360.091 -227.729)" fill="url(#co)"/><path d="M380.7,280.188c2.835.649,4.876-8.7,2.418-9.34C379.886,270,377.138,279.376,380.7,280.188Z" transform="translate(-298.04 -232.002)" fill="url(#cp)"/><path d="M381.378,273.435c1.722-2.342-6.041-7.937-7.607-5.937C371.707,270.124,379.215,276.374,381.378,273.435Z" transform="translate(-324.949 -249.849)" fill="url(#cq)"/><path d="M390.519,271.192c.667-2.829-8.662-4.934-9.323-2.481C380.327,271.934,389.684,274.746,390.519,271.192Z" transform="translate(-287.895 -247.183)" fill="url(#cr)"/><path d="M379.821,285.3c2.6-1.293-1.734-9.815-4.047-8.754C372.742,277.933,376.551,286.925,379.821,285.3Z" transform="translate(-318.946 -204.864)" fill="url(#cs)"/><path d="M373.658,279.257c2.858.527,4.511-8.894,2.029-9.433C372.423,269.112,370.069,278.591,373.658,279.257Z" transform="translate(-332.425 -236.835)" fill="url(#ct)"/><path d="M383.258,275.22c-.383-2.881-9.85-1.542-9.6.986C373.993,279.534,383.733,278.844,383.258,275.22Z" transform="translate(-323.814 -218.564)" fill="url(#cu)"/><path d="M382.147,284.247c2.087,2.029,8.691-4.887,6.928-6.719C386.756,275.128,379.533,281.7,382.147,284.247Z" transform="translate(-285.756 -202.18)" fill="url(#cv)"/><path d="M380.884,269.712c.887,2.771,9.966-.244,9.265-2.684C389.227,263.815,379.765,266.239,380.884,269.712Z" transform="translate(-289.559 -257.286)" fill="url(#cw)"/><path d="M382.231,276.037c2.342-1.728-3.415-9.369-5.508-7.92C373.975,270.013,379.291,278.205,382.231,276.037Z" transform="translate(-312.752 -245.714)" fill="url(#cx)"/><path d="M379.313,274.417c-.864,2.777,8.3,5.537,9.125,3.136C389.535,274.394,380.4,270.933,379.313,274.417Z" transform="translate(-296.929 -221.605)" fill="url(#cy)"/><path d="M384.389,278.288c-2.655-1.183-6.47,7.589-4.18,8.7C383.212,288.44,387.722,279.773,384.389,278.288Z" transform="translate(-295.731 -196.569)" fill="url(#cz)"/><path d="M381.942,275.908c-2.771-.875-5.56,8.279-3.166,9.12C381.931,286.129,385.421,277.009,381.942,275.908Z" transform="translate(-303.587 -207.749)" fill="url(#da)"/><path d="M381.7,274.384c2.394-1.652-3.108-9.473-5.247-8.1C373.646,268.093,378.7,276.453,381.7,274.384Z" transform="translate(-314.318 -254.409)" fill="url(#db)"/><path d="M383.239,281.25c2.9.058,3.009-9.5.47-9.636C380.375,271.44,379.587,281.18,383.239,281.25Z" transform="translate(-289.363 -228.078)" fill="url(#dc)"/><path d="M373.558,277.444c2.337,1.734,7.972-5.995,5.977-7.577C376.921,267.791,370.63,275.264,373.558,277.444Z" transform="translate(-327.913 -238.181)" fill="url(#dd)"/><path d="M378.6,285.733c1.791,2.29,9.265-3.682,7.763-5.728C384.386,277.309,376.345,282.857,378.6,285.733Z" transform="translate(-301.973 -191.259)" fill="url(#de)"/><path d="M376.623,285.869c2.174,1.931,8.465-5.276,6.621-7.021C380.821,276.552,373.9,283.44,376.623,285.869Z" transform="translate(-312.559 -195.576)" fill="url(#df)"/><path d="M391.584,278.6c2.279,1.809,8.157-5.74,6.215-7.38C395.254,269.053,388.726,276.323,391.584,278.6Z" transform="translate(-241.188 -231.883)" fill="url(#dg)"/><path d="M383.023,276.416c-.4,2.881,9.085,4.11,9.514,1.606C393.1,274.729,383.528,272.8,383.023,276.416Z" transform="translate(-278.915 -214.386)" fill="url(#dh)"/><path d="M384.112,276.114c2.122,1.989,8.58-5.073,6.777-6.864C388.519,266.9,381.44,273.627,384.112,276.114Z" transform="translate(-276.479 -241.768)" fill="url(#di)"/><path d="M370.74,270.239c-.847,2.783,8.337,5.467,9.149,3.055C380.955,270.134,371.795,266.743,370.74,270.239Z" transform="translate(-338.052 -241.759)" fill="url(#dj)"/><path d="M384.63,276.315c-1.171,2.661,7.618,6.435,8.714,4.145C394.787,277.445,386.1,272.975,384.63,276.315Z" transform="translate(-271.663 -211.2)" fill="url(#dk)"/><path d="M380.742,274.709c2.9.226,3.566-9.311,1.044-9.6C378.463,264.743,377.107,274.419,380.742,274.709Z" transform="translate(-300.178 -259.303)" fill="url(#dl)"/><path d="M371.857,278.312c2.615,1.276,6.725-7.363,4.476-8.546C373.382,268.207,368.576,276.712,371.857,278.312Z" transform="translate(-337.715 -237.843)" fill="url(#dm)"/><path d="M375.246,281.483c.655,2.829,9.954.586,9.456-1.908C384.053,276.3,374.423,277.923,375.246,281.483Z" transform="translate(-316.406 -198.384)" fill="url(#dn)"/><path d="M380.7,274.722c2.539,1.415,7.108-6.992,4.928-8.3C382.753,264.709,377.507,272.948,380.7,274.722Z" transform="translate(-294.797 -254.081)" fill="url(#do)"/><path d="M381.1,281.388c2.725-1-.661-9.949-3.073-9.149C374.865,273.295,377.671,282.647,381.1,281.388Z" transform="translate(-309.438 -225.307)" fill="url(#dp)"/><path d="M382.4,282.619c2.076-2.035-4.673-8.807-6.546-7.091C373.387,277.784,379.782,285.17,382.4,282.619Z" transform="translate(-315.926 -210.611)" fill="url(#dq)"/><path d="M378.522,276.993c2.51-1.479-2.423-9.67-4.655-8.453C370.939,270.146,375.38,278.848,378.522,276.993Z" transform="translate(-327.375 -243.406)" fill="url(#dr)"/><path d="M381.146,276.759c-2.273,1.809,3.757,9.236,5.8,7.711C389.617,282.475,384,274.481,381.146,276.759Z" transform="translate(-290.28 -205.325)" fill="url(#ds)"/><path d="M373.051,280.842c.771,2.806,9.966.18,9.369-2.29C381.637,275.305,372.083,277.323,373.051,280.842Z" transform="translate(-327.029 -202.63)" fill="url(#dt)"/><path d="M386.257,280.022c1.681,2.371,9.433-3.229,8.03-5.345C392.443,271.888,384.147,277.042,386.257,280.022Z" transform="translate(-264.976 -217.215)" fill="url(#du)"/><path d="M381.594,277.1c-1.113,2.684,7.757,6.262,8.8,3.948C391.774,278,382.991,273.725,381.594,277.1Z" transform="translate(-286.176 -207.682)" fill="url(#dv)"/><path d="M397.343,270.674c-1.931-2.174-9.027,4.244-7.4,6.192C392.079,279.434,399.767,273.4,397.343,270.674Z" transform="translate(-246.802 -234.704)" fill="url(#dw)"/><path d="M385.869,282.514c2.418-1.623-2.992-9.508-5.142-8.163C377.9,276.125,382.842,284.549,385.869,282.514Z" transform="translate(-293.924 -215.672)" fill="url(#dx)"/><path d="M379.8,277.648c1.565,2.447,9.578-2.777,8.279-4.963C386.368,269.816,377.833,274.57,379.8,277.648Z" transform="translate(-295.727 -227.178)" fill="url(#dy)"/><path d="M386.747,275.346c-2.887-.354-3.966,9.149-1.449,9.537C388.6,285.393,390.371,275.792,386.747,275.346Z" transform="translate(-274.707 -210.208)" fill="url(#dz)"/><path d="M377.068,282.913c2.226-1.873-3.995-9.137-5.995-7.56C368.453,277.417,374.274,285.261,377.068,282.913Z" transform="translate(-339.36 -211.195)" fill="url(#ea)"/><path d="M383.467,272.436c-2.58,1.339,1.89,9.792,4.186,8.7C390.662,279.7,386.714,270.761,383.467,272.436Z" transform="translate(-280.46 -225.121)" fill="url(#eb)"/><path d="M379.428,272.853c2.62,1.264,6.7-7.386,4.441-8.563C380.912,262.742,376.141,271.264,379.428,272.853Z" transform="translate(-301.432 -264.103)" fill="url(#ec)"/><path d="M391.851,280.675c2.679,1.136,6.337-7.705,4.029-8.772C392.849,270.5,388.495,279.242,391.851,280.675Z" transform="translate(-242.324 -227.41)" fill="url(#ed)"/><path d="M365.056,274.933c.046,2.911,9.612,2.655,9.647.116C374.75,271.7,364.993,271.28,365.056,274.933Z" transform="translate(-365.056 -224.475)" fill="url(#ee)"/><path d="M377.707,268.647c-2.4,1.647,3.079,9.485,5.224,8.117C385.743,274.967,380.722,266.589,377.707,268.647Z" transform="translate(-307.22 -243.849)" fill="url(#ef)"/><path d="M381.011,267.359c-2.69,1.1.986,9.92,3.368,9.044C387.516,275.244,384.4,265.985,381.011,267.359Z" transform="translate(-293.037 -249.147)" fill="url(#eg)"/><path d="M383.379,266.36c-2.9-.116-3.183,9.444-.644,9.624C386.063,276.216,387.025,266.5,383.379,266.36Z" transform="translate(-288.558 -253.279)" fill="url(#eh)"/><path d="M382.468,266.385c-2.2,1.9,4.093,9.1,6.07,7.5C391.141,271.794,385.239,264.008,382.468,266.385Z" transform="translate(-283.734 -255.298)" fill="url(#ei)"/><path d="M386.357,279.444c-2.273-1.815-8.169,5.722-6.233,7.369C382.669,288.975,389.209,281.722,386.357,279.444Z" transform="translate(-294.609 -191.846)" fill="url(#ej)"/><path d="M378.65,270.8c-2.394-1.658-7.757,6.267-5.711,7.774C375.624,280.559,381.654,272.877,378.65,270.8Z" transform="translate(-329.422 -233.052)" fill="url(#ek)"/><path d="M393.527,271.72c-1.13-2.679-9.908,1.125-8.992,3.5C385.736,278.335,394.948,275.082,393.527,271.72Z" transform="translate(-271.922 -231.964)" fill="url(#el)"/><path d="M395.837,279.574c2.261-1.832-3.821-9.212-5.844-7.682C387.326,273.91,393,281.865,395.837,279.574Z" transform="translate(-248.751 -227.725)" fill="url(#em)"/><path d="M384.581,268.959c-1.733,2.331,5.995,7.966,7.572,5.977C394.229,272.322,386.761,266.031,384.581,268.959Z" transform="translate(-272.588 -244.451)" fill="url(#en)"/><path d="M373.564,277.811c-.44,2.876,9.027,4.238,9.491,1.739C383.67,276.269,374.121,274.2,373.564,277.811Z" transform="translate(-324.307 -207.461)" fill="url(#eo)"/><path d="M377.171,271.326c-.875,2.777,8.273,5.566,9.114,3.165C387.392,271.344,378.266,267.848,377.171,271.326Z" transform="translate(-307.216 -236.383)" fill="url(#ep)"/><path d="M387.949,274.2c-1.3,2.6,7.282,6.806,8.493,4.574C398.037,275.838,389.584,270.939,387.949,274.2Z" transform="translate(-255.867 -220.829)" fill="url(#eq)"/><path d="M377.72,268.97c-2.452-1.56-7.5,6.569-5.4,7.995C375.083,278.843,380.8,270.924,377.72,268.97Z" transform="translate(-332.597 -241.702)" fill="url(#er)"/><path d="M388.758,276.826c-.934-2.754-9.96.406-9.224,2.835C380.508,282.856,389.929,280.288,388.758,276.826Z" transform="translate(-295.799 -208.187)" fill="url(#es)"/><path d="M389.513,277.733c-2.215-1.884-8.331,5.473-6.447,7.172C385.542,287.149,392.3,280.093,389.513,277.733Z" transform="translate(-280.355 -200.177)" fill="url(#et)"/><path d="M384.215,274.481c-.2-2.9-9.74-2.133-9.636.406C374.707,278.221,384.476,278.122,384.215,274.481Z" transform="translate(-319.369 -223.234)" fill="url(#eu)"/><path d="M392.389,277.4c.875-2.777-8.273-5.566-9.114-3.171C382.168,277.384,391.287,280.88,392.389,277.4Z" transform="translate(-278.094 -219.876)" fill="url(#ev)"/><path d="M377.02,270.3c-2.36,1.7,3.3,9.4,5.415,7.983C385.2,276.417,379.983,268.161,377.02,270.3Z" transform="translate(-310.365 -236.053)" fill="url(#ew)"/><path d="M379.755,275.286c.951-2.742-8.117-5.8-9.021-3.421C369.54,274.985,378.555,278.736,379.755,275.286Z" transform="translate(-338.337 -230.956)" fill="url(#ex)"/><path d="M379.283,280.2c-2.209,1.89,4.064,9.108,6.053,7.519C387.938,285.63,382.065,277.832,379.283,280.2Z" transform="translate(-299.031 -189.006)" fill="url(#ey)"/><path d="M377.217,282.757c2.667,1.165,6.406-7.635,4.11-8.725C378.313,272.6,373.872,281.3,377.217,282.757Z" transform="translate(-312.434 -217.23)" fill="url(#ez)"/><path d="M382.47,279.967c1.136,2.673,9.9-1.148,8.981-3.519C390.244,273.335,381.038,276.6,382.47,279.967Z" transform="translate(-282.234 -210.882)" fill="url(#fa)"/><path d="M384.153,267.95c-2.719,1.032.76,9.943,3.165,9.114C390.472,275.979,387.568,266.657,384.153,267.95Z" transform="translate(-278.195 -246.236)" fill="url(#fb)"/><path d="M388.6,273.055c.342,2.887,9.833,1.67,9.612-.864C397.92,268.863,388.168,269.426,388.6,273.055Z" transform="translate(-252.179 -235.873)" fill="url(#fc)"/><path d="M378.682,284.3c1.687,2.371,9.421-3.258,8.012-5.374C384.839,276.152,376.56,281.335,378.682,284.3Z" transform="translate(-301.341 -196.775)" fill="url(#fd)"/><path d="M376.917,283.336c2.882.4,4.1-9.085,1.6-9.514C375.225,273.259,373.306,282.831,376.917,283.336Z" transform="translate(-317.503 -217.589)" fill="url(#fe)"/><path d="M387.533,276.944c2.539-1.409-2.18-9.728-4.441-8.569C380.124,269.906,384.339,278.712,387.533,276.944Z" transform="translate(-283.367 -244.134)" fill="url(#ff)"/><path d="M392.087,276.454c-2.093-2.018-8.662,4.94-6.888,6.754C387.53,285.6,394.719,278.987,392.087,276.454Z" transform="translate(-269.856 -206.591)" fill="url(#fg)"/><path d="M376.5,279.125c.377,2.882,9.85,1.56,9.6-.974C385.78,274.829,376.034,275.5,376.5,279.125Z" transform="translate(-310.213 -207.036)" fill="url(#fh)"/><path d="M371.813,278.562c.371,2.881,9.844,1.589,9.607-.945C381.1,274.3,371.355,274.939,371.813,278.562Z" transform="translate(-332.713 -209.656)" fill="url(#fi)"/><path d="M392.686,268.328c-2.134-1.983-8.575,5.09-6.772,6.876C388.291,277.552,395.359,270.816,392.686,268.328Z" transform="translate(-266.494 -245.496)" fill="url(#fj)"/><path d="M383.721,284.551c2.452,1.565,7.52-6.551,5.421-7.983C386.382,274.683,380.643,282.585,383.721,284.551Z" transform="translate(-279.746 -205.684)" fill="url(#fk)"/><path d="M380.59,276.283c2.818.707,5.056-8.592,2.609-9.288C379.987,266.085,377.048,275.4,380.59,276.283Z" transform="translate(-298.269 -250.528)" fill="url(#fl)"/><path d="M376.876,270.579c-1.681-2.371-9.427,3.235-8.024,5.351C370.7,278.713,378.992,273.559,376.876,270.579Z" transform="translate(-347.655 -235.786)" fill="url(#fm)"/><path d="M380.275,275.045c-1.113-2.69-9.914,1.061-9.015,3.438C372.437,281.608,381.673,278.414,380.275,275.045Z" transform="translate(-335.599 -216.076)" fill="url(#fn)"/><path d="M388.7,279.007c2.655-1.177-1.293-9.885-3.647-8.934C381.959,271.325,385.362,280.485,388.7,279.007Z" transform="translate(-274.946 -235.807)" fill="url(#fo)"/><path d="M374.6,272.936c-2.777-.858-5.5,8.314-3.1,9.137C374.668,283.151,378.094,274.008,374.6,272.936Z" transform="translate(-338.548 -221.996)" fill="url(#fp)"/><path d="M380.11,265.441c-1.6,2.429,6.435,7.612,7.9,5.537C389.937,268.247,382.116,262.391,380.11,265.441Z" transform="translate(-293.84 -261.798)" fill="url(#fq)"/><path d="M383.335,271.2c-2.336,1.728,3.415,9.369,5.508,7.925C391.591,277.226,386.274,269.034,383.335,271.2Z" transform="translate(-279.992 -231.782)" fill="url(#fr)"/><path d="M382.406,274.477c.209-2.9-9.34-3.5-9.6-.968C372.463,276.831,382.145,278.118,382.406,274.477Z" transform="translate(-327.92 -226.616)" fill="url(#fs)"/><path d="M397.29,271.616c-1.455-2.516-9.694,2.342-8.488,4.586C390.379,279.141,399.116,274.776,397.29,271.616Z" transform="translate(-251.706 -231.437)" fill="url(#ft)"/><path d="M367.846,274.365c-1.565,2.447,6.534,7.531,7.972,5.438C377.708,277.05,369.818,271.292,367.846,274.365Z" transform="translate(-352.627 -219.083)" fill="url(#fu)"/><path d="M370.582,272.225c-2.273,1.814,3.768,9.23,5.8,7.7C379.058,277.924,373.434,269.946,370.582,272.225Z" transform="translate(-340.961 -227.083)" fill="url(#fv)"/><path d="M391.77,279.682c2.586-1.328-1.861-9.8-4.157-8.708C384.6,272.4,388.518,281.346,391.77,279.682Z" transform="translate(-262.013 -231.601)" fill="url(#fw)"/><path d="M378.966,275.117c1.478,2.5,9.67-2.429,8.447-4.661C385.807,267.528,377.11,271.975,378.966,275.117Z" transform="translate(-299.561 -238.208)" fill="url(#fx)"/><path d="M388.146,276.346c.858,2.783,9.972-.116,9.3-2.568C396.564,270.554,387.073,272.856,388.146,276.346Z" transform="translate(-254.684 -225.088)" fill="url(#fy)"/><path d="M378.055,269.971c.614,2.841,9.943.736,9.485-1.763C386.943,264.921,377.284,266.4,378.055,269.971Z" transform="translate(-302.9 -253.185)" fill="url(#fz)"/><path d="M381.077,270.418c-2.319-1.757-8.006,5.937-6.029,7.531C377.651,280.042,383.993,272.616,381.077,270.418Z" transform="translate(-319.089 -235.045)" fill="url(#ga)"/><path d="M378.88,270.6c-.847-2.777-9.972.1-9.305,2.551C370.445,276.379,379.947,274.1,378.88,270.6Z" transform="translate(-343.543 -238.368)" fill="url(#gb)"/><path d="M371.915,271.31c-2.841-.632-4.829,8.725-2.365,9.352C372.784,281.491,375.48,272.1,371.915,271.31Z" transform="translate(-348.851 -229.67)" fill="url(#gc)"/><path d="M387.383,282.112c2.087,2.024,8.673-4.916,6.905-6.737C391.963,272.976,384.757,279.573,387.383,282.112Z" transform="translate(-260.664 -212.499)" fill="url(#gd)"/><path d="M375.617,269.37c-2.881.394-1.5,9.856,1.026,9.6C379.965,278.617,379.234,268.877,375.617,269.37Z" transform="translate(-322.122 -238.919)" fill="url(#ge)"/><path d="M394.565,270.329c-1.78-2.3-9.288,3.624-7.792,5.682C388.733,278.719,396.8,273.217,394.565,270.329Z" transform="translate(-261.805 -236.737)" fill="url(#gf)"/><path d="M387.035,278.409c2.644-1.223-1.455-9.862-3.8-8.87C380.165,270.843,383.724,279.94,387.035,278.409Z" transform="translate(-283.46 -238.404)" fill="url(#gg)"/><path d="M376.961,267.427c-.238,2.9,9.3,3.589,9.589,1.061C386.927,265.172,377.256,263.792,376.961,267.427Z" transform="translate(-307.963 -258.491)" fill="url(#gh)"/><path d="M378.143,276.064c-2.528-1.438-7.177,6.922-5.009,8.244C375.98,286.053,381.314,277.873,378.143,276.064Z" transform="translate(-328.99 -207.511)" fill="url(#gi)"/><path d="M375.286,270.541c-2.864.5-1.119,9.9,1.4,9.543C379.988,279.615,378.887,269.909,375.286,270.541Z" transform="translate(-323.078 -233.354)" fill="url(#gj)"/><path d="M381.893,278.617c-2.047,2.064,4.806,8.731,6.656,6.986C390.973,283.308,384.462,276.026,381.893,278.617Z" transform="translate(-286.087 -197.107)" fill="url(#gk)"/><path d="M386.821,282.282c1.287-2.609-7.334-6.754-8.528-4.51C376.722,280.716,385.209,285.557,386.821,282.282Z" transform="translate(-302.477 -201.612)" fill="url(#gl)"/><path d="M370.923,274.146c-.574,2.852,8.818,4.661,9.4,2.192C381.092,273.085,371.653,270.569,370.923,274.146Z" transform="translate(-337.03 -224.297)" fill="url(#gm)"/><path d="M388.785,271.835c-2.91-.041-2.945,9.526-.406,9.641C391.713,281.627,392.437,271.887,388.785,271.835Z" transform="translate(-262.008 -227.007)" fill="url(#gn)"/><path d="M383.747,273.581c2.047,2.07,8.783-4.725,7.05-6.586C388.524,264.548,381.178,270.989,383.747,273.581Z" transform="translate(-277.963 -252.841)" fill="url(#go)"/><path d="M386.068,277.112c1.948,2.157,8.981-4.331,7.334-6.267C391.246,268.3,383.616,274.4,386.068,277.112Z" transform="translate(-266.55 -234.672)" fill="url(#gp)"/><path d="M382.406,270.162c-2.771-.876-5.572,8.267-3.177,9.114C382.383,280.383,385.891,271.269,382.406,270.162Z" transform="translate(-301.407 -235.317)" fill="url(#gq)"/><path d="M375.593,277.658c-1.189,2.655,7.583,6.464,8.691,4.18C385.745,278.835,377.077,274.324,375.593,277.658Z" transform="translate(-315.031 -204.711)" fill="url(#gr)"/><path d="M377.638,274.494c-1.983-2.133-8.928,4.447-7.253,6.36C372.576,283.37,380.119,277.167,377.638,274.494Z" transform="translate(-340.729 -216.267)" fill="url(#gs)"/><path d="M381.845,276.641c-2.9-.006-2.835,9.56-.3,9.647C384.888,286.4,385.5,276.647,381.845,276.641Z" transform="translate(-295.019 -203.949)" fill="url(#gt)"/><path d="M372.149,281.9c2.893-.267,1.925-9.786-.615-9.63C368.2,272.473,368.514,282.236,372.149,281.9Z" transform="translate(-345.092 -224.931)" fill="url(#gu)"/></g></g></g></g></g></g><g transform="translate(-43 -12)"><ellipse cx="1.5" cy="13.5" rx="1.5" ry="13.5" transform="translate(233 860)" fill="#323c8b"/><ellipse cx="16.5" cy="1.5" rx="16.5" ry="1.5" transform="translate(218 872)" fill="#2b3271"/></g><g transform="translate(214 -12)"><ellipse cx="1.5" cy="13.5" rx="1.5" ry="13.5" transform="translate(233 860)" fill="#323c8b"/><ellipse cx="16.5" cy="1.5" rx="16.5" ry="1.5" transform="translate(218 872)" fill="#2b3271"/></g><g transform="translate(119 356)"><ellipse cx="1.5" cy="13.5" rx="1.5" ry="13.5" transform="translate(233 860)" fill="#ffe206"/><ellipse cx="16.5" cy="1.5" rx="16.5" ry="1.5" transform="translate(218 872)" fill="#ffe206"/></g><g transform="translate(379 117)"><ellipse cx="1.5" cy="13.5" rx="1.5" ry="13.5" transform="translate(233 860)" fill="#ffe206"/><ellipse cx="16.5" cy="1.5" rx="16.5" ry="1.5" transform="translate(218 872)" fill="#ffe206"/></g><path d="M539,173.655c3.932-3.772,5.56-7.65,10.977-8.863a10.2,10.2,0,0,0,3.235-.983c2.637-1.639,2.1-5.376,2.691-8.334,1.166-5.83,8.781-9.516,14.364-6.951,2.338,1.074,4.458,3.054,7.044,2.879,5.169-.353,4.55-6.729,8.083-10.366,3.336-3.435,10.135-3.885,14.472-1.707a22.224,22.224,0,0,1,7.615,6.186c2.1,2.725,2.009,6.933,3.56,9.935,1.479,2.9,5.02,4.163,6.564,7.017a8.692,8.692,0,0,1,.659,7.724c-2.207,5.3-8.685,9.123-14.559,9.123H524.368S534.623,177.855,539,173.655Z" transform="translate(-10.893 816.766)" fill="#f3faff"/><path d="M659.151,173.655c-6.634-3.772-9.381-7.65-18.52-8.863a26.561,26.561,0,0,1-5.457-.983c-4.449-1.639-3.539-5.376-4.54-8.334-1.967-5.83-14.815-9.516-24.234-6.951-3.945,1.074-7.52,3.054-11.883,2.879-8.721-.353-7.676-6.729-13.638-10.366-5.628-3.435-17.1-3.885-24.416-1.707a40.155,40.155,0,0,0-12.848,6.186c-3.547,2.725-3.389,6.933-6.005,9.935-2.495,2.9-8.469,4.163-11.075,7.017-2.258,2.475-2.952,5.109-1.112,7.724,3.724,5.3,14.653,9.123,24.562,9.123H683.843S666.542,177.855,659.151,173.655Z" transform="translate(-252.368 997.766)" fill="#f3faff"/><path d="M449.176,153.949c-4.062-3.9-5.743-7.9-11.338-9.154a10.542,10.542,0,0,1-3.341-1.015c-2.724-1.692-2.169-5.553-2.779-8.61-1.2-6.022-9.071-9.828-14.837-7.18-2.415,1.111-4.6,3.157-7.276,2.974-5.34-.363-4.7-6.95-8.35-10.707-3.447-3.548-10.468-4.011-14.948-1.762a22.922,22.922,0,0,0-7.867,6.389c-2.172,2.812-2.074,7.161-3.676,10.261-1.527,3-5.184,4.3-6.78,7.249a8.982,8.982,0,0,0-.681,7.978c2.28,5.474,8.972,9.423,15.039,9.423h81.953S453.7,158.288,449.176,153.949Z" transform="translate(-144.293 730.387)" fill="#f3faff"/></g></svg>