<svg xmlns="http://www.w3.org/2000/svg" xmlns:xlink="http://www.w3.org/1999/xlink" width="488" height="486" viewBox="0 0 488 486"><defs><linearGradient id="a" x1="0.5" x2="0.083" y2="0.903" gradientUnits="objectBoundingBox"><stop offset="0" stop-color="#e3856f"/><stop offset="1" stop-color="#ffe762"/></linearGradient></defs><g transform="translate(-880 -1203)"><circle cx="192" cy="192" r="192" transform="translate(944 1253)" opacity="0.747" fill="url(#a)"/><g transform="translate(998 478)"><ellipse cx="1.5" cy="13.5" rx="1.5" ry="13.5" transform="translate(233 860)" fill="#323c8b"/><ellipse cx="16.5" cy="1.5" rx="16.5" ry="1.5" transform="translate(218 872)" fill="#2b3271"/></g><g transform="translate(886 343)"><ellipse cx="1.5" cy="13.5" rx="1.5" ry="13.5" transform="translate(233 860)" fill="#323c8b"/><ellipse cx="16.5" cy="1.5" rx="16.5" ry="1.5" transform="translate(218 872)" fill="#2b3271"/></g><g transform="translate(965 793)"><ellipse cx="1.5" cy="13.5" rx="1.5" ry="13.5" transform="translate(233 860)" fill="#ffe206"/><ellipse cx="16.5" cy="1.5" rx="16.5" ry="1.5" transform="translate(218 872)" fill="#ffe206"/></g><g transform="translate(805 802)"><ellipse cx="1.5" cy="13.5" rx="1.5" ry="13.5" transform="translate(233 860)" fill="#ffe206"/><ellipse cx="16.5" cy="1.5" rx="16.5" ry="1.5" transform="translate(218 872)" fill="#ffe206"/></g><g transform="translate(827.691 1141.889)"><g transform="translate(52.309 358.677)"><g transform="translate(0 6.454)"><g style="isolation:isolate"><g transform="translate(55.385 31.977)"><path d="M149.8,179.2l-.137,48.456-86.41,50.216.138-48.456Z" transform="translate(-63.249 -179.201)" fill="#ddb176"/></g><g transform="translate(0 50.216)"><path d="M107.832,214.781l-.138,48.456L52.309,231.26l.137-48.456Z" transform="translate(-52.309 -182.804)" fill="#c19564"/></g><g transform="translate(0.137)"><path d="M194.131,204.862l-86.409,50.216L52.336,223.1l86.41-50.216Z" transform="translate(-52.336 -172.885)" fill="#fcd9a9"/></g></g><g transform="translate(22.756 13.195)"><path d="M143.6,175.492,56.8,225.6v11.311l6.415,3.7v-11.4l86.716-50.066Z" transform="translate(-56.804 -175.492)" fill="#c58c67" opacity="0.7"/><path d="M58.136,226.319l86.692-50.053-.79-.456L57.346,225.863Z" transform="translate(-54.602 -174.198)" fill="#a47f65" opacity="0.2" style="mix-blend-mode:multiply;isolation:isolate"/><g transform="translate(39.517 25.394)"><path d="M98,195.086l-22.932,13.24V193.747L98,180.507Z" transform="translate(-22.125 -180.507)" fill="#e4e4e4"/><path d="M87.052,193.345,64.609,206.3v-1.969l22.443-12.956ZM83.939,197.3l-16.216,9.366v.754l16.216-9.361Zm0,2.46-16.216,9.361v.754l16.216-9.361Zm0,2.455-16.216,9.361v.759l16.216-9.366Zm0,2.456-16.216,9.361v.759l16.216-9.361Zm0,2.461-16.216,9.361v.754l16.216-9.361Z" transform="translate(-64.609 -136.35)" fill="#363633" opacity="0.4"/><path d="M91.978,181.29l-16.216,9.361v.754l16.216-9.361Zm0,2.456-16.216,9.361v.759L91.978,184.5Zm0,2.461-16.216,9.361v.754l16.216-9.361Zm0,2.455-16.216,9.361v.754l16.216-9.361Zm0,2.455-16.216,9.366v.754l16.216-9.361Z" transform="translate(-19.297 -177.327)" fill="#363633" opacity="0.4"/></g></g><path d="M56.8,185.389V196.7l6.415,3.7V189Z" transform="translate(-34.048 -122.083)" fill="#c58c67" opacity="0.5" style="mix-blend-mode:multiply;isolation:isolate"/><g transform="translate(59.133 74.983)"><path d="M67.027,190.917A2.983,2.983,0,0,1,64.8,192.8c-.78,0-1.048-.845-.6-1.883a2.968,2.968,0,0,1,2.223-1.878C67.21,189.039,67.478,189.879,67.027,190.917Z" transform="translate(-63.989 -182.24)" fill="#4c4b44"/><path d="M68.19,190.25a2.976,2.976,0,0,1-2.223,1.878c-.78,0-1.048-.84-.6-1.878a2.965,2.965,0,0,1,2.223-1.883C68.373,188.367,68.641,189.207,68.19,190.25Z" transform="translate(-59.264 -184.97)" fill="#4c4b44"/><path d="M69.353,189.574a2.984,2.984,0,0,1-2.223,1.883c-.78,0-1.048-.845-.6-1.883a2.968,2.968,0,0,1,2.223-1.878C69.536,187.7,69.8,188.536,69.353,189.574Z" transform="translate(-54.539 -187.696)" fill="#4c4b44"/></g></g><g transform="translate(8.168)"><g style="isolation:isolate"><g transform="translate(46.243 26.699)"><path d="M125.024,176.884l-.007,15.394-61.96,36.046.008-15.394Z" transform="translate(-63.056 -176.884)" fill="#ddb176"/></g><g transform="translate(0 36.046)"><path d="M100.173,205.429l-.008,15.394-46.243-26.7.008-15.394Z" transform="translate(-53.922 -178.73)" fill="#c19564"/></g><g transform="translate(0.008)"><path d="M162.126,198.309l-61.96,36.046-46.243-26.7,61.96-36.046Z" transform="translate(-53.924 -171.611)" fill="#fcd9a9"/></g></g><g transform="translate(18.893 11.017)"><path d="M119.936,173.787,57.654,209.746v6.227l5.356,3.092v-6.3l62.215-35.92Z" transform="translate(-57.654 -173.787)" fill="#c48b67" opacity="0.7"/><path d="M58.767,210.343l62.2-35.909-.66-.381-62.2,35.91Z" transform="translate(-55.815 -172.707)" fill="#a37f65" opacity="0.2" style="mix-blend-mode:multiply;isolation:isolate"/></g><path d="M57.654,180.889v6.227l5.356,3.092v-6.3Z" transform="translate(-38.761 -133.914)" fill="#c58c67" opacity="0.5" style="mix-blend-mode:multiply;isolation:isolate"/><g transform="translate(48.38 58.847)"><path d="M65.214,185.08a1.7,1.7,0,0,1-1.271,1.073c-.446,0-.6-.481-.339-1.073A1.689,1.689,0,0,1,64.875,184C65.32,184,65.472,184.483,65.214,185.08Z" transform="translate(-63.478 -180.114)" fill="#4c4b44"/><path d="M65.88,184.7a1.7,1.7,0,0,1-1.271,1.073c-.446,0-.6-.481-.344-1.073a1.7,1.7,0,0,1,1.276-1.078C65.987,183.618,66.138,184.1,65.88,184.7Z" transform="translate(-60.778 -181.674)" fill="#4c4b44"/><path d="M66.545,184.312a1.7,1.7,0,0,1-1.271,1.073c-.446,0-.6-.481-.344-1.073a1.707,1.707,0,0,1,1.271-1.078C66.646,183.234,66.8,183.72,66.545,184.312Z" transform="translate(-58.076 -183.234)" fill="#4c4b44"/></g><g transform="translate(83.462 32.357)"><path d="M91.994,185.513,70.408,198.128v-7.664L91.994,178Z" transform="translate(-70.408 -178.002)" fill="#e4e4e4"/><path d="M90.289,179.417,70.605,190.783v-.268l19.684-11.361Zm0,.572L70.605,191.35v.268l19.684-11.366Zm0,.835L70.605,192.185v.268l19.684-11.366Zm0,.835L70.605,193.02v.268l19.684-11.366Zm0,.835L70.605,193.856v.268l19.684-11.366Zm-2.668-3.863-13.928,8.04v.977l13.928-8.04Z" transform="translate(-69.606 -175.441)" fill="#363633" opacity="0.4"/></g><path d="M60.34,183.137l10.586,6.106v.268L60.34,183.4Zm0,1.1,10.586,6.111v-.268L60.34,183.967Zm0,.83,10.586,6.111v-.263L60.34,184.8Zm0,.835,10.586,6.111v-.268L60.34,185.633Zm0,.83,10.586,6.111v-.263L60.34,186.468Zm0,1.428,10.586,6.111v.268L60.34,188.428Zm0,1.1,10.586,6.111v-.263L60.34,188.995Zm0,.835L70.926,196.2v-.268L60.34,189.825Zm0,.835,10.586,6.106v-.263L60.34,190.66Zm0,.83,10.586,6.111V197.6L60.34,191.491Z" transform="translate(-27.848 -124.781)" fill="#363633" opacity="0.4"/></g></g><g transform="translate(162.162 125.567)"><path d="M89.185,186.328s-.152,1.377-.284,1.974c.106,1.595-.071,4.87,1.225,6.035,3.114,2.779,5.974,3.468,9.442,6.364,2.481,2.066,6.4,5.68,9.508,6.82a32.224,32.224,0,0,0,11.3,1.934c4.435-.253,9.078-2.425,9.275-6.212.147-2.84-.339-3.909-.6-4.1-2.268-1.656-13.062-3.372-17.75-5.711-4.956-2.471-9.979-4.779-14.748-7.437C94.409,184.8,88.38,181.817,89.185,186.328Z" transform="translate(-13.496 111.502)" fill="#e19b5d"/><path d="M99.286,202.1c-.967-3.838-.354-8.526-3.726-11.189-2.724-2.157-13.994-4.729-15.381,1.073-.354,1.493-3.949,20.509-3.483,25.506.314,3.347,3.5,6.642,6.166,8.546,3.336,2.39,6.622,2.41,10.293,1.21,2.987-.977,5.574-4.253,7.113-7.275C101.474,217.592,100.77,207.993,99.286,202.1Z" transform="translate(-63.25 129.864)" fill="#e19b5d"/><path d="M91.2,206.866c-4.055-3.65-1.676-10.171-1.2-15.609a29.822,29.822,0,0,0-.866-8.885l18.52-2.3c.142,1.934.3,3.868.425,5.8.314,4.779.663,9.7,2.734,14.019,2.167,4.526,23.314,10.951,17.578,17.978a5.989,5.989,0,0,1-2.481,1.615,20.18,20.18,0,0,1-17.482-1.281c-4.283-2.511-7.559-6.577-12.054-8.678C94.605,208.7,92.646,208.172,91.2,206.866Z" transform="translate(-13.596 95.885)" fill="#232020"/><path d="M79.509,198.074c-.025-.932-.911-11.285-.815-11.29l18.636-1.043c1.286-.071.466,14.115.334,15.274-.9,7.761,1.6,13.715,2.425,21.426.658,6.182-7.559,11.275-11.751,11.148-2.506-.076-11.366-3.782-11.5-9.437C76.78,221.4,79.62,202.15,79.509,198.074Z" transform="translate(-62.498 118.908)" fill="#232020"/><g transform="translate(72.296 59.348)"><path d="M127.2,208.851c-4.238-5.751-10.293-17.791-12.728-21.345-5.463-29.04-13-43.175-17.937-47a26,26,0,0,0-5.842-3.22,33.715,33.715,0,0,1-2.4,8.065,43.533,43.533,0,0,1,2.136,17.107c8.809,14.621,8.829,32.133,10.313,34.731,1.691,2.962,17.208,17.948,17.208,17.948Z" transform="translate(-88.287 -137.289)" fill="#f6c29e"/></g><path d="M116.042,178.054c1.215,5.863-17.507,12.414-23.911,8.728,0,0-7.1-30-3.934-40.244,2.861-9.265,8.764-12.08,13.295-9.4C111.44,143.02,116.042,178.054,116.042,178.054Z" transform="translate(-19.657 -82.482)" fill="#5368de"/><path d="M147.269,157.54c-4.627,3.984-56.774,7.65-62.465,9.265-2.5,15.568-6.749,42.213-5.493,72.21a200.4,200.4,0,0,1-1.119,29.212c-1.914,18.246-.83,35.085-1.109,48.456-.395,7.842,21.056,10.353,21.405.365,0,0,3.9-24.079,11.239-54.891,1.352-5.68,8.217-39.216,10.414-54.384l5.27,28.154c3.514,27.04,9.229,39.181,11.614,52.456.613,3.392,20.621,5.448,20.605-3.109,0,0-1.124-49.889-1.939-58.268C155.329,223.225,151.977,179.518,147.269,157.54Z" transform="translate(-61.748 4.334)" fill="#302b2b"/><path d="M88.465,158.068c3.752-2.962,11.067-6.683,15.983-9.022l27.623-11.1c5.083-2.035,7.645-2.238,9.781-1.266,6.5,2.952,7.164,102.921,7.356,107.908-1.352,15.016-45.459,20.3-62.465,9.265-1.007-21.714-9.862-64.586-10.085-67.117C75.793,176.856,79.98,164.776,88.465,158.068Z" transform="translate(-63.688 -82.712)" fill="#657bf5"/><g transform="translate(44.532 136.838)"><path d="M173.906,165.4l-54.683-12.8L82.8,174.45l1.643,1.434L138.673,189.6l35.253-22.652Z" transform="translate(-82.803 -152.595)" fill="#474644"/><path d="M116.8,152.86l-33.336,20L135.265,186,167.8,165Z" transform="translate(-80.132 -151.518)" fill="#f1f1f1"/></g><path d="M98.452,156.291a17.877,17.877,0,0,1-3.164,2.7,10.068,10.068,0,0,1,1.448-3.838A11.187,11.187,0,0,0,98.452,156.291Z" transform="translate(12.453 -5.347)" fill="#474644"/><path d="M81.92,134.3c-.01.2,22.337.491,22.676,2.577a65.411,65.411,0,0,1,.932,6.627,32.947,32.947,0,0,0,2.4,10.607,23.083,23.083,0,0,1-3.62.927c-.324,2.663-.927,14.095-.927,14.095l-3.995-11.1s-9.381,5.316-12.166,4.44c-1.985-.623-4.151-1.321-4.627-3.6a14.289,14.289,0,0,1-.248-1.959c-.137-2.238.116-4.653.116-6.779C82.467,144.994,83.014,139.359,81.92,134.3Z" transform="translate(-41.858 -90.101)" fill="#efb68f"/><path d="M78.307,155.857c1.3-.678,2.607-1.428,3.913-2.228,4.982-2.744,10.227-5.437,14.657-8.652,1.19,6.485,1.6,21.714-1.969,44.993-.091.608,27.663,12.292,30.043,12.672,2.81.451,15.457-1.63,16.252,1.048.911,3.053-10.353,2.562-9.234,4.167l6.89,4.572,9.964,2.521a49.7,49.7,0,0,1-8.561,1.924c-.653.091-4.749,1.21-10.91-1.564a69.269,69.269,0,0,0-14.733-4.693c-5.539-1.256-11.1-2.42-16.56-3.691-4.962-1.22-9.893-2.481-14.581-4.065-2.349-.82-6.313-1.812-7.483-3.873-2.2-3.984-.79-26.018.658-42.634A4.723,4.723,0,0,0,78.307,155.857Z" transform="translate(-70.566 -46.707)" fill="#f6c29e"/><path d="M104.014,192.478c-2.283,7.832-29.557,2.511-30.007-4.177,0,0,9.28-37.535,17.684-44.2,7.594-6.025,13-2.557,15.224,2.218C111.8,156.791,104.014,192.478,104.014,192.478Z" transform="translate(-74.007 -63.299)" fill="#5368de"/><path d="M88.068,136.912s.82,3.357.932,3.909c.172.891-.552,2.658-2.658,3.584,2.359,1.726,4.88,4.126,7.366,6.313.167-.673-1.18-6.936-2.734-10.272A12.586,12.586,0,0,0,88.068,136.912Z" transform="translate(-23.893 -79.473)" fill="#5368de"/><path d="M102.734,144.7a95.8,95.8,0,0,0-2.85,11.938c-15.988-1.291-17.629-6.2-18.788-8.8.572-1.919,2.152-6.551,2.891-9.331,0,0,1.742-.552,1.742-.927-.208,4.329,5.372,6.5,8.46,7.24C96.462,145.364,100.5,145.576,102.734,144.7Z" transform="translate(-45.206 -76.771)" fill="#5368de"/><g transform="translate(30.302 4.721)"><path d="M112.746,166.719c-1.119,3.033-1.438,7.2-5.058,7.923-5.726,1.144-15-1.453-19.983-7.493-5.407-6.546-8.247-16.834-4.956-25.78,1.321-3.59,8.141-3.721,11.366-6.283a29.785,29.785,0,0,1,7.584-4.081c7.66-3.088,13.907-2.759,14.237,4.987.167,3.913.795,7.832.5,11.741C115.5,160.147,114.341,162.4,112.746,166.719Z" transform="translate(-74.493 -115.591)" fill="#f6c29e"/><path d="M109.816,127.44a20.216,20.216,0,0,1,11.766,7.756c3.767,5.858,2.855,12.434.051,15.72,0-.015.03-4.045-1.706-4.258-3.63-.446-6.85,1.174-10.014,2.719a18.088,18.088,0,0,1-4.344,1.58c-1.478.324-4.536,1.185-5.513,2.506-1.772,2.415-.395,6.6-.851,9.361-.278,1.676-1.078,2.866-2.992,1.838-1.261-.678-1.6-2.43-2.749-3.271a2.817,2.817,0,0,0-4.491,1.585c-.456,1.671.987,10.44,3.382,13.988a32.051,32.051,0,0,1-3.286-2.779c-1.752-1.8-3.382-2.936-4.445-5.194-1.372-2.926-1.195-4.562-2.142-7.63a36.2,36.2,0,0,1-1.549-9.214c-.132-2.526-.532-2.962-.82-5.468a14.446,14.446,0,0,1,2.78-10.693,19.384,19.384,0,0,1,5.625-5.23c1.149-.709,2.4-1.119,3.584-1.742a15.849,15.849,0,0,1,2.865-1.57C99.629,126.033,105.123,126.346,109.816,127.44Z" transform="translate(-79.992 -126.499)" fill="#352d28"/></g><g transform="translate(29.955)"><path d="M99.563,160.765c6,1.038,24.17-3.22,25.8-11.452,0,0-.608-27.045-29.172-23.41-18.489,3.306-16.181,24.1-16.181,24.1C80.365,153.2,94.42,159.879,99.563,160.765Z" transform="translate(-79.924 -125.567)" fill="#5368de"/><path d="M124.5,139.573c-4.364.516-9.412,2.572-14.859,5.964a15.887,15.887,0,0,1-14.631,1.018c-3.61-1.539-7.964-3.625-12.5-6.091,6.668,1.418,32.964-2.582,32.24-10.429C114.752,130.035,128.644,139.087,124.5,139.573Z" transform="translate(-69.408 -107.413)" fill="#657bf5"/></g><path d="M100.47,148.775l-11.351,5.793-.908-5.981,11.351-5.793Z" transform="translate(-16.301 -55.574)" fill="#f1f1f1"/><path d="M89.367,127.3c0,.775-1.357,1.407-3.033,1.407S83.3,128.076,83.3,127.3s1.357-1.413,3.033-1.413S89.367,126.522,89.367,127.3Z" transform="translate(-36.243 -124.257)" fill="#0f6ea1"/><path d="M113.633,164.552c-.891-.709-6.536-8.571-11.244-15.254-3.751,2.744-6,6.1-9.893,8.652l13.032,14.393c.319,1.053-.405,2.911-.147,3.8.208.744,1.185,1.478,1.742,2.01,1.493,1.428,3.671,2.79,5.756,2.785,3.1,0,4.389-3.6,5.989-5.746C121.8,171.255,116.666,166.977,113.633,164.552Z" transform="translate(1.11 -29.151)" fill="#f6c29e"/><path d="M105.539,153.879l-7.442,10.7c-.481.765-2.233.025-1.969-.926l7.463-11.148C104.339,151.388,106.375,152.806,105.539,153.879Z" transform="translate(15.755 -17.775)" fill="#474644"/></g></g><rect width="97" height="9" rx="4.5" transform="translate(1173 1556)" fill="#677df5"/><rect width="97" height="9" rx="4.5" transform="translate(1254 1539)" fill="#6379f5"/><rect width="40" height="9" rx="4.5" transform="translate(1278 1556)" fill="#677df5"/><rect width="40" height="9" rx="4.5" transform="translate(1328 1556)" fill="#677df5"/><rect width="40" height="9" rx="4.5" transform="translate(1206 1539)" fill="#6379f5"/><path d="M539,173.655c3.932-3.772,5.56-7.65,10.977-8.863a10.2,10.2,0,0,0,3.235-.983c2.637-1.639,2.1-5.376,2.691-8.334,1.166-5.83,8.781-9.516,14.364-6.951,2.338,1.074,4.458,3.054,7.044,2.879,5.169-.353,4.55-6.729,8.083-10.366,3.336-3.435,10.135-3.885,14.472-1.707a22.224,22.224,0,0,1,7.615,6.186c2.1,2.725,2.009,6.933,3.56,9.935,1.479,2.9,5.02,4.163,6.564,7.017a8.692,8.692,0,0,1,.659,7.724c-2.207,5.3-8.685,9.123-14.559,9.123H524.368S534.623,177.855,539,173.655Z" transform="translate(691.632 1179.766)" fill="#f3faff"/><path d="M449.176,153.949c-4.062-3.9-5.743-7.9-11.338-9.154a10.542,10.542,0,0,1-3.341-1.015c-2.724-1.692-2.169-5.553-2.779-8.61-1.2-6.022-9.071-9.828-14.837-7.18-2.415,1.111-4.6,3.157-7.276,2.974-5.34-.363-4.7-6.95-8.35-10.707-3.447-3.548-10.468-4.011-14.948-1.762a22.922,22.922,0,0,0-7.867,6.389c-2.172,2.812-2.074,7.161-3.676,10.261-1.527,3-5.184,4.3-6.78,7.249a8.982,8.982,0,0,0-.681,7.978c2.28,5.474,8.972,9.423,15.039,9.423h81.953S453.7,158.288,449.176,153.949Z" transform="translate(566.939 1220.387)" fill="#f3faff"/></g></svg>