<svg xmlns="http://www.w3.org/2000/svg" width="239" height="296" viewBox="0 0 239 296"><g transform="translate(-419 -848)"><path d="M10,0H229a10,10,0,0,1,10,10V285a10,10,0,0,1-10,10H10A10,10,0,0,1,0,285V10A10,10,0,0,1,10,0Z" transform="translate(419 848)" fill="#3d2274"/><path d="M3,0H15a3,3,0,0,1,3,3V156a0,0,0,0,1,0,0H9a9,9,0,0,1-9-9V3A3,3,0,0,1,3,0Z" transform="translate(419 987)" fill="#ac22bf" opacity="0.76"/><path d="M4,0H19a3,3,0,0,1,3,3V116a0,0,0,0,1,0,0H0a0,0,0,0,1,0,0V4A4,4,0,0,1,4,0Z" transform="translate(522 1028)" fill="#34eeff" opacity="0.583"/><rect width="42" height="116" rx="4" transform="translate(597 1028)" fill="#34eeff" opacity="0.583"/><rect width="33" height="101" rx="4" transform="translate(581 981)" fill="#c244af" opacity="0.583"/><path d="M4,0H18a4,4,0,0,1,4,4V87a0,0,0,0,1,0,0H0a0,0,0,0,1,0,0V4A4,4,0,0,1,4,0Z" transform="translate(533 1057)" fill="#c244af" opacity="0.583"/><rect width="22" height="44" rx="4" transform="translate(601 959)" fill="#34eeff" opacity="0.583"/><rect width="22" height="32" rx="4" transform="translate(474 1064)" fill="#34eeff" opacity="0.583"/><rect width="22" height="25" rx="4" transform="translate(426 926)" fill="#34eeff" opacity="0.583"/><rect width="22" height="28" rx="3" transform="translate(465 1049)" fill="#b02fc3" opacity="0.761"/><rect width="22" height="24" rx="3" transform="translate(627 901)" fill="#b02fc3" opacity="0.761"/><rect width="13" height="24" rx="3" transform="translate(419 939)" fill="#b02fc3" opacity="0.761"/><rect width="22" height="16" rx="3" transform="translate(452 848)" fill="#b02fc3" opacity="0.761"/></g></svg>