<svg xmlns="http://www.w3.org/2000/svg" width="240.002" height="295" viewBox="0 0 240.002 295"><g transform="translate(-936.495 -848)"><path d="M10,0H229a10,10,0,0,1,10,10V285a10,10,0,0,1-10,10H10A10,10,0,0,1,0,285V10A10,10,0,0,1,10,0Z" transform="translate(937 848)" fill="#123e6b"/><g transform="translate(0 58)"><path d="M5027.217,5451.856s-17.3,75.338,96.651,78.371,123.355,85.652,123.355,85.652" transform="translate(-4089.278 -4534.153)" fill="none" stroke="#fdfdfd" stroke-width="1" opacity="0.188"/><path d="M5027.279,5451.856s-18.434,91.717,102.979,95.41,131.432,104.274,131.432,104.274" transform="translate(-4089.278 -4569.814)" fill="none" stroke="#fdfdfd" stroke-width="1" opacity="0.188"/><path d="M5027.294,5451.856s-18.714,97.42,104.549,101.342,133.436,110.757,133.436,110.757" transform="translate(-4089.279 -4600.814)" fill="none" stroke="#fdfdfd" stroke-width="1" opacity="0.188"/><path d="M5027.294,5451.856s-18.3,98.9,104.549,101.342,133.436,110.757,133.436,110.757" transform="translate(-4089.279 -4630.814)" fill="none" stroke="#fdfdfd" stroke-width="1" opacity="0.188"/></g><g transform="translate(0 58)"><path d="M0,22.424l40.788-9.2L48.731,0,7.928,9.229Z" transform="translate(1097 1004.804) rotate(-31)" fill="#d4dbe3"/><path d="M0,22.424l40.788-9.2L48.731,0,7.928,9.229Z" transform="translate(1097 1063.804) rotate(-31)" fill="#d4dbe3"/><path d="M0,22.424l40.788-9.2L48.731,0,7.928,9.229Z" transform="translate(1097 1032.924) rotate(-31)" fill="#d4dbe3"/><path d="M0,18.349l21.149-4.856L27.605,0,7.271,5.154Z" transform="translate(1099.568 977.365) rotate(-31)" fill="#d4dbe3"/><path d="M0,0,43.505.592,54.73,12.216l-43.194-.27Z" transform="matrix(0.719, 0.695, -0.695, 0.719, 1108.462, 977.235)" fill="#da8684"/><path d="M0,0,43.505.592,54.73,12.216l-43.194-.27Z" transform="matrix(0.719, 0.695, -0.695, 0.719, 1108.462, 1007.698)" fill="#da8684"/><path d="M0,0,43.505.592,54.73,12.216l-43.194-.27Z" transform="matrix(0.719, 0.695, -0.695, 0.719, 1108.462, 1036.287)" fill="#da8684"/></g><g transform="translate(0 -129)"><path d="M0,22.424l40.788-9.2L48.731,0,7.928,9.229Z" transform="translate(1097 1004.804) rotate(-31)" fill="#d4dbe3"/><path d="M0,22.424l40.788-9.2L48.731,0,7.928,9.229Z" transform="translate(1097 1063.804) rotate(-31)" fill="#d4dbe3"/><path d="M0,22.424l40.788-9.2L48.731,0,7.928,9.229Z" transform="translate(1097 1032.924) rotate(-31)" fill="#d4dbe3"/><path d="M0,0,43.505.592,54.73,12.216l-43.194-.27Z" transform="matrix(0.719, 0.695, -0.695, 0.719, 1108.462, 977.235)" fill="#da8684"/><path d="M0,0,43.505.592,54.73,12.216l-43.194-.27Z" transform="matrix(0.719, 0.695, -0.695, 0.719, 1108.462, 1007.698)" fill="#da8684"/><path d="M0,0,43.505.592,54.73,12.216l-43.194-.27Z" transform="matrix(0.719, 0.695, -0.695, 0.719, 1108.462, 1036.287)" fill="#da8684"/></g><g transform="translate(0 58)"><path d="M0,37.634,68.453,22.187,81.784,0,13.306,15.489Z" transform="translate(1014.514 953.38) rotate(-31)" fill="#d4dbe3"/><path d="M0,37.634,68.453,22.187,81.784,0,13.306,15.489Z" transform="translate(1014.514 1052.398) rotate(-31)" fill="#d4dbe3"/><path d="M0,37.634,68.453,22.187,81.784,0,13.306,15.489Z" transform="translate(1014.514 1000.573) rotate(-31)" fill="#d4dbe3"/><path d="M0,30.794l35.493-8.15L46.329,0,12.2,8.649Z" transform="translate(1018.823 907.331) rotate(-31)" fill="#d4dbe3"/><path d="M0,0,73.014.993,91.852,20.5,19.36,20.048Z" transform="matrix(0.719, 0.695, -0.695, 0.719, 1033.75, 907.113)" fill="#da8684"/><path d="M0,0,73.014.993,91.852,20.5,19.36,20.048Z" transform="matrix(0.719, 0.695, -0.695, 0.719, 1033.75, 958.238)" fill="#da8684"/><path d="M0,0,73.014.993,91.852,20.5,19.36,20.048Z" transform="matrix(0.719, 0.695, -0.695, 0.719, 1033.75, 1006.218)" fill="#da8684"/></g></g></svg>