<svg xmlns="http://www.w3.org/2000/svg" xmlns:xlink="http://www.w3.org/1999/xlink" width="240.002" height="295" viewBox="0 0 240.002 295"><defs><clipPath id="a"><rect width="100" height="34" fill="none"/></clipPath></defs><g transform="translate(-131.496 -929)"><g transform="translate(-38 105)"><text transform="translate(195 838)" fill="#fff" font-size="20" font-family="Poppins-SemiBold, Poppins" font-weight="600"><tspan x="0" y="21">Math </tspan></text></g><path d="M10,0H229a10,10,0,0,1,10,10V285a10,10,0,0,1-10,10H10A10,10,0,0,1,0,285V10A10,10,0,0,1,10,0Z" transform="translate(132 929)" fill="#05213f"/><path d="M5027.23,5451.856s-17.54,85.831,97.988,89.286,125.061,97.581,125.061,97.581" transform="translate(-4894.278 -4415.153)" fill="none" stroke="#fdfdfd" stroke-width="1" opacity="0.188"/><path d="M5027.294,5451.856s-18.714,97.42,104.549,101.342,133.436,110.757,133.436,110.757" transform="translate(-4894.278 -4450.814)" fill="none" stroke="#fdfdfd" stroke-width="1" opacity="0.188"/><path d="M5027.294,5451.856s-18.714,97.42,104.549,101.342,133.436,110.757,133.436,110.757" transform="translate(-4894.279 -4481.814)" fill="none" stroke="#fdfdfd" stroke-width="1" opacity="0.188"/><path d="M5027.294,5451.856s-18.3,98.9,104.549,101.342,133.436,110.757,133.436,110.757" transform="translate(-4894.279 -4511.814)" fill="none" stroke="#fdfdfd" stroke-width="1" opacity="0.188"/><line x1="55" y2="54" transform="translate(209.5 1076.5)" fill="none" stroke="#d66f7b" stroke-width="10"/><g transform="translate(243 1107)" fill="none" stroke="#445aa5" stroke-width="10"><circle cx="28" cy="28" r="28" stroke="none"/><circle cx="28" cy="28" r="23" fill="none"/></g><path d="M37.205-14.67,80.615,35.267l-93.384-6.494h0Z" transform="translate(351.504 1151.935) rotate(131)" fill="#d0d37c"/><rect width="36" height="36" transform="translate(201 1167)" fill="#31b7c3"/><g transform="translate(265 929)" clip-path="url(#a)"><g transform="translate(-327 -816)"><circle cx="1" cy="1" r="1" transform="translate(327 816)" fill="#fff" opacity="0.538"/></g><g transform="translate(-320 -816)"><circle cx="1" cy="1" r="1" transform="translate(327 816)" fill="#fff" opacity="0.538"/></g><g transform="translate(-313 -816)"><circle cx="1" cy="1" r="1" transform="translate(327 816)" fill="#fff" opacity="0.538"/></g><g transform="translate(-306 -816)"><circle cx="1" cy="1" r="1" transform="translate(327 816)" fill="#fff" opacity="0.538"/></g><g transform="translate(-299 -816)"><circle cx="1" cy="1" r="1" transform="translate(327 816)" fill="#fff" opacity="0.538"/></g><g transform="translate(-292 -816)"><circle cx="1" cy="1" r="1" transform="translate(327 816)" fill="#fff" opacity="0.538"/></g><g transform="translate(-285 -816)"><circle cx="1" cy="1" r="1" transform="translate(327 816)" fill="#fff" opacity="0.538"/></g><g transform="translate(-278 -816)"><circle cx="1" cy="1" r="1" transform="translate(327 816)" fill="#fff" opacity="0.538"/></g><g transform="translate(-271 -816)"><circle cx="1" cy="1" r="1" transform="translate(327 816)" fill="#fff" opacity="0.538"/></g><g transform="translate(-264 -816)"><circle cx="1" cy="1" r="1" transform="translate(327 816)" fill="#fff" opacity="0.538"/></g><g transform="translate(-257 -816)"><circle cx="1" cy="1" r="1" transform="translate(327 816)" fill="#fff" opacity="0.538"/></g><g transform="translate(-250 -816)"><circle cx="1" cy="1" r="1" transform="translate(327 816)" fill="#fff" opacity="0.538"/></g><g transform="translate(-243 -816)"><circle cx="1" cy="1" r="1" transform="translate(327 816)" fill="#fff" opacity="0.538"/></g><g transform="translate(-236 -816)"><circle cx="1" cy="1" r="1" transform="translate(327 816)" fill="#fff" opacity="0.538"/></g><g transform="translate(-229 -816)"><circle cx="1" cy="1" r="1" transform="translate(327 816)" fill="#fff" opacity="0.538"/></g><g transform="translate(-327 -810)"><circle cx="1" cy="1" r="1" transform="translate(327 816)" fill="#fff" opacity="0.538"/></g><g transform="translate(-320 -810)"><circle cx="1" cy="1" r="1" transform="translate(327 816)" fill="#fff" opacity="0.538"/></g><g transform="translate(-313 -810)"><circle cx="1" cy="1" r="1" transform="translate(327 816)" fill="#fff" opacity="0.538"/></g><g transform="translate(-306 -810)"><circle cx="1" cy="1" r="1" transform="translate(327 816)" fill="#fff" opacity="0.538"/></g><g transform="translate(-299 -810)"><circle cx="1" cy="1" r="1" transform="translate(327 816)" fill="#fff" opacity="0.538"/></g><g transform="translate(-292 -810)"><circle cx="1" cy="1" r="1" transform="translate(327 816)" fill="#fff" opacity="0.538"/></g><g transform="translate(-285 -810)"><circle cx="1" cy="1" r="1" transform="translate(327 816)" fill="#fff" opacity="0.538"/></g><g transform="translate(-278 -810)"><circle cx="1" cy="1" r="1" transform="translate(327 816)" fill="#fff" opacity="0.538"/></g><g transform="translate(-271 -810)"><circle cx="1" cy="1" r="1" transform="translate(327 816)" fill="#fff" opacity="0.538"/></g><g transform="translate(-264 -810)"><circle cx="1" cy="1" r="1" transform="translate(327 816)" fill="#fff" opacity="0.538"/></g><g transform="translate(-257 -810)"><circle cx="1" cy="1" r="1" transform="translate(327 816)" fill="#fff" opacity="0.538"/></g><g transform="translate(-250 -810)"><circle cx="1" cy="1" r="1" transform="translate(327 816)" fill="#fff" opacity="0.538"/></g><g transform="translate(-243 -810)"><circle cx="1" cy="1" r="1" transform="translate(327 816)" fill="#fff" opacity="0.538"/></g><g transform="translate(-236 -810)"><circle cx="1" cy="1" r="1" transform="translate(327 816)" fill="#fff" opacity="0.538"/></g><g transform="translate(-229 -810)"><circle cx="1" cy="1" r="1" transform="translate(327 816)" fill="#fff" opacity="0.538"/></g><g transform="translate(-327 -804)"><circle cx="1" cy="1" r="1" transform="translate(327 816)" fill="#fff" opacity="0.538"/></g><g transform="translate(-320 -804)"><circle cx="1" cy="1" r="1" transform="translate(327 816)" fill="#fff" opacity="0.538"/></g><g transform="translate(-313 -804)"><circle cx="1" cy="1" r="1" transform="translate(327 816)" fill="#fff" opacity="0.538"/></g><g transform="translate(-306 -804)"><circle cx="1" cy="1" r="1" transform="translate(327 816)" fill="#fff" opacity="0.538"/></g><g transform="translate(-299 -804)"><circle cx="1" cy="1" r="1" transform="translate(327 816)" fill="#fff" opacity="0.538"/></g><g transform="translate(-292 -804)"><circle cx="1" cy="1" r="1" transform="translate(327 816)" fill="#fff" opacity="0.538"/></g><g transform="translate(-285 -804)"><circle cx="1" cy="1" r="1" transform="translate(327 816)" fill="#fff" opacity="0.538"/></g><g transform="translate(-278 -804)"><circle cx="1" cy="1" r="1" transform="translate(327 816)" fill="#fff" opacity="0.538"/></g><g transform="translate(-271 -804)"><circle cx="1" cy="1" r="1" transform="translate(327 816)" fill="#fff" opacity="0.538"/></g><g transform="translate(-264 -804)"><circle cx="1" cy="1" r="1" transform="translate(327 816)" fill="#fff" opacity="0.538"/></g><g transform="translate(-257 -804)"><circle cx="1" cy="1" r="1" transform="translate(327 816)" fill="#fff" opacity="0.538"/></g><g transform="translate(-250 -804)"><circle cx="1" cy="1" r="1" transform="translate(327 816)" fill="#fff" opacity="0.538"/></g><g transform="translate(-243 -804)"><circle cx="1" cy="1" r="1" transform="translate(327 816)" fill="#fff" opacity="0.538"/></g><g transform="translate(-236 -804)"><circle cx="1" cy="1" r="1" transform="translate(327 816)" fill="#fff" opacity="0.538"/></g><g transform="translate(-229 -804)"><circle cx="1" cy="1" r="1" transform="translate(327 816)" fill="#fff" opacity="0.538"/></g><g transform="translate(-327 -798)"><circle cx="1" cy="1" r="1" transform="translate(327 816)" fill="#fff" opacity="0.538"/></g><g transform="translate(-320 -798)"><circle cx="1" cy="1" r="1" transform="translate(327 816)" fill="#fff" opacity="0.538"/></g><g transform="translate(-313 -798)"><circle cx="1" cy="1" r="1" transform="translate(327 816)" fill="#fff" opacity="0.538"/></g><g transform="translate(-306 -798)"><circle cx="1" cy="1" r="1" transform="translate(327 816)" fill="#fff" opacity="0.538"/></g><g transform="translate(-299 -798)"><circle cx="1" cy="1" r="1" transform="translate(327 816)" fill="#fff" opacity="0.538"/></g><g transform="translate(-292 -798)"><circle cx="1" cy="1" r="1" transform="translate(327 816)" fill="#fff" opacity="0.538"/></g><g transform="translate(-285 -798)"><circle cx="1" cy="1" r="1" transform="translate(327 816)" fill="#fff" opacity="0.538"/></g><g transform="translate(-278 -798)"><circle cx="1" cy="1" r="1" transform="translate(327 816)" fill="#fff" opacity="0.538"/></g><g transform="translate(-271 -798)"><circle cx="1" cy="1" r="1" transform="translate(327 816)" fill="#fff" opacity="0.538"/></g><g transform="translate(-264 -798)"><circle cx="1" cy="1" r="1" transform="translate(327 816)" fill="#fff" opacity="0.538"/></g><g transform="translate(-257 -798)"><circle cx="1" cy="1" r="1" transform="translate(327 816)" fill="#fff" opacity="0.538"/></g><g transform="translate(-250 -798)"><circle cx="1" cy="1" r="1" transform="translate(327 816)" fill="#fff" opacity="0.538"/></g><g transform="translate(-243 -798)"><circle cx="1" cy="1" r="1" transform="translate(327 816)" fill="#fff" opacity="0.538"/></g><g transform="translate(-236 -798)"><circle cx="1" cy="1" r="1" transform="translate(327 816)" fill="#fff" opacity="0.538"/></g><g transform="translate(-229 -798)"><circle cx="1" cy="1" r="1" transform="translate(327 816)" fill="#fff" opacity="0.538"/></g><g transform="translate(-327 -792)"><circle cx="1" cy="1" r="1" transform="translate(327 816)" fill="#fff" opacity="0.538"/></g><g transform="translate(-320 -792)"><circle cx="1" cy="1" r="1" transform="translate(327 816)" fill="#fff" opacity="0.538"/></g><g transform="translate(-313 -792)"><circle cx="1" cy="1" r="1" transform="translate(327 816)" fill="#fff" opacity="0.538"/></g><g transform="translate(-306 -792)"><circle cx="1" cy="1" r="1" transform="translate(327 816)" fill="#fff" opacity="0.538"/></g><g transform="translate(-299 -792)"><circle cx="1" cy="1" r="1" transform="translate(327 816)" fill="#fff" opacity="0.538"/></g><g transform="translate(-292 -792)"><circle cx="1" cy="1" r="1" transform="translate(327 816)" fill="#fff" opacity="0.538"/></g><g transform="translate(-285 -792)"><circle cx="1" cy="1" r="1" transform="translate(327 816)" fill="#fff" opacity="0.538"/></g><g transform="translate(-278 -792)"><circle cx="1" cy="1" r="1" transform="translate(327 816)" fill="#fff" opacity="0.538"/></g><g transform="translate(-271 -792)"><circle cx="1" cy="1" r="1" transform="translate(327 816)" fill="#fff" opacity="0.538"/></g><g transform="translate(-264 -792)"><circle cx="1" cy="1" r="1" transform="translate(327 816)" fill="#fff" opacity="0.538"/></g><g transform="translate(-257 -792)"><circle cx="1" cy="1" r="1" transform="translate(327 816)" fill="#fff" opacity="0.538"/></g><g transform="translate(-250 -792)"><circle cx="1" cy="1" r="1" transform="translate(327 816)" fill="#fff" opacity="0.538"/></g><g transform="translate(-243 -792)"><circle cx="1" cy="1" r="1" transform="translate(327 816)" fill="#fff" opacity="0.538"/></g><g transform="translate(-236 -792)"><circle cx="1" cy="1" r="1" transform="translate(327 816)" fill="#fff" opacity="0.538"/></g><g transform="translate(-229 -792)"><circle cx="1" cy="1" r="1" transform="translate(327 816)" fill="#fff" opacity="0.538"/></g><g transform="translate(-327 -786)"><circle cx="1" cy="1" r="1" transform="translate(327 816)" fill="#fff" opacity="0.538"/></g><g transform="translate(-320 -786)"><circle cx="1" cy="1" r="1" transform="translate(327 816)" fill="#fff" opacity="0.538"/></g><g transform="translate(-313 -786)"><circle cx="1" cy="1" r="1" transform="translate(327 816)" fill="#fff" opacity="0.538"/></g><g transform="translate(-306 -786)"><circle cx="1" cy="1" r="1" transform="translate(327 816)" fill="#fff" opacity="0.538"/></g><g transform="translate(-299 -786)"><circle cx="1" cy="1" r="1" transform="translate(327 816)" fill="#fff" opacity="0.538"/></g><g transform="translate(-292 -786)"><circle cx="1" cy="1" r="1" transform="translate(327 816)" fill="#fff" opacity="0.538"/></g><g transform="translate(-285 -786)"><circle cx="1" cy="1" r="1" transform="translate(327 816)" fill="#fff" opacity="0.538"/></g><g transform="translate(-278 -786)"><circle cx="1" cy="1" r="1" transform="translate(327 816)" fill="#fff" opacity="0.538"/></g><g transform="translate(-271 -786)"><circle cx="1" cy="1" r="1" transform="translate(327 816)" fill="#fff" opacity="0.538"/></g><g transform="translate(-264 -786)"><circle cx="1" cy="1" r="1" transform="translate(327 816)" fill="#fff" opacity="0.538"/></g><g transform="translate(-257 -786)"><circle cx="1" cy="1" r="1" transform="translate(327 816)" fill="#fff" opacity="0.538"/></g><g transform="translate(-250 -786)"><circle cx="1" cy="1" r="1" transform="translate(327 816)" fill="#fff" opacity="0.538"/></g><g transform="translate(-243 -786)"><circle cx="1" cy="1" r="1" transform="translate(327 816)" fill="#fff" opacity="0.538"/></g><g transform="translate(-236 -786)"><circle cx="1" cy="1" r="1" transform="translate(327 816)" fill="#fff" opacity="0.538"/></g><g transform="translate(-229 -786)"><circle cx="1" cy="1" r="1" transform="translate(327 816)" fill="#fff" opacity="0.538"/></g></g></g></svg>