<svg xmlns="http://www.w3.org/2000/svg" xmlns:xlink="http://www.w3.org/1999/xlink" width="239" height="295.4" viewBox="0 0 239 295.4"><defs><clipPath id="a"><rect width="104" height="119" fill="none"/></clipPath></defs><g transform="translate(-678 -848)"><path d="M10,0H229a10,10,0,0,1,10,10V285a10,10,0,0,1-10,10H10A10,10,0,0,1,0,285V10A10,10,0,0,1,10,0Z" transform="translate(678 848)" fill="#1f2167"/><circle cx="77" cy="77" r="77" transform="translate(763 935)" fill="#12d6cf" opacity="0.871"/><path d="M47.593-14.67l52.433,60.317L-12.769,37.8h0Z" transform="translate(797.239 1058.285) rotate(131)" fill="#d0d37c"/><g transform="translate(811 902)" clip-path="url(#a)"><g transform="translate(-327 -816)"><circle cx="1" cy="1" r="1" transform="translate(327 816)" fill="#fff" opacity="0.538"/></g><g transform="translate(-315 -816)"><circle cx="1" cy="1" r="1" transform="translate(327 816)" fill="#fff" opacity="0.538"/></g><g transform="translate(-303 -816)"><circle cx="1" cy="1" r="1" transform="translate(327 816)" fill="#fff" opacity="0.538"/></g><g transform="translate(-291 -816)"><circle cx="1" cy="1" r="1" transform="translate(327 816)" fill="#fff" opacity="0.538"/></g><g transform="translate(-279 -816)"><circle cx="1" cy="1" r="1" transform="translate(327 816)" fill="#fff" opacity="0.538"/></g><g transform="translate(-267 -816)"><circle cx="1" cy="1" r="1" transform="translate(327 816)" fill="#fff" opacity="0.538"/></g><g transform="translate(-255 -816)"><circle cx="1" cy="1" r="1" transform="translate(327 816)" fill="#fff" opacity="0.538"/></g><g transform="translate(-243 -816)"><circle cx="1" cy="1" r="1" transform="translate(327 816)" fill="#fff" opacity="0.538"/></g><g transform="translate(-231 -816)"><circle cx="1" cy="1" r="1" transform="translate(327 816)" fill="#fff" opacity="0.538"/></g><g transform="translate(-327 -803)"><circle cx="1" cy="1" r="1" transform="translate(327 816)" fill="#fff" opacity="0.538"/></g><g transform="translate(-315 -803)"><circle cx="1" cy="1" r="1" transform="translate(327 816)" fill="#fff" opacity="0.538"/></g><g transform="translate(-303 -803)"><circle cx="1" cy="1" r="1" transform="translate(327 816)" fill="#fff" opacity="0.538"/></g><g transform="translate(-291 -803)"><circle cx="1" cy="1" r="1" transform="translate(327 816)" fill="#fff" opacity="0.538"/></g><g transform="translate(-279 -803)"><circle cx="1" cy="1" r="1" transform="translate(327 816)" fill="#fff" opacity="0.538"/></g><g transform="translate(-267 -803)"><circle cx="1" cy="1" r="1" transform="translate(327 816)" fill="#fff" opacity="0.538"/></g><g transform="translate(-255 -803)"><circle cx="1" cy="1" r="1" transform="translate(327 816)" fill="#fff" opacity="0.538"/></g><g transform="translate(-243 -803)"><circle cx="1" cy="1" r="1" transform="translate(327 816)" fill="#fff" opacity="0.538"/></g><g transform="translate(-231 -803)"><circle cx="1" cy="1" r="1" transform="translate(327 816)" fill="#fff" opacity="0.538"/></g><g transform="translate(-327 -790)"><circle cx="1" cy="1" r="1" transform="translate(327 816)" fill="#fff" opacity="0.538"/></g><g transform="translate(-315 -790)"><circle cx="1" cy="1" r="1" transform="translate(327 816)" fill="#fff" opacity="0.538"/></g><g transform="translate(-303 -790)"><circle cx="1" cy="1" r="1" transform="translate(327 816)" fill="#fff" opacity="0.538"/></g><g transform="translate(-291 -790)"><circle cx="1" cy="1" r="1" transform="translate(327 816)" fill="#fff" opacity="0.538"/></g><g transform="translate(-279 -790)"><circle cx="1" cy="1" r="1" transform="translate(327 816)" fill="#fff" opacity="0.538"/></g><g transform="translate(-267 -790)"><circle cx="1" cy="1" r="1" transform="translate(327 816)" fill="#fff" opacity="0.538"/></g><g transform="translate(-255 -790)"><circle cx="1" cy="1" r="1" transform="translate(327 816)" fill="#fff" opacity="0.538"/></g><g transform="translate(-243 -790)"><circle cx="1" cy="1" r="1" transform="translate(327 816)" fill="#fff" opacity="0.538"/></g><g transform="translate(-231 -790)"><circle cx="1" cy="1" r="1" transform="translate(327 816)" fill="#fff" opacity="0.538"/></g><g transform="translate(-327 -777)"><circle cx="1" cy="1" r="1" transform="translate(327 816)" fill="#fff" opacity="0.538"/></g><g transform="translate(-315 -777)"><circle cx="1" cy="1" r="1" transform="translate(327 816)" fill="#fff" opacity="0.538"/></g><g transform="translate(-303 -777)"><circle cx="1" cy="1" r="1" transform="translate(327 816)" fill="#fff" opacity="0.538"/></g><g transform="translate(-291 -777)"><circle cx="1" cy="1" r="1" transform="translate(327 816)" fill="#fff" opacity="0.538"/></g><g transform="translate(-279 -777)"><circle cx="1" cy="1" r="1" transform="translate(327 816)" fill="#fff" opacity="0.538"/></g><g transform="translate(-267 -777)"><circle cx="1" cy="1" r="1" transform="translate(327 816)" fill="#fff" opacity="0.538"/></g><g transform="translate(-255 -777)"><circle cx="1" cy="1" r="1" transform="translate(327 816)" fill="#fff" opacity="0.538"/></g><g transform="translate(-243 -777)"><circle cx="1" cy="1" r="1" transform="translate(327 816)" fill="#fff" opacity="0.538"/></g><g transform="translate(-231 -777)"><circle cx="1" cy="1" r="1" transform="translate(327 816)" fill="#fff" opacity="0.538"/></g><g transform="translate(-327 -764)"><circle cx="1" cy="1" r="1" transform="translate(327 816)" fill="#fff" opacity="0.538"/></g><g transform="translate(-315 -764)"><circle cx="1" cy="1" r="1" transform="translate(327 816)" fill="#fff" opacity="0.538"/></g><g transform="translate(-303 -764)"><circle cx="1" cy="1" r="1" transform="translate(327 816)" fill="#fff" opacity="0.538"/></g><g transform="translate(-291 -764)"><circle cx="1" cy="1" r="1" transform="translate(327 816)" fill="#fff" opacity="0.538"/></g><g transform="translate(-279 -764)"><circle cx="1" cy="1" r="1" transform="translate(327 816)" fill="#fff" opacity="0.538"/></g><g transform="translate(-267 -764)"><circle cx="1" cy="1" r="1" transform="translate(327 816)" fill="#fff" opacity="0.538"/></g><g transform="translate(-255 -764)"><circle cx="1" cy="1" r="1" transform="translate(327 816)" fill="#fff" opacity="0.538"/></g><g transform="translate(-243 -764)"><circle cx="1" cy="1" r="1" transform="translate(327 816)" fill="#fff" opacity="0.538"/></g><g transform="translate(-231 -764)"><circle cx="1" cy="1" r="1" transform="translate(327 816)" fill="#fff" opacity="0.538"/></g><g transform="translate(-327 -751)"><circle cx="1" cy="1" r="1" transform="translate(327 816)" fill="#fff" opacity="0.538"/></g><g transform="translate(-315 -751)"><circle cx="1" cy="1" r="1" transform="translate(327 816)" fill="#fff" opacity="0.538"/></g><g transform="translate(-303 -751)"><circle cx="1" cy="1" r="1" transform="translate(327 816)" fill="#fff" opacity="0.538"/></g><g transform="translate(-291 -751)"><circle cx="1" cy="1" r="1" transform="translate(327 816)" fill="#fff" opacity="0.538"/></g><g transform="translate(-279 -751)"><circle cx="1" cy="1" r="1" transform="translate(327 816)" fill="#fff" opacity="0.538"/></g><g transform="translate(-267 -751)"><circle cx="1" cy="1" r="1" transform="translate(327 816)" fill="#fff" opacity="0.538"/></g><g transform="translate(-255 -751)"><circle cx="1" cy="1" r="1" transform="translate(327 816)" fill="#fff" opacity="0.538"/></g><g transform="translate(-243 -751)"><circle cx="1" cy="1" r="1" transform="translate(327 816)" fill="#fff" opacity="0.538"/></g><g transform="translate(-231 -751)"><circle cx="1" cy="1" r="1" transform="translate(327 816)" fill="#fff" opacity="0.538"/></g><g transform="translate(-327 -738)"><circle cx="1" cy="1" r="1" transform="translate(327 816)" fill="#fff" opacity="0.538"/></g><g transform="translate(-315 -738)"><circle cx="1" cy="1" r="1" transform="translate(327 816)" fill="#fff" opacity="0.538"/></g><g transform="translate(-303 -738)"><circle cx="1" cy="1" r="1" transform="translate(327 816)" fill="#fff" opacity="0.538"/></g><g transform="translate(-291 -738)"><circle cx="1" cy="1" r="1" transform="translate(327 816)" fill="#fff" opacity="0.538"/></g><g transform="translate(-279 -738)"><circle cx="1" cy="1" r="1" transform="translate(327 816)" fill="#fff" opacity="0.538"/></g><g transform="translate(-267 -738)"><circle cx="1" cy="1" r="1" transform="translate(327 816)" fill="#fff" opacity="0.538"/></g><g transform="translate(-255 -738)"><circle cx="1" cy="1" r="1" transform="translate(327 816)" fill="#fff" opacity="0.538"/></g><g transform="translate(-243 -738)"><circle cx="1" cy="1" r="1" transform="translate(327 816)" fill="#fff" opacity="0.538"/></g><g transform="translate(-231 -738)"><circle cx="1" cy="1" r="1" transform="translate(327 816)" fill="#fff" opacity="0.538"/></g><g transform="translate(-327 -725)"><circle cx="1" cy="1" r="1" transform="translate(327 816)" fill="#fff" opacity="0.538"/></g><g transform="translate(-315 -725)"><circle cx="1" cy="1" r="1" transform="translate(327 816)" fill="#fff" opacity="0.538"/></g><g transform="translate(-303 -725)"><circle cx="1" cy="1" r="1" transform="translate(327 816)" fill="#fff" opacity="0.538"/></g><g transform="translate(-291 -725)"><circle cx="1" cy="1" r="1" transform="translate(327 816)" fill="#fff" opacity="0.538"/></g><g transform="translate(-279 -725)"><circle cx="1" cy="1" r="1" transform="translate(327 816)" fill="#fff" opacity="0.538"/></g><g transform="translate(-267 -725)"><circle cx="1" cy="1" r="1" transform="translate(327 816)" fill="#fff" opacity="0.538"/></g><g transform="translate(-255 -725)"><circle cx="1" cy="1" r="1" transform="translate(327 816)" fill="#fff" opacity="0.538"/></g><g transform="translate(-243 -725)"><circle cx="1" cy="1" r="1" transform="translate(327 816)" fill="#fff" opacity="0.538"/></g><g transform="translate(-231 -725)"><circle cx="1" cy="1" r="1" transform="translate(327 816)" fill="#fff" opacity="0.538"/></g><g transform="translate(-327 -712)"><circle cx="1" cy="1" r="1" transform="translate(327 816)" fill="#fff" opacity="0.538"/></g><g transform="translate(-315 -712)"><circle cx="1" cy="1" r="1" transform="translate(327 816)" fill="#fff" opacity="0.538"/></g><g transform="translate(-303 -712)"><circle cx="1" cy="1" r="1" transform="translate(327 816)" fill="#fff" opacity="0.538"/></g><g transform="translate(-291 -712)"><circle cx="1" cy="1" r="1" transform="translate(327 816)" fill="#fff" opacity="0.538"/></g><g transform="translate(-279 -712)"><circle cx="1" cy="1" r="1" transform="translate(327 816)" fill="#fff" opacity="0.538"/></g><g transform="translate(-267 -712)"><circle cx="1" cy="1" r="1" transform="translate(327 816)" fill="#fff" opacity="0.538"/></g><g transform="translate(-255 -712)"><circle cx="1" cy="1" r="1" transform="translate(327 816)" fill="#fff" opacity="0.538"/></g><g transform="translate(-243 -712)"><circle cx="1" cy="1" r="1" transform="translate(327 816)" fill="#fff" opacity="0.538"/></g><g transform="translate(-231 -712)"><circle cx="1" cy="1" r="1" transform="translate(327 816)" fill="#fff" opacity="0.538"/></g><g transform="translate(-327 -699)"><circle cx="1" cy="1" r="1" transform="translate(327 816)" fill="#fff" opacity="0.538"/></g><g transform="translate(-315 -699)"><circle cx="1" cy="1" r="1" transform="translate(327 816)" fill="#fff" opacity="0.538"/></g><g transform="translate(-303 -699)"><circle cx="1" cy="1" r="1" transform="translate(327 816)" fill="#fff" opacity="0.538"/></g><g transform="translate(-291 -699)"><circle cx="1" cy="1" r="1" transform="translate(327 816)" fill="#fff" opacity="0.538"/></g><g transform="translate(-279 -699)"><circle cx="1" cy="1" r="1" transform="translate(327 816)" fill="#fff" opacity="0.538"/></g><g transform="translate(-267 -699)"><circle cx="1" cy="1" r="1" transform="translate(327 816)" fill="#fff" opacity="0.538"/></g><g transform="translate(-255 -699)"><circle cx="1" cy="1" r="1" transform="translate(327 816)" fill="#fff" opacity="0.538"/></g><g transform="translate(-243 -699)"><circle cx="1" cy="1" r="1" transform="translate(327 816)" fill="#fff" opacity="0.538"/></g><g transform="translate(-231 -699)"><circle cx="1" cy="1" r="1" transform="translate(327 816)" fill="#fff" opacity="0.538"/></g></g></g></svg>